%TF.GenerationSoftware,KiCad,Pcbnew,7.0.2*%
%TF.CreationDate,2023-05-15T21:07:48+08:00*%
%TF.ProjectId,____,5ffb7408-2e6b-4696-9361-645f70636258,rev?*%
%TF.SameCoordinates,Original*%
%TF.FileFunction,Copper,L2,Bot*%
%TF.FilePolarity,Positive*%
%FSLAX46Y46*%
G04 Gerber Fmt 4.6, Leading zero omitted, Abs format (unit mm)*
G04 Created by KiCad (PCBNEW 7.0.2) date 2023-05-15 21:07:48*
%MOMM*%
%LPD*%
G01*
G04 APERTURE LIST*
%TA.AperFunction,ComponentPad*%
%ADD10R,1.700000X1.700000*%
%TD*%
%TA.AperFunction,ComponentPad*%
%ADD11O,1.700000X1.700000*%
%TD*%
%TA.AperFunction,ComponentPad*%
%ADD12R,1.600000X1.600000*%
%TD*%
%TA.AperFunction,ComponentPad*%
%ADD13O,1.600000X1.600000*%
%TD*%
%TA.AperFunction,ComponentPad*%
%ADD14R,2.100000X2.100000*%
%TD*%
%TA.AperFunction,ComponentPad*%
%ADD15C,2.100000*%
%TD*%
%TA.AperFunction,ComponentPad*%
%ADD16C,1.600000*%
%TD*%
%TA.AperFunction,ComponentPad*%
%ADD17R,1.800000X1.800000*%
%TD*%
%TA.AperFunction,ComponentPad*%
%ADD18C,1.800000*%
%TD*%
%TA.AperFunction,ComponentPad*%
%ADD19R,1.905000X2.000000*%
%TD*%
%TA.AperFunction,ComponentPad*%
%ADD20O,1.905000X2.000000*%
%TD*%
%TA.AperFunction,ViaPad*%
%ADD21C,5.000000*%
%TD*%
%TA.AperFunction,Conductor*%
%ADD22C,0.304800*%
%TD*%
%TA.AperFunction,Conductor*%
%ADD23C,0.762000*%
%TD*%
G04 APERTURE END LIST*
D10*
%TO.P,J14,1,Pin_1*%
%TO.N,/nano_A0*%
X63500000Y-92710000D03*
D11*
%TO.P,J14,2,Pin_2*%
%TO.N,/nano_A1*%
X66040000Y-92710000D03*
%TO.P,J14,3,Pin_3*%
%TO.N,/nano_A2*%
X68580000Y-92710000D03*
%TO.P,J14,4,Pin_4*%
%TO.N,/nano_A3*%
X71120000Y-92710000D03*
%TO.P,J14,5,Pin_5*%
%TO.N,/nano_A6*%
X73660000Y-92710000D03*
%TO.P,J14,6,Pin_6*%
%TO.N,/nano_A7*%
X76200000Y-92710000D03*
%TD*%
D10*
%TO.P,J7,1,Pin_1*%
%TO.N,GND*%
X123190000Y-74930000D03*
D11*
%TO.P,J7,2,Pin_2*%
%TO.N,/esp32_GPI0*%
X125730000Y-74930000D03*
%TD*%
D12*
%TO.P,U7,1,EN1\u002C2*%
%TO.N,/motor5_speed*%
X116840000Y-48260000D03*
D13*
%TO.P,U7,2,1A*%
%TO.N,/motor5_A*%
X116840000Y-50800000D03*
%TO.P,U7,3,1Y*%
%TO.N,/shoot+*%
X116840000Y-53340000D03*
%TO.P,U7,4,GND*%
%TO.N,GND*%
X116840000Y-55880000D03*
%TO.P,U7,5,GND*%
X116840000Y-58420000D03*
%TO.P,U7,6,2Y*%
%TO.N,/shoot-*%
X116840000Y-60960000D03*
%TO.P,U7,7,2A*%
%TO.N,/motor5_B*%
X116840000Y-63500000D03*
%TO.P,U7,8,VCC2*%
%TO.N,+5V*%
X116840000Y-66040000D03*
%TO.P,U7,9,EN3\u002C4*%
%TO.N,/motor6_speed*%
X124460000Y-66040000D03*
%TO.P,U7,10,3A*%
%TO.N,/motor6_A*%
X124460000Y-63500000D03*
%TO.P,U7,11,3Y*%
%TO.N,/tilt+*%
X124460000Y-60960000D03*
%TO.P,U7,12,GND*%
%TO.N,GND*%
X124460000Y-58420000D03*
%TO.P,U7,13,GND*%
X124460000Y-55880000D03*
%TO.P,U7,14,4Y*%
%TO.N,/tilt-*%
X124460000Y-53340000D03*
%TO.P,U7,15,4A*%
%TO.N,/motor6_B*%
X124460000Y-50800000D03*
%TO.P,U7,16,VCC1*%
%TO.N,+12V*%
X124460000Y-48260000D03*
%TD*%
D14*
%TO.P,J16,1,Pin_1*%
%TO.N,/motorRF+*%
X96520000Y-37236400D03*
D15*
%TO.P,J16,2,Pin_2*%
%TO.N,/motorRF-*%
X91520000Y-37236400D03*
%TD*%
D10*
%TO.P,J4,1,Pin_1*%
%TO.N,/nano_RX*%
X111760000Y-74930000D03*
D11*
%TO.P,J4,2,Pin_2*%
%TO.N,/esp32_TX*%
X114300000Y-74930000D03*
%TD*%
D16*
%TO.P,R2,1*%
%TO.N,Net-(D1-K)*%
X42545000Y-84455000D03*
D13*
%TO.P,R2,2*%
%TO.N,GND*%
X42545000Y-74295000D03*
%TD*%
D12*
%TO.P,U3,1,QB*%
%TO.N,/motor1_B*%
X68580000Y-48260000D03*
D13*
%TO.P,U3,2,QC*%
%TO.N,/motor2_A*%
X68580000Y-50800000D03*
%TO.P,U3,3,QD*%
%TO.N,/motor2_B*%
X68580000Y-53340000D03*
%TO.P,U3,4,QE*%
%TO.N,/motor3_A*%
X68580000Y-55880000D03*
%TO.P,U3,5,QF*%
%TO.N,/motor3_B*%
X68580000Y-58420000D03*
%TO.P,U3,6,QG*%
%TO.N,/motor4_A*%
X68580000Y-60960000D03*
%TO.P,U3,7,QH*%
%TO.N,/motor4_B*%
X68580000Y-63500000D03*
%TO.P,U3,8,GND*%
%TO.N,GND*%
X68580000Y-66040000D03*
%TO.P,U3,9,QH'*%
%TO.N,Net-(U3-QH')*%
X76200000Y-66040000D03*
%TO.P,U3,10,~{SRCLR}*%
%TO.N,+5V*%
X76200000Y-63500000D03*
%TO.P,U3,11,SRCLK*%
%TO.N,/595SCLK*%
X76200000Y-60960000D03*
%TO.P,U3,12,RCLK*%
%TO.N,/595RCLK*%
X76200000Y-58420000D03*
%TO.P,U3,13,~{OE}*%
%TO.N,GND*%
X76200000Y-55880000D03*
%TO.P,U3,14,SER*%
%TO.N,/signal_595*%
X76200000Y-53340000D03*
%TO.P,U3,15,QA*%
%TO.N,/motor1_A*%
X76200000Y-50800000D03*
%TO.P,U3,16,VCC*%
%TO.N,+5V*%
X76200000Y-48260000D03*
%TD*%
D10*
%TO.P,J6,1,Pin_1*%
%TO.N,GND*%
X82550000Y-69850000D03*
D11*
%TO.P,J6,2,Pin_2*%
%TO.N,/nano_reset*%
X85090000Y-69850000D03*
%TD*%
D14*
%TO.P,J15,1,Pin_1*%
%TO.N,/motorLF+*%
X73685400Y-37236400D03*
D15*
%TO.P,J15,2,Pin_2*%
%TO.N,/motorLF-*%
X68685400Y-37236400D03*
%TD*%
D12*
%TO.P,C1,1*%
%TO.N,+12V*%
X63500000Y-45760000D03*
D16*
%TO.P,C1,2*%
%TO.N,GND*%
X63500000Y-48260000D03*
%TD*%
D14*
%TO.P,J18,1,Pin_1*%
%TO.N,/motorRB+*%
X51077100Y-37283200D03*
D15*
%TO.P,J18,2,Pin_2*%
%TO.N,/motorRB-*%
X56077100Y-37283200D03*
%TD*%
D17*
%TO.P,D3,1,K*%
%TO.N,Net-(D3-K)*%
X129540000Y-67310000D03*
D18*
%TO.P,D3,2,A*%
%TO.N,/motor6_speed*%
X129540000Y-64770000D03*
%TD*%
D12*
%TO.P,U4,1,QB*%
%TO.N,/motor5_B*%
X108800000Y-66040000D03*
D13*
%TO.P,U4,2,QC*%
%TO.N,/motor6_A*%
X108800000Y-63500000D03*
%TO.P,U4,3,QD*%
%TO.N,/motor6_B*%
X108800000Y-60960000D03*
%TO.P,U4,4,QE*%
%TO.N,unconnected-(U4-QE-Pad4)*%
X108800000Y-58420000D03*
%TO.P,U4,5,QF*%
%TO.N,unconnected-(U4-QF-Pad5)*%
X108800000Y-55880000D03*
%TO.P,U4,6,QG*%
%TO.N,unconnected-(U4-QG-Pad6)*%
X108800000Y-53340000D03*
%TO.P,U4,7,QH*%
%TO.N,unconnected-(U4-QH-Pad7)*%
X108800000Y-50800000D03*
%TO.P,U4,8,GND*%
%TO.N,GND*%
X108800000Y-48260000D03*
%TO.P,U4,9,QH'*%
%TO.N,unconnected-(U4-QH'-Pad9)*%
X101180000Y-48260000D03*
%TO.P,U4,10,~{SRCLR}*%
%TO.N,+5V*%
X101180000Y-50800000D03*
%TO.P,U4,11,SRCLK*%
%TO.N,/595SCLK*%
X101180000Y-53340000D03*
%TO.P,U4,12,RCLK*%
%TO.N,/595RCLK*%
X101180000Y-55880000D03*
%TO.P,U4,13,~{OE}*%
%TO.N,GND*%
X101180000Y-58420000D03*
%TO.P,U4,14,SER*%
%TO.N,Net-(U3-QH')*%
X101180000Y-60960000D03*
%TO.P,U4,15,QA*%
%TO.N,/motor5_A*%
X101180000Y-63500000D03*
%TO.P,U4,16,VCC*%
%TO.N,+5V*%
X101180000Y-66040000D03*
%TD*%
D12*
%TO.P,C2,1*%
%TO.N,+12V*%
X129540000Y-48260000D03*
D16*
%TO.P,C2,2*%
%TO.N,GND*%
X129540000Y-50760000D03*
%TD*%
D10*
%TO.P,J3,1,Pin_1*%
%TO.N,GND*%
X113030000Y-78740000D03*
D11*
%TO.P,J3,2,Pin_2*%
%TO.N,/esp32_TX*%
X115570000Y-78740000D03*
%TO.P,J3,3,Pin_3*%
%TO.N,/esp32_RX*%
X118110000Y-78740000D03*
%TO.P,J3,4,Pin_4*%
%TO.N,unconnected-(J3-Pin_4-Pad4)*%
X120650000Y-78740000D03*
%TO.P,J3,5,Pin_5*%
%TO.N,GND*%
X123190000Y-78740000D03*
%TO.P,J3,6,Pin_6*%
%TO.N,/esp32_GPI0*%
X125730000Y-78740000D03*
%TO.P,J3,7,Pin_7*%
%TO.N,unconnected-(J3-Pin_7-Pad7)*%
X128270000Y-78740000D03*
%TO.P,J3,8,Pin_8*%
%TO.N,unconnected-(J3-Pin_8-Pad8)*%
X130810000Y-78740000D03*
%TD*%
D10*
%TO.P,J11,1,Pin_1*%
%TO.N,/nano_D9*%
X100330000Y-85090000D03*
D11*
%TO.P,J11,2,Pin_2*%
%TO.N,+5V*%
X102870000Y-85090000D03*
%TO.P,J11,3,Pin_3*%
%TO.N,GND*%
X105410000Y-85090000D03*
%TD*%
D16*
%TO.P,R4,1*%
%TO.N,Net-(D3-K)*%
X129540000Y-71120000D03*
D13*
%TO.P,R4,2*%
%TO.N,GND*%
X119380000Y-71120000D03*
%TD*%
D19*
%TO.P,U2,1,VI*%
%TO.N,+12V*%
X40005000Y-71120000D03*
D20*
%TO.P,U2,2,GND*%
%TO.N,GND*%
X42545000Y-71120000D03*
%TO.P,U2,3,VO*%
%TO.N,+5V*%
X45085000Y-71120000D03*
%TD*%
D10*
%TO.P,J2,1,Pin_1*%
%TO.N,+5V*%
X130708400Y-88849200D03*
D11*
%TO.P,J2,2,Pin_2*%
%TO.N,GND*%
X128168400Y-88849200D03*
%TO.P,J2,3,Pin_3*%
%TO.N,unconnected-(J2-Pin_3-Pad3)*%
X125628400Y-88849200D03*
%TO.P,J2,4,Pin_4*%
%TO.N,/SCL*%
X123088400Y-88849200D03*
%TO.P,J2,5,Pin_5*%
%TO.N,/SDA*%
X120548400Y-88849200D03*
%TO.P,J2,6,Pin_6*%
%TO.N,unconnected-(J2-Pin_6-Pad6)*%
X118008400Y-88849200D03*
%TO.P,J2,7,Pin_7*%
%TO.N,unconnected-(J2-Pin_7-Pad7)*%
X115468400Y-88849200D03*
%TO.P,J2,8,Pin_8*%
%TO.N,unconnected-(J2-Pin_8-Pad8)*%
X112928400Y-88849200D03*
%TD*%
D17*
%TO.P,D1,1,K*%
%TO.N,Net-(D1-K)*%
X42545000Y-86995000D03*
D18*
%TO.P,D1,2,A*%
%TO.N,/wheel_speed*%
X42545000Y-89535000D03*
%TD*%
D10*
%TO.P,J12,1,Pin_1*%
%TO.N,/nano_D12*%
X100330000Y-88900000D03*
D11*
%TO.P,J12,2,Pin_2*%
%TO.N,+5V*%
X102870000Y-88900000D03*
%TO.P,J12,3,Pin_3*%
%TO.N,GND*%
X105410000Y-88900000D03*
%TD*%
D12*
%TO.P,A1,1,D1/TX*%
%TO.N,Net-(A1-D1{slash}TX)*%
X90170000Y-73670000D03*
D13*
%TO.P,A1,2,D0/RX*%
%TO.N,/nano_RX*%
X87630000Y-73670000D03*
%TO.P,A1,3,~{RESET}*%
%TO.N,/nano_reset*%
X85090000Y-73670000D03*
%TO.P,A1,4,GND*%
%TO.N,GND*%
X82550000Y-73670000D03*
%TO.P,A1,5,D2*%
%TO.N,/nano_D2*%
X80010000Y-73670000D03*
%TO.P,A1,6,D3*%
%TO.N,/wheel_speed*%
X77470000Y-73670000D03*
%TO.P,A1,7,D4*%
%TO.N,/signal_595*%
X74930000Y-73670000D03*
%TO.P,A1,8,D5*%
%TO.N,/nano_D5*%
X72390000Y-73670000D03*
%TO.P,A1,9,D6*%
%TO.N,/nano_D6*%
X69850000Y-73670000D03*
%TO.P,A1,10,D7*%
%TO.N,/595SCLK*%
X67310000Y-73670000D03*
%TO.P,A1,11,D8*%
%TO.N,/595RCLK*%
X64770000Y-73670000D03*
%TO.P,A1,12,D9*%
%TO.N,/nano_D9*%
X62230000Y-73670000D03*
%TO.P,A1,13,D10*%
%TO.N,/motor5_speed*%
X59690000Y-73670000D03*
%TO.P,A1,14,D11*%
%TO.N,/motor6_speed*%
X57150000Y-73670000D03*
%TO.P,A1,15,D12*%
%TO.N,/nano_D12*%
X54610000Y-73670000D03*
%TO.P,A1,16,D13*%
%TO.N,/nano_D13*%
X54610000Y-88910000D03*
%TO.P,A1,17,3V3*%
%TO.N,unconnected-(A1-3V3-Pad17)*%
X57150000Y-88910000D03*
%TO.P,A1,18,AREF*%
%TO.N,unconnected-(A1-AREF-Pad18)*%
X59690000Y-88910000D03*
%TO.P,A1,19,A0*%
%TO.N,/nano_A0*%
X62230000Y-88910000D03*
%TO.P,A1,20,A1*%
%TO.N,/nano_A1*%
X64770000Y-88910000D03*
%TO.P,A1,21,A2*%
%TO.N,/nano_A2*%
X67310000Y-88910000D03*
%TO.P,A1,22,A3*%
%TO.N,/nano_A3*%
X69850000Y-88910000D03*
%TO.P,A1,23,A4*%
%TO.N,/SDA*%
X72390000Y-88910000D03*
%TO.P,A1,24,A5*%
%TO.N,/SCL*%
X74930000Y-88910000D03*
%TO.P,A1,25,A6*%
%TO.N,/nano_A6*%
X77470000Y-88910000D03*
%TO.P,A1,26,A7*%
%TO.N,/nano_A7*%
X80010000Y-88910000D03*
%TO.P,A1,27,+5V*%
%TO.N,+5V*%
X82550000Y-88910000D03*
%TO.P,A1,28,~{RESET}*%
%TO.N,unconnected-(A1-~{RESET}-Pad28)*%
X85090000Y-88910000D03*
%TO.P,A1,29,GND*%
%TO.N,GND*%
X87630000Y-88910000D03*
%TO.P,A1,30,VIN*%
%TO.N,unconnected-(A1-VIN-Pad30)*%
X90170000Y-88910000D03*
%TD*%
D16*
%TO.P,R3,1*%
%TO.N,Net-(D2-K)*%
X120650000Y-43815000D03*
D13*
%TO.P,R3,2*%
%TO.N,GND*%
X130810000Y-43815000D03*
%TD*%
D16*
%TO.P,R1,1*%
%TO.N,/nano_TX*%
X101600000Y-69850000D03*
D13*
%TO.P,R1,2*%
%TO.N,Net-(A1-D1{slash}TX)*%
X91440000Y-69850000D03*
%TD*%
D12*
%TO.P,C3,1*%
%TO.N,+12V*%
X96520000Y-45720000D03*
D16*
%TO.P,C3,2*%
%TO.N,GND*%
X96520000Y-48220000D03*
%TD*%
D10*
%TO.P,J9,1,Pin_1*%
%TO.N,/nano_D5*%
X100330000Y-77470000D03*
D11*
%TO.P,J9,2,Pin_2*%
%TO.N,+5V*%
X102870000Y-77470000D03*
%TO.P,J9,3,Pin_3*%
%TO.N,GND*%
X105410000Y-77470000D03*
%TD*%
D14*
%TO.P,J20,1,Pin_1*%
%TO.N,/tilt+*%
X131445000Y-60325000D03*
D15*
%TO.P,J20,2,Pin_2*%
%TO.N,/tilt-*%
X131445000Y-55325000D03*
%TD*%
D10*
%TO.P,J10,1,Pin_1*%
%TO.N,/nano_D6*%
X100330000Y-81280000D03*
D11*
%TO.P,J10,2,Pin_2*%
%TO.N,+5V*%
X102870000Y-81280000D03*
%TO.P,J10,3,Pin_3*%
%TO.N,GND*%
X105410000Y-81280000D03*
%TD*%
D12*
%TO.P,U5,1,EN1\u002C2*%
%TO.N,/wheel_speed*%
X50800000Y-48412400D03*
D13*
%TO.P,U5,2,1A*%
%TO.N,/motor3_A*%
X50800000Y-50952400D03*
%TO.P,U5,3,1Y*%
%TO.N,/motorLB+*%
X50800000Y-53492400D03*
%TO.P,U5,4,GND*%
%TO.N,GND*%
X50800000Y-56032400D03*
%TO.P,U5,5,GND*%
X50800000Y-58572400D03*
%TO.P,U5,6,2Y*%
%TO.N,/motorLB-*%
X50800000Y-61112400D03*
%TO.P,U5,7,2A*%
%TO.N,/motor3_B*%
X50800000Y-63652400D03*
%TO.P,U5,8,VCC2*%
%TO.N,+5V*%
X50800000Y-66192400D03*
%TO.P,U5,9,EN3\u002C4*%
%TO.N,/wheel_speed*%
X58420000Y-66192400D03*
%TO.P,U5,10,3A*%
%TO.N,/motor4_A*%
X58420000Y-63652400D03*
%TO.P,U5,11,3Y*%
%TO.N,/motorRB+*%
X58420000Y-61112400D03*
%TO.P,U5,12,GND*%
%TO.N,GND*%
X58420000Y-58572400D03*
%TO.P,U5,13,GND*%
X58420000Y-56032400D03*
%TO.P,U5,14,4Y*%
%TO.N,/motorRB-*%
X58420000Y-53492400D03*
%TO.P,U5,15,4A*%
%TO.N,/motor4_B*%
X58420000Y-50952400D03*
%TO.P,U5,16,VCC1*%
%TO.N,+12V*%
X58420000Y-48412400D03*
%TD*%
D10*
%TO.P,J13,1,Pin_1*%
%TO.N,/nano_D13*%
X100330000Y-92710000D03*
D11*
%TO.P,J13,2,Pin_2*%
%TO.N,+5V*%
X102870000Y-92710000D03*
%TO.P,J13,3,Pin_3*%
%TO.N,GND*%
X105410000Y-92710000D03*
%TD*%
D14*
%TO.P,J17,1,Pin_1*%
%TO.N,/motorLB+*%
X42545000Y-43220000D03*
D15*
%TO.P,J17,2,Pin_2*%
%TO.N,/motorLB-*%
X42545000Y-48220000D03*
%TD*%
D12*
%TO.P,U6,1,EN1\u002C2*%
%TO.N,/wheel_speed*%
X83820000Y-48260000D03*
D13*
%TO.P,U6,2,1A*%
%TO.N,/motor1_A*%
X83820000Y-50800000D03*
%TO.P,U6,3,1Y*%
%TO.N,/motorLF+*%
X83820000Y-53340000D03*
%TO.P,U6,4,GND*%
%TO.N,GND*%
X83820000Y-55880000D03*
%TO.P,U6,5,GND*%
X83820000Y-58420000D03*
%TO.P,U6,6,2Y*%
%TO.N,/motorLF-*%
X83820000Y-60960000D03*
%TO.P,U6,7,2A*%
%TO.N,/motor1_B*%
X83820000Y-63500000D03*
%TO.P,U6,8,VCC2*%
%TO.N,+5V*%
X83820000Y-66040000D03*
%TO.P,U6,9,EN3\u002C4*%
%TO.N,/wheel_speed*%
X91440000Y-66040000D03*
%TO.P,U6,10,3A*%
%TO.N,/motor2_A*%
X91440000Y-63500000D03*
%TO.P,U6,11,3Y*%
%TO.N,/motorRF+*%
X91440000Y-60960000D03*
%TO.P,U6,12,GND*%
%TO.N,GND*%
X91440000Y-58420000D03*
%TO.P,U6,13,GND*%
X91440000Y-55880000D03*
%TO.P,U6,14,4Y*%
%TO.N,/motorRF-*%
X91440000Y-53340000D03*
%TO.P,U6,15,4A*%
%TO.N,/motor2_B*%
X91440000Y-50800000D03*
%TO.P,U6,16,VCC1*%
%TO.N,+12V*%
X91440000Y-48260000D03*
%TD*%
D10*
%TO.P,J5,1,Pin_1*%
%TO.N,/nano_TX*%
X111125000Y-71120000D03*
D11*
%TO.P,J5,2,Pin_2*%
%TO.N,/esp32_RX*%
X113665000Y-71120000D03*
%TD*%
D14*
%TO.P,J1,1,Pin_1*%
%TO.N,+12V*%
X42545000Y-55880000D03*
D15*
%TO.P,J1,2,Pin_2*%
%TO.N,GND*%
X42545000Y-60880000D03*
%TD*%
D17*
%TO.P,D2,1,K*%
%TO.N,Net-(D2-K)*%
X121925000Y-39370000D03*
D18*
%TO.P,D2,2,A*%
%TO.N,/motor5_speed*%
X119385000Y-39370000D03*
%TD*%
D14*
%TO.P,J19,1,Pin_1*%
%TO.N,/shoot+*%
X115337600Y-37617400D03*
D15*
%TO.P,J19,2,Pin_2*%
%TO.N,/shoot-*%
X110337600Y-37617400D03*
%TD*%
D10*
%TO.P,J8,1,Pin_1*%
%TO.N,/nano_D2*%
X100330000Y-73660000D03*
D11*
%TO.P,J8,2,Pin_2*%
%TO.N,+5V*%
X102870000Y-73660000D03*
%TO.P,J8,3,Pin_3*%
%TO.N,GND*%
X105410000Y-73660000D03*
%TD*%
D21*
%TO.N,*%
X41275000Y-93980000D03*
X41275000Y-36195000D03*
X132715000Y-93980000D03*
X132715000Y-36195000D03*
%TD*%
D22*
%TO.N,/motor5_speed*%
X110998000Y-52070000D02*
X114808000Y-48260000D01*
X107941130Y-52070000D02*
X110998000Y-52070000D01*
X105410000Y-54601130D02*
X107941130Y-52070000D01*
X105410000Y-59690000D02*
X105410000Y-54601130D01*
X114808000Y-48260000D02*
X116840000Y-48260000D01*
X102870000Y-62230000D02*
X105410000Y-59690000D01*
X99138896Y-62230000D02*
X102870000Y-62230000D01*
X90170000Y-64770000D02*
X96598896Y-64770000D01*
X88900000Y-66040000D02*
X90170000Y-64770000D01*
X74295000Y-71120000D02*
X85725000Y-71120000D01*
X71120000Y-76835000D02*
X73660000Y-74295000D01*
X62855000Y-76835000D02*
X71120000Y-76835000D01*
X73660000Y-71755000D02*
X74295000Y-71120000D01*
X73660000Y-74295000D02*
X73660000Y-71755000D01*
X85725000Y-71120000D02*
X88900000Y-67945000D01*
X96598896Y-64770000D02*
X99138896Y-62230000D01*
X59690000Y-73670000D02*
X62855000Y-76835000D01*
X88900000Y-67945000D02*
X88900000Y-66040000D01*
D23*
%TO.N,+5V*%
X68580000Y-71120000D02*
X66675000Y-71120000D01*
X72390000Y-67310000D02*
X68580000Y-71120000D01*
X72390000Y-65405000D02*
X72390000Y-67310000D01*
X74295000Y-65405000D02*
X72390000Y-65405000D01*
X76200000Y-63500000D02*
X74295000Y-65405000D01*
D22*
%TO.N,/wheel_speed*%
X77470000Y-73406000D02*
X77470000Y-73670000D01*
X78740000Y-72136000D02*
X77470000Y-73406000D01*
X86614000Y-72136000D02*
X78740000Y-72136000D01*
X91440000Y-67310000D02*
X86614000Y-72136000D01*
X91440000Y-66040000D02*
X91440000Y-67310000D01*
%TO.N,/motor3_A*%
X66675000Y-55880000D02*
X68580000Y-55880000D01*
X66040000Y-55245000D02*
X66675000Y-55880000D01*
X66040000Y-48260000D02*
X66040000Y-55245000D01*
X60960000Y-49165000D02*
X60960000Y-47752000D01*
X64887600Y-47107600D02*
X66040000Y-48260000D01*
X60325000Y-49800000D02*
X60960000Y-49165000D01*
X60960000Y-47752000D02*
X61604400Y-47107600D01*
X51952400Y-49800000D02*
X60325000Y-49800000D01*
X50800000Y-50952400D02*
X51952400Y-49800000D01*
X61604400Y-47107600D02*
X64887600Y-47107600D01*
D23*
%TO.N,+12V*%
X63500000Y-44704000D02*
X64556000Y-44704000D01*
X54711600Y-44704000D02*
X63500000Y-44704000D01*
X40005000Y-53975000D02*
X40005000Y-54610000D01*
X54711600Y-44704000D02*
X49276000Y-44704000D01*
X58420000Y-48412400D02*
X54711600Y-44704000D01*
X49276000Y-44704000D02*
X40005000Y-53975000D01*
X95504000Y-44704000D02*
X97536000Y-44704000D01*
X91440000Y-46037500D02*
X92773500Y-44704000D01*
X91440000Y-48260000D02*
X91440000Y-46037500D01*
X92773500Y-44704000D02*
X93091000Y-44704000D01*
X93091000Y-44704000D02*
X91059000Y-44704000D01*
X91059000Y-44704000D02*
X64556000Y-44704000D01*
X64556000Y-44704000D02*
X63500000Y-45760000D01*
X95504000Y-44704000D02*
X96520000Y-45720000D01*
X93091000Y-44704000D02*
X95504000Y-44704000D01*
X117856000Y-44704000D02*
X97536000Y-44704000D01*
X124460000Y-48260000D02*
X121412000Y-48260000D01*
X121412000Y-48260000D02*
X117856000Y-44704000D01*
D22*
%TO.N,Net-(A1-D1{slash}TX)*%
X90170000Y-71120000D02*
X91440000Y-69850000D01*
X90170000Y-73670000D02*
X90170000Y-71120000D01*
%TO.N,/nano_RX*%
X94615000Y-74930000D02*
X98425000Y-71120000D01*
X88890000Y-74930000D02*
X94615000Y-74930000D01*
X107950000Y-71120000D02*
X111760000Y-74930000D01*
X87630000Y-73670000D02*
X88890000Y-74930000D01*
X98425000Y-71120000D02*
X107950000Y-71120000D01*
D23*
%TO.N,GND*%
X82550000Y-83830000D02*
X87630000Y-88910000D01*
X96520000Y-50800000D02*
X91440000Y-55880000D01*
X63500000Y-48260000D02*
X63500000Y-50952400D01*
X124460000Y-58420000D02*
X116840000Y-58420000D01*
X116840000Y-55880000D02*
X116840000Y-58420000D01*
X129540000Y-50760000D02*
X131609999Y-48690001D01*
X76200000Y-55880000D02*
X83820000Y-55880000D01*
X107419000Y-46879000D02*
X97861000Y-46879000D01*
X50800000Y-58572400D02*
X50800000Y-56032400D01*
X119380000Y-71120000D02*
X123190000Y-74930000D01*
X131609999Y-48690001D02*
X131609999Y-44614999D01*
X83820000Y-55880000D02*
X91440000Y-55880000D01*
X50800000Y-58572400D02*
X44932600Y-58572400D01*
X50800000Y-56032400D02*
X58420000Y-56032400D01*
X123190000Y-74930000D02*
X123190000Y-78740000D01*
X129540000Y-50760000D02*
X129540000Y-50800000D01*
X44932600Y-58572400D02*
X42545000Y-60960000D01*
X131609999Y-44614999D02*
X130810000Y-43815000D01*
X105410000Y-78740000D02*
X105410000Y-73660000D01*
X108800000Y-48260000D02*
X107419000Y-46879000D01*
X82550000Y-73670000D02*
X82550000Y-83830000D01*
X58420000Y-56032400D02*
X58420000Y-58572400D01*
X129540000Y-50800000D02*
X124460000Y-55880000D01*
X113030000Y-78740000D02*
X105410000Y-78740000D01*
X124460000Y-55880000D02*
X124460000Y-58420000D01*
X105410000Y-92710000D02*
X105410000Y-78740000D01*
X42545000Y-60960000D02*
X42545000Y-71120000D01*
X96520000Y-48220000D02*
X96520000Y-50800000D01*
X97861000Y-46879000D02*
X96520000Y-48220000D01*
X63500000Y-50952400D02*
X58420000Y-56032400D01*
D22*
%TO.N,/wheel_speed*%
X42545000Y-89535000D02*
X53975000Y-78105000D01*
X53975000Y-78105000D02*
X73035000Y-78105000D01*
X73035000Y-78105000D02*
X77470000Y-73670000D01*
%TO.N,/595SCLK*%
X101180000Y-53340000D02*
X103505000Y-55665000D01*
X103505000Y-55665000D02*
X103505000Y-59055000D01*
X77470000Y-59690000D02*
X76200000Y-60960000D01*
X103505000Y-59055000D02*
X102870000Y-59690000D01*
X102870000Y-59690000D02*
X77470000Y-59690000D01*
%TO.N,/595RCLK*%
X101180000Y-55880000D02*
X100027600Y-57032400D01*
X77587600Y-57032400D02*
X76200000Y-58420000D01*
X100027600Y-57032400D02*
X77587600Y-57032400D01*
%TO.N,/motor6_speed*%
X129540000Y-64770000D02*
X125730000Y-64770000D01*
X125730000Y-64770000D02*
X124460000Y-66040000D01*
%TO.N,/nano_A0*%
X62230000Y-91440000D02*
X63500000Y-92710000D01*
X62230000Y-88910000D02*
X62230000Y-91440000D01*
%TO.N,/nano_A1*%
X64770000Y-88910000D02*
X64770000Y-91440000D01*
X64770000Y-91440000D02*
X66040000Y-92710000D01*
%TO.N,/nano_A2*%
X67310000Y-88910000D02*
X67310000Y-91440000D01*
X67310000Y-91440000D02*
X68580000Y-92710000D01*
%TO.N,/nano_A3*%
X69850000Y-91440000D02*
X71120000Y-92710000D01*
X69850000Y-88910000D02*
X69850000Y-91440000D01*
%TO.N,/nano_A6*%
X77470000Y-88265000D02*
X77470000Y-88910000D01*
X73660000Y-87630000D02*
X74295000Y-86995000D01*
X73660000Y-92710000D02*
X73660000Y-87630000D01*
X76200000Y-86995000D02*
X74295000Y-86995000D01*
X76200000Y-86995000D02*
X77470000Y-88265000D01*
%TO.N,/nano_A7*%
X76200000Y-92710000D02*
X80000000Y-88910000D01*
X80000000Y-88910000D02*
X80010000Y-88910000D01*
D23*
%TO.N,+5V*%
X133350000Y-75565000D02*
X131284000Y-73499000D01*
X101180000Y-66040000D02*
X103085000Y-67945000D01*
X128109000Y-73499000D02*
X126365000Y-71755000D01*
X118110000Y-66040000D02*
X116840000Y-66040000D01*
X84445000Y-90805000D02*
X82550000Y-88910000D01*
X73025000Y-69215000D02*
X71120000Y-71120000D01*
X71120000Y-71120000D02*
X66675000Y-71120000D01*
X114935000Y-67945000D02*
X116840000Y-66040000D01*
X83820000Y-66040000D02*
X81915000Y-66040000D01*
X102870000Y-90805000D02*
X84445000Y-90805000D01*
X102870000Y-73660000D02*
X102870000Y-90805000D01*
X123825000Y-71755000D02*
X118110000Y-66040000D01*
X102870000Y-90805000D02*
X102870000Y-92710000D01*
X81915000Y-66040000D02*
X78740000Y-69215000D01*
X130860800Y-88849200D02*
X133350000Y-86360000D01*
X133350000Y-86360000D02*
X133350000Y-75565000D01*
X78740000Y-69215000D02*
X73025000Y-69215000D01*
X45085000Y-71120000D02*
X48260000Y-71120000D01*
X76200000Y-48260000D02*
X72390000Y-52070000D01*
X72390000Y-52070000D02*
X72390000Y-65405000D01*
X48260000Y-71120000D02*
X50800000Y-68580000D01*
X126365000Y-71755000D02*
X123825000Y-71755000D01*
X103085000Y-67945000D02*
X114935000Y-67945000D01*
X130708400Y-88849200D02*
X130860800Y-88849200D01*
X66675000Y-71120000D02*
X45085000Y-71120000D01*
X131284000Y-73499000D02*
X128109000Y-73499000D01*
X50800000Y-68580000D02*
X50800000Y-66192400D01*
%TO.N,+12V*%
X40005000Y-54610000D02*
X40005000Y-71120000D01*
X41275000Y-54610000D02*
X42545000Y-55880000D01*
X40005000Y-54610000D02*
X41275000Y-54610000D01*
X129540000Y-48260000D02*
X124460000Y-48260000D01*
D22*
%TO.N,/motor1_A*%
X76200000Y-50800000D02*
X83820000Y-50800000D01*
%TO.N,/motor2_B*%
X70485000Y-48659800D02*
X72154800Y-46990000D01*
X70485000Y-51435000D02*
X70485000Y-48659800D01*
X72154800Y-46990000D02*
X87630000Y-46990000D01*
X68580000Y-53340000D02*
X70485000Y-51435000D01*
X87630000Y-46990000D02*
X91440000Y-50800000D01*
%TO.N,/motor3_B*%
X50800000Y-63652400D02*
X51952400Y-62500000D01*
X51952400Y-62500000D02*
X64500000Y-62500000D01*
X64500000Y-62500000D02*
X68580000Y-58420000D01*
%TO.N,/motor4_A*%
X58420000Y-63652400D02*
X65887600Y-63652400D01*
X65887600Y-63652400D02*
X68580000Y-60960000D01*
%TO.N,/motor5_B*%
X116840000Y-63500000D02*
X114300000Y-66040000D01*
X114300000Y-66040000D02*
X108800000Y-66040000D01*
%TO.N,/motor6_A*%
X123307600Y-62347600D02*
X124460000Y-63500000D01*
X108800000Y-63500000D02*
X109952400Y-62347600D01*
X109952400Y-62347600D02*
X123307600Y-62347600D01*
%TO.N,/motor6_B*%
X124460000Y-50800000D02*
X118745000Y-50800000D01*
X118745000Y-50800000D02*
X117475000Y-49530000D01*
X117475000Y-49530000D02*
X116480260Y-49530000D01*
X111760000Y-58420000D02*
X111125000Y-59055000D01*
X116480260Y-49530000D02*
X111760000Y-54250260D01*
X111760000Y-54250260D02*
X111760000Y-58420000D01*
X111125000Y-59055000D02*
X110705000Y-59055000D01*
X110705000Y-59055000D02*
X108800000Y-60960000D01*
%TO.N,/motor5_A*%
X110429740Y-60960000D02*
X109159740Y-62230000D01*
X113030000Y-60960000D02*
X110429740Y-60960000D01*
X114300000Y-59690000D02*
X113030000Y-60960000D01*
X109159740Y-62230000D02*
X106045000Y-62230000D01*
X116840000Y-50800000D02*
X114300000Y-53340000D01*
X114300000Y-53340000D02*
X114300000Y-59690000D01*
X104775000Y-63500000D02*
X101180000Y-63500000D01*
X106045000Y-62230000D02*
X104775000Y-63500000D01*
D23*
%TO.N,/tilt+*%
X124460000Y-60960000D02*
X130810000Y-60960000D01*
X130810000Y-60960000D02*
X131445000Y-60325000D01*
D22*
%TO.N,Net-(D2-K)*%
X121920000Y-39375000D02*
X121920000Y-41910000D01*
X121920000Y-41910000D02*
X120650000Y-43180000D01*
X121925000Y-39370000D02*
X121920000Y-39375000D01*
%TO.N,Net-(D3-K)*%
X129540000Y-71120000D02*
X129540000Y-67310000D01*
D23*
%TO.N,/esp32_GPI0*%
X125730000Y-78740000D02*
X125730000Y-74930000D01*
D22*
%TO.N,/nano_TX*%
X109855000Y-69850000D02*
X101600000Y-69850000D01*
X111125000Y-71120000D02*
X109855000Y-69850000D01*
%TO.N,/esp32_RX*%
X114300000Y-71120000D02*
X118110000Y-74930000D01*
X118110000Y-74930000D02*
X118110000Y-78740000D01*
X113665000Y-71120000D02*
X114300000Y-71120000D01*
%TO.N,/esp32_TX*%
X114300000Y-74930000D02*
X115570000Y-76200000D01*
X115570000Y-76200000D02*
X115570000Y-78740000D01*
%TO.N,Net-(U3-QH')*%
X95250000Y-62230000D02*
X83185000Y-62230000D01*
X101180000Y-60960000D02*
X96520000Y-60960000D01*
X96520000Y-60960000D02*
X95250000Y-62230000D01*
X79375000Y-66040000D02*
X76200000Y-66040000D01*
X83185000Y-62230000D02*
X79375000Y-66040000D01*
%TO.N,/SDA*%
X116205000Y-95885000D02*
X120548400Y-91541600D01*
X120548400Y-91541600D02*
X120548400Y-88849200D01*
X74295000Y-95885000D02*
X116205000Y-95885000D01*
X72390000Y-88910000D02*
X72390000Y-93980000D01*
X72390000Y-93980000D02*
X74295000Y-95885000D01*
%TO.N,/SCL*%
X119210800Y-91609200D02*
X115570000Y-95250000D01*
X121886000Y-87646800D02*
X120050349Y-87646800D01*
X123088400Y-88849200D02*
X121886000Y-87646800D01*
X74930000Y-93980000D02*
X74930000Y-88910000D01*
X115570000Y-95250000D02*
X76200000Y-95250000D01*
X119210800Y-88486349D02*
X119210800Y-91609200D01*
X76200000Y-95250000D02*
X74930000Y-93980000D01*
X120050349Y-87646800D02*
X119210800Y-88486349D01*
%TD*%
M02*
