%TF.GenerationSoftware,KiCad,Pcbnew,7.0.2*%
%TF.CreationDate,2023-05-15T21:07:48+08:00*%
%TF.ProjectId,____,5ffb7408-2e6b-4696-9361-645f70636258,rev?*%
%TF.SameCoordinates,Original*%
%TF.FileFunction,Legend,Bot*%
%TF.FilePolarity,Positive*%
%FSLAX46Y46*%
G04 Gerber Fmt 4.6, Leading zero omitted, Abs format (unit mm)*
G04 Created by KiCad (PCBNEW 7.0.2) date 2023-05-15 21:07:48*
%MOMM*%
%LPD*%
G01*
G04 APERTURE LIST*
%ADD10C,0.150000*%
G04 APERTURE END LIST*
D10*
G36*
X77367405Y-81735231D02*
G01*
X77384996Y-81734859D01*
X77402049Y-81733743D01*
X77418564Y-81731882D01*
X77434541Y-81729278D01*
X77449980Y-81725929D01*
X77464881Y-81721836D01*
X77479243Y-81716999D01*
X77493068Y-81711417D01*
X77506354Y-81705092D01*
X77519103Y-81698022D01*
X77531313Y-81690208D01*
X77542985Y-81681650D01*
X77554119Y-81672348D01*
X77564715Y-81662302D01*
X77574773Y-81651511D01*
X77584293Y-81639976D01*
X77593225Y-81627689D01*
X77601580Y-81614701D01*
X77609360Y-81601013D01*
X77616563Y-81586625D01*
X77623190Y-81571536D01*
X77629241Y-81555747D01*
X77634715Y-81539258D01*
X77639614Y-81522068D01*
X77643936Y-81504178D01*
X77647681Y-81485588D01*
X77650851Y-81466298D01*
X77652219Y-81456390D01*
X77653444Y-81446307D01*
X77654524Y-81436049D01*
X77655461Y-81425616D01*
X77656253Y-81415008D01*
X77656901Y-81404225D01*
X77657406Y-81393266D01*
X77657766Y-81382133D01*
X77657982Y-81370825D01*
X77658054Y-81359341D01*
X77657982Y-81347419D01*
X77657766Y-81335678D01*
X77657406Y-81324120D01*
X77656901Y-81312744D01*
X77656253Y-81301551D01*
X77655461Y-81290539D01*
X77654524Y-81279710D01*
X77653444Y-81269063D01*
X77652219Y-81258598D01*
X77650851Y-81248316D01*
X77649338Y-81238215D01*
X77647681Y-81228297D01*
X77645880Y-81218562D01*
X77641847Y-81199637D01*
X77637237Y-81181440D01*
X77632050Y-81163973D01*
X77626288Y-81147235D01*
X77619949Y-81131226D01*
X77613034Y-81115945D01*
X77605542Y-81101394D01*
X77597475Y-81087571D01*
X77588831Y-81074477D01*
X77584293Y-81068204D01*
X77574773Y-81056225D01*
X77564715Y-81045020D01*
X77554119Y-81034587D01*
X77542985Y-81024927D01*
X77531313Y-81016040D01*
X77519103Y-81007925D01*
X77506354Y-81000584D01*
X77493068Y-80994015D01*
X77479243Y-80988219D01*
X77464881Y-80983196D01*
X77449980Y-80978945D01*
X77434541Y-80975468D01*
X77418564Y-80972763D01*
X77402049Y-80970831D01*
X77384996Y-80969672D01*
X77367405Y-80969285D01*
X77357327Y-80969438D01*
X77347488Y-80969896D01*
X77333176Y-80971155D01*
X77319401Y-80973102D01*
X77306162Y-80975735D01*
X77293460Y-80979055D01*
X77281295Y-80983062D01*
X77269667Y-80987756D01*
X77258575Y-80993137D01*
X77248020Y-80999205D01*
X77238001Y-81005960D01*
X77234781Y-81008364D01*
X77225535Y-81015916D01*
X77217032Y-81024009D01*
X77209272Y-81032643D01*
X77202255Y-81041818D01*
X77195980Y-81051534D01*
X77190448Y-81061791D01*
X77185659Y-81072588D01*
X77181612Y-81083927D01*
X77178309Y-81095807D01*
X77175748Y-81108227D01*
X77174453Y-81116808D01*
X77118033Y-81116808D01*
X77160775Y-81327101D01*
X77160949Y-81313029D01*
X77161470Y-81299387D01*
X77162338Y-81286177D01*
X77163554Y-81273398D01*
X77165117Y-81261051D01*
X77167027Y-81249134D01*
X77169284Y-81237649D01*
X77171889Y-81226595D01*
X77174840Y-81215973D01*
X77178140Y-81205781D01*
X77181786Y-81196021D01*
X77185780Y-81186692D01*
X77190121Y-81177794D01*
X77197284Y-81165256D01*
X77205228Y-81153689D01*
X77213882Y-81143082D01*
X77223265Y-81133519D01*
X77233379Y-81124999D01*
X77244223Y-81117522D01*
X77255796Y-81111088D01*
X77268099Y-81105698D01*
X77281132Y-81101351D01*
X77294895Y-81098047D01*
X77309388Y-81095787D01*
X77319456Y-81094859D01*
X77329847Y-81094396D01*
X77335165Y-81094338D01*
X77345990Y-81094599D01*
X77356483Y-81095383D01*
X77366644Y-81096691D01*
X77376472Y-81098520D01*
X77385969Y-81100873D01*
X77399592Y-81105383D01*
X77412468Y-81111068D01*
X77424596Y-81117931D01*
X77435978Y-81125969D01*
X77446613Y-81135184D01*
X77456500Y-81145575D01*
X77462677Y-81153156D01*
X77468521Y-81161260D01*
X77473993Y-81169877D01*
X77479112Y-81178995D01*
X77483877Y-81188615D01*
X77488290Y-81198736D01*
X77492349Y-81209360D01*
X77496056Y-81220485D01*
X77499410Y-81232113D01*
X77502410Y-81244242D01*
X77505058Y-81256873D01*
X77507352Y-81270006D01*
X77509294Y-81283640D01*
X77510882Y-81297777D01*
X77512118Y-81312415D01*
X77513000Y-81327555D01*
X77513530Y-81343197D01*
X77513706Y-81359341D01*
X77513530Y-81374614D01*
X77513000Y-81389414D01*
X77512118Y-81403740D01*
X77510882Y-81417593D01*
X77509294Y-81430973D01*
X77507352Y-81443880D01*
X77505058Y-81456313D01*
X77502410Y-81468274D01*
X77499410Y-81479761D01*
X77496056Y-81490774D01*
X77492349Y-81501315D01*
X77488290Y-81511382D01*
X77483877Y-81520977D01*
X77479112Y-81530098D01*
X77473993Y-81538745D01*
X77468521Y-81546920D01*
X77459630Y-81558225D01*
X77449991Y-81568418D01*
X77439606Y-81577499D01*
X77428473Y-81585468D01*
X77416594Y-81592325D01*
X77403967Y-81598071D01*
X77390593Y-81602704D01*
X77376472Y-81606225D01*
X77366644Y-81607955D01*
X77356483Y-81609190D01*
X77345990Y-81609932D01*
X77335165Y-81610179D01*
X77324611Y-81609948D01*
X77314381Y-81609255D01*
X77304476Y-81608101D01*
X77290227Y-81605503D01*
X77276707Y-81601867D01*
X77263917Y-81597191D01*
X77251857Y-81591477D01*
X77240527Y-81584724D01*
X77229927Y-81576931D01*
X77220056Y-81568100D01*
X77210916Y-81558229D01*
X77205228Y-81551072D01*
X77197284Y-81539461D01*
X77190121Y-81526883D01*
X77185780Y-81517962D01*
X77181786Y-81508611D01*
X77178140Y-81498831D01*
X77174840Y-81488621D01*
X77171889Y-81477982D01*
X77169284Y-81466914D01*
X77167027Y-81455417D01*
X77165117Y-81443490D01*
X77163554Y-81431133D01*
X77162338Y-81418348D01*
X77161470Y-81405133D01*
X77160949Y-81391489D01*
X77160775Y-81377415D01*
X77111194Y-81587708D01*
X77174453Y-81587708D01*
X77176126Y-81600492D01*
X77178580Y-81612738D01*
X77181816Y-81624449D01*
X77185833Y-81635622D01*
X77190632Y-81646259D01*
X77196212Y-81656359D01*
X77202573Y-81665922D01*
X77209716Y-81674949D01*
X77217640Y-81683439D01*
X77226345Y-81691392D01*
X77232583Y-81696396D01*
X77242442Y-81703337D01*
X77252876Y-81709594D01*
X77263886Y-81715169D01*
X77275470Y-81720061D01*
X77287631Y-81724271D01*
X77300366Y-81727798D01*
X77313677Y-81730642D01*
X77327563Y-81732804D01*
X77342024Y-81734283D01*
X77351985Y-81734890D01*
X77362201Y-81735193D01*
X77367405Y-81735231D01*
G37*
G36*
X77145632Y-81726438D02*
G01*
X77160775Y-81583556D01*
X77160775Y-80687918D01*
X77014963Y-80687918D01*
X77014963Y-81719600D01*
X77145632Y-81726438D01*
G37*
G36*
X76422185Y-81735231D02*
G01*
X76433734Y-81735134D01*
X76445118Y-81734844D01*
X76456336Y-81734359D01*
X76467389Y-81733682D01*
X76478276Y-81732810D01*
X76488998Y-81731745D01*
X76499554Y-81730486D01*
X76509945Y-81729033D01*
X76520170Y-81727387D01*
X76530229Y-81725547D01*
X76540123Y-81723514D01*
X76549852Y-81721286D01*
X76559415Y-81718865D01*
X76578044Y-81713442D01*
X76596011Y-81707245D01*
X76613316Y-81700272D01*
X76629959Y-81692525D01*
X76645939Y-81684003D01*
X76661258Y-81674707D01*
X76675915Y-81664636D01*
X76689909Y-81653790D01*
X76703241Y-81642169D01*
X76709659Y-81636068D01*
X76721904Y-81623305D01*
X76733358Y-81609866D01*
X76744023Y-81595751D01*
X76753897Y-81580961D01*
X76762982Y-81565496D01*
X76771277Y-81549355D01*
X76778782Y-81532538D01*
X76785496Y-81515046D01*
X76791421Y-81496879D01*
X76796556Y-81478036D01*
X76798827Y-81468361D01*
X76800901Y-81458517D01*
X76802777Y-81448505D01*
X76804456Y-81438323D01*
X76805937Y-81427973D01*
X76807221Y-81417454D01*
X76808307Y-81406766D01*
X76809196Y-81395909D01*
X76809887Y-81384883D01*
X76810381Y-81373689D01*
X76810677Y-81362325D01*
X76810775Y-81350793D01*
X76810692Y-81339560D01*
X76810441Y-81328486D01*
X76810022Y-81317569D01*
X76809436Y-81306810D01*
X76808682Y-81296209D01*
X76807762Y-81285766D01*
X76806673Y-81275481D01*
X76805417Y-81265354D01*
X76803994Y-81255384D01*
X76802403Y-81245573D01*
X76800645Y-81235919D01*
X76796627Y-81217086D01*
X76791939Y-81198884D01*
X76786580Y-81181314D01*
X76780553Y-81164375D01*
X76773855Y-81148068D01*
X76766488Y-81132393D01*
X76758451Y-81117349D01*
X76749744Y-81102937D01*
X76740367Y-81089156D01*
X76730321Y-81076007D01*
X76725046Y-81069669D01*
X76714024Y-81057513D01*
X76702450Y-81046142D01*
X76690325Y-81035554D01*
X76677648Y-81025751D01*
X76664420Y-81016733D01*
X76650640Y-81008498D01*
X76636309Y-81001048D01*
X76621426Y-80994381D01*
X76605992Y-80988500D01*
X76590007Y-80983402D01*
X76573470Y-80979089D01*
X76556381Y-80975559D01*
X76538741Y-80972815D01*
X76520550Y-80970854D01*
X76501807Y-80969678D01*
X76482513Y-80969285D01*
X76464305Y-80969634D01*
X76446621Y-80970678D01*
X76429462Y-80972420D01*
X76412828Y-80974857D01*
X76396718Y-80977991D01*
X76381133Y-80981822D01*
X76366073Y-80986349D01*
X76351538Y-80991573D01*
X76337527Y-80997493D01*
X76324041Y-81004109D01*
X76311080Y-81011422D01*
X76298644Y-81019432D01*
X76286732Y-81028138D01*
X76275346Y-81037540D01*
X76264483Y-81047639D01*
X76254146Y-81058434D01*
X76244356Y-81069893D01*
X76235198Y-81081984D01*
X76226672Y-81094707D01*
X76218777Y-81108061D01*
X76211513Y-81122047D01*
X76204882Y-81136664D01*
X76198881Y-81151913D01*
X76193513Y-81167794D01*
X76188776Y-81184306D01*
X76184670Y-81201450D01*
X76181197Y-81219225D01*
X76178354Y-81237632D01*
X76176144Y-81256671D01*
X76175275Y-81266427D01*
X76174565Y-81276341D01*
X76174012Y-81286413D01*
X76173617Y-81296642D01*
X76173381Y-81307030D01*
X76173302Y-81317576D01*
X76173367Y-81329986D01*
X76173561Y-81342183D01*
X76173886Y-81354166D01*
X76174340Y-81365936D01*
X76174924Y-81377492D01*
X76175637Y-81388834D01*
X76176481Y-81399962D01*
X76177454Y-81410877D01*
X76688654Y-81410877D01*
X76688654Y-81297548D01*
X76305193Y-81297548D01*
X76305376Y-81285693D01*
X76305926Y-81274188D01*
X76306841Y-81263032D01*
X76308124Y-81252226D01*
X76309772Y-81241768D01*
X76311787Y-81231660D01*
X76314169Y-81221900D01*
X76316916Y-81212490D01*
X76321725Y-81199030D01*
X76327358Y-81186355D01*
X76333815Y-81174466D01*
X76341096Y-81163363D01*
X76349202Y-81153046D01*
X76352087Y-81149781D01*
X76361148Y-81140571D01*
X76370835Y-81132267D01*
X76381149Y-81124869D01*
X76392090Y-81118377D01*
X76403657Y-81112790D01*
X76415852Y-81108110D01*
X76428673Y-81104335D01*
X76442121Y-81101467D01*
X76456196Y-81099504D01*
X76470898Y-81098447D01*
X76481048Y-81098246D01*
X76492487Y-81098497D01*
X76503602Y-81099249D01*
X76514393Y-81100504D01*
X76524859Y-81102260D01*
X76535001Y-81104519D01*
X76544818Y-81107279D01*
X76554311Y-81110541D01*
X76563480Y-81114305D01*
X76572324Y-81118570D01*
X76584982Y-81125910D01*
X76596910Y-81134378D01*
X76604457Y-81140651D01*
X76611679Y-81147426D01*
X76618577Y-81154703D01*
X76625151Y-81162482D01*
X76631332Y-81170718D01*
X76637115Y-81179369D01*
X76642499Y-81188433D01*
X76647484Y-81197912D01*
X76652070Y-81207805D01*
X76656258Y-81218112D01*
X76660046Y-81228833D01*
X76663436Y-81239968D01*
X76666427Y-81251517D01*
X76669019Y-81263480D01*
X76671213Y-81275857D01*
X76673007Y-81288648D01*
X76674403Y-81301854D01*
X76675400Y-81315473D01*
X76675998Y-81329506D01*
X76676198Y-81343954D01*
X76675923Y-81359744D01*
X76675099Y-81375057D01*
X76673725Y-81389893D01*
X76671801Y-81404251D01*
X76669328Y-81418133D01*
X76666306Y-81431538D01*
X76662734Y-81444466D01*
X76658612Y-81456916D01*
X76653941Y-81468890D01*
X76648720Y-81480387D01*
X76642950Y-81491406D01*
X76636630Y-81501949D01*
X76629761Y-81512014D01*
X76622342Y-81521603D01*
X76614374Y-81530714D01*
X76605856Y-81539348D01*
X76596830Y-81547452D01*
X76587339Y-81555033D01*
X76577382Y-81562091D01*
X76566960Y-81568627D01*
X76556072Y-81574639D01*
X76544719Y-81580129D01*
X76532900Y-81585096D01*
X76520615Y-81589540D01*
X76507865Y-81593461D01*
X76494649Y-81596860D01*
X76480968Y-81599735D01*
X76466821Y-81602088D01*
X76452208Y-81603918D01*
X76437130Y-81605225D01*
X76421586Y-81606009D01*
X76405577Y-81606271D01*
X76394242Y-81606191D01*
X76382954Y-81605950D01*
X76371711Y-81605550D01*
X76360514Y-81604989D01*
X76349363Y-81604267D01*
X76338257Y-81603386D01*
X76327198Y-81602344D01*
X76316184Y-81601142D01*
X76305174Y-81599798D01*
X76294126Y-81598333D01*
X76283039Y-81596745D01*
X76271915Y-81595036D01*
X76260752Y-81593204D01*
X76249551Y-81591250D01*
X76238312Y-81589174D01*
X76227035Y-81586976D01*
X76209205Y-81715936D01*
X76221201Y-81718192D01*
X76233008Y-81720289D01*
X76244625Y-81722228D01*
X76256054Y-81724007D01*
X76267294Y-81725628D01*
X76278345Y-81727090D01*
X76289207Y-81728393D01*
X76299881Y-81729537D01*
X76310365Y-81730522D01*
X76320660Y-81731349D01*
X76327419Y-81731812D01*
X76337341Y-81732423D01*
X76350236Y-81733144D01*
X76362750Y-81733758D01*
X76374882Y-81734266D01*
X76386632Y-81734667D01*
X76398001Y-81734961D01*
X76408988Y-81735148D01*
X76419593Y-81735228D01*
X76422185Y-81735231D01*
G37*
G36*
X75728780Y-81735231D02*
G01*
X75739006Y-81735212D01*
X75749048Y-81735155D01*
X75758905Y-81735059D01*
X75773342Y-81734845D01*
X75787364Y-81734544D01*
X75800968Y-81734158D01*
X75814157Y-81733685D01*
X75826929Y-81733127D01*
X75839284Y-81732483D01*
X75851223Y-81731753D01*
X75862746Y-81730938D01*
X75870196Y-81730346D01*
X75881099Y-81729422D01*
X75891826Y-81728391D01*
X75902377Y-81727253D01*
X75912752Y-81726007D01*
X75922951Y-81724654D01*
X75932973Y-81723193D01*
X75942820Y-81721626D01*
X75952491Y-81719951D01*
X75965111Y-81717550D01*
X75977419Y-81714959D01*
X75961055Y-81584289D01*
X75947649Y-81586303D01*
X75934545Y-81588222D01*
X75921741Y-81590046D01*
X75909237Y-81591777D01*
X75897034Y-81593412D01*
X75885131Y-81594954D01*
X75873529Y-81596400D01*
X75862228Y-81597753D01*
X75851227Y-81599011D01*
X75840527Y-81600174D01*
X75833560Y-81600897D01*
X75823259Y-81601858D01*
X75813058Y-81602724D01*
X75802955Y-81603495D01*
X75792951Y-81604172D01*
X75783045Y-81604754D01*
X75773239Y-81605242D01*
X75760317Y-81605746D01*
X75747570Y-81606082D01*
X75734999Y-81606250D01*
X75728780Y-81606271D01*
X75715187Y-81606182D01*
X75702069Y-81605916D01*
X75689427Y-81605472D01*
X75677260Y-81604851D01*
X75665568Y-81604053D01*
X75654350Y-81603077D01*
X75643609Y-81601923D01*
X75633342Y-81600592D01*
X75623550Y-81599084D01*
X75609754Y-81596488D01*
X75597026Y-81593494D01*
X75585367Y-81590100D01*
X75574778Y-81586307D01*
X75568312Y-81583556D01*
X75559408Y-81579059D01*
X75548898Y-81572321D01*
X75539945Y-81564736D01*
X75532549Y-81556304D01*
X75526710Y-81547025D01*
X75522428Y-81536898D01*
X75519703Y-81525925D01*
X75518535Y-81514104D01*
X75518487Y-81511016D01*
X75518916Y-81500977D01*
X75520565Y-81490032D01*
X75523450Y-81480289D01*
X75528378Y-81470441D01*
X75534990Y-81462230D01*
X75536072Y-81461191D01*
X75544666Y-81454382D01*
X75553464Y-81449104D01*
X75563585Y-81444341D01*
X75573029Y-81440766D01*
X75583392Y-81437548D01*
X75590050Y-81435789D01*
X75757600Y-81392558D01*
X75770871Y-81389026D01*
X75783692Y-81385391D01*
X75796066Y-81381653D01*
X75807991Y-81377812D01*
X75819467Y-81373868D01*
X75830495Y-81369821D01*
X75841075Y-81365671D01*
X75851206Y-81361417D01*
X75860889Y-81357061D01*
X75870124Y-81352602D01*
X75878910Y-81348039D01*
X75891248Y-81341003D01*
X75902578Y-81333734D01*
X75912898Y-81326234D01*
X75916114Y-81323682D01*
X75925106Y-81315615D01*
X75933213Y-81306800D01*
X75940436Y-81297239D01*
X75946774Y-81286931D01*
X75952228Y-81275876D01*
X75956798Y-81264073D01*
X75960483Y-81251524D01*
X75963283Y-81238227D01*
X75965200Y-81224184D01*
X75965986Y-81214407D01*
X75966379Y-81204297D01*
X75966428Y-81199118D01*
X75966070Y-81184236D01*
X75964997Y-81169878D01*
X75963208Y-81156042D01*
X75960704Y-81142728D01*
X75957484Y-81129938D01*
X75953548Y-81117671D01*
X75948897Y-81105926D01*
X75943530Y-81094704D01*
X75937448Y-81084005D01*
X75930650Y-81073829D01*
X75923137Y-81064176D01*
X75914908Y-81055045D01*
X75905964Y-81046438D01*
X75896304Y-81038353D01*
X75885928Y-81030791D01*
X75874837Y-81023752D01*
X75862920Y-81017156D01*
X75850126Y-81010986D01*
X75836457Y-81005242D01*
X75821913Y-80999923D01*
X75806492Y-80995029D01*
X75790195Y-80990561D01*
X75773023Y-80986519D01*
X75754975Y-80982902D01*
X75736051Y-80979711D01*
X75726260Y-80978275D01*
X75716251Y-80976945D01*
X75706022Y-80975721D01*
X75695575Y-80974604D01*
X75684909Y-80973594D01*
X75674023Y-80972690D01*
X75662919Y-80971892D01*
X75651596Y-80971200D01*
X75640054Y-80970615D01*
X75628293Y-80970137D01*
X75616313Y-80969764D01*
X75604114Y-80969498D01*
X75591696Y-80969339D01*
X75579059Y-80969285D01*
X75569186Y-80969313D01*
X75556222Y-80969437D01*
X75543487Y-80969661D01*
X75530981Y-80969983D01*
X75518704Y-80970405D01*
X75506656Y-80970926D01*
X75494837Y-80971546D01*
X75483246Y-80972265D01*
X75480385Y-80972461D01*
X75468928Y-80973266D01*
X75457395Y-80974216D01*
X75445786Y-80975311D01*
X75434101Y-80976552D01*
X75422339Y-80977937D01*
X75410501Y-80979467D01*
X75398586Y-80981143D01*
X75386595Y-80982963D01*
X75401739Y-81107771D01*
X75412066Y-81106794D01*
X75422166Y-81105876D01*
X75432039Y-81105019D01*
X75444848Y-81103970D01*
X75457253Y-81103027D01*
X75469253Y-81102191D01*
X75480849Y-81101462D01*
X75492040Y-81100840D01*
X75500168Y-81100444D01*
X75510762Y-81099929D01*
X75521295Y-81099482D01*
X75531767Y-81099104D01*
X75542178Y-81098795D01*
X75552528Y-81098555D01*
X75562817Y-81098383D01*
X75573044Y-81098280D01*
X75583211Y-81098246D01*
X75598214Y-81098332D01*
X75612692Y-81098589D01*
X75626645Y-81099018D01*
X75640074Y-81099620D01*
X75652978Y-81100392D01*
X75665357Y-81101337D01*
X75677211Y-81102453D01*
X75688541Y-81103741D01*
X75699346Y-81105201D01*
X75709626Y-81106832D01*
X75719381Y-81108636D01*
X75733030Y-81111662D01*
X75745499Y-81115076D01*
X75756787Y-81118875D01*
X75760287Y-81120228D01*
X75770108Y-81124594D01*
X75778963Y-81129450D01*
X75789267Y-81136685D01*
X75797854Y-81144791D01*
X75804723Y-81153767D01*
X75809875Y-81163613D01*
X75813310Y-81174329D01*
X75815027Y-81185916D01*
X75815242Y-81192035D01*
X75814452Y-81203415D01*
X75812082Y-81213559D01*
X75807320Y-81223830D01*
X75800408Y-81232419D01*
X75792771Y-81238441D01*
X75783412Y-81243676D01*
X75774327Y-81247921D01*
X75764073Y-81252058D01*
X75752650Y-81256087D01*
X75742671Y-81259234D01*
X75731943Y-81262312D01*
X75723406Y-81264575D01*
X75588584Y-81298036D01*
X75574505Y-81301590D01*
X75560905Y-81305291D01*
X75547783Y-81309139D01*
X75535141Y-81313134D01*
X75522977Y-81317275D01*
X75511293Y-81321564D01*
X75500087Y-81325999D01*
X75489361Y-81330582D01*
X75479113Y-81335311D01*
X75469344Y-81340187D01*
X75460054Y-81345211D01*
X75451243Y-81350381D01*
X75442912Y-81355698D01*
X75431312Y-81363949D01*
X75420789Y-81372530D01*
X75411274Y-81381651D01*
X75402694Y-81391518D01*
X75395051Y-81402133D01*
X75388343Y-81413495D01*
X75382572Y-81425603D01*
X75377736Y-81438459D01*
X75373836Y-81452062D01*
X75370872Y-81466411D01*
X75369416Y-81476393D01*
X75368376Y-81486706D01*
X75367752Y-81497352D01*
X75367545Y-81508329D01*
X75367880Y-81522944D01*
X75368888Y-81537051D01*
X75370567Y-81550650D01*
X75372918Y-81563742D01*
X75375940Y-81576326D01*
X75379635Y-81588403D01*
X75384000Y-81599972D01*
X75389038Y-81611034D01*
X75394747Y-81621588D01*
X75401128Y-81631634D01*
X75408180Y-81641173D01*
X75415905Y-81650204D01*
X75424300Y-81658728D01*
X75433368Y-81666744D01*
X75443107Y-81674252D01*
X75453518Y-81681253D01*
X75464640Y-81687790D01*
X75476572Y-81693904D01*
X75489316Y-81699597D01*
X75502870Y-81704869D01*
X75517236Y-81709718D01*
X75532412Y-81714146D01*
X75548400Y-81718152D01*
X75565198Y-81721737D01*
X75582807Y-81724899D01*
X75601228Y-81727640D01*
X75620459Y-81729960D01*
X75630379Y-81730961D01*
X75640501Y-81731857D01*
X75650826Y-81732648D01*
X75661354Y-81733333D01*
X75672085Y-81733913D01*
X75683018Y-81734388D01*
X75694155Y-81734757D01*
X75705494Y-81735020D01*
X75717035Y-81735178D01*
X75728780Y-81735231D01*
G37*
G36*
X74877593Y-81719600D02*
G01*
X74877593Y-81026683D01*
X74731780Y-81026683D01*
X74731780Y-81719600D01*
X74877593Y-81719600D01*
G37*
G36*
X75155053Y-81719600D02*
G01*
X75155053Y-81598455D01*
X74863672Y-81598455D01*
X74863672Y-81719600D01*
X75155053Y-81719600D01*
G37*
G36*
X74745702Y-81719600D02*
G01*
X74745702Y-81598455D01*
X74508054Y-81598455D01*
X74508054Y-81719600D01*
X74745702Y-81719600D01*
G37*
G36*
X75113776Y-81106061D02*
G01*
X75113776Y-80984917D01*
X74731780Y-80984917D01*
X74731780Y-81106061D01*
X75113776Y-81106061D01*
G37*
G36*
X74809450Y-80867680D02*
G01*
X74819765Y-80867215D01*
X74829706Y-80865818D01*
X74839274Y-80863490D01*
X74850707Y-80859271D01*
X74859433Y-80854848D01*
X74867785Y-80849493D01*
X74875763Y-80843208D01*
X74881501Y-80837883D01*
X74888485Y-80830189D01*
X74894538Y-80822129D01*
X74899659Y-80813703D01*
X74904752Y-80802655D01*
X74908389Y-80791034D01*
X74910251Y-80781325D01*
X74911182Y-80771250D01*
X74911299Y-80766075D01*
X74910833Y-80755653D01*
X74909437Y-80745635D01*
X74907109Y-80736022D01*
X74902889Y-80724574D01*
X74897215Y-80713759D01*
X74891628Y-80705561D01*
X74885110Y-80697769D01*
X74881501Y-80694024D01*
X74873804Y-80687097D01*
X74865732Y-80681094D01*
X74857287Y-80676015D01*
X74846204Y-80670964D01*
X74834537Y-80667356D01*
X74824783Y-80665509D01*
X74814654Y-80664586D01*
X74809450Y-80664470D01*
X74799027Y-80664932D01*
X74789010Y-80666317D01*
X74779396Y-80668626D01*
X74767949Y-80672811D01*
X74757133Y-80678439D01*
X74748936Y-80683980D01*
X74741143Y-80690445D01*
X74737398Y-80694024D01*
X74730471Y-80701614D01*
X74724468Y-80709610D01*
X74719389Y-80718009D01*
X74714338Y-80729078D01*
X74711337Y-80738387D01*
X74709259Y-80748102D01*
X74708104Y-80758221D01*
X74707845Y-80766075D01*
X74708306Y-80776334D01*
X74709692Y-80786225D01*
X74712001Y-80795751D01*
X74716185Y-80807143D01*
X74721813Y-80817962D01*
X74727354Y-80826205D01*
X74733819Y-80834082D01*
X74737398Y-80837883D01*
X74744989Y-80844867D01*
X74752984Y-80850919D01*
X74761383Y-80856041D01*
X74772452Y-80861133D01*
X74781762Y-80864159D01*
X74791476Y-80866255D01*
X74801595Y-80867419D01*
X74809450Y-80867680D01*
G37*
G36*
X74320231Y-82043954D02*
G01*
X74327070Y-81911086D01*
X74093574Y-81904247D01*
X74079980Y-81903607D01*
X74066860Y-81902541D01*
X74054213Y-81901050D01*
X74042039Y-81899133D01*
X74030338Y-81896791D01*
X74019110Y-81894023D01*
X74008356Y-81890830D01*
X73998075Y-81887211D01*
X73988267Y-81883167D01*
X73978932Y-81878697D01*
X73970071Y-81873802D01*
X73961683Y-81868481D01*
X73953768Y-81862734D01*
X73942782Y-81853317D01*
X73932862Y-81842942D01*
X73923908Y-81831610D01*
X73918420Y-81823523D01*
X73913317Y-81815011D01*
X73908600Y-81806073D01*
X73904269Y-81796710D01*
X73900323Y-81786921D01*
X73896762Y-81776707D01*
X73893587Y-81766067D01*
X73890797Y-81755002D01*
X73888393Y-81743511D01*
X73886374Y-81731594D01*
X73884741Y-81719252D01*
X73883493Y-81706485D01*
X73882631Y-81693292D01*
X73882153Y-81679674D01*
X73882060Y-81672705D01*
X73882060Y-81139278D01*
X73868138Y-80984917D01*
X73736247Y-80984917D01*
X73736247Y-81649990D01*
X73736333Y-81662072D01*
X73736593Y-81673955D01*
X73737026Y-81685638D01*
X73737632Y-81697122D01*
X73738411Y-81708406D01*
X73739363Y-81719491D01*
X73740489Y-81730376D01*
X73741788Y-81741062D01*
X73743260Y-81751549D01*
X73744905Y-81761836D01*
X73746723Y-81771924D01*
X73748714Y-81781813D01*
X73750879Y-81791502D01*
X73753217Y-81800992D01*
X73758412Y-81819373D01*
X73764299Y-81836956D01*
X73770879Y-81853742D01*
X73778152Y-81869731D01*
X73786118Y-81884921D01*
X73794776Y-81899315D01*
X73804127Y-81912910D01*
X73814170Y-81925708D01*
X73824907Y-81937708D01*
X73836399Y-81949002D01*
X73848713Y-81959618D01*
X73861847Y-81969556D01*
X73875801Y-81978817D01*
X73890576Y-81987401D01*
X73906171Y-81995308D01*
X73922587Y-82002537D01*
X73939823Y-82009088D01*
X73957880Y-82014963D01*
X73976757Y-82020159D01*
X73986503Y-82022504D01*
X73996455Y-82024679D01*
X74006611Y-82026685D01*
X74016973Y-82028521D01*
X74027540Y-82030188D01*
X74038312Y-82031686D01*
X74049289Y-82033014D01*
X74060471Y-82034173D01*
X74071859Y-82035162D01*
X74083451Y-82035983D01*
X74095249Y-82036634D01*
X74107251Y-82037115D01*
X74320231Y-82043954D01*
G37*
G36*
X74088689Y-81735231D02*
G01*
X74106280Y-81734859D01*
X74123333Y-81733743D01*
X74139848Y-81731882D01*
X74155825Y-81729278D01*
X74171264Y-81725929D01*
X74186165Y-81721836D01*
X74200527Y-81716999D01*
X74214352Y-81711417D01*
X74227638Y-81705092D01*
X74240387Y-81698022D01*
X74252597Y-81690208D01*
X74264269Y-81681650D01*
X74275403Y-81672348D01*
X74285999Y-81662302D01*
X74296057Y-81651511D01*
X74305577Y-81639976D01*
X74314509Y-81627689D01*
X74322864Y-81614701D01*
X74330644Y-81601013D01*
X74337847Y-81586625D01*
X74344474Y-81571536D01*
X74350525Y-81555747D01*
X74355999Y-81539258D01*
X74360898Y-81522068D01*
X74365220Y-81504178D01*
X74368965Y-81485588D01*
X74372135Y-81466298D01*
X74373503Y-81456390D01*
X74374728Y-81446307D01*
X74375808Y-81436049D01*
X74376745Y-81425616D01*
X74377537Y-81415008D01*
X74378185Y-81404225D01*
X74378690Y-81393266D01*
X74379050Y-81382133D01*
X74379266Y-81370825D01*
X74379338Y-81359341D01*
X74379266Y-81347419D01*
X74379050Y-81335678D01*
X74378690Y-81324120D01*
X74378185Y-81312744D01*
X74377537Y-81301551D01*
X74376745Y-81290539D01*
X74375808Y-81279710D01*
X74374728Y-81269063D01*
X74373503Y-81258598D01*
X74372135Y-81248316D01*
X74370622Y-81238215D01*
X74368965Y-81228297D01*
X74367164Y-81218562D01*
X74363131Y-81199637D01*
X74358521Y-81181440D01*
X74353334Y-81163973D01*
X74347572Y-81147235D01*
X74341233Y-81131226D01*
X74334318Y-81115945D01*
X74326826Y-81101394D01*
X74318759Y-81087571D01*
X74310115Y-81074477D01*
X74305577Y-81068204D01*
X74296057Y-81056225D01*
X74285999Y-81045020D01*
X74275403Y-81034587D01*
X74264269Y-81024927D01*
X74252597Y-81016040D01*
X74240387Y-81007925D01*
X74227638Y-81000584D01*
X74214352Y-80994015D01*
X74200527Y-80988219D01*
X74186165Y-80983196D01*
X74171264Y-80978945D01*
X74155825Y-80975468D01*
X74139848Y-80972763D01*
X74123333Y-80970831D01*
X74106280Y-80969672D01*
X74088689Y-80969285D01*
X74078189Y-80969438D01*
X74067940Y-80969896D01*
X74057940Y-80970659D01*
X74048190Y-80971728D01*
X74034035Y-80973903D01*
X74020441Y-80976765D01*
X74007410Y-80980315D01*
X73994942Y-80984551D01*
X73983036Y-80989474D01*
X73971692Y-80995084D01*
X73960911Y-81001381D01*
X73950692Y-81008364D01*
X73941143Y-81015916D01*
X73932371Y-81024009D01*
X73924376Y-81032643D01*
X73917158Y-81041818D01*
X73910717Y-81051534D01*
X73905054Y-81061791D01*
X73900167Y-81072588D01*
X73896058Y-81083927D01*
X73892725Y-81095807D01*
X73890170Y-81108227D01*
X73888898Y-81116808D01*
X73832478Y-81116808D01*
X73882060Y-81327101D01*
X73882233Y-81313029D01*
X73882754Y-81299387D01*
X73883622Y-81286177D01*
X73884838Y-81273398D01*
X73886401Y-81261051D01*
X73888311Y-81249134D01*
X73890568Y-81237649D01*
X73893173Y-81226595D01*
X73896124Y-81215973D01*
X73899424Y-81205781D01*
X73903070Y-81196021D01*
X73907064Y-81186692D01*
X73911405Y-81177794D01*
X73918568Y-81165256D01*
X73926512Y-81153689D01*
X73935166Y-81143082D01*
X73944549Y-81133519D01*
X73954663Y-81124999D01*
X73965507Y-81117522D01*
X73977080Y-81111088D01*
X73989383Y-81105698D01*
X74002416Y-81101351D01*
X74016179Y-81098047D01*
X74030672Y-81095787D01*
X74040740Y-81094859D01*
X74051131Y-81094396D01*
X74056449Y-81094338D01*
X74067274Y-81094599D01*
X74077767Y-81095383D01*
X74087928Y-81096691D01*
X74097756Y-81098520D01*
X74107253Y-81100873D01*
X74120876Y-81105383D01*
X74133752Y-81111068D01*
X74145880Y-81117931D01*
X74157262Y-81125969D01*
X74167897Y-81135184D01*
X74177784Y-81145575D01*
X74183961Y-81153156D01*
X74189806Y-81161260D01*
X74195277Y-81169877D01*
X74200396Y-81178995D01*
X74205161Y-81188615D01*
X74209574Y-81198736D01*
X74213633Y-81209360D01*
X74217340Y-81220485D01*
X74220694Y-81232113D01*
X74223694Y-81244242D01*
X74226342Y-81256873D01*
X74228636Y-81270006D01*
X74230578Y-81283640D01*
X74232166Y-81297777D01*
X74233402Y-81312415D01*
X74234284Y-81327555D01*
X74234814Y-81343197D01*
X74234990Y-81359341D01*
X74234814Y-81374614D01*
X74234284Y-81389414D01*
X74233402Y-81403740D01*
X74232166Y-81417593D01*
X74230578Y-81430973D01*
X74228636Y-81443880D01*
X74226342Y-81456313D01*
X74223694Y-81468274D01*
X74220694Y-81479761D01*
X74217340Y-81490774D01*
X74213633Y-81501315D01*
X74209574Y-81511382D01*
X74205161Y-81520977D01*
X74200396Y-81530098D01*
X74195277Y-81538745D01*
X74189806Y-81546920D01*
X74180914Y-81558225D01*
X74171275Y-81568418D01*
X74160890Y-81577499D01*
X74149757Y-81585468D01*
X74137878Y-81592325D01*
X74125251Y-81598071D01*
X74111877Y-81602704D01*
X74097756Y-81606225D01*
X74087928Y-81607955D01*
X74077767Y-81609190D01*
X74067274Y-81609932D01*
X74056449Y-81610179D01*
X74045895Y-81609948D01*
X74035665Y-81609255D01*
X74025760Y-81608101D01*
X74011511Y-81605503D01*
X73997991Y-81601867D01*
X73985201Y-81597191D01*
X73973141Y-81591477D01*
X73961811Y-81584724D01*
X73951211Y-81576931D01*
X73941340Y-81568100D01*
X73932200Y-81558229D01*
X73926512Y-81551072D01*
X73918568Y-81539461D01*
X73911405Y-81526883D01*
X73907064Y-81517962D01*
X73903070Y-81508611D01*
X73899424Y-81498831D01*
X73896124Y-81488621D01*
X73893173Y-81477982D01*
X73890568Y-81466914D01*
X73888311Y-81455417D01*
X73886401Y-81443490D01*
X73884838Y-81431133D01*
X73883622Y-81418348D01*
X73882754Y-81405133D01*
X73882233Y-81391489D01*
X73882060Y-81377415D01*
X73832478Y-81587708D01*
X73895737Y-81587708D01*
X73897410Y-81600492D01*
X73899864Y-81612738D01*
X73903100Y-81624449D01*
X73907117Y-81635622D01*
X73911916Y-81646259D01*
X73917496Y-81656359D01*
X73923857Y-81665922D01*
X73931000Y-81674949D01*
X73938924Y-81683439D01*
X73947629Y-81691392D01*
X73953867Y-81696396D01*
X73963726Y-81703337D01*
X73974160Y-81709594D01*
X73985170Y-81715169D01*
X73996754Y-81720061D01*
X74008915Y-81724271D01*
X74021650Y-81727798D01*
X74034961Y-81730642D01*
X74048847Y-81732804D01*
X74063308Y-81734283D01*
X74073269Y-81734890D01*
X74083485Y-81735193D01*
X74088689Y-81735231D01*
G37*
G36*
X73062381Y-81719600D02*
G01*
X73062381Y-81237953D01*
X73062683Y-81225631D01*
X73063591Y-81213856D01*
X73065105Y-81202625D01*
X73067223Y-81191940D01*
X73069948Y-81181799D01*
X73073277Y-81172205D01*
X73077212Y-81163155D01*
X73083400Y-81151937D01*
X73090664Y-81141688D01*
X73096819Y-81134638D01*
X73105799Y-81126108D01*
X73115641Y-81118716D01*
X73126345Y-81112461D01*
X73137913Y-81107344D01*
X73150342Y-81103363D01*
X73160231Y-81101124D01*
X73170604Y-81099525D01*
X73181463Y-81098566D01*
X73192806Y-81098246D01*
X73203370Y-81098449D01*
X73213598Y-81099060D01*
X73223491Y-81100077D01*
X73242271Y-81103332D01*
X73259710Y-81108215D01*
X73275807Y-81114726D01*
X73290563Y-81122864D01*
X73303977Y-81132630D01*
X73316050Y-81144023D01*
X73326781Y-81157045D01*
X73336171Y-81171693D01*
X73344220Y-81187970D01*
X73350927Y-81205874D01*
X73353778Y-81215436D01*
X73356293Y-81225406D01*
X73358472Y-81235782D01*
X73360317Y-81246565D01*
X73361826Y-81257755D01*
X73363000Y-81269352D01*
X73363838Y-81281356D01*
X73364341Y-81293767D01*
X73364509Y-81306585D01*
X73407251Y-81118029D01*
X73350831Y-81118029D01*
X73349324Y-81104305D01*
X73347090Y-81091250D01*
X73344132Y-81078866D01*
X73340447Y-81067151D01*
X73336037Y-81056105D01*
X73330902Y-81045730D01*
X73325041Y-81036024D01*
X73318454Y-81026988D01*
X73311142Y-81018622D01*
X73303104Y-81010925D01*
X73297342Y-81006166D01*
X73288069Y-80999575D01*
X73278019Y-80993632D01*
X73267192Y-80988338D01*
X73255588Y-80983692D01*
X73243207Y-80979694D01*
X73230048Y-80976345D01*
X73216113Y-80973643D01*
X73206391Y-80972203D01*
X73196324Y-80971050D01*
X73185911Y-80970186D01*
X73175153Y-80969610D01*
X73164049Y-80969321D01*
X73158368Y-80969285D01*
X73144161Y-80969562D01*
X73130360Y-80970392D01*
X73116966Y-80971776D01*
X73103978Y-80973712D01*
X73091397Y-80976203D01*
X73079222Y-80979246D01*
X73067453Y-80982843D01*
X73056091Y-80986993D01*
X73045136Y-80991697D01*
X73034586Y-80996954D01*
X73024444Y-81002764D01*
X73014707Y-81009128D01*
X73005377Y-81016045D01*
X72996454Y-81023515D01*
X72987937Y-81031539D01*
X72979826Y-81040116D01*
X72972166Y-81049198D01*
X72965000Y-81058736D01*
X72958328Y-81068730D01*
X72952151Y-81079179D01*
X72946467Y-81090086D01*
X72941278Y-81101448D01*
X72936583Y-81113266D01*
X72932382Y-81125540D01*
X72928676Y-81138270D01*
X72925463Y-81151456D01*
X72922745Y-81165099D01*
X72920521Y-81179197D01*
X72918791Y-81193751D01*
X72917556Y-81208762D01*
X72916815Y-81224228D01*
X72916568Y-81240151D01*
X72916568Y-81719600D01*
X73062381Y-81719600D01*
G37*
G36*
X73510078Y-81719600D02*
G01*
X73510078Y-80984917D01*
X73378187Y-80984917D01*
X73364509Y-81140255D01*
X73364509Y-81719600D01*
X73510078Y-81719600D01*
G37*
G36*
X72323790Y-81735231D02*
G01*
X72335339Y-81735134D01*
X72346723Y-81734844D01*
X72357941Y-81734359D01*
X72368994Y-81733682D01*
X72379881Y-81732810D01*
X72390603Y-81731745D01*
X72401159Y-81730486D01*
X72411550Y-81729033D01*
X72421775Y-81727387D01*
X72431834Y-81725547D01*
X72441728Y-81723514D01*
X72451457Y-81721286D01*
X72461020Y-81718865D01*
X72479649Y-81713442D01*
X72497616Y-81707245D01*
X72514921Y-81700272D01*
X72531564Y-81692525D01*
X72547545Y-81684003D01*
X72562863Y-81674707D01*
X72577520Y-81664636D01*
X72591514Y-81653790D01*
X72604846Y-81642169D01*
X72611264Y-81636068D01*
X72623509Y-81623305D01*
X72634963Y-81609866D01*
X72645628Y-81595751D01*
X72655502Y-81580961D01*
X72664587Y-81565496D01*
X72672882Y-81549355D01*
X72680387Y-81532538D01*
X72687101Y-81515046D01*
X72693026Y-81496879D01*
X72698161Y-81478036D01*
X72700432Y-81468361D01*
X72702506Y-81458517D01*
X72704382Y-81448505D01*
X72706061Y-81438323D01*
X72707542Y-81427973D01*
X72708826Y-81417454D01*
X72709912Y-81406766D01*
X72710801Y-81395909D01*
X72711492Y-81384883D01*
X72711986Y-81373689D01*
X72712282Y-81362325D01*
X72712381Y-81350793D01*
X72712297Y-81339560D01*
X72712046Y-81328486D01*
X72711627Y-81317569D01*
X72711041Y-81306810D01*
X72710288Y-81296209D01*
X72709367Y-81285766D01*
X72708278Y-81275481D01*
X72707022Y-81265354D01*
X72705599Y-81255384D01*
X72704009Y-81245573D01*
X72702250Y-81235919D01*
X72698232Y-81217086D01*
X72693544Y-81198884D01*
X72688185Y-81181314D01*
X72682158Y-81164375D01*
X72675460Y-81148068D01*
X72668093Y-81132393D01*
X72660056Y-81117349D01*
X72651349Y-81102937D01*
X72641972Y-81089156D01*
X72631926Y-81076007D01*
X72626651Y-81069669D01*
X72615629Y-81057513D01*
X72604055Y-81046142D01*
X72591930Y-81035554D01*
X72579253Y-81025751D01*
X72566025Y-81016733D01*
X72552245Y-81008498D01*
X72537914Y-81001048D01*
X72523031Y-80994381D01*
X72507597Y-80988500D01*
X72491612Y-80983402D01*
X72475075Y-80979089D01*
X72457986Y-80975559D01*
X72440346Y-80972815D01*
X72422155Y-80970854D01*
X72403412Y-80969678D01*
X72384118Y-80969285D01*
X72365910Y-80969634D01*
X72348226Y-80970678D01*
X72331067Y-80972420D01*
X72314433Y-80974857D01*
X72298323Y-80977991D01*
X72282738Y-80981822D01*
X72267678Y-80986349D01*
X72253143Y-80991573D01*
X72239132Y-80997493D01*
X72225647Y-81004109D01*
X72212685Y-81011422D01*
X72200249Y-81019432D01*
X72188337Y-81028138D01*
X72176951Y-81037540D01*
X72166088Y-81047639D01*
X72155751Y-81058434D01*
X72145961Y-81069893D01*
X72136803Y-81081984D01*
X72128277Y-81094707D01*
X72120382Y-81108061D01*
X72113118Y-81122047D01*
X72106487Y-81136664D01*
X72100486Y-81151913D01*
X72095118Y-81167794D01*
X72090381Y-81184306D01*
X72086275Y-81201450D01*
X72082802Y-81219225D01*
X72079959Y-81237632D01*
X72077749Y-81256671D01*
X72076880Y-81266427D01*
X72076170Y-81276341D01*
X72075617Y-81286413D01*
X72075222Y-81296642D01*
X72074986Y-81307030D01*
X72074907Y-81317576D01*
X72074972Y-81329986D01*
X72075166Y-81342183D01*
X72075491Y-81354166D01*
X72075945Y-81365936D01*
X72076529Y-81377492D01*
X72077242Y-81388834D01*
X72078086Y-81399962D01*
X72079059Y-81410877D01*
X72590259Y-81410877D01*
X72590259Y-81297548D01*
X72206798Y-81297548D01*
X72206981Y-81285693D01*
X72207531Y-81274188D01*
X72208446Y-81263032D01*
X72209729Y-81252226D01*
X72211377Y-81241768D01*
X72213392Y-81231660D01*
X72215774Y-81221900D01*
X72218521Y-81212490D01*
X72223330Y-81199030D01*
X72228963Y-81186355D01*
X72235420Y-81174466D01*
X72242702Y-81163363D01*
X72250807Y-81153046D01*
X72253692Y-81149781D01*
X72262753Y-81140571D01*
X72272440Y-81132267D01*
X72282754Y-81124869D01*
X72293695Y-81118377D01*
X72305263Y-81112790D01*
X72317457Y-81108110D01*
X72330278Y-81104335D01*
X72343726Y-81101467D01*
X72357801Y-81099504D01*
X72372503Y-81098447D01*
X72382653Y-81098246D01*
X72394092Y-81098497D01*
X72405207Y-81099249D01*
X72415998Y-81100504D01*
X72426464Y-81102260D01*
X72436606Y-81104519D01*
X72446423Y-81107279D01*
X72455916Y-81110541D01*
X72465085Y-81114305D01*
X72473929Y-81118570D01*
X72486587Y-81125910D01*
X72498515Y-81134378D01*
X72506062Y-81140651D01*
X72513284Y-81147426D01*
X72520182Y-81154703D01*
X72526756Y-81162482D01*
X72532937Y-81170718D01*
X72538720Y-81179369D01*
X72544104Y-81188433D01*
X72549089Y-81197912D01*
X72553675Y-81207805D01*
X72557863Y-81218112D01*
X72561651Y-81228833D01*
X72565041Y-81239968D01*
X72568032Y-81251517D01*
X72570624Y-81263480D01*
X72572818Y-81275857D01*
X72574612Y-81288648D01*
X72576008Y-81301854D01*
X72577005Y-81315473D01*
X72577603Y-81329506D01*
X72577803Y-81343954D01*
X72577528Y-81359744D01*
X72576704Y-81375057D01*
X72575330Y-81389893D01*
X72573406Y-81404251D01*
X72570933Y-81418133D01*
X72567911Y-81431538D01*
X72564339Y-81444466D01*
X72560217Y-81456916D01*
X72555546Y-81468890D01*
X72550325Y-81480387D01*
X72544555Y-81491406D01*
X72538235Y-81501949D01*
X72531366Y-81512014D01*
X72523947Y-81521603D01*
X72515979Y-81530714D01*
X72507461Y-81539348D01*
X72498435Y-81547452D01*
X72488944Y-81555033D01*
X72478987Y-81562091D01*
X72468565Y-81568627D01*
X72457677Y-81574639D01*
X72446324Y-81580129D01*
X72434505Y-81585096D01*
X72422220Y-81589540D01*
X72409470Y-81593461D01*
X72396254Y-81596860D01*
X72382573Y-81599735D01*
X72368426Y-81602088D01*
X72353813Y-81603918D01*
X72338735Y-81605225D01*
X72323191Y-81606009D01*
X72307182Y-81606271D01*
X72295847Y-81606191D01*
X72284559Y-81605950D01*
X72273316Y-81605550D01*
X72262119Y-81604989D01*
X72250968Y-81604267D01*
X72239862Y-81603386D01*
X72228803Y-81602344D01*
X72217789Y-81601142D01*
X72206779Y-81599798D01*
X72195731Y-81598333D01*
X72184644Y-81596745D01*
X72173520Y-81595036D01*
X72162357Y-81593204D01*
X72151156Y-81591250D01*
X72139917Y-81589174D01*
X72128640Y-81586976D01*
X72110810Y-81715936D01*
X72122806Y-81718192D01*
X72134613Y-81720289D01*
X72146230Y-81722228D01*
X72157659Y-81724007D01*
X72168899Y-81725628D01*
X72179950Y-81727090D01*
X72190812Y-81728393D01*
X72201486Y-81729537D01*
X72211970Y-81730522D01*
X72222265Y-81731349D01*
X72229024Y-81731812D01*
X72238946Y-81732423D01*
X72251841Y-81733144D01*
X72264355Y-81733758D01*
X72276487Y-81734266D01*
X72288237Y-81734667D01*
X72299606Y-81734961D01*
X72310593Y-81735148D01*
X72321198Y-81735228D01*
X72323790Y-81735231D01*
G37*
G36*
X71629652Y-81735231D02*
G01*
X71647243Y-81734859D01*
X71664296Y-81733743D01*
X71680811Y-81731882D01*
X71696788Y-81729278D01*
X71712227Y-81725929D01*
X71727128Y-81721836D01*
X71741490Y-81716999D01*
X71755315Y-81711417D01*
X71768601Y-81705092D01*
X71781350Y-81698022D01*
X71793560Y-81690208D01*
X71805232Y-81681650D01*
X71816366Y-81672348D01*
X71826962Y-81662302D01*
X71837020Y-81651511D01*
X71846540Y-81639976D01*
X71855472Y-81627689D01*
X71863827Y-81614701D01*
X71871607Y-81601013D01*
X71878810Y-81586625D01*
X71885437Y-81571536D01*
X71891488Y-81555747D01*
X71896962Y-81539258D01*
X71901861Y-81522068D01*
X71906183Y-81504178D01*
X71909928Y-81485588D01*
X71913098Y-81466298D01*
X71914466Y-81456390D01*
X71915691Y-81446307D01*
X71916771Y-81436049D01*
X71917708Y-81425616D01*
X71918500Y-81415008D01*
X71919148Y-81404225D01*
X71919653Y-81393266D01*
X71920013Y-81382133D01*
X71920229Y-81370825D01*
X71920301Y-81359341D01*
X71920229Y-81347419D01*
X71920013Y-81335678D01*
X71919653Y-81324120D01*
X71919148Y-81312744D01*
X71918500Y-81301551D01*
X71917708Y-81290539D01*
X71916771Y-81279710D01*
X71915691Y-81269063D01*
X71914466Y-81258598D01*
X71913098Y-81248316D01*
X71911585Y-81238215D01*
X71909928Y-81228297D01*
X71908127Y-81218562D01*
X71904094Y-81199637D01*
X71899484Y-81181440D01*
X71894297Y-81163973D01*
X71888535Y-81147235D01*
X71882196Y-81131226D01*
X71875281Y-81115945D01*
X71867789Y-81101394D01*
X71859722Y-81087571D01*
X71851078Y-81074477D01*
X71846540Y-81068204D01*
X71837020Y-81056225D01*
X71826962Y-81045020D01*
X71816366Y-81034587D01*
X71805232Y-81024927D01*
X71793560Y-81016040D01*
X71781350Y-81007925D01*
X71768601Y-81000584D01*
X71755315Y-80994015D01*
X71741490Y-80988219D01*
X71727128Y-80983196D01*
X71712227Y-80978945D01*
X71696788Y-80975468D01*
X71680811Y-80972763D01*
X71664296Y-80970831D01*
X71647243Y-80969672D01*
X71629652Y-80969285D01*
X71619574Y-80969438D01*
X71609735Y-80969896D01*
X71595423Y-80971155D01*
X71581648Y-80973102D01*
X71568409Y-80975735D01*
X71555707Y-80979055D01*
X71543542Y-80983062D01*
X71531914Y-80987756D01*
X71520822Y-80993137D01*
X71510267Y-80999205D01*
X71500248Y-81005960D01*
X71497028Y-81008364D01*
X71487782Y-81015916D01*
X71479279Y-81024009D01*
X71471519Y-81032643D01*
X71464502Y-81041818D01*
X71458227Y-81051534D01*
X71452695Y-81061791D01*
X71447906Y-81072588D01*
X71443859Y-81083927D01*
X71440556Y-81095807D01*
X71437995Y-81108227D01*
X71436700Y-81116808D01*
X71380280Y-81116808D01*
X71423023Y-81327101D01*
X71423196Y-81313029D01*
X71423717Y-81299387D01*
X71424585Y-81286177D01*
X71425801Y-81273398D01*
X71427364Y-81261051D01*
X71429274Y-81249134D01*
X71431531Y-81237649D01*
X71434136Y-81226595D01*
X71437087Y-81215973D01*
X71440387Y-81205781D01*
X71444033Y-81196021D01*
X71448027Y-81186692D01*
X71452368Y-81177794D01*
X71459531Y-81165256D01*
X71467475Y-81153689D01*
X71476129Y-81143082D01*
X71485512Y-81133519D01*
X71495626Y-81124999D01*
X71506470Y-81117522D01*
X71518043Y-81111088D01*
X71530346Y-81105698D01*
X71543379Y-81101351D01*
X71557142Y-81098047D01*
X71571635Y-81095787D01*
X71581703Y-81094859D01*
X71592094Y-81094396D01*
X71597412Y-81094338D01*
X71608237Y-81094599D01*
X71618730Y-81095383D01*
X71628891Y-81096691D01*
X71638719Y-81098520D01*
X71648216Y-81100873D01*
X71661839Y-81105383D01*
X71674715Y-81111068D01*
X71686843Y-81117931D01*
X71698225Y-81125969D01*
X71708860Y-81135184D01*
X71718747Y-81145575D01*
X71724924Y-81153156D01*
X71730769Y-81161260D01*
X71736240Y-81169877D01*
X71741359Y-81178995D01*
X71746124Y-81188615D01*
X71750537Y-81198736D01*
X71754597Y-81209360D01*
X71758303Y-81220485D01*
X71761657Y-81232113D01*
X71764657Y-81244242D01*
X71767305Y-81256873D01*
X71769599Y-81270006D01*
X71771541Y-81283640D01*
X71773129Y-81297777D01*
X71774365Y-81312415D01*
X71775247Y-81327555D01*
X71775777Y-81343197D01*
X71775953Y-81359341D01*
X71775777Y-81374614D01*
X71775247Y-81389414D01*
X71774365Y-81403740D01*
X71773129Y-81417593D01*
X71771541Y-81430973D01*
X71769599Y-81443880D01*
X71767305Y-81456313D01*
X71764657Y-81468274D01*
X71761657Y-81479761D01*
X71758303Y-81490774D01*
X71754597Y-81501315D01*
X71750537Y-81511382D01*
X71746124Y-81520977D01*
X71741359Y-81530098D01*
X71736240Y-81538745D01*
X71730769Y-81546920D01*
X71721877Y-81558225D01*
X71712238Y-81568418D01*
X71701853Y-81577499D01*
X71690720Y-81585468D01*
X71678841Y-81592325D01*
X71666214Y-81598071D01*
X71652840Y-81602704D01*
X71638719Y-81606225D01*
X71628891Y-81607955D01*
X71618730Y-81609190D01*
X71608237Y-81609932D01*
X71597412Y-81610179D01*
X71586858Y-81609948D01*
X71576628Y-81609255D01*
X71566723Y-81608101D01*
X71552474Y-81605503D01*
X71538954Y-81601867D01*
X71526164Y-81597191D01*
X71514104Y-81591477D01*
X71502774Y-81584724D01*
X71492174Y-81576931D01*
X71482303Y-81568100D01*
X71473163Y-81558229D01*
X71467475Y-81551072D01*
X71459531Y-81539461D01*
X71452368Y-81526883D01*
X71448027Y-81517962D01*
X71444033Y-81508611D01*
X71440387Y-81498831D01*
X71437087Y-81488621D01*
X71434136Y-81477982D01*
X71431531Y-81466914D01*
X71429274Y-81455417D01*
X71427364Y-81443490D01*
X71425801Y-81431133D01*
X71424585Y-81418348D01*
X71423717Y-81405133D01*
X71423196Y-81391489D01*
X71423023Y-81377415D01*
X71373441Y-81587708D01*
X71436700Y-81587708D01*
X71438373Y-81600492D01*
X71440827Y-81612738D01*
X71444063Y-81624449D01*
X71448080Y-81635622D01*
X71452879Y-81646259D01*
X71458459Y-81656359D01*
X71464820Y-81665922D01*
X71471963Y-81674949D01*
X71479887Y-81683439D01*
X71488592Y-81691392D01*
X71494830Y-81696396D01*
X71504689Y-81703337D01*
X71515123Y-81709594D01*
X71526133Y-81715169D01*
X71537717Y-81720061D01*
X71549878Y-81724271D01*
X71562613Y-81727798D01*
X71575924Y-81730642D01*
X71589810Y-81732804D01*
X71604271Y-81734283D01*
X71614232Y-81734890D01*
X71624448Y-81735193D01*
X71629652Y-81735231D01*
G37*
G36*
X71407879Y-81726438D02*
G01*
X71423023Y-81583556D01*
X71423023Y-80687918D01*
X71277210Y-80687918D01*
X71277210Y-81719600D01*
X71407879Y-81726438D01*
G37*
G36*
X70039875Y-81735231D02*
G01*
X70052190Y-81735170D01*
X70064467Y-81734987D01*
X70076706Y-81734681D01*
X70088907Y-81734254D01*
X70101070Y-81733705D01*
X70113194Y-81733033D01*
X70125280Y-81732239D01*
X70137328Y-81731323D01*
X70149380Y-81730365D01*
X70161478Y-81729323D01*
X70173621Y-81728198D01*
X70185810Y-81726988D01*
X70198045Y-81725694D01*
X70210326Y-81724316D01*
X70222653Y-81722855D01*
X70235025Y-81721309D01*
X70178605Y-81586731D01*
X70169389Y-81590845D01*
X70159936Y-81594517D01*
X70150246Y-81597745D01*
X70140320Y-81600531D01*
X70130157Y-81602874D01*
X70119758Y-81604775D01*
X70109122Y-81606233D01*
X70098249Y-81607248D01*
X70087270Y-81607935D01*
X70076313Y-81608530D01*
X70065380Y-81609034D01*
X70054469Y-81609446D01*
X70043581Y-81609767D01*
X70032716Y-81609996D01*
X70021874Y-81610133D01*
X70011055Y-81610179D01*
X69994863Y-81609866D01*
X69979139Y-81608927D01*
X69963882Y-81607362D01*
X69949093Y-81605172D01*
X69934772Y-81602355D01*
X69920918Y-81598913D01*
X69907531Y-81594845D01*
X69894612Y-81590151D01*
X69882160Y-81584831D01*
X69870176Y-81578885D01*
X69858659Y-81572313D01*
X69847610Y-81565116D01*
X69837029Y-81557292D01*
X69826915Y-81548843D01*
X69817268Y-81539768D01*
X69808089Y-81530067D01*
X69799393Y-81519794D01*
X69791259Y-81509001D01*
X69783686Y-81497690D01*
X69776673Y-81485859D01*
X69770222Y-81473510D01*
X69764331Y-81460641D01*
X69759002Y-81447253D01*
X69754233Y-81433347D01*
X69750026Y-81418921D01*
X69746379Y-81403977D01*
X69743294Y-81388513D01*
X69740769Y-81372530D01*
X69738806Y-81356029D01*
X69737403Y-81339008D01*
X69736562Y-81321468D01*
X69736281Y-81303410D01*
X69736452Y-81291042D01*
X69736965Y-81279035D01*
X69737818Y-81267389D01*
X69739014Y-81256103D01*
X69740551Y-81245178D01*
X69742429Y-81234613D01*
X69744650Y-81224410D01*
X69747211Y-81214566D01*
X69750115Y-81205084D01*
X69755110Y-81191536D01*
X69760874Y-81178800D01*
X69767406Y-81166875D01*
X69774707Y-81155762D01*
X69780001Y-81148804D01*
X69788477Y-81139070D01*
X69797601Y-81130294D01*
X69807373Y-81122475D01*
X69817794Y-81115614D01*
X69828863Y-81109710D01*
X69840580Y-81104763D01*
X69852945Y-81100774D01*
X69865959Y-81097742D01*
X69879621Y-81095668D01*
X69893932Y-81094551D01*
X69903832Y-81094338D01*
X69915237Y-81094545D01*
X69926280Y-81095166D01*
X69936962Y-81096201D01*
X69947281Y-81097650D01*
X69957237Y-81099514D01*
X69966832Y-81101791D01*
X69984936Y-81107588D01*
X70001591Y-81115041D01*
X70016798Y-81124151D01*
X70030557Y-81134916D01*
X70042867Y-81147339D01*
X70053729Y-81161417D01*
X70063143Y-81177151D01*
X70071109Y-81194542D01*
X70074548Y-81203859D01*
X70077626Y-81213589D01*
X70080342Y-81223734D01*
X70082695Y-81234293D01*
X70084686Y-81245266D01*
X70086316Y-81256652D01*
X70087583Y-81268453D01*
X70088488Y-81280668D01*
X70089031Y-81293297D01*
X70089212Y-81306341D01*
X70131955Y-81116808D01*
X70075535Y-81116808D01*
X70073635Y-81098944D01*
X70070501Y-81082233D01*
X70066132Y-81066673D01*
X70060529Y-81052267D01*
X70053691Y-81039013D01*
X70045619Y-81026912D01*
X70036312Y-81015963D01*
X70025770Y-81006166D01*
X70013994Y-80997522D01*
X70000983Y-80990031D01*
X69986738Y-80983692D01*
X69971258Y-80978506D01*
X69954544Y-80974472D01*
X69936595Y-80971591D01*
X69917411Y-80969862D01*
X69907357Y-80969430D01*
X69896993Y-80969285D01*
X69879055Y-80969626D01*
X69861631Y-80970648D01*
X69844723Y-80972351D01*
X69828330Y-80974735D01*
X69812453Y-80977801D01*
X69797090Y-80981547D01*
X69782243Y-80985975D01*
X69767911Y-80991084D01*
X69754094Y-80996874D01*
X69740792Y-81003346D01*
X69728006Y-81010499D01*
X69715734Y-81018332D01*
X69703978Y-81026848D01*
X69692738Y-81036044D01*
X69682012Y-81045921D01*
X69671801Y-81056480D01*
X69662130Y-81067634D01*
X69653082Y-81079359D01*
X69644659Y-81091654D01*
X69636859Y-81104520D01*
X69629684Y-81117956D01*
X69623132Y-81131963D01*
X69617204Y-81146540D01*
X69611901Y-81161688D01*
X69607221Y-81177406D01*
X69603165Y-81193695D01*
X69599733Y-81210554D01*
X69596926Y-81227984D01*
X69594742Y-81245985D01*
X69593182Y-81264556D01*
X69592246Y-81283698D01*
X69592012Y-81293482D01*
X69591934Y-81303410D01*
X69592048Y-81316158D01*
X69592392Y-81328726D01*
X69592964Y-81341114D01*
X69593766Y-81353323D01*
X69594796Y-81365352D01*
X69596056Y-81377201D01*
X69597544Y-81388870D01*
X69599261Y-81400359D01*
X69601207Y-81411668D01*
X69603383Y-81422798D01*
X69605787Y-81433747D01*
X69608420Y-81444517D01*
X69611283Y-81455107D01*
X69614374Y-81465517D01*
X69617694Y-81475748D01*
X69621243Y-81485798D01*
X69625021Y-81495669D01*
X69629028Y-81505359D01*
X69633264Y-81514870D01*
X69637729Y-81524201D01*
X69642423Y-81533353D01*
X69647346Y-81542324D01*
X69652498Y-81551116D01*
X69657879Y-81559727D01*
X69663489Y-81568159D01*
X69669328Y-81576411D01*
X69675396Y-81584483D01*
X69681693Y-81592376D01*
X69688219Y-81600088D01*
X69694974Y-81607621D01*
X69701958Y-81614974D01*
X69709170Y-81622147D01*
X69716577Y-81629104D01*
X69724172Y-81635840D01*
X69731957Y-81642356D01*
X69739930Y-81648651D01*
X69748092Y-81654725D01*
X69756443Y-81660578D01*
X69764983Y-81666210D01*
X69773712Y-81671621D01*
X69782629Y-81676811D01*
X69791736Y-81681781D01*
X69801032Y-81686530D01*
X69810516Y-81691057D01*
X69820189Y-81695364D01*
X69830052Y-81699450D01*
X69840103Y-81703316D01*
X69850343Y-81706960D01*
X69860772Y-81710383D01*
X69871390Y-81713586D01*
X69882196Y-81716568D01*
X69893192Y-81719329D01*
X69904377Y-81721869D01*
X69915750Y-81724188D01*
X69927313Y-81726286D01*
X69939064Y-81728163D01*
X69951004Y-81729820D01*
X69963133Y-81731255D01*
X69975451Y-81732470D01*
X69987958Y-81733464D01*
X70000654Y-81734237D01*
X70013539Y-81734789D01*
X70026613Y-81735121D01*
X70039875Y-81735231D01*
G37*
G36*
X70235025Y-81721309D02*
G01*
X70235025Y-80687918D01*
X70089212Y-80687918D01*
X70089212Y-81708853D01*
X70235025Y-81721309D01*
G37*
G36*
X69475674Y-82043954D02*
G01*
X69482513Y-81914994D01*
X69368452Y-81901316D01*
X69355127Y-81899435D01*
X69342171Y-81897180D01*
X69329584Y-81894552D01*
X69317367Y-81891550D01*
X69305519Y-81888175D01*
X69294040Y-81884426D01*
X69282930Y-81880304D01*
X69272189Y-81875808D01*
X69261818Y-81870939D01*
X69251816Y-81865696D01*
X69245353Y-81861993D01*
X69235867Y-81856057D01*
X69226643Y-81849605D01*
X69217681Y-81842639D01*
X69208980Y-81835157D01*
X69200542Y-81827160D01*
X69192365Y-81818648D01*
X69184450Y-81809620D01*
X69176797Y-81800078D01*
X69169406Y-81790020D01*
X69162277Y-81779447D01*
X69157670Y-81772112D01*
X69150924Y-81760613D01*
X69144332Y-81748467D01*
X69137895Y-81735672D01*
X69133689Y-81726782D01*
X69129553Y-81717604D01*
X69125484Y-81708137D01*
X69121485Y-81698383D01*
X69117554Y-81688340D01*
X69113692Y-81678010D01*
X69109899Y-81667391D01*
X69106174Y-81656484D01*
X69102518Y-81645289D01*
X69098931Y-81633806D01*
X69095412Y-81622034D01*
X69093678Y-81616041D01*
X68912450Y-80984917D01*
X68761264Y-80984917D01*
X68971557Y-81649258D01*
X68976726Y-81665392D01*
X68981976Y-81681127D01*
X68987305Y-81696464D01*
X68992715Y-81711402D01*
X68998204Y-81725941D01*
X69003774Y-81740082D01*
X69009424Y-81753823D01*
X69015154Y-81767166D01*
X69020965Y-81780110D01*
X69026855Y-81792655D01*
X69032826Y-81804801D01*
X69038877Y-81816549D01*
X69045007Y-81827897D01*
X69051218Y-81838847D01*
X69057510Y-81849398D01*
X69063881Y-81859551D01*
X69070335Y-81869378D01*
X69076936Y-81878892D01*
X69083685Y-81888093D01*
X69090580Y-81896981D01*
X69097622Y-81905556D01*
X69104811Y-81913818D01*
X69112146Y-81921768D01*
X69119629Y-81929404D01*
X69127259Y-81936728D01*
X69135036Y-81943738D01*
X69142959Y-81950436D01*
X69151030Y-81956820D01*
X69159247Y-81962892D01*
X69167612Y-81968651D01*
X69176123Y-81974097D01*
X69184781Y-81979230D01*
X69193592Y-81984123D01*
X69202622Y-81988789D01*
X69211872Y-81993229D01*
X69221341Y-81997441D01*
X69231030Y-82001426D01*
X69240938Y-82005184D01*
X69251065Y-82008715D01*
X69261412Y-82012019D01*
X69271979Y-82015096D01*
X69282764Y-82017946D01*
X69293770Y-82020569D01*
X69304994Y-82022964D01*
X69316438Y-82025133D01*
X69328102Y-82027075D01*
X69339985Y-82028789D01*
X69352087Y-82030276D01*
X69475674Y-82043954D01*
G37*
G36*
X69199436Y-81719600D02*
G01*
X69489352Y-80984917D01*
X69338410Y-80984917D01*
X69100517Y-81610179D01*
X69078535Y-81610179D01*
X69078535Y-81719600D01*
X69199436Y-81719600D01*
G37*
G36*
X67674872Y-81438232D02*
G01*
X67674872Y-81309272D01*
X67592562Y-81309272D01*
X67581332Y-81309148D01*
X67570355Y-81308779D01*
X67559632Y-81308164D01*
X67549163Y-81307302D01*
X67538948Y-81306195D01*
X67528986Y-81304841D01*
X67519279Y-81303241D01*
X67505193Y-81300379D01*
X67491678Y-81296964D01*
X67478735Y-81292995D01*
X67466362Y-81288472D01*
X67454560Y-81283395D01*
X67443330Y-81277764D01*
X67432606Y-81271507D01*
X67422324Y-81264549D01*
X67412484Y-81256892D01*
X67403087Y-81248535D01*
X67394132Y-81239478D01*
X67385619Y-81229722D01*
X67377548Y-81219265D01*
X67369919Y-81208109D01*
X67362733Y-81196253D01*
X67355989Y-81183697D01*
X67351739Y-81174938D01*
X67347625Y-81165809D01*
X67343652Y-81156314D01*
X67339817Y-81146453D01*
X67336122Y-81136225D01*
X67332566Y-81125631D01*
X67329150Y-81114671D01*
X67325873Y-81103344D01*
X67322735Y-81091651D01*
X67319736Y-81079592D01*
X67316877Y-81067166D01*
X67314157Y-81054374D01*
X67311576Y-81041215D01*
X67309134Y-81027690D01*
X67306832Y-81013799D01*
X67304669Y-80999541D01*
X67302646Y-80984917D01*
X67151459Y-80984917D01*
X67153331Y-80999062D01*
X67155342Y-81012981D01*
X67157494Y-81026675D01*
X67159787Y-81040143D01*
X67162219Y-81053385D01*
X67164792Y-81066402D01*
X67167505Y-81079193D01*
X67170358Y-81091758D01*
X67173351Y-81104098D01*
X67176485Y-81116212D01*
X67179759Y-81128100D01*
X67183173Y-81139763D01*
X67186727Y-81151200D01*
X67190422Y-81162412D01*
X67194257Y-81173398D01*
X67198232Y-81184158D01*
X67202347Y-81194693D01*
X67206603Y-81205002D01*
X67210999Y-81215085D01*
X67215535Y-81224943D01*
X67220211Y-81234575D01*
X67225028Y-81243981D01*
X67229985Y-81253162D01*
X67235082Y-81262117D01*
X67240319Y-81270847D01*
X67245697Y-81279351D01*
X67251215Y-81287629D01*
X67256873Y-81295682D01*
X67268610Y-81311110D01*
X67280908Y-81325636D01*
X67293783Y-81339270D01*
X67307252Y-81352025D01*
X67321314Y-81363901D01*
X67335970Y-81374897D01*
X67351219Y-81385013D01*
X67367061Y-81394249D01*
X67383497Y-81402606D01*
X67400526Y-81410083D01*
X67418149Y-81416680D01*
X67436365Y-81422398D01*
X67455174Y-81427236D01*
X67464802Y-81429325D01*
X67474577Y-81431194D01*
X67484501Y-81432844D01*
X67494574Y-81434273D01*
X67504795Y-81435483D01*
X67515164Y-81436472D01*
X67525681Y-81437242D01*
X67536347Y-81437792D01*
X67547161Y-81438122D01*
X67558124Y-81438232D01*
X67674872Y-81438232D01*
G37*
G36*
X67777942Y-81719600D02*
G01*
X67777942Y-80687918D01*
X67632374Y-80687918D01*
X67632374Y-81719600D01*
X67777942Y-81719600D01*
G37*
G36*
X67284816Y-81719600D02*
G01*
X67492178Y-81360807D01*
X67354669Y-81305119D01*
X67104809Y-81719600D01*
X67284816Y-81719600D01*
G37*
G36*
X66573581Y-81719600D02*
G01*
X66658822Y-81133417D01*
X66669812Y-81133417D01*
X66729408Y-80984917D01*
X66596295Y-80984917D01*
X66510322Y-81610179D01*
X66498110Y-81610179D01*
X66436072Y-80984917D01*
X66291969Y-80984917D01*
X66395039Y-81719600D01*
X66573581Y-81719600D01*
G37*
G36*
X66937747Y-81719600D02*
G01*
X67020057Y-80984917D01*
X66882792Y-80984917D01*
X66827838Y-81610179D01*
X66815381Y-81610179D01*
X66729408Y-80984917D01*
X66596295Y-80984917D01*
X66657356Y-81133417D01*
X66666882Y-81133417D01*
X66752122Y-81719600D01*
X66937747Y-81719600D01*
G37*
G36*
X66197691Y-81500758D02*
G01*
X66060182Y-80805399D01*
X65918766Y-80805399D01*
X66057496Y-81500758D01*
X66197691Y-81500758D01*
G37*
G36*
X66197691Y-81500758D02*
G01*
X66101459Y-81371798D01*
X65696260Y-81371798D01*
X65696260Y-81500758D01*
X66197691Y-81500758D01*
G37*
G36*
X65584886Y-81500758D02*
G01*
X65584886Y-81371798D01*
X65479129Y-81371798D01*
X65479129Y-81500758D01*
X65584886Y-81500758D01*
G37*
G36*
X65709938Y-81719600D02*
G01*
X65709938Y-80750444D01*
X65571208Y-80750444D01*
X65571208Y-81719600D01*
X65709938Y-81719600D01*
G37*
G36*
X65027798Y-81138011D02*
G01*
X65038515Y-81139340D01*
X65048681Y-81141553D01*
X65058298Y-81144652D01*
X65067366Y-81148636D01*
X65075884Y-81153506D01*
X65083852Y-81159261D01*
X65091271Y-81165901D01*
X65097911Y-81173274D01*
X65103666Y-81181227D01*
X65108536Y-81189760D01*
X65112520Y-81198874D01*
X65115619Y-81208567D01*
X65117832Y-81218841D01*
X65119160Y-81229694D01*
X65119603Y-81241128D01*
X65119160Y-81252397D01*
X65117832Y-81263125D01*
X65115619Y-81273311D01*
X65112520Y-81282954D01*
X65108536Y-81292056D01*
X65103666Y-81300616D01*
X65097911Y-81308634D01*
X65091271Y-81316110D01*
X65083852Y-81322808D01*
X65075884Y-81328612D01*
X65067366Y-81333524D01*
X65058298Y-81337543D01*
X65048681Y-81340668D01*
X65038515Y-81342901D01*
X65027798Y-81344240D01*
X65016533Y-81344687D01*
X65005160Y-81344240D01*
X64994368Y-81342901D01*
X64984155Y-81340668D01*
X64974523Y-81337543D01*
X64965471Y-81333524D01*
X64956998Y-81328612D01*
X64949106Y-81322808D01*
X64941794Y-81316110D01*
X64935211Y-81308634D01*
X64929506Y-81300616D01*
X64924678Y-81292056D01*
X64920728Y-81282954D01*
X64917656Y-81273311D01*
X64915462Y-81263125D01*
X64914145Y-81252397D01*
X64913706Y-81241128D01*
X64914145Y-81229694D01*
X64915462Y-81218841D01*
X64917656Y-81208567D01*
X64920728Y-81198874D01*
X64924678Y-81189760D01*
X64929506Y-81181227D01*
X64935211Y-81173274D01*
X64941794Y-81165901D01*
X64947224Y-81160838D01*
X64956998Y-81153506D01*
X64965471Y-81148636D01*
X64974523Y-81144652D01*
X64984155Y-81141553D01*
X64994368Y-81139340D01*
X65005160Y-81138011D01*
X65016533Y-81137569D01*
X65027798Y-81138011D01*
G37*
G36*
X65036999Y-80735308D02*
G01*
X65056816Y-80736793D01*
X65075982Y-80739269D01*
X65094500Y-80742735D01*
X65112367Y-80747191D01*
X65129585Y-80752638D01*
X65146153Y-80759075D01*
X65162071Y-80766503D01*
X65177339Y-80774921D01*
X65191958Y-80784329D01*
X65205927Y-80794727D01*
X65219247Y-80806116D01*
X65231916Y-80818495D01*
X65243936Y-80831865D01*
X65255306Y-80846224D01*
X65266027Y-80861574D01*
X65276097Y-80877915D01*
X65285518Y-80895246D01*
X65294290Y-80913567D01*
X65302411Y-80932878D01*
X65309883Y-80953180D01*
X65316705Y-80974472D01*
X65322878Y-80996754D01*
X65328400Y-81020027D01*
X65333273Y-81044290D01*
X65337496Y-81069543D01*
X65341070Y-81095787D01*
X65343994Y-81123021D01*
X65346268Y-81151245D01*
X65347892Y-81180460D01*
X65348867Y-81210665D01*
X65349191Y-81241860D01*
X65348867Y-81272214D01*
X65347892Y-81301605D01*
X65346268Y-81330031D01*
X65343994Y-81357494D01*
X65341070Y-81383994D01*
X65337496Y-81409529D01*
X65333273Y-81434102D01*
X65328400Y-81457710D01*
X65322878Y-81480355D01*
X65316705Y-81502036D01*
X65309883Y-81522754D01*
X65302411Y-81542508D01*
X65294290Y-81561299D01*
X65285518Y-81579126D01*
X65276097Y-81595989D01*
X65266027Y-81611888D01*
X65255306Y-81626824D01*
X65243936Y-81640797D01*
X65231916Y-81653806D01*
X65219247Y-81665851D01*
X65205927Y-81676932D01*
X65191958Y-81687050D01*
X65177339Y-81696205D01*
X65162071Y-81704395D01*
X65146153Y-81711622D01*
X65129585Y-81717886D01*
X65112367Y-81723186D01*
X65094500Y-81727522D01*
X65075982Y-81730895D01*
X65056816Y-81733304D01*
X65036999Y-81734749D01*
X65016533Y-81735231D01*
X64996081Y-81734749D01*
X64976279Y-81733304D01*
X64957127Y-81730895D01*
X64938623Y-81727522D01*
X64920769Y-81723186D01*
X64903564Y-81717886D01*
X64887008Y-81711622D01*
X64871101Y-81704395D01*
X64855844Y-81696205D01*
X64841236Y-81687050D01*
X64827277Y-81676932D01*
X64813968Y-81665851D01*
X64801307Y-81653806D01*
X64789296Y-81640797D01*
X64777934Y-81626824D01*
X64767222Y-81611888D01*
X64757158Y-81595989D01*
X64747744Y-81579126D01*
X64738980Y-81561299D01*
X64730864Y-81542508D01*
X64723398Y-81522754D01*
X64716580Y-81502036D01*
X64710413Y-81480355D01*
X64704894Y-81457710D01*
X64700025Y-81434102D01*
X64695805Y-81409529D01*
X64692234Y-81383994D01*
X64689312Y-81357494D01*
X64687040Y-81330031D01*
X64685417Y-81301605D01*
X64684443Y-81272214D01*
X64684118Y-81241860D01*
X64831152Y-81241860D01*
X64831333Y-81264521D01*
X64831876Y-81286462D01*
X64832782Y-81307683D01*
X64834049Y-81328185D01*
X64835678Y-81347968D01*
X64837670Y-81367031D01*
X64840023Y-81385375D01*
X64842739Y-81403000D01*
X64845816Y-81419905D01*
X64849256Y-81436091D01*
X64853058Y-81451557D01*
X64857221Y-81466304D01*
X64861747Y-81480332D01*
X64866635Y-81493641D01*
X64871885Y-81506230D01*
X64877497Y-81518099D01*
X64883472Y-81529249D01*
X64889808Y-81539680D01*
X64896506Y-81549392D01*
X64903567Y-81558384D01*
X64910989Y-81566657D01*
X64918773Y-81574210D01*
X64926920Y-81581044D01*
X64935429Y-81587159D01*
X64944299Y-81592554D01*
X64953532Y-81597230D01*
X64963127Y-81601187D01*
X64973084Y-81604424D01*
X64983403Y-81606942D01*
X64994084Y-81608740D01*
X65005127Y-81609819D01*
X65016533Y-81610179D01*
X65027953Y-81609819D01*
X65039011Y-81608740D01*
X65049706Y-81606942D01*
X65060038Y-81604424D01*
X65070008Y-81601187D01*
X65079616Y-81597230D01*
X65088861Y-81592554D01*
X65097743Y-81587159D01*
X65106263Y-81581044D01*
X65114421Y-81574210D01*
X65122215Y-81566657D01*
X65129648Y-81558384D01*
X65136717Y-81549392D01*
X65143424Y-81539680D01*
X65149769Y-81529249D01*
X65155751Y-81518099D01*
X65161371Y-81506230D01*
X65166628Y-81493641D01*
X65171522Y-81480332D01*
X65176054Y-81466304D01*
X65180223Y-81451557D01*
X65184030Y-81436091D01*
X65187474Y-81419905D01*
X65190556Y-81403000D01*
X65193275Y-81385375D01*
X65195631Y-81367031D01*
X65197625Y-81347968D01*
X65199257Y-81328185D01*
X65200526Y-81307683D01*
X65201432Y-81286462D01*
X65201976Y-81264521D01*
X65202157Y-81241860D01*
X65201976Y-81218359D01*
X65201432Y-81195603D01*
X65200526Y-81173594D01*
X65199257Y-81152330D01*
X65197625Y-81131813D01*
X65195631Y-81112042D01*
X65193275Y-81093016D01*
X65190556Y-81074737D01*
X65187474Y-81057204D01*
X65184030Y-81040417D01*
X65180223Y-81024377D01*
X65176054Y-81009082D01*
X65171522Y-80994533D01*
X65166628Y-80980731D01*
X65161371Y-80967674D01*
X65155751Y-80955364D01*
X65149769Y-80943799D01*
X65143424Y-80932981D01*
X65136717Y-80922909D01*
X65129648Y-80913583D01*
X65122215Y-80905003D01*
X65114421Y-80897169D01*
X65106263Y-80890081D01*
X65097743Y-80883739D01*
X65088861Y-80878144D01*
X65079616Y-80873294D01*
X65070008Y-80869191D01*
X65060038Y-80865833D01*
X65049706Y-80863222D01*
X65039011Y-80861357D01*
X65027953Y-80860238D01*
X65016533Y-80859865D01*
X65005127Y-80860238D01*
X64994084Y-80861357D01*
X64983403Y-80863222D01*
X64973084Y-80865833D01*
X64963127Y-80869191D01*
X64953532Y-80873294D01*
X64944299Y-80878144D01*
X64935429Y-80883739D01*
X64926920Y-80890081D01*
X64918773Y-80897169D01*
X64910989Y-80905003D01*
X64903567Y-80913583D01*
X64896506Y-80922909D01*
X64889808Y-80932981D01*
X64883472Y-80943799D01*
X64877497Y-80955364D01*
X64871885Y-80967674D01*
X64866635Y-80980731D01*
X64861747Y-80994533D01*
X64857221Y-81009082D01*
X64853058Y-81024377D01*
X64849256Y-81040417D01*
X64845816Y-81057204D01*
X64842739Y-81074737D01*
X64840023Y-81093016D01*
X64837670Y-81112042D01*
X64835678Y-81131813D01*
X64834049Y-81152330D01*
X64832782Y-81173594D01*
X64831876Y-81195603D01*
X64831333Y-81218359D01*
X64831152Y-81241860D01*
X64684118Y-81241860D01*
X64684443Y-81210665D01*
X64685417Y-81180460D01*
X64687040Y-81151245D01*
X64689312Y-81123021D01*
X64692234Y-81095787D01*
X64695805Y-81069543D01*
X64700025Y-81044290D01*
X64704894Y-81020027D01*
X64710413Y-80996754D01*
X64716580Y-80974472D01*
X64723398Y-80953180D01*
X64730864Y-80932878D01*
X64738980Y-80913567D01*
X64747744Y-80895246D01*
X64757158Y-80877915D01*
X64767222Y-80861574D01*
X64777934Y-80846224D01*
X64789296Y-80831865D01*
X64801307Y-80818495D01*
X64813968Y-80806116D01*
X64827277Y-80794727D01*
X64841236Y-80784329D01*
X64855844Y-80774921D01*
X64871101Y-80766503D01*
X64887008Y-80759075D01*
X64903564Y-80752638D01*
X64920769Y-80747191D01*
X64938623Y-80742735D01*
X64957127Y-80739269D01*
X64976279Y-80736793D01*
X64996081Y-80735308D01*
X65016533Y-80734812D01*
X65036999Y-80735308D01*
G37*
G36*
X64558333Y-81500758D02*
G01*
X64420824Y-80805399D01*
X64279408Y-80805399D01*
X64418138Y-81500758D01*
X64558333Y-81500758D01*
G37*
G36*
X64558333Y-81500758D02*
G01*
X64462101Y-81371798D01*
X64056903Y-81371798D01*
X64056903Y-81500758D01*
X64558333Y-81500758D01*
G37*
G36*
X63945528Y-81500758D02*
G01*
X63945528Y-81371798D01*
X63839771Y-81371798D01*
X63839771Y-81500758D01*
X63945528Y-81500758D01*
G37*
G36*
X64070580Y-81719600D02*
G01*
X64070580Y-80750444D01*
X63931850Y-80750444D01*
X63931850Y-81719600D01*
X64070580Y-81719600D01*
G37*
G36*
X77781631Y-78720929D02*
G01*
X77781631Y-78198982D01*
X77810451Y-78198982D01*
X77823939Y-78198293D01*
X77836100Y-78196226D01*
X77846934Y-78192780D01*
X77856442Y-78187957D01*
X77864623Y-78181755D01*
X77871477Y-78174175D01*
X77877004Y-78165217D01*
X77881206Y-78154881D01*
X77884080Y-78143167D01*
X77885628Y-78130074D01*
X77885922Y-78120580D01*
X77885296Y-78107264D01*
X77883415Y-78095158D01*
X77880281Y-78084263D01*
X77875893Y-78074578D01*
X77870252Y-78066105D01*
X77863357Y-78058842D01*
X77855208Y-78052790D01*
X77845806Y-78047948D01*
X77835150Y-78044318D01*
X77823240Y-78041898D01*
X77814604Y-78040957D01*
X77781631Y-78038026D01*
X77781631Y-77972080D01*
X77781370Y-77955801D01*
X77780589Y-77939936D01*
X77779287Y-77924485D01*
X77777463Y-77909447D01*
X77775119Y-77894824D01*
X77772254Y-77880615D01*
X77768868Y-77866820D01*
X77764961Y-77853439D01*
X77760533Y-77840473D01*
X77755585Y-77827920D01*
X77750115Y-77815781D01*
X77744124Y-77804057D01*
X77737613Y-77792746D01*
X77730580Y-77781850D01*
X77723027Y-77771367D01*
X77714952Y-77761299D01*
X77706326Y-77751746D01*
X77697115Y-77742809D01*
X77687321Y-77734488D01*
X77676942Y-77726784D01*
X77665980Y-77719696D01*
X77654434Y-77713225D01*
X77642304Y-77707370D01*
X77629590Y-77702131D01*
X77616292Y-77697509D01*
X77602410Y-77693502D01*
X77587944Y-77690113D01*
X77572895Y-77687339D01*
X77557261Y-77685182D01*
X77541044Y-77683641D01*
X77524243Y-77682717D01*
X77506858Y-77682408D01*
X77495500Y-77682557D01*
X77484143Y-77683004D01*
X77472786Y-77683748D01*
X77461428Y-77684790D01*
X77450071Y-77686129D01*
X77438714Y-77687767D01*
X77427357Y-77689701D01*
X77415999Y-77691934D01*
X77406303Y-77695233D01*
X77396274Y-77700041D01*
X77387997Y-77705777D01*
X77380553Y-77713641D01*
X77375495Y-77722767D01*
X77374966Y-77724174D01*
X77372186Y-77734602D01*
X77371162Y-77744323D01*
X77371391Y-77754764D01*
X77372873Y-77765927D01*
X77375067Y-77775780D01*
X77376188Y-77779861D01*
X77378835Y-77789616D01*
X77383690Y-77802816D01*
X77389606Y-77814300D01*
X77396582Y-77824065D01*
X77404618Y-77832114D01*
X77413715Y-77838445D01*
X77423872Y-77843059D01*
X77435090Y-77845956D01*
X77447368Y-77847135D01*
X77460707Y-77846597D01*
X77475106Y-77844341D01*
X77478037Y-77844341D01*
X77489660Y-77844825D01*
X77500534Y-77846276D01*
X77510658Y-77848695D01*
X77520031Y-77852081D01*
X77532686Y-77858974D01*
X77543653Y-77868043D01*
X77552933Y-77879290D01*
X77558183Y-77887997D01*
X77562682Y-77897671D01*
X77566432Y-77908313D01*
X77569431Y-77919922D01*
X77571681Y-77932499D01*
X77573181Y-77946043D01*
X77573931Y-77960554D01*
X77574024Y-77968173D01*
X77574024Y-78036805D01*
X77508079Y-78036805D01*
X77498112Y-78037122D01*
X77484366Y-78038785D01*
X77472068Y-78041873D01*
X77461217Y-78046387D01*
X77451812Y-78052326D01*
X77443855Y-78059690D01*
X77437344Y-78068480D01*
X77432280Y-78078695D01*
X77428663Y-78090336D01*
X77426492Y-78103402D01*
X77425769Y-78117893D01*
X77426090Y-78127713D01*
X77427778Y-78141254D01*
X77430913Y-78153370D01*
X77435495Y-78164060D01*
X77441524Y-78173325D01*
X77448999Y-78181165D01*
X77457921Y-78187579D01*
X77468290Y-78192568D01*
X77480106Y-78196131D01*
X77493369Y-78198269D01*
X77508079Y-78198982D01*
X77574024Y-78198982D01*
X77574024Y-78720929D01*
X77574427Y-78733410D01*
X77575635Y-78745086D01*
X77577648Y-78755957D01*
X77580466Y-78766022D01*
X77584090Y-78775283D01*
X77591035Y-78787663D01*
X77599792Y-78798232D01*
X77610361Y-78806989D01*
X77622741Y-78813934D01*
X77632001Y-78817558D01*
X77642067Y-78820376D01*
X77652938Y-78822389D01*
X77664614Y-78823597D01*
X77677095Y-78824000D01*
X77689753Y-78823597D01*
X77701595Y-78822389D01*
X77712621Y-78820376D01*
X77722829Y-78817558D01*
X77732221Y-78813934D01*
X77744778Y-78806989D01*
X77755497Y-78798232D01*
X77764378Y-78787663D01*
X77771422Y-78775283D01*
X77775097Y-78766022D01*
X77777956Y-78755957D01*
X77779997Y-78745086D01*
X77781222Y-78733410D01*
X77781631Y-78720929D01*
G37*
G36*
X76728628Y-77701862D02*
G01*
X76740443Y-77703070D01*
X76751442Y-77705083D01*
X76761627Y-77707901D01*
X76770997Y-77711525D01*
X76783524Y-77718470D01*
X76794218Y-77727227D01*
X76803079Y-77737796D01*
X76810106Y-77750176D01*
X76813773Y-77759437D01*
X76816624Y-77769502D01*
X76818661Y-77780373D01*
X76819884Y-77792049D01*
X76820291Y-77804530D01*
X76820291Y-77979163D01*
X76812231Y-78102750D01*
X76815145Y-78100025D01*
X76823874Y-78092114D01*
X76832582Y-78084603D01*
X76841268Y-78077491D01*
X76849933Y-78070779D01*
X76858576Y-78064465D01*
X76867198Y-78058551D01*
X76875798Y-78053036D01*
X76884377Y-78047921D01*
X76892934Y-78043205D01*
X76904310Y-78037538D01*
X76915866Y-78032500D01*
X76927941Y-78028134D01*
X76937338Y-78025301D01*
X76947026Y-78022845D01*
X76957007Y-78020767D01*
X76967279Y-78019067D01*
X76977844Y-78017744D01*
X76988700Y-78016800D01*
X76999849Y-78016233D01*
X77011289Y-78016044D01*
X77027998Y-78016493D01*
X77044422Y-78017838D01*
X77060559Y-78020080D01*
X77076410Y-78023219D01*
X77091975Y-78027255D01*
X77107253Y-78032187D01*
X77122246Y-78038016D01*
X77136952Y-78044743D01*
X77151372Y-78052366D01*
X77165505Y-78060886D01*
X77179353Y-78070302D01*
X77192914Y-78080616D01*
X77206189Y-78091826D01*
X77219178Y-78103933D01*
X77231880Y-78116937D01*
X77244296Y-78130838D01*
X77250337Y-78138082D01*
X77261843Y-78152983D01*
X77272582Y-78168435D01*
X77282554Y-78184438D01*
X77291759Y-78200993D01*
X77300197Y-78218100D01*
X77307868Y-78235758D01*
X77314772Y-78253967D01*
X77317936Y-78263279D01*
X77320908Y-78272728D01*
X77323689Y-78282316D01*
X77326278Y-78292041D01*
X77328675Y-78301904D01*
X77330880Y-78311905D01*
X77332894Y-78322043D01*
X77334715Y-78332320D01*
X77336346Y-78342734D01*
X77337784Y-78353287D01*
X77339030Y-78363977D01*
X77340085Y-78374805D01*
X77340948Y-78385771D01*
X77341619Y-78396874D01*
X77342099Y-78408116D01*
X77342386Y-78419495D01*
X77342482Y-78431013D01*
X77342396Y-78442872D01*
X77342139Y-78454574D01*
X77341709Y-78466119D01*
X77341108Y-78477507D01*
X77340335Y-78488738D01*
X77339391Y-78499812D01*
X77338275Y-78510729D01*
X77336987Y-78521489D01*
X77335527Y-78532093D01*
X77333895Y-78542539D01*
X77332092Y-78552829D01*
X77330117Y-78562961D01*
X77327971Y-78572937D01*
X77325652Y-78582755D01*
X77323162Y-78592417D01*
X77320500Y-78601922D01*
X77314661Y-78620460D01*
X77308135Y-78638371D01*
X77300923Y-78655654D01*
X77293023Y-78672309D01*
X77284436Y-78688337D01*
X77275163Y-78703737D01*
X77265202Y-78718509D01*
X77254555Y-78732653D01*
X77243333Y-78746051D01*
X77231649Y-78758584D01*
X77219504Y-78770254D01*
X77206897Y-78781059D01*
X77193828Y-78790999D01*
X77180297Y-78800075D01*
X77166305Y-78808287D01*
X77151851Y-78815634D01*
X77136935Y-78822117D01*
X77121557Y-78827736D01*
X77105717Y-78832490D01*
X77089416Y-78836380D01*
X77072653Y-78839405D01*
X77055428Y-78841566D01*
X77037741Y-78842862D01*
X77019593Y-78843295D01*
X77005378Y-78842903D01*
X76991249Y-78841726D01*
X76977206Y-78839766D01*
X76963249Y-78837021D01*
X76949378Y-78833492D01*
X76935593Y-78829178D01*
X76921893Y-78824081D01*
X76908279Y-78818199D01*
X76894752Y-78811533D01*
X76881310Y-78804082D01*
X76867954Y-78795848D01*
X76854683Y-78786829D01*
X76841499Y-78777026D01*
X76828401Y-78766438D01*
X76815388Y-78755067D01*
X76802461Y-78742911D01*
X76798309Y-78742911D01*
X76795622Y-78753902D01*
X76793660Y-78762390D01*
X76789768Y-78774096D01*
X76784738Y-78784570D01*
X76778571Y-78793811D01*
X76771266Y-78801820D01*
X76762823Y-78808597D01*
X76753242Y-78814142D01*
X76742524Y-78818455D01*
X76730668Y-78821535D01*
X76717674Y-78823383D01*
X76703543Y-78824000D01*
X76695738Y-78823813D01*
X76685838Y-78822983D01*
X76674279Y-78821011D01*
X76663627Y-78818002D01*
X76653881Y-78813956D01*
X76645042Y-78808872D01*
X76637109Y-78802750D01*
X76634181Y-78800021D01*
X76627687Y-78792554D01*
X76622374Y-78784169D01*
X76618242Y-78774865D01*
X76615290Y-78764644D01*
X76613519Y-78753504D01*
X76612929Y-78741445D01*
X76612929Y-78591725D01*
X76820291Y-78591725D01*
X76828131Y-78601544D01*
X76836140Y-78610730D01*
X76844319Y-78619282D01*
X76852668Y-78627201D01*
X76861187Y-78634486D01*
X76869876Y-78641138D01*
X76878735Y-78647156D01*
X76887763Y-78652541D01*
X76896961Y-78657292D01*
X76906329Y-78661410D01*
X76915867Y-78664894D01*
X76925575Y-78667745D01*
X76935452Y-78669962D01*
X76945500Y-78671546D01*
X76955717Y-78672496D01*
X76966104Y-78672813D01*
X76985890Y-78671858D01*
X77004400Y-78668993D01*
X77021634Y-78664218D01*
X77037591Y-78657533D01*
X77052271Y-78648937D01*
X77065675Y-78638432D01*
X77077802Y-78626017D01*
X77088653Y-78611691D01*
X77098227Y-78595456D01*
X77102535Y-78586622D01*
X77106524Y-78577310D01*
X77110195Y-78567521D01*
X77113545Y-78557255D01*
X77116577Y-78546511D01*
X77119290Y-78535289D01*
X77121683Y-78523590D01*
X77123758Y-78511413D01*
X77125513Y-78498759D01*
X77126949Y-78485628D01*
X77128066Y-78472019D01*
X77128864Y-78457932D01*
X77129343Y-78443368D01*
X77129502Y-78428326D01*
X77129320Y-78414265D01*
X77128773Y-78400597D01*
X77127862Y-78387322D01*
X77126587Y-78374440D01*
X77124947Y-78361951D01*
X77122942Y-78349855D01*
X77120573Y-78338153D01*
X77117840Y-78326843D01*
X77114742Y-78315927D01*
X77111280Y-78305403D01*
X77107453Y-78295273D01*
X77103262Y-78285536D01*
X77098706Y-78276191D01*
X77093786Y-78267240D01*
X77088501Y-78258682D01*
X77082852Y-78250517D01*
X77076929Y-78242768D01*
X77067701Y-78232082D01*
X77058061Y-78222521D01*
X77048009Y-78214085D01*
X77037545Y-78206773D01*
X77026668Y-78200586D01*
X77015380Y-78195524D01*
X77003679Y-78191588D01*
X76991566Y-78188775D01*
X76979041Y-78187088D01*
X76966104Y-78186526D01*
X76961052Y-78186583D01*
X76951044Y-78187045D01*
X76941163Y-78187969D01*
X76931411Y-78189354D01*
X76921786Y-78191201D01*
X76907589Y-78194838D01*
X76898284Y-78197839D01*
X76889106Y-78201302D01*
X76880057Y-78205227D01*
X76871135Y-78209614D01*
X76862342Y-78214463D01*
X76853676Y-78219773D01*
X76845138Y-78225545D01*
X76836728Y-78231779D01*
X76828445Y-78238475D01*
X76820291Y-78245632D01*
X76820291Y-78591725D01*
X76612929Y-78591725D01*
X76612929Y-77804530D01*
X76613331Y-77792049D01*
X76614539Y-77780373D01*
X76616552Y-77769502D01*
X76619371Y-77759437D01*
X76622994Y-77750176D01*
X76629939Y-77737796D01*
X76638696Y-77727227D01*
X76649265Y-77718470D01*
X76661646Y-77711525D01*
X76670906Y-77707901D01*
X76680971Y-77705083D01*
X76691842Y-77703070D01*
X76703518Y-77701862D01*
X76715999Y-77701459D01*
X76728628Y-77701862D01*
G37*
G36*
X76160103Y-78198982D02*
G01*
X76160103Y-78547761D01*
X76159684Y-78563909D01*
X76158427Y-78579016D01*
X76156333Y-78593081D01*
X76153401Y-78606104D01*
X76149632Y-78618086D01*
X76145024Y-78629025D01*
X76139579Y-78638923D01*
X76133297Y-78647778D01*
X76126177Y-78655592D01*
X76118219Y-78662364D01*
X76109423Y-78668094D01*
X76099790Y-78672783D01*
X76089319Y-78676429D01*
X76078010Y-78679034D01*
X76065864Y-78680597D01*
X76052880Y-78681117D01*
X76050193Y-78681117D01*
X76036780Y-78678826D01*
X76024385Y-78678178D01*
X76013007Y-78679175D01*
X76002646Y-78681816D01*
X75993303Y-78686101D01*
X75984978Y-78692031D01*
X75977670Y-78699605D01*
X75971379Y-78708824D01*
X75966106Y-78719687D01*
X75961851Y-78732194D01*
X75959579Y-78741445D01*
X75957392Y-78754848D01*
X75956511Y-78767211D01*
X75956934Y-78778536D01*
X75958663Y-78788821D01*
X75962999Y-78800919D01*
X75969654Y-78811169D01*
X75978630Y-78819573D01*
X75989926Y-78826129D01*
X75999921Y-78829834D01*
X76003543Y-78830838D01*
X76013797Y-78833064D01*
X76023953Y-78835072D01*
X76034010Y-78836860D01*
X76043969Y-78838429D01*
X76053828Y-78839779D01*
X76063589Y-78840910D01*
X76076450Y-78842078D01*
X76089136Y-78842857D01*
X76101645Y-78843246D01*
X76107835Y-78843295D01*
X76123808Y-78843006D01*
X76139274Y-78842140D01*
X76154233Y-78840697D01*
X76168685Y-78838677D01*
X76182630Y-78836080D01*
X76196068Y-78832905D01*
X76208999Y-78829153D01*
X76221423Y-78824824D01*
X76233339Y-78819917D01*
X76244749Y-78814434D01*
X76255651Y-78808373D01*
X76266047Y-78801735D01*
X76275935Y-78794520D01*
X76285316Y-78786728D01*
X76294190Y-78778358D01*
X76302557Y-78769411D01*
X76310417Y-78759887D01*
X76317770Y-78749786D01*
X76324616Y-78739107D01*
X76330954Y-78727852D01*
X76336786Y-78716019D01*
X76342110Y-78703609D01*
X76346928Y-78690621D01*
X76351238Y-78677057D01*
X76355041Y-78662915D01*
X76358337Y-78648196D01*
X76361126Y-78632900D01*
X76363408Y-78617027D01*
X76365183Y-78600576D01*
X76366450Y-78583548D01*
X76367211Y-78565943D01*
X76367465Y-78547761D01*
X76367465Y-78198982D01*
X76401903Y-78198982D01*
X76415390Y-78198293D01*
X76427551Y-78196226D01*
X76438386Y-78192780D01*
X76447893Y-78187957D01*
X76456074Y-78181755D01*
X76462928Y-78174175D01*
X76468456Y-78165217D01*
X76472657Y-78154881D01*
X76475531Y-78143167D01*
X76477079Y-78130074D01*
X76477374Y-78120580D01*
X76476747Y-78107264D01*
X76474867Y-78095158D01*
X76471733Y-78084263D01*
X76467345Y-78074578D01*
X76461703Y-78066105D01*
X76454808Y-78058842D01*
X76446659Y-78052790D01*
X76437257Y-78047948D01*
X76426601Y-78044318D01*
X76414691Y-78041898D01*
X76406055Y-78040957D01*
X76356474Y-78036805D01*
X76341331Y-77904914D01*
X76339165Y-77890684D01*
X76335689Y-77877854D01*
X76330904Y-77866424D01*
X76324810Y-77856393D01*
X76317406Y-77847762D01*
X76308693Y-77840531D01*
X76298670Y-77834699D01*
X76287338Y-77830267D01*
X76274696Y-77827234D01*
X76260745Y-77825602D01*
X76250717Y-77825290D01*
X76239744Y-77825623D01*
X76229479Y-77826619D01*
X76215409Y-77829358D01*
X76202932Y-77833591D01*
X76192048Y-77839318D01*
X76182756Y-77846540D01*
X76175057Y-77855255D01*
X76168952Y-77865465D01*
X76164439Y-77877168D01*
X76161518Y-77890366D01*
X76160191Y-77905058D01*
X76160103Y-77910287D01*
X76160103Y-78036805D01*
X76047507Y-78036805D01*
X76037687Y-78037122D01*
X76024146Y-78038785D01*
X76012030Y-78041873D01*
X76001340Y-78046387D01*
X75992075Y-78052326D01*
X75984235Y-78059690D01*
X75977821Y-78068480D01*
X75972832Y-78078695D01*
X75969269Y-78090336D01*
X75967131Y-78103402D01*
X75966418Y-78117893D01*
X75966735Y-78127713D01*
X75968398Y-78141254D01*
X75971486Y-78153370D01*
X75976000Y-78164060D01*
X75981939Y-78173325D01*
X75989303Y-78181165D01*
X75998093Y-78187579D01*
X76008308Y-78192568D01*
X76019949Y-78196131D01*
X76033015Y-78198269D01*
X76047507Y-78198982D01*
X76160103Y-78198982D01*
G37*
G36*
X75240701Y-77701862D02*
G01*
X75252515Y-77703070D01*
X75263515Y-77705083D01*
X75273699Y-77707901D01*
X75283069Y-77711525D01*
X75295597Y-77718470D01*
X75306291Y-77727227D01*
X75315151Y-77737796D01*
X75322179Y-77750176D01*
X75325845Y-77759437D01*
X75328697Y-77769502D01*
X75330734Y-77780373D01*
X75331956Y-77792049D01*
X75332363Y-77804530D01*
X75332363Y-77979163D01*
X75324303Y-78102750D01*
X75327218Y-78100025D01*
X75335947Y-78092114D01*
X75344655Y-78084603D01*
X75353341Y-78077491D01*
X75362005Y-78070779D01*
X75370649Y-78064465D01*
X75379270Y-78058551D01*
X75387871Y-78053036D01*
X75396449Y-78047921D01*
X75405007Y-78043205D01*
X75416383Y-78037538D01*
X75427939Y-78032500D01*
X75440014Y-78028134D01*
X75449410Y-78025301D01*
X75459099Y-78022845D01*
X75469079Y-78020767D01*
X75479352Y-78019067D01*
X75489916Y-78017744D01*
X75500773Y-78016800D01*
X75511921Y-78016233D01*
X75523361Y-78016044D01*
X75540071Y-78016493D01*
X75556494Y-78017838D01*
X75572632Y-78020080D01*
X75588483Y-78023219D01*
X75604047Y-78027255D01*
X75619326Y-78032187D01*
X75634318Y-78038016D01*
X75649024Y-78044743D01*
X75663444Y-78052366D01*
X75677578Y-78060886D01*
X75691425Y-78070302D01*
X75704986Y-78080616D01*
X75718261Y-78091826D01*
X75731250Y-78103933D01*
X75743953Y-78116937D01*
X75756369Y-78130838D01*
X75762410Y-78138082D01*
X75773916Y-78152983D01*
X75784655Y-78168435D01*
X75794627Y-78184438D01*
X75803832Y-78200993D01*
X75812270Y-78218100D01*
X75819940Y-78235758D01*
X75826844Y-78253967D01*
X75830008Y-78263279D01*
X75832981Y-78272728D01*
X75835761Y-78282316D01*
X75838350Y-78292041D01*
X75840747Y-78301904D01*
X75842953Y-78311905D01*
X75844966Y-78322043D01*
X75846788Y-78332320D01*
X75848418Y-78342734D01*
X75849856Y-78353287D01*
X75851103Y-78363977D01*
X75852158Y-78374805D01*
X75853021Y-78385771D01*
X75853692Y-78396874D01*
X75854171Y-78408116D01*
X75854459Y-78419495D01*
X75854555Y-78431013D01*
X75854469Y-78442872D01*
X75854211Y-78454574D01*
X75853782Y-78466119D01*
X75853181Y-78477507D01*
X75852408Y-78488738D01*
X75851464Y-78499812D01*
X75850347Y-78510729D01*
X75849059Y-78521489D01*
X75847600Y-78532093D01*
X75845968Y-78542539D01*
X75844165Y-78552829D01*
X75842190Y-78562961D01*
X75840043Y-78572937D01*
X75837725Y-78582755D01*
X75835235Y-78592417D01*
X75832573Y-78601922D01*
X75826734Y-78620460D01*
X75820208Y-78638371D01*
X75812995Y-78655654D01*
X75805096Y-78672309D01*
X75796509Y-78688337D01*
X75787235Y-78703737D01*
X75777275Y-78718509D01*
X75766627Y-78732653D01*
X75755405Y-78746051D01*
X75743722Y-78758584D01*
X75731577Y-78770254D01*
X75718969Y-78781059D01*
X75705900Y-78790999D01*
X75692370Y-78800075D01*
X75678377Y-78808287D01*
X75663923Y-78815634D01*
X75649007Y-78822117D01*
X75633629Y-78827736D01*
X75617790Y-78832490D01*
X75601489Y-78836380D01*
X75584726Y-78839405D01*
X75567501Y-78841566D01*
X75549814Y-78842862D01*
X75531666Y-78843295D01*
X75517451Y-78842903D01*
X75503322Y-78841726D01*
X75489279Y-78839766D01*
X75475322Y-78837021D01*
X75461451Y-78833492D01*
X75447665Y-78829178D01*
X75433966Y-78824081D01*
X75420352Y-78818199D01*
X75406824Y-78811533D01*
X75393382Y-78804082D01*
X75380026Y-78795848D01*
X75366756Y-78786829D01*
X75353572Y-78777026D01*
X75340473Y-78766438D01*
X75327461Y-78755067D01*
X75314534Y-78742911D01*
X75310382Y-78742911D01*
X75307695Y-78753902D01*
X75305732Y-78762390D01*
X75301841Y-78774096D01*
X75296811Y-78784570D01*
X75290644Y-78793811D01*
X75283338Y-78801820D01*
X75274896Y-78808597D01*
X75265315Y-78814142D01*
X75254597Y-78818455D01*
X75242741Y-78821535D01*
X75229747Y-78823383D01*
X75215615Y-78824000D01*
X75207810Y-78823813D01*
X75197911Y-78822983D01*
X75186352Y-78821011D01*
X75175700Y-78818002D01*
X75165954Y-78813956D01*
X75157114Y-78808872D01*
X75149181Y-78802750D01*
X75146253Y-78800021D01*
X75139760Y-78792554D01*
X75134447Y-78784169D01*
X75130314Y-78774865D01*
X75127363Y-78764644D01*
X75125592Y-78753504D01*
X75125001Y-78741445D01*
X75125001Y-78591725D01*
X75332363Y-78591725D01*
X75340203Y-78601544D01*
X75348213Y-78610730D01*
X75356392Y-78619282D01*
X75364741Y-78627201D01*
X75373260Y-78634486D01*
X75381949Y-78641138D01*
X75390807Y-78647156D01*
X75399836Y-78652541D01*
X75409034Y-78657292D01*
X75418402Y-78661410D01*
X75427940Y-78664894D01*
X75437647Y-78667745D01*
X75447525Y-78669962D01*
X75457572Y-78671546D01*
X75467789Y-78672496D01*
X75478176Y-78672813D01*
X75497963Y-78671858D01*
X75516473Y-78668993D01*
X75533706Y-78664218D01*
X75549663Y-78657533D01*
X75564344Y-78648937D01*
X75577747Y-78638432D01*
X75589875Y-78626017D01*
X75600725Y-78611691D01*
X75610299Y-78595456D01*
X75614608Y-78586622D01*
X75618597Y-78577310D01*
X75622267Y-78567521D01*
X75625618Y-78557255D01*
X75628650Y-78546511D01*
X75631363Y-78535289D01*
X75633756Y-78523590D01*
X75635830Y-78511413D01*
X75637586Y-78498759D01*
X75639022Y-78485628D01*
X75640139Y-78472019D01*
X75640937Y-78457932D01*
X75641415Y-78443368D01*
X75641575Y-78428326D01*
X75641393Y-78414265D01*
X75640846Y-78400597D01*
X75639935Y-78387322D01*
X75638659Y-78374440D01*
X75637019Y-78361951D01*
X75635015Y-78349855D01*
X75632646Y-78338153D01*
X75629912Y-78326843D01*
X75626814Y-78315927D01*
X75623352Y-78305403D01*
X75619525Y-78295273D01*
X75615334Y-78285536D01*
X75610778Y-78276191D01*
X75605858Y-78267240D01*
X75600574Y-78258682D01*
X75594925Y-78250517D01*
X75589002Y-78242768D01*
X75579774Y-78232082D01*
X75570134Y-78222521D01*
X75560082Y-78214085D01*
X75549618Y-78206773D01*
X75538741Y-78200586D01*
X75527452Y-78195524D01*
X75515752Y-78191588D01*
X75503639Y-78188775D01*
X75491114Y-78187088D01*
X75478176Y-78186526D01*
X75473124Y-78186583D01*
X75463116Y-78187045D01*
X75453236Y-78187969D01*
X75443483Y-78189354D01*
X75433859Y-78191201D01*
X75419661Y-78194838D01*
X75410356Y-78197839D01*
X75401179Y-78201302D01*
X75392130Y-78205227D01*
X75383208Y-78209614D01*
X75374414Y-78214463D01*
X75365748Y-78219773D01*
X75357210Y-78225545D01*
X75348800Y-78231779D01*
X75340518Y-78238475D01*
X75332363Y-78245632D01*
X75332363Y-78591725D01*
X75125001Y-78591725D01*
X75125001Y-77804530D01*
X75125404Y-77792049D01*
X75126612Y-77780373D01*
X75128625Y-77769502D01*
X75131443Y-77759437D01*
X75135067Y-77750176D01*
X75142012Y-77737796D01*
X75150769Y-77727227D01*
X75161338Y-77718470D01*
X75173718Y-77711525D01*
X75182978Y-77707901D01*
X75193044Y-77705083D01*
X75203915Y-77703070D01*
X75215591Y-77701862D01*
X75228072Y-77701459D01*
X75240701Y-77701862D01*
G37*
G36*
X74301170Y-79042353D02*
G01*
X74940109Y-79042353D01*
X74950891Y-79041820D01*
X74960612Y-79040223D01*
X74971923Y-79036437D01*
X74981349Y-79030759D01*
X74988890Y-79023187D01*
X74994546Y-79013723D01*
X74998317Y-79002365D01*
X74999907Y-78992605D01*
X75000437Y-78981780D01*
X74999907Y-78970999D01*
X74998317Y-78961278D01*
X74994546Y-78949967D01*
X74988890Y-78940541D01*
X74981349Y-78933000D01*
X74971923Y-78927344D01*
X74960612Y-78923573D01*
X74950891Y-78921983D01*
X74940109Y-78921452D01*
X74301170Y-78921452D01*
X74290389Y-78921983D01*
X74280668Y-78923573D01*
X74269357Y-78927344D01*
X74259930Y-78933000D01*
X74252389Y-78940541D01*
X74246734Y-78949967D01*
X74242963Y-78961278D01*
X74241372Y-78970999D01*
X74240842Y-78981780D01*
X74241372Y-78992605D01*
X74242963Y-79002365D01*
X74246734Y-79013723D01*
X74252389Y-79023187D01*
X74259930Y-79030759D01*
X74269357Y-79036437D01*
X74280668Y-79040223D01*
X74290389Y-79041820D01*
X74301170Y-79042353D01*
G37*
G36*
X73577479Y-78594655D02*
G01*
X73577822Y-78609197D01*
X73578853Y-78623327D01*
X73580570Y-78637048D01*
X73582974Y-78650358D01*
X73586065Y-78663258D01*
X73589843Y-78675748D01*
X73594308Y-78687827D01*
X73599460Y-78699497D01*
X73605299Y-78710756D01*
X73611825Y-78721605D01*
X73619038Y-78732043D01*
X73626938Y-78742071D01*
X73635524Y-78751689D01*
X73644798Y-78760897D01*
X73654759Y-78769695D01*
X73665406Y-78778082D01*
X73676591Y-78785979D01*
X73688163Y-78793366D01*
X73700122Y-78800244D01*
X73712469Y-78806612D01*
X73725203Y-78812471D01*
X73738324Y-78817821D01*
X73751833Y-78822661D01*
X73765729Y-78826991D01*
X73780012Y-78830813D01*
X73794683Y-78834124D01*
X73809741Y-78836926D01*
X73825187Y-78839219D01*
X73841020Y-78841002D01*
X73857240Y-78842276D01*
X73873847Y-78843040D01*
X73890842Y-78843295D01*
X73906253Y-78843031D01*
X73921590Y-78842241D01*
X73936852Y-78840925D01*
X73952040Y-78839081D01*
X73967154Y-78836712D01*
X73982193Y-78833815D01*
X73997157Y-78830392D01*
X74012048Y-78826442D01*
X74026864Y-78821965D01*
X74041605Y-78816962D01*
X74056272Y-78811432D01*
X74070864Y-78805376D01*
X74085383Y-78798793D01*
X74099826Y-78791683D01*
X74114196Y-78784047D01*
X74128490Y-78775884D01*
X74139396Y-78767484D01*
X74148392Y-78758770D01*
X74155476Y-78749744D01*
X74160650Y-78740404D01*
X74163914Y-78730750D01*
X74165267Y-78720783D01*
X74164710Y-78710503D01*
X74162242Y-78699909D01*
X74157863Y-78689002D01*
X74151574Y-78677781D01*
X74146320Y-78670127D01*
X74139878Y-78662157D01*
X74129872Y-78651917D01*
X74119454Y-78643733D01*
X74108623Y-78637606D01*
X74097380Y-78633535D01*
X74085725Y-78631521D01*
X74073658Y-78631563D01*
X74061179Y-78633662D01*
X74048287Y-78637817D01*
X74034984Y-78644029D01*
X74025886Y-78649312D01*
X74021268Y-78652297D01*
X74012379Y-78656792D01*
X74003541Y-78660998D01*
X73990381Y-78666762D01*
X73977338Y-78671874D01*
X73964410Y-78676334D01*
X73951598Y-78680140D01*
X73938902Y-78683295D01*
X73926321Y-78685796D01*
X73913857Y-78687645D01*
X73901509Y-78688842D01*
X73889276Y-78689385D01*
X73885225Y-78689422D01*
X73874932Y-78689222D01*
X73865120Y-78688623D01*
X73852786Y-78687203D01*
X73841307Y-78685074D01*
X73830682Y-78682235D01*
X73820912Y-78678686D01*
X73811998Y-78674427D01*
X73802056Y-78668105D01*
X73800228Y-78666707D01*
X73791855Y-78659227D01*
X73784901Y-78650984D01*
X73779366Y-78641978D01*
X73775250Y-78632208D01*
X73772554Y-78621675D01*
X73771277Y-78610379D01*
X73771163Y-78605646D01*
X73771990Y-78595542D01*
X73774094Y-78587084D01*
X73777983Y-78577896D01*
X73783131Y-78570475D01*
X73789619Y-78562844D01*
X73795343Y-78556798D01*
X73803037Y-78550325D01*
X73811626Y-78544527D01*
X73813906Y-78543120D01*
X73822344Y-78537819D01*
X73830862Y-78532256D01*
X73833201Y-78530664D01*
X73841866Y-78525655D01*
X73851086Y-78521436D01*
X73857137Y-78518940D01*
X73866892Y-78515000D01*
X73876143Y-78511153D01*
X73881805Y-78508682D01*
X73890815Y-78504895D01*
X73900169Y-78501217D01*
X73909405Y-78497691D01*
X73919509Y-78493818D01*
X73929078Y-78490135D01*
X73936027Y-78487433D01*
X73946846Y-78483262D01*
X73957322Y-78479052D01*
X73967454Y-78474805D01*
X73977243Y-78470519D01*
X73986688Y-78466195D01*
X73995790Y-78461833D01*
X74004549Y-78457433D01*
X74012964Y-78452995D01*
X74023303Y-78447190D01*
X74033715Y-78440921D01*
X74042095Y-78435570D01*
X74050522Y-78429922D01*
X74058994Y-78423976D01*
X74067512Y-78417733D01*
X74076076Y-78411192D01*
X74080375Y-78407810D01*
X74088736Y-78400753D01*
X74096602Y-78393384D01*
X74103971Y-78385702D01*
X74110844Y-78377707D01*
X74117221Y-78369399D01*
X74123102Y-78360778D01*
X74128487Y-78351844D01*
X74133375Y-78342597D01*
X74137726Y-78332991D01*
X74141496Y-78323103D01*
X74144687Y-78312933D01*
X74147297Y-78302480D01*
X74149327Y-78291745D01*
X74150778Y-78280727D01*
X74151648Y-78269427D01*
X74151938Y-78257845D01*
X74151624Y-78244627D01*
X74150682Y-78231718D01*
X74149113Y-78219119D01*
X74146916Y-78206828D01*
X74144091Y-78194847D01*
X74140638Y-78183175D01*
X74136557Y-78171812D01*
X74131849Y-78160758D01*
X74126513Y-78150013D01*
X74120549Y-78139578D01*
X74113957Y-78129451D01*
X74106738Y-78119634D01*
X74098890Y-78110125D01*
X74090415Y-78100926D01*
X74081313Y-78092036D01*
X74071582Y-78083455D01*
X74061307Y-78075292D01*
X74050630Y-78067656D01*
X74039554Y-78060546D01*
X74028076Y-78053963D01*
X74016198Y-78047906D01*
X74003919Y-78042377D01*
X73991239Y-78037373D01*
X73978159Y-78032897D01*
X73964678Y-78028947D01*
X73950796Y-78025524D01*
X73936514Y-78022627D01*
X73921831Y-78020257D01*
X73906747Y-78018414D01*
X73891262Y-78017097D01*
X73875377Y-78016307D01*
X73859091Y-78016044D01*
X73845247Y-78016270D01*
X73831499Y-78016949D01*
X73817846Y-78018079D01*
X73804289Y-78019662D01*
X73790827Y-78021697D01*
X73777460Y-78024184D01*
X73764189Y-78027124D01*
X73751013Y-78030516D01*
X73737933Y-78034360D01*
X73724948Y-78038656D01*
X73712058Y-78043404D01*
X73699264Y-78048605D01*
X73686566Y-78054258D01*
X73673962Y-78060363D01*
X73661454Y-78066920D01*
X73649042Y-78073930D01*
X73638432Y-78081351D01*
X73629776Y-78089237D01*
X73623074Y-78097586D01*
X73618324Y-78106399D01*
X73615031Y-78118870D01*
X73614840Y-78128765D01*
X73616602Y-78139123D01*
X73620318Y-78149946D01*
X73625988Y-78161231D01*
X73633610Y-78172981D01*
X73636585Y-78177000D01*
X73645320Y-78187419D01*
X73654489Y-78196051D01*
X73664091Y-78202898D01*
X73674126Y-78207958D01*
X73684596Y-78211232D01*
X73695498Y-78212721D01*
X73706835Y-78212423D01*
X73718605Y-78210339D01*
X73730809Y-78206470D01*
X73743446Y-78200814D01*
X73752112Y-78196051D01*
X73762551Y-78191643D01*
X73772800Y-78187668D01*
X73782861Y-78184126D01*
X73792733Y-78181019D01*
X73802416Y-78178345D01*
X73815032Y-78175454D01*
X73827313Y-78173334D01*
X73839258Y-78171985D01*
X73850867Y-78171407D01*
X73853717Y-78171383D01*
X73866198Y-78171677D01*
X73877874Y-78172562D01*
X73888745Y-78174036D01*
X73898811Y-78176100D01*
X73912399Y-78180301D01*
X73924176Y-78185828D01*
X73934140Y-78192683D01*
X73942293Y-78200863D01*
X73948635Y-78210371D01*
X73953164Y-78221205D01*
X73955882Y-78233366D01*
X73956788Y-78246854D01*
X73956223Y-78256612D01*
X73954353Y-78266309D01*
X73953368Y-78269568D01*
X73948927Y-78278310D01*
X73942208Y-78286010D01*
X73938958Y-78288863D01*
X73931196Y-78295229D01*
X73923355Y-78301614D01*
X73920396Y-78304006D01*
X73911667Y-78309770D01*
X73902856Y-78314402D01*
X73894262Y-78318417D01*
X73884535Y-78322760D01*
X73875405Y-78326814D01*
X73866174Y-78330873D01*
X73856751Y-78334525D01*
X73846935Y-78338211D01*
X73837670Y-78341639D01*
X73831735Y-78343818D01*
X73821656Y-78347526D01*
X73811882Y-78351163D01*
X73802284Y-78354808D01*
X73797297Y-78356763D01*
X73785528Y-78361533D01*
X73774277Y-78366197D01*
X73763546Y-78370753D01*
X73753333Y-78375203D01*
X73743640Y-78379546D01*
X73734466Y-78383782D01*
X73723728Y-78388927D01*
X73717674Y-78391934D01*
X73707709Y-78397181D01*
X73697505Y-78403001D01*
X73687063Y-78409393D01*
X73678537Y-78414919D01*
X73669859Y-78420812D01*
X73661028Y-78427071D01*
X73652044Y-78433696D01*
X73649775Y-78435409D01*
X73640967Y-78442443D01*
X73632739Y-78449865D01*
X73625091Y-78457677D01*
X73618023Y-78465878D01*
X73611535Y-78474469D01*
X73605628Y-78483449D01*
X73600300Y-78492818D01*
X73595553Y-78502576D01*
X73591317Y-78512723D01*
X73587645Y-78523260D01*
X73584539Y-78534186D01*
X73581997Y-78545502D01*
X73580020Y-78557206D01*
X73578608Y-78569300D01*
X73577761Y-78581783D01*
X73577479Y-78594655D01*
G37*
G36*
X73188156Y-78198982D02*
G01*
X73188156Y-78547761D01*
X73187737Y-78563909D01*
X73186480Y-78579016D01*
X73184386Y-78593081D01*
X73181454Y-78606104D01*
X73177685Y-78618086D01*
X73173077Y-78629025D01*
X73167632Y-78638923D01*
X73161350Y-78647778D01*
X73154230Y-78655592D01*
X73146272Y-78662364D01*
X73137476Y-78668094D01*
X73127843Y-78672783D01*
X73117372Y-78676429D01*
X73106063Y-78679034D01*
X73093917Y-78680597D01*
X73080933Y-78681117D01*
X73078246Y-78681117D01*
X73064833Y-78678826D01*
X73052438Y-78678178D01*
X73041060Y-78679175D01*
X73030699Y-78681816D01*
X73021356Y-78686101D01*
X73013031Y-78692031D01*
X73005723Y-78699605D01*
X72999432Y-78708824D01*
X72994159Y-78719687D01*
X72989904Y-78732194D01*
X72987632Y-78741445D01*
X72985445Y-78754848D01*
X72984564Y-78767211D01*
X72984987Y-78778536D01*
X72986716Y-78788821D01*
X72991052Y-78800919D01*
X72997707Y-78811169D01*
X73006683Y-78819573D01*
X73017979Y-78826129D01*
X73027974Y-78829834D01*
X73031596Y-78830838D01*
X73041850Y-78833064D01*
X73052006Y-78835072D01*
X73062063Y-78836860D01*
X73072022Y-78838429D01*
X73081882Y-78839779D01*
X73091642Y-78840910D01*
X73104503Y-78842078D01*
X73117189Y-78842857D01*
X73129698Y-78843246D01*
X73135888Y-78843295D01*
X73151861Y-78843006D01*
X73167327Y-78842140D01*
X73182286Y-78840697D01*
X73196738Y-78838677D01*
X73210683Y-78836080D01*
X73224121Y-78832905D01*
X73237052Y-78829153D01*
X73249476Y-78824824D01*
X73261392Y-78819917D01*
X73272802Y-78814434D01*
X73283704Y-78808373D01*
X73294100Y-78801735D01*
X73303988Y-78794520D01*
X73313369Y-78786728D01*
X73322243Y-78778358D01*
X73330610Y-78769411D01*
X73338470Y-78759887D01*
X73345823Y-78749786D01*
X73352669Y-78739107D01*
X73359007Y-78727852D01*
X73364839Y-78716019D01*
X73370163Y-78703609D01*
X73374981Y-78690621D01*
X73379291Y-78677057D01*
X73383094Y-78662915D01*
X73386390Y-78648196D01*
X73389179Y-78632900D01*
X73391461Y-78617027D01*
X73393236Y-78600576D01*
X73394504Y-78583548D01*
X73395264Y-78565943D01*
X73395518Y-78547761D01*
X73395518Y-78198982D01*
X73429956Y-78198982D01*
X73443443Y-78198293D01*
X73455604Y-78196226D01*
X73466439Y-78192780D01*
X73475946Y-78187957D01*
X73484127Y-78181755D01*
X73490981Y-78174175D01*
X73496509Y-78165217D01*
X73500710Y-78154881D01*
X73503584Y-78143167D01*
X73505132Y-78130074D01*
X73505427Y-78120580D01*
X73504800Y-78107264D01*
X73502920Y-78095158D01*
X73499786Y-78084263D01*
X73495398Y-78074578D01*
X73489756Y-78066105D01*
X73482861Y-78058842D01*
X73474713Y-78052790D01*
X73465310Y-78047948D01*
X73454654Y-78044318D01*
X73442744Y-78041898D01*
X73434108Y-78040957D01*
X73384527Y-78036805D01*
X73369384Y-77904914D01*
X73367218Y-77890684D01*
X73363742Y-77877854D01*
X73358957Y-77866424D01*
X73352863Y-77856393D01*
X73345459Y-77847762D01*
X73336746Y-77840531D01*
X73326723Y-77834699D01*
X73315391Y-77830267D01*
X73302749Y-77827234D01*
X73288798Y-77825602D01*
X73278770Y-77825290D01*
X73267797Y-77825623D01*
X73257532Y-77826619D01*
X73243462Y-77829358D01*
X73230985Y-77833591D01*
X73220101Y-77839318D01*
X73210809Y-77846540D01*
X73203110Y-77855255D01*
X73197005Y-77865465D01*
X73192492Y-77877168D01*
X73189571Y-77890366D01*
X73188244Y-77905058D01*
X73188156Y-77910287D01*
X73188156Y-78036805D01*
X73075560Y-78036805D01*
X73065740Y-78037122D01*
X73052199Y-78038785D01*
X73040083Y-78041873D01*
X73029393Y-78046387D01*
X73020128Y-78052326D01*
X73012288Y-78059690D01*
X73005874Y-78068480D01*
X73000885Y-78078695D01*
X72997322Y-78090336D01*
X72995184Y-78103402D01*
X72994471Y-78117893D01*
X72994788Y-78127713D01*
X72996451Y-78141254D01*
X72999539Y-78153370D01*
X73004053Y-78164060D01*
X73009992Y-78173325D01*
X73017356Y-78181165D01*
X73026146Y-78187579D01*
X73036361Y-78192568D01*
X73048002Y-78196131D01*
X73061068Y-78198269D01*
X73075560Y-78198982D01*
X73188156Y-78198982D01*
G37*
G36*
X72162580Y-78138410D02*
G01*
X72162580Y-78740224D01*
X72162923Y-78750369D01*
X72164726Y-78764359D01*
X72168075Y-78776876D01*
X72172970Y-78787920D01*
X72179410Y-78797492D01*
X72187395Y-78805592D01*
X72196926Y-78812219D01*
X72208003Y-78817373D01*
X72220626Y-78821054D01*
X72234794Y-78823263D01*
X72245098Y-78823918D01*
X72250507Y-78824000D01*
X72260365Y-78823705D01*
X72274106Y-78822157D01*
X72286594Y-78819283D01*
X72297828Y-78815082D01*
X72307809Y-78809554D01*
X72316536Y-78802700D01*
X72324009Y-78794519D01*
X72330229Y-78785011D01*
X72335195Y-78774177D01*
X72338907Y-78762016D01*
X72341366Y-78748528D01*
X72346739Y-78711404D01*
X72352357Y-78711404D01*
X72359331Y-78719518D01*
X72366361Y-78727375D01*
X72373449Y-78734974D01*
X72380593Y-78742316D01*
X72387794Y-78749400D01*
X72395052Y-78756226D01*
X72402367Y-78762795D01*
X72417166Y-78775160D01*
X72432193Y-78786494D01*
X72447447Y-78796798D01*
X72462928Y-78806072D01*
X72478636Y-78814315D01*
X72494570Y-78821527D01*
X72510732Y-78827710D01*
X72527122Y-78832862D01*
X72543738Y-78836983D01*
X72560581Y-78840075D01*
X72577651Y-78842135D01*
X72594949Y-78843166D01*
X72603682Y-78843295D01*
X72618559Y-78842987D01*
X72632963Y-78842066D01*
X72646895Y-78840530D01*
X72660354Y-78838379D01*
X72673342Y-78835614D01*
X72685857Y-78832235D01*
X72697900Y-78828241D01*
X72709470Y-78823633D01*
X72720568Y-78818411D01*
X72731194Y-78812574D01*
X72741348Y-78806122D01*
X72751030Y-78799056D01*
X72760239Y-78791376D01*
X72768976Y-78783081D01*
X72777240Y-78774172D01*
X72785033Y-78764648D01*
X72792353Y-78754511D01*
X72799201Y-78743758D01*
X72805576Y-78732391D01*
X72811480Y-78720410D01*
X72816911Y-78707814D01*
X72821869Y-78694604D01*
X72826356Y-78680780D01*
X72830370Y-78666341D01*
X72833912Y-78651287D01*
X72836982Y-78635620D01*
X72839579Y-78619337D01*
X72841705Y-78602441D01*
X72843358Y-78584930D01*
X72844538Y-78566804D01*
X72845247Y-78548064D01*
X72845483Y-78528710D01*
X72845483Y-78138410D01*
X72845075Y-78126106D01*
X72843853Y-78114596D01*
X72841816Y-78103880D01*
X72838965Y-78093958D01*
X72835298Y-78084829D01*
X72828271Y-78072625D01*
X72819410Y-78062206D01*
X72808716Y-78053574D01*
X72796189Y-78046727D01*
X72786819Y-78043155D01*
X72776634Y-78040377D01*
X72765634Y-78038392D01*
X72753820Y-78037202D01*
X72741191Y-78036805D01*
X72728858Y-78037202D01*
X72717320Y-78038392D01*
X72706578Y-78040377D01*
X72696632Y-78043155D01*
X72687482Y-78046727D01*
X72675248Y-78053574D01*
X72664804Y-78062206D01*
X72656151Y-78072625D01*
X72649288Y-78084829D01*
X72645707Y-78093958D01*
X72642922Y-78103880D01*
X72640933Y-78114596D01*
X72639740Y-78126106D01*
X72639342Y-78138410D01*
X72639342Y-78502576D01*
X72639241Y-78513516D01*
X72638937Y-78524050D01*
X72638432Y-78534178D01*
X72637294Y-78548607D01*
X72635701Y-78562122D01*
X72633653Y-78574722D01*
X72631150Y-78586408D01*
X72628192Y-78597179D01*
X72624779Y-78607036D01*
X72619520Y-78618755D01*
X72613452Y-78628849D01*
X72606423Y-78637551D01*
X72598401Y-78645092D01*
X72589387Y-78651472D01*
X72579380Y-78656693D01*
X72568382Y-78660754D01*
X72556391Y-78663654D01*
X72543408Y-78665394D01*
X72533019Y-78665938D01*
X72529433Y-78665974D01*
X72517598Y-78665631D01*
X72506153Y-78664601D01*
X72495097Y-78662883D01*
X72484431Y-78660479D01*
X72474154Y-78657388D01*
X72464266Y-78653610D01*
X72454767Y-78649145D01*
X72445657Y-78643993D01*
X72436655Y-78638005D01*
X72427476Y-78631032D01*
X72418123Y-78623075D01*
X72408593Y-78614134D01*
X72401331Y-78606782D01*
X72393970Y-78598875D01*
X72386511Y-78590415D01*
X72378952Y-78581401D01*
X72371295Y-78571834D01*
X72368721Y-78568521D01*
X72368721Y-78138410D01*
X72368313Y-78126106D01*
X72367091Y-78114596D01*
X72365054Y-78103880D01*
X72362203Y-78093958D01*
X72358536Y-78084829D01*
X72351509Y-78072625D01*
X72342648Y-78062206D01*
X72331954Y-78053574D01*
X72319427Y-78046727D01*
X72310057Y-78043155D01*
X72299872Y-78040377D01*
X72288872Y-78038392D01*
X72277058Y-78037202D01*
X72264429Y-78036805D01*
X72252096Y-78037202D01*
X72240558Y-78038392D01*
X72229816Y-78040377D01*
X72219870Y-78043155D01*
X72210720Y-78046727D01*
X72198486Y-78053574D01*
X72188042Y-78062206D01*
X72179389Y-78072625D01*
X72172526Y-78084829D01*
X72168945Y-78093958D01*
X72166160Y-78103880D01*
X72164171Y-78114596D01*
X72162978Y-78126106D01*
X72162580Y-78138410D01*
G37*
G36*
X71377756Y-77701862D02*
G01*
X71389570Y-77703070D01*
X71400570Y-77705083D01*
X71410755Y-77707901D01*
X71420124Y-77711525D01*
X71432652Y-77718470D01*
X71443346Y-77727227D01*
X71452206Y-77737796D01*
X71459234Y-77750176D01*
X71462900Y-77759437D01*
X71465752Y-77769502D01*
X71467789Y-77780373D01*
X71469011Y-77792049D01*
X71469419Y-77804530D01*
X71469419Y-77979163D01*
X71461359Y-78102750D01*
X71464273Y-78100025D01*
X71473002Y-78092114D01*
X71481710Y-78084603D01*
X71490396Y-78077491D01*
X71499060Y-78070779D01*
X71507704Y-78064465D01*
X71516325Y-78058551D01*
X71524926Y-78053036D01*
X71533504Y-78047921D01*
X71542062Y-78043205D01*
X71553438Y-78037538D01*
X71564994Y-78032500D01*
X71577069Y-78028134D01*
X71586465Y-78025301D01*
X71596154Y-78022845D01*
X71606135Y-78020767D01*
X71616407Y-78019067D01*
X71626971Y-78017744D01*
X71637828Y-78016800D01*
X71648976Y-78016233D01*
X71660417Y-78016044D01*
X71677126Y-78016493D01*
X71693550Y-78017838D01*
X71709687Y-78020080D01*
X71725538Y-78023219D01*
X71741103Y-78027255D01*
X71756381Y-78032187D01*
X71771373Y-78038016D01*
X71786079Y-78044743D01*
X71800499Y-78052366D01*
X71814633Y-78060886D01*
X71828480Y-78070302D01*
X71842042Y-78080616D01*
X71855317Y-78091826D01*
X71868305Y-78103933D01*
X71881008Y-78116937D01*
X71893424Y-78130838D01*
X71899465Y-78138082D01*
X71910971Y-78152983D01*
X71921710Y-78168435D01*
X71931682Y-78184438D01*
X71940887Y-78200993D01*
X71949325Y-78218100D01*
X71956996Y-78235758D01*
X71963899Y-78253967D01*
X71967063Y-78263279D01*
X71970036Y-78272728D01*
X71972816Y-78282316D01*
X71975405Y-78292041D01*
X71977802Y-78301904D01*
X71980008Y-78311905D01*
X71982021Y-78322043D01*
X71983843Y-78332320D01*
X71985473Y-78342734D01*
X71986911Y-78353287D01*
X71988158Y-78363977D01*
X71989213Y-78374805D01*
X71990076Y-78385771D01*
X71990747Y-78396874D01*
X71991226Y-78408116D01*
X71991514Y-78419495D01*
X71991610Y-78431013D01*
X71991524Y-78442872D01*
X71991266Y-78454574D01*
X71990837Y-78466119D01*
X71990236Y-78477507D01*
X71989463Y-78488738D01*
X71988519Y-78499812D01*
X71987402Y-78510729D01*
X71986114Y-78521489D01*
X71984655Y-78532093D01*
X71983023Y-78542539D01*
X71981220Y-78552829D01*
X71979245Y-78562961D01*
X71977098Y-78572937D01*
X71974780Y-78582755D01*
X71972290Y-78592417D01*
X71969628Y-78601922D01*
X71963789Y-78620460D01*
X71957263Y-78638371D01*
X71950050Y-78655654D01*
X71942151Y-78672309D01*
X71933564Y-78688337D01*
X71924290Y-78703737D01*
X71914330Y-78718509D01*
X71903682Y-78732653D01*
X71892461Y-78746051D01*
X71880777Y-78758584D01*
X71868632Y-78770254D01*
X71856025Y-78781059D01*
X71842956Y-78790999D01*
X71829425Y-78800075D01*
X71815433Y-78808287D01*
X71800978Y-78815634D01*
X71786062Y-78822117D01*
X71770685Y-78827736D01*
X71754845Y-78832490D01*
X71738544Y-78836380D01*
X71721781Y-78839405D01*
X71704556Y-78841566D01*
X71686869Y-78842862D01*
X71668721Y-78843295D01*
X71654506Y-78842903D01*
X71640377Y-78841726D01*
X71626334Y-78839766D01*
X71612377Y-78837021D01*
X71598506Y-78833492D01*
X71584720Y-78829178D01*
X71571021Y-78824081D01*
X71557407Y-78818199D01*
X71543879Y-78811533D01*
X71530437Y-78804082D01*
X71517081Y-78795848D01*
X71503811Y-78786829D01*
X71490627Y-78777026D01*
X71477528Y-78766438D01*
X71464516Y-78755067D01*
X71451589Y-78742911D01*
X71447437Y-78742911D01*
X71444750Y-78753902D01*
X71442788Y-78762390D01*
X71438896Y-78774096D01*
X71433866Y-78784570D01*
X71427699Y-78793811D01*
X71420394Y-78801820D01*
X71411951Y-78808597D01*
X71402370Y-78814142D01*
X71391652Y-78818455D01*
X71379796Y-78821535D01*
X71366802Y-78823383D01*
X71352671Y-78824000D01*
X71344865Y-78823813D01*
X71334966Y-78822983D01*
X71323407Y-78821011D01*
X71312755Y-78818002D01*
X71303009Y-78813956D01*
X71294170Y-78808872D01*
X71286236Y-78802750D01*
X71283308Y-78800021D01*
X71276815Y-78792554D01*
X71271502Y-78784169D01*
X71267369Y-78774865D01*
X71264418Y-78764644D01*
X71262647Y-78753504D01*
X71262056Y-78741445D01*
X71262056Y-78591725D01*
X71469419Y-78591725D01*
X71477258Y-78601544D01*
X71485268Y-78610730D01*
X71493447Y-78619282D01*
X71501796Y-78627201D01*
X71510315Y-78634486D01*
X71519004Y-78641138D01*
X71527862Y-78647156D01*
X71536891Y-78652541D01*
X71546089Y-78657292D01*
X71555457Y-78661410D01*
X71564995Y-78664894D01*
X71574703Y-78667745D01*
X71584580Y-78669962D01*
X71594627Y-78671546D01*
X71604845Y-78672496D01*
X71615232Y-78672813D01*
X71635018Y-78671858D01*
X71653528Y-78668993D01*
X71670762Y-78664218D01*
X71686718Y-78657533D01*
X71701399Y-78648937D01*
X71714803Y-78638432D01*
X71726930Y-78626017D01*
X71737780Y-78611691D01*
X71747355Y-78595456D01*
X71751663Y-78586622D01*
X71755652Y-78577310D01*
X71759322Y-78567521D01*
X71762673Y-78557255D01*
X71765705Y-78546511D01*
X71768418Y-78535289D01*
X71770811Y-78523590D01*
X71772886Y-78511413D01*
X71774641Y-78498759D01*
X71776077Y-78485628D01*
X71777194Y-78472019D01*
X71777992Y-78457932D01*
X71778470Y-78443368D01*
X71778630Y-78428326D01*
X71778448Y-78414265D01*
X71777901Y-78400597D01*
X71776990Y-78387322D01*
X71775714Y-78374440D01*
X71774074Y-78361951D01*
X71772070Y-78349855D01*
X71769701Y-78338153D01*
X71766967Y-78326843D01*
X71763870Y-78315927D01*
X71760407Y-78305403D01*
X71756580Y-78295273D01*
X71752389Y-78285536D01*
X71747834Y-78276191D01*
X71742913Y-78267240D01*
X71737629Y-78258682D01*
X71731980Y-78250517D01*
X71726057Y-78242768D01*
X71716829Y-78232082D01*
X71707189Y-78222521D01*
X71697137Y-78214085D01*
X71686673Y-78206773D01*
X71675796Y-78200586D01*
X71664508Y-78195524D01*
X71652807Y-78191588D01*
X71640694Y-78188775D01*
X71628169Y-78187088D01*
X71615232Y-78186526D01*
X71610180Y-78186583D01*
X71600171Y-78187045D01*
X71590291Y-78187969D01*
X71580538Y-78189354D01*
X71570914Y-78191201D01*
X71556716Y-78194838D01*
X71547411Y-78197839D01*
X71538234Y-78201302D01*
X71529185Y-78205227D01*
X71520263Y-78209614D01*
X71511469Y-78214463D01*
X71502804Y-78219773D01*
X71494266Y-78225545D01*
X71485855Y-78231779D01*
X71477573Y-78238475D01*
X71469419Y-78245632D01*
X71469419Y-78591725D01*
X71262056Y-78591725D01*
X71262056Y-77804530D01*
X71262459Y-77792049D01*
X71263667Y-77780373D01*
X71265680Y-77769502D01*
X71268498Y-77759437D01*
X71272122Y-77750176D01*
X71279067Y-77737796D01*
X71287824Y-77727227D01*
X71298393Y-77718470D01*
X71310773Y-77711525D01*
X71320034Y-77707901D01*
X71330099Y-77705083D01*
X71340970Y-77703070D01*
X71352646Y-77701862D01*
X71365127Y-77701459D01*
X71377756Y-77701862D01*
G37*
G36*
X70840738Y-78138410D02*
G01*
X70840738Y-78720929D01*
X70841134Y-78733410D01*
X70842325Y-78745086D01*
X70844310Y-78755957D01*
X70847088Y-78766022D01*
X70850660Y-78775283D01*
X70857506Y-78787663D01*
X70866139Y-78798232D01*
X70876557Y-78806989D01*
X70888762Y-78813934D01*
X70897890Y-78817558D01*
X70907813Y-78820376D01*
X70918529Y-78822389D01*
X70930039Y-78823597D01*
X70942343Y-78824000D01*
X70954824Y-78823597D01*
X70966500Y-78822389D01*
X70977370Y-78820376D01*
X70987436Y-78817558D01*
X70996696Y-78813934D01*
X71009077Y-78806989D01*
X71019645Y-78798232D01*
X71028402Y-78787663D01*
X71035348Y-78775283D01*
X71038971Y-78766022D01*
X71041789Y-78755957D01*
X71043803Y-78745086D01*
X71045010Y-78733410D01*
X71045413Y-78720929D01*
X71045413Y-78138410D01*
X71045010Y-78126106D01*
X71043803Y-78114596D01*
X71041789Y-78103880D01*
X71038971Y-78093958D01*
X71035348Y-78084829D01*
X71028402Y-78072625D01*
X71019645Y-78062206D01*
X71009077Y-78053574D01*
X70996696Y-78046727D01*
X70987436Y-78043155D01*
X70977370Y-78040377D01*
X70966500Y-78038392D01*
X70954824Y-78037202D01*
X70942343Y-78036805D01*
X70930039Y-78037202D01*
X70918529Y-78038392D01*
X70907813Y-78040377D01*
X70897890Y-78043155D01*
X70888762Y-78046727D01*
X70876557Y-78053574D01*
X70866139Y-78062206D01*
X70857506Y-78072625D01*
X70850660Y-78084829D01*
X70847088Y-78093958D01*
X70844310Y-78103880D01*
X70842325Y-78114596D01*
X70841134Y-78126106D01*
X70840738Y-78138410D01*
G37*
G36*
X71064708Y-77796226D02*
G01*
X71064162Y-77783849D01*
X71062525Y-77772122D01*
X71059797Y-77761043D01*
X71055977Y-77750613D01*
X71051065Y-77740832D01*
X71045062Y-77731700D01*
X71037967Y-77723216D01*
X71029781Y-77715381D01*
X71020703Y-77708283D01*
X71011051Y-77702131D01*
X71000827Y-77696926D01*
X70990031Y-77692667D01*
X70978662Y-77689354D01*
X70966721Y-77686988D01*
X70954207Y-77685568D01*
X70944447Y-77685125D01*
X70941121Y-77685095D01*
X70931218Y-77685368D01*
X70918548Y-77686579D01*
X70906488Y-77688760D01*
X70895040Y-77691911D01*
X70884201Y-77696030D01*
X70873974Y-77701119D01*
X70864357Y-77707178D01*
X70855350Y-77714206D01*
X70853194Y-77716114D01*
X70845122Y-77724098D01*
X70838127Y-77732661D01*
X70832208Y-77741805D01*
X70827365Y-77751529D01*
X70823599Y-77761833D01*
X70820908Y-77772717D01*
X70819294Y-77784181D01*
X70818756Y-77796226D01*
X70819305Y-77808010D01*
X70820954Y-77819307D01*
X70823702Y-77830114D01*
X70827548Y-77840434D01*
X70832494Y-77850264D01*
X70838539Y-77859607D01*
X70845683Y-77868460D01*
X70853927Y-77876826D01*
X70862929Y-77884382D01*
X70872474Y-77890931D01*
X70882560Y-77896472D01*
X70893189Y-77901006D01*
X70904359Y-77904532D01*
X70916071Y-77907051D01*
X70928325Y-77908562D01*
X70941121Y-77909066D01*
X70950990Y-77908782D01*
X70963646Y-77907523D01*
X70975731Y-77905256D01*
X70987242Y-77901982D01*
X70998182Y-77897700D01*
X71008549Y-77892411D01*
X71018343Y-77886114D01*
X71027565Y-77878809D01*
X71029781Y-77876826D01*
X71037967Y-77868460D01*
X71045062Y-77859607D01*
X71051065Y-77850264D01*
X71055977Y-77840434D01*
X71059797Y-77830114D01*
X71062525Y-77819307D01*
X71064162Y-77808010D01*
X71064708Y-77796226D01*
G37*
G36*
X70309951Y-78016488D02*
G01*
X70328862Y-78017819D01*
X70347435Y-78020037D01*
X70365670Y-78023142D01*
X70383567Y-78027135D01*
X70401127Y-78032015D01*
X70418349Y-78037783D01*
X70435233Y-78044437D01*
X70451780Y-78051979D01*
X70467989Y-78060409D01*
X70483860Y-78069725D01*
X70499393Y-78079929D01*
X70514588Y-78091020D01*
X70529446Y-78102998D01*
X70543966Y-78115864D01*
X70551100Y-78122630D01*
X70558149Y-78129617D01*
X70565031Y-78136773D01*
X70571694Y-78144075D01*
X70578140Y-78151523D01*
X70584367Y-78159117D01*
X70590375Y-78166857D01*
X70596165Y-78174743D01*
X70601736Y-78182775D01*
X70607089Y-78190953D01*
X70612223Y-78199276D01*
X70617139Y-78207746D01*
X70621836Y-78216362D01*
X70626315Y-78225124D01*
X70630576Y-78234031D01*
X70634618Y-78243085D01*
X70638441Y-78252285D01*
X70642046Y-78261630D01*
X70645432Y-78271122D01*
X70648600Y-78280760D01*
X70651550Y-78290543D01*
X70654281Y-78300473D01*
X70656794Y-78310548D01*
X70659088Y-78320770D01*
X70661163Y-78331137D01*
X70663020Y-78341650D01*
X70664659Y-78352310D01*
X70666079Y-78363115D01*
X70667281Y-78374066D01*
X70668264Y-78385164D01*
X70669029Y-78396407D01*
X70669575Y-78407796D01*
X70669903Y-78419332D01*
X70670012Y-78431013D01*
X70669903Y-78442618D01*
X70669575Y-78454079D01*
X70669029Y-78465396D01*
X70668264Y-78476568D01*
X70667281Y-78487595D01*
X70666079Y-78498478D01*
X70664659Y-78509217D01*
X70663020Y-78519810D01*
X70661163Y-78530260D01*
X70659088Y-78540564D01*
X70656794Y-78550724D01*
X70654281Y-78560740D01*
X70651550Y-78570611D01*
X70648600Y-78580338D01*
X70645432Y-78589920D01*
X70642046Y-78599357D01*
X70638441Y-78608650D01*
X70634618Y-78617798D01*
X70630576Y-78626802D01*
X70626315Y-78635662D01*
X70621836Y-78644376D01*
X70617139Y-78652947D01*
X70607089Y-78669653D01*
X70596165Y-78685782D01*
X70584367Y-78701332D01*
X70578140Y-78708891D01*
X70571694Y-78716305D01*
X70565031Y-78723574D01*
X70558149Y-78730699D01*
X70551100Y-78737626D01*
X70543967Y-78744333D01*
X70529450Y-78757088D01*
X70514597Y-78768964D01*
X70499408Y-78779959D01*
X70483883Y-78790076D01*
X70468023Y-78799312D01*
X70451827Y-78807669D01*
X70435294Y-78815146D01*
X70418426Y-78821743D01*
X70401223Y-78827461D01*
X70383683Y-78832299D01*
X70365807Y-78836257D01*
X70347596Y-78839336D01*
X70329049Y-78841535D01*
X70310166Y-78842855D01*
X70290947Y-78843295D01*
X70281281Y-78843185D01*
X70262207Y-78842305D01*
X70243477Y-78840546D01*
X70225090Y-78837907D01*
X70207047Y-78834388D01*
X70189347Y-78829990D01*
X70171990Y-78824712D01*
X70154977Y-78818554D01*
X70138308Y-78811517D01*
X70121981Y-78803600D01*
X70105999Y-78794804D01*
X70090360Y-78785127D01*
X70075064Y-78774572D01*
X70060112Y-78763136D01*
X70045503Y-78750821D01*
X70031238Y-78737626D01*
X70024234Y-78730699D01*
X70017382Y-78723574D01*
X70010747Y-78716305D01*
X70004330Y-78708891D01*
X69992148Y-78693629D01*
X69980837Y-78677790D01*
X69970395Y-78661372D01*
X69960824Y-78644376D01*
X69956365Y-78635662D01*
X69952123Y-78626802D01*
X69948099Y-78617798D01*
X69944292Y-78608650D01*
X69940703Y-78599357D01*
X69937331Y-78589920D01*
X69934177Y-78580338D01*
X69931240Y-78570611D01*
X69928521Y-78560740D01*
X69926019Y-78550724D01*
X69923735Y-78540564D01*
X69921669Y-78530260D01*
X69919820Y-78519810D01*
X69918188Y-78509217D01*
X69916774Y-78498478D01*
X69915578Y-78487595D01*
X69914599Y-78476568D01*
X69913838Y-78465396D01*
X69913294Y-78454079D01*
X69912968Y-78442618D01*
X69912859Y-78431013D01*
X70124618Y-78431013D01*
X70124786Y-78444903D01*
X70125293Y-78458425D01*
X70126137Y-78471579D01*
X70127319Y-78484365D01*
X70128839Y-78496782D01*
X70130697Y-78508831D01*
X70132892Y-78520512D01*
X70135425Y-78531824D01*
X70138296Y-78542768D01*
X70141505Y-78553344D01*
X70145051Y-78563552D01*
X70148935Y-78573391D01*
X70153157Y-78582862D01*
X70157716Y-78591965D01*
X70162613Y-78600700D01*
X70167848Y-78609066D01*
X70176276Y-78620720D01*
X70185348Y-78631228D01*
X70195064Y-78640590D01*
X70205424Y-78648805D01*
X70216428Y-78655874D01*
X70228075Y-78661796D01*
X70240367Y-78666573D01*
X70253303Y-78670203D01*
X70266883Y-78672687D01*
X70281107Y-78674024D01*
X70290947Y-78674279D01*
X70300760Y-78674024D01*
X70314959Y-78672687D01*
X70328530Y-78670203D01*
X70341474Y-78666573D01*
X70353792Y-78661796D01*
X70365482Y-78655874D01*
X70376546Y-78648805D01*
X70386983Y-78640590D01*
X70396794Y-78631228D01*
X70405977Y-78620720D01*
X70414534Y-78609066D01*
X70419857Y-78600700D01*
X70424838Y-78591965D01*
X70429475Y-78582862D01*
X70433768Y-78573391D01*
X70437718Y-78563552D01*
X70441324Y-78553344D01*
X70444587Y-78542768D01*
X70447507Y-78531824D01*
X70450083Y-78520512D01*
X70452315Y-78508831D01*
X70454204Y-78496782D01*
X70455750Y-78484365D01*
X70456952Y-78471579D01*
X70457811Y-78458425D01*
X70458326Y-78444903D01*
X70458497Y-78431013D01*
X70458336Y-78417758D01*
X70457853Y-78404799D01*
X70457046Y-78392135D01*
X70455918Y-78379768D01*
X70454467Y-78367696D01*
X70452693Y-78355920D01*
X70450597Y-78344439D01*
X70448178Y-78333255D01*
X70445437Y-78322366D01*
X70442374Y-78311773D01*
X70438988Y-78301475D01*
X70435279Y-78291474D01*
X70431248Y-78281768D01*
X70426895Y-78272358D01*
X70422219Y-78263244D01*
X70417220Y-78254425D01*
X70411889Y-78246026D01*
X70403248Y-78234442D01*
X70393834Y-78224078D01*
X70383648Y-78214933D01*
X70372688Y-78207008D01*
X70360956Y-78200302D01*
X70348451Y-78194815D01*
X70335173Y-78190547D01*
X70321122Y-78187499D01*
X70311326Y-78186144D01*
X70301186Y-78185331D01*
X70290703Y-78185060D01*
X70280892Y-78185318D01*
X70266709Y-78186670D01*
X70253166Y-78189182D01*
X70240262Y-78192853D01*
X70227998Y-78197683D01*
X70216374Y-78203672D01*
X70205389Y-78210820D01*
X70195045Y-78219128D01*
X70185340Y-78228595D01*
X70176274Y-78239221D01*
X70167848Y-78251006D01*
X70162613Y-78259437D01*
X70157716Y-78268244D01*
X70153157Y-78277427D01*
X70148935Y-78286986D01*
X70145051Y-78296921D01*
X70141505Y-78307231D01*
X70138296Y-78317918D01*
X70135425Y-78328980D01*
X70132892Y-78340419D01*
X70130697Y-78352233D01*
X70128839Y-78364423D01*
X70127319Y-78376989D01*
X70126137Y-78389931D01*
X70125293Y-78403249D01*
X70124786Y-78416943D01*
X70124618Y-78431013D01*
X69912859Y-78431013D01*
X69912962Y-78419913D01*
X69913273Y-78408931D01*
X69913791Y-78398066D01*
X69914515Y-78387320D01*
X69915447Y-78376691D01*
X69916586Y-78366181D01*
X69917931Y-78355788D01*
X69919484Y-78345512D01*
X69921244Y-78335355D01*
X69923211Y-78325316D01*
X69925385Y-78315394D01*
X69927765Y-78305590D01*
X69930353Y-78295904D01*
X69933148Y-78286336D01*
X69936150Y-78276886D01*
X69939359Y-78267553D01*
X69942775Y-78258339D01*
X69946398Y-78249242D01*
X69954266Y-78231401D01*
X69962961Y-78214033D01*
X69972485Y-78197135D01*
X69982836Y-78180709D01*
X69994016Y-78164754D01*
X69999917Y-78156953D01*
X70006024Y-78149270D01*
X70012339Y-78141705D01*
X70018860Y-78134258D01*
X70025529Y-78126985D01*
X70032316Y-78119943D01*
X70046242Y-78106551D01*
X70060640Y-78094084D01*
X70075509Y-78082539D01*
X70090850Y-78071919D01*
X70106662Y-78062221D01*
X70122945Y-78053448D01*
X70139700Y-78045598D01*
X70156925Y-78038671D01*
X70174622Y-78032668D01*
X70192791Y-78027588D01*
X70211431Y-78023433D01*
X70230542Y-78020200D01*
X70240274Y-78018930D01*
X70250124Y-78017891D01*
X70260092Y-78017083D01*
X70270178Y-78016506D01*
X70280381Y-78016160D01*
X70290703Y-78016044D01*
X70309951Y-78016488D01*
G37*
M02*
