%TF.GenerationSoftware,KiCad,Pcbnew,7.0.2-0*%
%TF.CreationDate,2023-05-15T00:05:49+08:00*%
%TF.ProjectId,____,5ffb7408-2e6b-4696-9361-645f70636258,rev?*%
%TF.SameCoordinates,Original*%
%TF.FileFunction,Legend,Top*%
%TF.FilePolarity,Positive*%
%FSLAX46Y46*%
G04 Gerber Fmt 4.6, Leading zero omitted, Abs format (unit mm)*
G04 Created by KiCad (PCBNEW 7.0.2-0) date 2023-05-15 00:05:49*
%MOMM*%
%LPD*%
G01*
G04 APERTURE LIST*
%ADD10C,0.150000*%
%ADD11C,0.120000*%
%ADD12C,0.127000*%
%ADD13C,0.200000*%
G04 APERTURE END LIST*
D10*
X37587333Y-48498095D02*
X37587333Y-49260000D01*
X57673904Y-42159333D02*
X56912000Y-42159333D01*
X68849904Y-42159333D02*
X68088000Y-42159333D01*
X96250095Y-42168666D02*
X97012000Y-42168666D01*
X96631047Y-42549619D02*
X96631047Y-41787714D01*
X91709904Y-42159333D02*
X90948000Y-42159333D01*
X110505904Y-42667333D02*
X109744000Y-42667333D01*
X131576666Y-58689904D02*
X131576666Y-57928000D01*
X131302095Y-62996666D02*
X132064000Y-62996666D01*
X131683047Y-63377619D02*
X131683047Y-62615714D01*
X115554095Y-42676666D02*
X116316000Y-42676666D01*
X115935047Y-43057619D02*
X115935047Y-42295714D01*
X73390095Y-42168666D02*
X74152000Y-42168666D01*
X73771047Y-42549619D02*
X73771047Y-41787714D01*
X50530095Y-41660666D02*
X51292000Y-41660666D01*
X50911047Y-42041619D02*
X50911047Y-41279714D01*
X37322095Y-42676666D02*
X38084000Y-42676666D01*
X37703047Y-43057619D02*
X37703047Y-42295714D01*
X37977619Y-45513714D02*
X37977619Y-45989904D01*
X37977619Y-45989904D02*
X36977619Y-45989904D01*
X37453809Y-44847047D02*
X37501428Y-44704190D01*
X37501428Y-44704190D02*
X37549047Y-44656571D01*
X37549047Y-44656571D02*
X37644285Y-44608952D01*
X37644285Y-44608952D02*
X37787142Y-44608952D01*
X37787142Y-44608952D02*
X37882380Y-44656571D01*
X37882380Y-44656571D02*
X37930000Y-44704190D01*
X37930000Y-44704190D02*
X37977619Y-44799428D01*
X37977619Y-44799428D02*
X37977619Y-45180380D01*
X37977619Y-45180380D02*
X36977619Y-45180380D01*
X36977619Y-45180380D02*
X36977619Y-44847047D01*
X36977619Y-44847047D02*
X37025238Y-44751809D01*
X37025238Y-44751809D02*
X37072857Y-44704190D01*
X37072857Y-44704190D02*
X37168095Y-44656571D01*
X37168095Y-44656571D02*
X37263333Y-44656571D01*
X37263333Y-44656571D02*
X37358571Y-44704190D01*
X37358571Y-44704190D02*
X37406190Y-44751809D01*
X37406190Y-44751809D02*
X37453809Y-44847047D01*
X37453809Y-44847047D02*
X37453809Y-45180380D01*
X47037523Y-34421619D02*
X46704190Y-33945428D01*
X46466095Y-34421619D02*
X46466095Y-33421619D01*
X46466095Y-33421619D02*
X46847047Y-33421619D01*
X46847047Y-33421619D02*
X46942285Y-33469238D01*
X46942285Y-33469238D02*
X46989904Y-33516857D01*
X46989904Y-33516857D02*
X47037523Y-33612095D01*
X47037523Y-33612095D02*
X47037523Y-33754952D01*
X47037523Y-33754952D02*
X46989904Y-33850190D01*
X46989904Y-33850190D02*
X46942285Y-33897809D01*
X46942285Y-33897809D02*
X46847047Y-33945428D01*
X46847047Y-33945428D02*
X46466095Y-33945428D01*
X47799428Y-33897809D02*
X47942285Y-33945428D01*
X47942285Y-33945428D02*
X47989904Y-33993047D01*
X47989904Y-33993047D02*
X48037523Y-34088285D01*
X48037523Y-34088285D02*
X48037523Y-34231142D01*
X48037523Y-34231142D02*
X47989904Y-34326380D01*
X47989904Y-34326380D02*
X47942285Y-34374000D01*
X47942285Y-34374000D02*
X47847047Y-34421619D01*
X47847047Y-34421619D02*
X47466095Y-34421619D01*
X47466095Y-34421619D02*
X47466095Y-33421619D01*
X47466095Y-33421619D02*
X47799428Y-33421619D01*
X47799428Y-33421619D02*
X47894666Y-33469238D01*
X47894666Y-33469238D02*
X47942285Y-33516857D01*
X47942285Y-33516857D02*
X47989904Y-33612095D01*
X47989904Y-33612095D02*
X47989904Y-33707333D01*
X47989904Y-33707333D02*
X47942285Y-33802571D01*
X47942285Y-33802571D02*
X47894666Y-33850190D01*
X47894666Y-33850190D02*
X47799428Y-33897809D01*
X47799428Y-33897809D02*
X47466095Y-33897809D01*
X64722285Y-34929619D02*
X64246095Y-34929619D01*
X64246095Y-34929619D02*
X64246095Y-33929619D01*
X65388952Y-34405809D02*
X65055619Y-34405809D01*
X65055619Y-34929619D02*
X65055619Y-33929619D01*
X65055619Y-33929619D02*
X65531809Y-33929619D01*
X87169523Y-34929619D02*
X86836190Y-34453428D01*
X86598095Y-34929619D02*
X86598095Y-33929619D01*
X86598095Y-33929619D02*
X86979047Y-33929619D01*
X86979047Y-33929619D02*
X87074285Y-33977238D01*
X87074285Y-33977238D02*
X87121904Y-34024857D01*
X87121904Y-34024857D02*
X87169523Y-34120095D01*
X87169523Y-34120095D02*
X87169523Y-34262952D01*
X87169523Y-34262952D02*
X87121904Y-34358190D01*
X87121904Y-34358190D02*
X87074285Y-34405809D01*
X87074285Y-34405809D02*
X86979047Y-34453428D01*
X86979047Y-34453428D02*
X86598095Y-34453428D01*
X87931428Y-34405809D02*
X87598095Y-34405809D01*
X87598095Y-34929619D02*
X87598095Y-33929619D01*
X87598095Y-33929619D02*
X88074285Y-33929619D01*
X105394095Y-34421619D02*
X105394095Y-33754952D01*
X105394095Y-33850190D02*
X105441714Y-33802571D01*
X105441714Y-33802571D02*
X105536952Y-33754952D01*
X105536952Y-33754952D02*
X105679809Y-33754952D01*
X105679809Y-33754952D02*
X105775047Y-33802571D01*
X105775047Y-33802571D02*
X105822666Y-33897809D01*
X105822666Y-33897809D02*
X105822666Y-34421619D01*
X105822666Y-33897809D02*
X105870285Y-33802571D01*
X105870285Y-33802571D02*
X105965523Y-33754952D01*
X105965523Y-33754952D02*
X106108380Y-33754952D01*
X106108380Y-33754952D02*
X106203619Y-33802571D01*
X106203619Y-33802571D02*
X106251238Y-33897809D01*
X106251238Y-33897809D02*
X106251238Y-34421619D01*
X107203618Y-33421619D02*
X106727428Y-33421619D01*
X106727428Y-33421619D02*
X106679809Y-33897809D01*
X106679809Y-33897809D02*
X106727428Y-33850190D01*
X106727428Y-33850190D02*
X106822666Y-33802571D01*
X106822666Y-33802571D02*
X107060761Y-33802571D01*
X107060761Y-33802571D02*
X107155999Y-33850190D01*
X107155999Y-33850190D02*
X107203618Y-33897809D01*
X107203618Y-33897809D02*
X107251237Y-33993047D01*
X107251237Y-33993047D02*
X107251237Y-34231142D01*
X107251237Y-34231142D02*
X107203618Y-34326380D01*
X107203618Y-34326380D02*
X107155999Y-34374000D01*
X107155999Y-34374000D02*
X107060761Y-34421619D01*
X107060761Y-34421619D02*
X106822666Y-34421619D01*
X106822666Y-34421619D02*
X106727428Y-34374000D01*
X106727428Y-34374000D02*
X106679809Y-34326380D01*
X137906095Y-55249619D02*
X137906095Y-54582952D01*
X137906095Y-54678190D02*
X137953714Y-54630571D01*
X137953714Y-54630571D02*
X138048952Y-54582952D01*
X138048952Y-54582952D02*
X138191809Y-54582952D01*
X138191809Y-54582952D02*
X138287047Y-54630571D01*
X138287047Y-54630571D02*
X138334666Y-54725809D01*
X138334666Y-54725809D02*
X138334666Y-55249619D01*
X138334666Y-54725809D02*
X138382285Y-54630571D01*
X138382285Y-54630571D02*
X138477523Y-54582952D01*
X138477523Y-54582952D02*
X138620380Y-54582952D01*
X138620380Y-54582952D02*
X138715619Y-54630571D01*
X138715619Y-54630571D02*
X138763238Y-54725809D01*
X138763238Y-54725809D02*
X138763238Y-55249619D01*
X139667999Y-54249619D02*
X139477523Y-54249619D01*
X139477523Y-54249619D02*
X139382285Y-54297238D01*
X139382285Y-54297238D02*
X139334666Y-54344857D01*
X139334666Y-54344857D02*
X139239428Y-54487714D01*
X139239428Y-54487714D02*
X139191809Y-54678190D01*
X139191809Y-54678190D02*
X139191809Y-55059142D01*
X139191809Y-55059142D02*
X139239428Y-55154380D01*
X139239428Y-55154380D02*
X139287047Y-55202000D01*
X139287047Y-55202000D02*
X139382285Y-55249619D01*
X139382285Y-55249619D02*
X139572761Y-55249619D01*
X139572761Y-55249619D02*
X139667999Y-55202000D01*
X139667999Y-55202000D02*
X139715618Y-55154380D01*
X139715618Y-55154380D02*
X139763237Y-55059142D01*
X139763237Y-55059142D02*
X139763237Y-54821047D01*
X139763237Y-54821047D02*
X139715618Y-54725809D01*
X139715618Y-54725809D02*
X139667999Y-54678190D01*
X139667999Y-54678190D02*
X139572761Y-54630571D01*
X139572761Y-54630571D02*
X139382285Y-54630571D01*
X139382285Y-54630571D02*
X139287047Y-54678190D01*
X139287047Y-54678190D02*
X139239428Y-54725809D01*
X139239428Y-54725809D02*
X139191809Y-54821047D01*
X134624619Y-76342904D02*
X133957952Y-76342904D01*
X134053190Y-76342904D02*
X134005571Y-76295285D01*
X134005571Y-76295285D02*
X133957952Y-76200047D01*
X133957952Y-76200047D02*
X133957952Y-76057190D01*
X133957952Y-76057190D02*
X134005571Y-75961952D01*
X134005571Y-75961952D02*
X134100809Y-75914333D01*
X134100809Y-75914333D02*
X134624619Y-75914333D01*
X134100809Y-75914333D02*
X134005571Y-75866714D01*
X134005571Y-75866714D02*
X133957952Y-75771476D01*
X133957952Y-75771476D02*
X133957952Y-75628619D01*
X133957952Y-75628619D02*
X134005571Y-75533380D01*
X134005571Y-75533380D02*
X134100809Y-75485761D01*
X134100809Y-75485761D02*
X134624619Y-75485761D01*
X134624619Y-74866714D02*
X134577000Y-74961952D01*
X134577000Y-74961952D02*
X134529380Y-75009571D01*
X134529380Y-75009571D02*
X134434142Y-75057190D01*
X134434142Y-75057190D02*
X134148428Y-75057190D01*
X134148428Y-75057190D02*
X134053190Y-75009571D01*
X134053190Y-75009571D02*
X134005571Y-74961952D01*
X134005571Y-74961952D02*
X133957952Y-74866714D01*
X133957952Y-74866714D02*
X133957952Y-74723857D01*
X133957952Y-74723857D02*
X134005571Y-74628619D01*
X134005571Y-74628619D02*
X134053190Y-74581000D01*
X134053190Y-74581000D02*
X134148428Y-74533381D01*
X134148428Y-74533381D02*
X134434142Y-74533381D01*
X134434142Y-74533381D02*
X134529380Y-74581000D01*
X134529380Y-74581000D02*
X134577000Y-74628619D01*
X134577000Y-74628619D02*
X134624619Y-74723857D01*
X134624619Y-74723857D02*
X134624619Y-74866714D01*
X133957952Y-74247666D02*
X133957952Y-73866714D01*
X133624619Y-74104809D02*
X134481761Y-74104809D01*
X134481761Y-74104809D02*
X134577000Y-74057190D01*
X134577000Y-74057190D02*
X134624619Y-73961952D01*
X134624619Y-73961952D02*
X134624619Y-73866714D01*
X134624619Y-73390523D02*
X134577000Y-73485761D01*
X134577000Y-73485761D02*
X134529380Y-73533380D01*
X134529380Y-73533380D02*
X134434142Y-73580999D01*
X134434142Y-73580999D02*
X134148428Y-73580999D01*
X134148428Y-73580999D02*
X134053190Y-73533380D01*
X134053190Y-73533380D02*
X134005571Y-73485761D01*
X134005571Y-73485761D02*
X133957952Y-73390523D01*
X133957952Y-73390523D02*
X133957952Y-73247666D01*
X133957952Y-73247666D02*
X134005571Y-73152428D01*
X134005571Y-73152428D02*
X134053190Y-73104809D01*
X134053190Y-73104809D02*
X134148428Y-73057190D01*
X134148428Y-73057190D02*
X134434142Y-73057190D01*
X134434142Y-73057190D02*
X134529380Y-73104809D01*
X134529380Y-73104809D02*
X134577000Y-73152428D01*
X134577000Y-73152428D02*
X134624619Y-73247666D01*
X134624619Y-73247666D02*
X134624619Y-73390523D01*
X134624619Y-72628618D02*
X133957952Y-72628618D01*
X134148428Y-72628618D02*
X134053190Y-72580999D01*
X134053190Y-72580999D02*
X134005571Y-72533380D01*
X134005571Y-72533380D02*
X133957952Y-72438142D01*
X133957952Y-72438142D02*
X133957952Y-72342904D01*
X133624619Y-71580999D02*
X133624619Y-71771475D01*
X133624619Y-71771475D02*
X133672238Y-71866713D01*
X133672238Y-71866713D02*
X133719857Y-71914332D01*
X133719857Y-71914332D02*
X133862714Y-72009570D01*
X133862714Y-72009570D02*
X134053190Y-72057189D01*
X134053190Y-72057189D02*
X134434142Y-72057189D01*
X134434142Y-72057189D02*
X134529380Y-72009570D01*
X134529380Y-72009570D02*
X134577000Y-71961951D01*
X134577000Y-71961951D02*
X134624619Y-71866713D01*
X134624619Y-71866713D02*
X134624619Y-71676237D01*
X134624619Y-71676237D02*
X134577000Y-71580999D01*
X134577000Y-71580999D02*
X134529380Y-71533380D01*
X134529380Y-71533380D02*
X134434142Y-71485761D01*
X134434142Y-71485761D02*
X134196047Y-71485761D01*
X134196047Y-71485761D02*
X134100809Y-71533380D01*
X134100809Y-71533380D02*
X134053190Y-71580999D01*
X134053190Y-71580999D02*
X134005571Y-71676237D01*
X134005571Y-71676237D02*
X134005571Y-71866713D01*
X134005571Y-71866713D02*
X134053190Y-71961951D01*
X134053190Y-71961951D02*
X134100809Y-72009570D01*
X134100809Y-72009570D02*
X134196047Y-72057189D01*
X134719857Y-71295285D02*
X134719857Y-70533380D01*
X134577000Y-70342903D02*
X134624619Y-70247665D01*
X134624619Y-70247665D02*
X134624619Y-70057189D01*
X134624619Y-70057189D02*
X134577000Y-69961951D01*
X134577000Y-69961951D02*
X134481761Y-69914332D01*
X134481761Y-69914332D02*
X134434142Y-69914332D01*
X134434142Y-69914332D02*
X134338904Y-69961951D01*
X134338904Y-69961951D02*
X134291285Y-70057189D01*
X134291285Y-70057189D02*
X134291285Y-70200046D01*
X134291285Y-70200046D02*
X134243666Y-70295284D01*
X134243666Y-70295284D02*
X134148428Y-70342903D01*
X134148428Y-70342903D02*
X134100809Y-70342903D01*
X134100809Y-70342903D02*
X134005571Y-70295284D01*
X134005571Y-70295284D02*
X133957952Y-70200046D01*
X133957952Y-70200046D02*
X133957952Y-70057189D01*
X133957952Y-70057189D02*
X134005571Y-69961951D01*
X133957952Y-69485760D02*
X134957952Y-69485760D01*
X134005571Y-69485760D02*
X133957952Y-69390522D01*
X133957952Y-69390522D02*
X133957952Y-69200046D01*
X133957952Y-69200046D02*
X134005571Y-69104808D01*
X134005571Y-69104808D02*
X134053190Y-69057189D01*
X134053190Y-69057189D02*
X134148428Y-69009570D01*
X134148428Y-69009570D02*
X134434142Y-69009570D01*
X134434142Y-69009570D02*
X134529380Y-69057189D01*
X134529380Y-69057189D02*
X134577000Y-69104808D01*
X134577000Y-69104808D02*
X134624619Y-69200046D01*
X134624619Y-69200046D02*
X134624619Y-69390522D01*
X134624619Y-69390522D02*
X134577000Y-69485760D01*
X134577000Y-68200046D02*
X134624619Y-68295284D01*
X134624619Y-68295284D02*
X134624619Y-68485760D01*
X134624619Y-68485760D02*
X134577000Y-68580998D01*
X134577000Y-68580998D02*
X134481761Y-68628617D01*
X134481761Y-68628617D02*
X134100809Y-68628617D01*
X134100809Y-68628617D02*
X134005571Y-68580998D01*
X134005571Y-68580998D02*
X133957952Y-68485760D01*
X133957952Y-68485760D02*
X133957952Y-68295284D01*
X133957952Y-68295284D02*
X134005571Y-68200046D01*
X134005571Y-68200046D02*
X134100809Y-68152427D01*
X134100809Y-68152427D02*
X134196047Y-68152427D01*
X134196047Y-68152427D02*
X134291285Y-68628617D01*
X134577000Y-67342903D02*
X134624619Y-67438141D01*
X134624619Y-67438141D02*
X134624619Y-67628617D01*
X134624619Y-67628617D02*
X134577000Y-67723855D01*
X134577000Y-67723855D02*
X134481761Y-67771474D01*
X134481761Y-67771474D02*
X134100809Y-67771474D01*
X134100809Y-67771474D02*
X134005571Y-67723855D01*
X134005571Y-67723855D02*
X133957952Y-67628617D01*
X133957952Y-67628617D02*
X133957952Y-67438141D01*
X133957952Y-67438141D02*
X134005571Y-67342903D01*
X134005571Y-67342903D02*
X134100809Y-67295284D01*
X134100809Y-67295284D02*
X134196047Y-67295284D01*
X134196047Y-67295284D02*
X134291285Y-67771474D01*
X134624619Y-66438141D02*
X133624619Y-66438141D01*
X134577000Y-66438141D02*
X134624619Y-66533379D01*
X134624619Y-66533379D02*
X134624619Y-66723855D01*
X134624619Y-66723855D02*
X134577000Y-66819093D01*
X134577000Y-66819093D02*
X134529380Y-66866712D01*
X134529380Y-66866712D02*
X134434142Y-66914331D01*
X134434142Y-66914331D02*
X134148428Y-66914331D01*
X134148428Y-66914331D02*
X134053190Y-66866712D01*
X134053190Y-66866712D02*
X134005571Y-66819093D01*
X134005571Y-66819093D02*
X133957952Y-66723855D01*
X133957952Y-66723855D02*
X133957952Y-66533379D01*
X133957952Y-66533379D02*
X134005571Y-66438141D01*
X118983095Y-35310619D02*
X118983095Y-34643952D01*
X118983095Y-34739190D02*
X119030714Y-34691571D01*
X119030714Y-34691571D02*
X119125952Y-34643952D01*
X119125952Y-34643952D02*
X119268809Y-34643952D01*
X119268809Y-34643952D02*
X119364047Y-34691571D01*
X119364047Y-34691571D02*
X119411666Y-34786809D01*
X119411666Y-34786809D02*
X119411666Y-35310619D01*
X119411666Y-34786809D02*
X119459285Y-34691571D01*
X119459285Y-34691571D02*
X119554523Y-34643952D01*
X119554523Y-34643952D02*
X119697380Y-34643952D01*
X119697380Y-34643952D02*
X119792619Y-34691571D01*
X119792619Y-34691571D02*
X119840238Y-34786809D01*
X119840238Y-34786809D02*
X119840238Y-35310619D01*
X120459285Y-35310619D02*
X120364047Y-35263000D01*
X120364047Y-35263000D02*
X120316428Y-35215380D01*
X120316428Y-35215380D02*
X120268809Y-35120142D01*
X120268809Y-35120142D02*
X120268809Y-34834428D01*
X120268809Y-34834428D02*
X120316428Y-34739190D01*
X120316428Y-34739190D02*
X120364047Y-34691571D01*
X120364047Y-34691571D02*
X120459285Y-34643952D01*
X120459285Y-34643952D02*
X120602142Y-34643952D01*
X120602142Y-34643952D02*
X120697380Y-34691571D01*
X120697380Y-34691571D02*
X120744999Y-34739190D01*
X120744999Y-34739190D02*
X120792618Y-34834428D01*
X120792618Y-34834428D02*
X120792618Y-35120142D01*
X120792618Y-35120142D02*
X120744999Y-35215380D01*
X120744999Y-35215380D02*
X120697380Y-35263000D01*
X120697380Y-35263000D02*
X120602142Y-35310619D01*
X120602142Y-35310619D02*
X120459285Y-35310619D01*
X121078333Y-34643952D02*
X121459285Y-34643952D01*
X121221190Y-34310619D02*
X121221190Y-35167761D01*
X121221190Y-35167761D02*
X121268809Y-35263000D01*
X121268809Y-35263000D02*
X121364047Y-35310619D01*
X121364047Y-35310619D02*
X121459285Y-35310619D01*
X121935476Y-35310619D02*
X121840238Y-35263000D01*
X121840238Y-35263000D02*
X121792619Y-35215380D01*
X121792619Y-35215380D02*
X121745000Y-35120142D01*
X121745000Y-35120142D02*
X121745000Y-34834428D01*
X121745000Y-34834428D02*
X121792619Y-34739190D01*
X121792619Y-34739190D02*
X121840238Y-34691571D01*
X121840238Y-34691571D02*
X121935476Y-34643952D01*
X121935476Y-34643952D02*
X122078333Y-34643952D01*
X122078333Y-34643952D02*
X122173571Y-34691571D01*
X122173571Y-34691571D02*
X122221190Y-34739190D01*
X122221190Y-34739190D02*
X122268809Y-34834428D01*
X122268809Y-34834428D02*
X122268809Y-35120142D01*
X122268809Y-35120142D02*
X122221190Y-35215380D01*
X122221190Y-35215380D02*
X122173571Y-35263000D01*
X122173571Y-35263000D02*
X122078333Y-35310619D01*
X122078333Y-35310619D02*
X121935476Y-35310619D01*
X122697381Y-35310619D02*
X122697381Y-34643952D01*
X122697381Y-34834428D02*
X122745000Y-34739190D01*
X122745000Y-34739190D02*
X122792619Y-34691571D01*
X122792619Y-34691571D02*
X122887857Y-34643952D01*
X122887857Y-34643952D02*
X122983095Y-34643952D01*
X123792619Y-34310619D02*
X123316429Y-34310619D01*
X123316429Y-34310619D02*
X123268810Y-34786809D01*
X123268810Y-34786809D02*
X123316429Y-34739190D01*
X123316429Y-34739190D02*
X123411667Y-34691571D01*
X123411667Y-34691571D02*
X123649762Y-34691571D01*
X123649762Y-34691571D02*
X123745000Y-34739190D01*
X123745000Y-34739190D02*
X123792619Y-34786809D01*
X123792619Y-34786809D02*
X123840238Y-34882047D01*
X123840238Y-34882047D02*
X123840238Y-35120142D01*
X123840238Y-35120142D02*
X123792619Y-35215380D01*
X123792619Y-35215380D02*
X123745000Y-35263000D01*
X123745000Y-35263000D02*
X123649762Y-35310619D01*
X123649762Y-35310619D02*
X123411667Y-35310619D01*
X123411667Y-35310619D02*
X123316429Y-35263000D01*
X123316429Y-35263000D02*
X123268810Y-35215380D01*
X124030715Y-35405857D02*
X124792619Y-35405857D01*
X124983096Y-35263000D02*
X125078334Y-35310619D01*
X125078334Y-35310619D02*
X125268810Y-35310619D01*
X125268810Y-35310619D02*
X125364048Y-35263000D01*
X125364048Y-35263000D02*
X125411667Y-35167761D01*
X125411667Y-35167761D02*
X125411667Y-35120142D01*
X125411667Y-35120142D02*
X125364048Y-35024904D01*
X125364048Y-35024904D02*
X125268810Y-34977285D01*
X125268810Y-34977285D02*
X125125953Y-34977285D01*
X125125953Y-34977285D02*
X125030715Y-34929666D01*
X125030715Y-34929666D02*
X124983096Y-34834428D01*
X124983096Y-34834428D02*
X124983096Y-34786809D01*
X124983096Y-34786809D02*
X125030715Y-34691571D01*
X125030715Y-34691571D02*
X125125953Y-34643952D01*
X125125953Y-34643952D02*
X125268810Y-34643952D01*
X125268810Y-34643952D02*
X125364048Y-34691571D01*
X125840239Y-34643952D02*
X125840239Y-35643952D01*
X125840239Y-34691571D02*
X125935477Y-34643952D01*
X125935477Y-34643952D02*
X126125953Y-34643952D01*
X126125953Y-34643952D02*
X126221191Y-34691571D01*
X126221191Y-34691571D02*
X126268810Y-34739190D01*
X126268810Y-34739190D02*
X126316429Y-34834428D01*
X126316429Y-34834428D02*
X126316429Y-35120142D01*
X126316429Y-35120142D02*
X126268810Y-35215380D01*
X126268810Y-35215380D02*
X126221191Y-35263000D01*
X126221191Y-35263000D02*
X126125953Y-35310619D01*
X126125953Y-35310619D02*
X125935477Y-35310619D01*
X125935477Y-35310619D02*
X125840239Y-35263000D01*
X127125953Y-35263000D02*
X127030715Y-35310619D01*
X127030715Y-35310619D02*
X126840239Y-35310619D01*
X126840239Y-35310619D02*
X126745001Y-35263000D01*
X126745001Y-35263000D02*
X126697382Y-35167761D01*
X126697382Y-35167761D02*
X126697382Y-34786809D01*
X126697382Y-34786809D02*
X126745001Y-34691571D01*
X126745001Y-34691571D02*
X126840239Y-34643952D01*
X126840239Y-34643952D02*
X127030715Y-34643952D01*
X127030715Y-34643952D02*
X127125953Y-34691571D01*
X127125953Y-34691571D02*
X127173572Y-34786809D01*
X127173572Y-34786809D02*
X127173572Y-34882047D01*
X127173572Y-34882047D02*
X126697382Y-34977285D01*
X127983096Y-35263000D02*
X127887858Y-35310619D01*
X127887858Y-35310619D02*
X127697382Y-35310619D01*
X127697382Y-35310619D02*
X127602144Y-35263000D01*
X127602144Y-35263000D02*
X127554525Y-35167761D01*
X127554525Y-35167761D02*
X127554525Y-34786809D01*
X127554525Y-34786809D02*
X127602144Y-34691571D01*
X127602144Y-34691571D02*
X127697382Y-34643952D01*
X127697382Y-34643952D02*
X127887858Y-34643952D01*
X127887858Y-34643952D02*
X127983096Y-34691571D01*
X127983096Y-34691571D02*
X128030715Y-34786809D01*
X128030715Y-34786809D02*
X128030715Y-34882047D01*
X128030715Y-34882047D02*
X127554525Y-34977285D01*
X128887858Y-35310619D02*
X128887858Y-34310619D01*
X128887858Y-35263000D02*
X128792620Y-35310619D01*
X128792620Y-35310619D02*
X128602144Y-35310619D01*
X128602144Y-35310619D02*
X128506906Y-35263000D01*
X128506906Y-35263000D02*
X128459287Y-35215380D01*
X128459287Y-35215380D02*
X128411668Y-35120142D01*
X128411668Y-35120142D02*
X128411668Y-34834428D01*
X128411668Y-34834428D02*
X128459287Y-34739190D01*
X128459287Y-34739190D02*
X128506906Y-34691571D01*
X128506906Y-34691571D02*
X128602144Y-34643952D01*
X128602144Y-34643952D02*
X128792620Y-34643952D01*
X128792620Y-34643952D02*
X128887858Y-34691571D01*
X39469952Y-90408142D02*
X40136619Y-90217666D01*
X40136619Y-90217666D02*
X39660428Y-90027190D01*
X39660428Y-90027190D02*
X40136619Y-89836714D01*
X40136619Y-89836714D02*
X39469952Y-89646238D01*
X40136619Y-89265285D02*
X39136619Y-89265285D01*
X40136619Y-88836714D02*
X39612809Y-88836714D01*
X39612809Y-88836714D02*
X39517571Y-88884333D01*
X39517571Y-88884333D02*
X39469952Y-88979571D01*
X39469952Y-88979571D02*
X39469952Y-89122428D01*
X39469952Y-89122428D02*
X39517571Y-89217666D01*
X39517571Y-89217666D02*
X39565190Y-89265285D01*
X40089000Y-87979571D02*
X40136619Y-88074809D01*
X40136619Y-88074809D02*
X40136619Y-88265285D01*
X40136619Y-88265285D02*
X40089000Y-88360523D01*
X40089000Y-88360523D02*
X39993761Y-88408142D01*
X39993761Y-88408142D02*
X39612809Y-88408142D01*
X39612809Y-88408142D02*
X39517571Y-88360523D01*
X39517571Y-88360523D02*
X39469952Y-88265285D01*
X39469952Y-88265285D02*
X39469952Y-88074809D01*
X39469952Y-88074809D02*
X39517571Y-87979571D01*
X39517571Y-87979571D02*
X39612809Y-87931952D01*
X39612809Y-87931952D02*
X39708047Y-87931952D01*
X39708047Y-87931952D02*
X39803285Y-88408142D01*
X40089000Y-87122428D02*
X40136619Y-87217666D01*
X40136619Y-87217666D02*
X40136619Y-87408142D01*
X40136619Y-87408142D02*
X40089000Y-87503380D01*
X40089000Y-87503380D02*
X39993761Y-87550999D01*
X39993761Y-87550999D02*
X39612809Y-87550999D01*
X39612809Y-87550999D02*
X39517571Y-87503380D01*
X39517571Y-87503380D02*
X39469952Y-87408142D01*
X39469952Y-87408142D02*
X39469952Y-87217666D01*
X39469952Y-87217666D02*
X39517571Y-87122428D01*
X39517571Y-87122428D02*
X39612809Y-87074809D01*
X39612809Y-87074809D02*
X39708047Y-87074809D01*
X39708047Y-87074809D02*
X39803285Y-87550999D01*
X40136619Y-86503380D02*
X40089000Y-86598618D01*
X40089000Y-86598618D02*
X39993761Y-86646237D01*
X39993761Y-86646237D02*
X39136619Y-86646237D01*
X40231857Y-86360523D02*
X40231857Y-85598618D01*
X40089000Y-85408141D02*
X40136619Y-85312903D01*
X40136619Y-85312903D02*
X40136619Y-85122427D01*
X40136619Y-85122427D02*
X40089000Y-85027189D01*
X40089000Y-85027189D02*
X39993761Y-84979570D01*
X39993761Y-84979570D02*
X39946142Y-84979570D01*
X39946142Y-84979570D02*
X39850904Y-85027189D01*
X39850904Y-85027189D02*
X39803285Y-85122427D01*
X39803285Y-85122427D02*
X39803285Y-85265284D01*
X39803285Y-85265284D02*
X39755666Y-85360522D01*
X39755666Y-85360522D02*
X39660428Y-85408141D01*
X39660428Y-85408141D02*
X39612809Y-85408141D01*
X39612809Y-85408141D02*
X39517571Y-85360522D01*
X39517571Y-85360522D02*
X39469952Y-85265284D01*
X39469952Y-85265284D02*
X39469952Y-85122427D01*
X39469952Y-85122427D02*
X39517571Y-85027189D01*
X39469952Y-84550998D02*
X40469952Y-84550998D01*
X39517571Y-84550998D02*
X39469952Y-84455760D01*
X39469952Y-84455760D02*
X39469952Y-84265284D01*
X39469952Y-84265284D02*
X39517571Y-84170046D01*
X39517571Y-84170046D02*
X39565190Y-84122427D01*
X39565190Y-84122427D02*
X39660428Y-84074808D01*
X39660428Y-84074808D02*
X39946142Y-84074808D01*
X39946142Y-84074808D02*
X40041380Y-84122427D01*
X40041380Y-84122427D02*
X40089000Y-84170046D01*
X40089000Y-84170046D02*
X40136619Y-84265284D01*
X40136619Y-84265284D02*
X40136619Y-84455760D01*
X40136619Y-84455760D02*
X40089000Y-84550998D01*
X40089000Y-83265284D02*
X40136619Y-83360522D01*
X40136619Y-83360522D02*
X40136619Y-83550998D01*
X40136619Y-83550998D02*
X40089000Y-83646236D01*
X40089000Y-83646236D02*
X39993761Y-83693855D01*
X39993761Y-83693855D02*
X39612809Y-83693855D01*
X39612809Y-83693855D02*
X39517571Y-83646236D01*
X39517571Y-83646236D02*
X39469952Y-83550998D01*
X39469952Y-83550998D02*
X39469952Y-83360522D01*
X39469952Y-83360522D02*
X39517571Y-83265284D01*
X39517571Y-83265284D02*
X39612809Y-83217665D01*
X39612809Y-83217665D02*
X39708047Y-83217665D01*
X39708047Y-83217665D02*
X39803285Y-83693855D01*
X40089000Y-82408141D02*
X40136619Y-82503379D01*
X40136619Y-82503379D02*
X40136619Y-82693855D01*
X40136619Y-82693855D02*
X40089000Y-82789093D01*
X40089000Y-82789093D02*
X39993761Y-82836712D01*
X39993761Y-82836712D02*
X39612809Y-82836712D01*
X39612809Y-82836712D02*
X39517571Y-82789093D01*
X39517571Y-82789093D02*
X39469952Y-82693855D01*
X39469952Y-82693855D02*
X39469952Y-82503379D01*
X39469952Y-82503379D02*
X39517571Y-82408141D01*
X39517571Y-82408141D02*
X39612809Y-82360522D01*
X39612809Y-82360522D02*
X39708047Y-82360522D01*
X39708047Y-82360522D02*
X39803285Y-82836712D01*
X40136619Y-81503379D02*
X39136619Y-81503379D01*
X40089000Y-81503379D02*
X40136619Y-81598617D01*
X40136619Y-81598617D02*
X40136619Y-81789093D01*
X40136619Y-81789093D02*
X40089000Y-81884331D01*
X40089000Y-81884331D02*
X40041380Y-81931950D01*
X40041380Y-81931950D02*
X39946142Y-81979569D01*
X39946142Y-81979569D02*
X39660428Y-81979569D01*
X39660428Y-81979569D02*
X39565190Y-81931950D01*
X39565190Y-81931950D02*
X39517571Y-81884331D01*
X39517571Y-81884331D02*
X39469952Y-81789093D01*
X39469952Y-81789093D02*
X39469952Y-81598617D01*
X39469952Y-81598617D02*
X39517571Y-81503379D01*
X127298095Y-76137619D02*
X127298095Y-75137619D01*
X127298095Y-75518571D02*
X127393333Y-75470952D01*
X127393333Y-75470952D02*
X127583809Y-75470952D01*
X127583809Y-75470952D02*
X127679047Y-75518571D01*
X127679047Y-75518571D02*
X127726666Y-75566190D01*
X127726666Y-75566190D02*
X127774285Y-75661428D01*
X127774285Y-75661428D02*
X127774285Y-75947142D01*
X127774285Y-75947142D02*
X127726666Y-76042380D01*
X127726666Y-76042380D02*
X127679047Y-76090000D01*
X127679047Y-76090000D02*
X127583809Y-76137619D01*
X127583809Y-76137619D02*
X127393333Y-76137619D01*
X127393333Y-76137619D02*
X127298095Y-76090000D01*
X128345714Y-76137619D02*
X128250476Y-76090000D01*
X128250476Y-76090000D02*
X128202857Y-76042380D01*
X128202857Y-76042380D02*
X128155238Y-75947142D01*
X128155238Y-75947142D02*
X128155238Y-75661428D01*
X128155238Y-75661428D02*
X128202857Y-75566190D01*
X128202857Y-75566190D02*
X128250476Y-75518571D01*
X128250476Y-75518571D02*
X128345714Y-75470952D01*
X128345714Y-75470952D02*
X128488571Y-75470952D01*
X128488571Y-75470952D02*
X128583809Y-75518571D01*
X128583809Y-75518571D02*
X128631428Y-75566190D01*
X128631428Y-75566190D02*
X128679047Y-75661428D01*
X128679047Y-75661428D02*
X128679047Y-75947142D01*
X128679047Y-75947142D02*
X128631428Y-76042380D01*
X128631428Y-76042380D02*
X128583809Y-76090000D01*
X128583809Y-76090000D02*
X128488571Y-76137619D01*
X128488571Y-76137619D02*
X128345714Y-76137619D01*
X129250476Y-76137619D02*
X129155238Y-76090000D01*
X129155238Y-76090000D02*
X129107619Y-76042380D01*
X129107619Y-76042380D02*
X129060000Y-75947142D01*
X129060000Y-75947142D02*
X129060000Y-75661428D01*
X129060000Y-75661428D02*
X129107619Y-75566190D01*
X129107619Y-75566190D02*
X129155238Y-75518571D01*
X129155238Y-75518571D02*
X129250476Y-75470952D01*
X129250476Y-75470952D02*
X129393333Y-75470952D01*
X129393333Y-75470952D02*
X129488571Y-75518571D01*
X129488571Y-75518571D02*
X129536190Y-75566190D01*
X129536190Y-75566190D02*
X129583809Y-75661428D01*
X129583809Y-75661428D02*
X129583809Y-75947142D01*
X129583809Y-75947142D02*
X129536190Y-76042380D01*
X129536190Y-76042380D02*
X129488571Y-76090000D01*
X129488571Y-76090000D02*
X129393333Y-76137619D01*
X129393333Y-76137619D02*
X129250476Y-76137619D01*
X129869524Y-75470952D02*
X130250476Y-75470952D01*
X130012381Y-75137619D02*
X130012381Y-75994761D01*
X130012381Y-75994761D02*
X130060000Y-76090000D01*
X130060000Y-76090000D02*
X130155238Y-76137619D01*
X130155238Y-76137619D02*
X130250476Y-76137619D01*
X115868095Y-76137619D02*
X115868095Y-75137619D01*
X115868095Y-75518571D02*
X115963333Y-75470952D01*
X115963333Y-75470952D02*
X116153809Y-75470952D01*
X116153809Y-75470952D02*
X116249047Y-75518571D01*
X116249047Y-75518571D02*
X116296666Y-75566190D01*
X116296666Y-75566190D02*
X116344285Y-75661428D01*
X116344285Y-75661428D02*
X116344285Y-75947142D01*
X116344285Y-75947142D02*
X116296666Y-76042380D01*
X116296666Y-76042380D02*
X116249047Y-76090000D01*
X116249047Y-76090000D02*
X116153809Y-76137619D01*
X116153809Y-76137619D02*
X115963333Y-76137619D01*
X115963333Y-76137619D02*
X115868095Y-76090000D01*
X116915714Y-76137619D02*
X116820476Y-76090000D01*
X116820476Y-76090000D02*
X116772857Y-76042380D01*
X116772857Y-76042380D02*
X116725238Y-75947142D01*
X116725238Y-75947142D02*
X116725238Y-75661428D01*
X116725238Y-75661428D02*
X116772857Y-75566190D01*
X116772857Y-75566190D02*
X116820476Y-75518571D01*
X116820476Y-75518571D02*
X116915714Y-75470952D01*
X116915714Y-75470952D02*
X117058571Y-75470952D01*
X117058571Y-75470952D02*
X117153809Y-75518571D01*
X117153809Y-75518571D02*
X117201428Y-75566190D01*
X117201428Y-75566190D02*
X117249047Y-75661428D01*
X117249047Y-75661428D02*
X117249047Y-75947142D01*
X117249047Y-75947142D02*
X117201428Y-76042380D01*
X117201428Y-76042380D02*
X117153809Y-76090000D01*
X117153809Y-76090000D02*
X117058571Y-76137619D01*
X117058571Y-76137619D02*
X116915714Y-76137619D01*
X117820476Y-76137619D02*
X117725238Y-76090000D01*
X117725238Y-76090000D02*
X117677619Y-76042380D01*
X117677619Y-76042380D02*
X117630000Y-75947142D01*
X117630000Y-75947142D02*
X117630000Y-75661428D01*
X117630000Y-75661428D02*
X117677619Y-75566190D01*
X117677619Y-75566190D02*
X117725238Y-75518571D01*
X117725238Y-75518571D02*
X117820476Y-75470952D01*
X117820476Y-75470952D02*
X117963333Y-75470952D01*
X117963333Y-75470952D02*
X118058571Y-75518571D01*
X118058571Y-75518571D02*
X118106190Y-75566190D01*
X118106190Y-75566190D02*
X118153809Y-75661428D01*
X118153809Y-75661428D02*
X118153809Y-75947142D01*
X118153809Y-75947142D02*
X118106190Y-76042380D01*
X118106190Y-76042380D02*
X118058571Y-76090000D01*
X118058571Y-76090000D02*
X117963333Y-76137619D01*
X117963333Y-76137619D02*
X117820476Y-76137619D01*
X118439524Y-75470952D02*
X118820476Y-75470952D01*
X118582381Y-75137619D02*
X118582381Y-75994761D01*
X118582381Y-75994761D02*
X118630000Y-76090000D01*
X118630000Y-76090000D02*
X118725238Y-76137619D01*
X118725238Y-76137619D02*
X118820476Y-76137619D01*
X115233095Y-72327619D02*
X115233095Y-71327619D01*
X115233095Y-71708571D02*
X115328333Y-71660952D01*
X115328333Y-71660952D02*
X115518809Y-71660952D01*
X115518809Y-71660952D02*
X115614047Y-71708571D01*
X115614047Y-71708571D02*
X115661666Y-71756190D01*
X115661666Y-71756190D02*
X115709285Y-71851428D01*
X115709285Y-71851428D02*
X115709285Y-72137142D01*
X115709285Y-72137142D02*
X115661666Y-72232380D01*
X115661666Y-72232380D02*
X115614047Y-72280000D01*
X115614047Y-72280000D02*
X115518809Y-72327619D01*
X115518809Y-72327619D02*
X115328333Y-72327619D01*
X115328333Y-72327619D02*
X115233095Y-72280000D01*
X116280714Y-72327619D02*
X116185476Y-72280000D01*
X116185476Y-72280000D02*
X116137857Y-72232380D01*
X116137857Y-72232380D02*
X116090238Y-72137142D01*
X116090238Y-72137142D02*
X116090238Y-71851428D01*
X116090238Y-71851428D02*
X116137857Y-71756190D01*
X116137857Y-71756190D02*
X116185476Y-71708571D01*
X116185476Y-71708571D02*
X116280714Y-71660952D01*
X116280714Y-71660952D02*
X116423571Y-71660952D01*
X116423571Y-71660952D02*
X116518809Y-71708571D01*
X116518809Y-71708571D02*
X116566428Y-71756190D01*
X116566428Y-71756190D02*
X116614047Y-71851428D01*
X116614047Y-71851428D02*
X116614047Y-72137142D01*
X116614047Y-72137142D02*
X116566428Y-72232380D01*
X116566428Y-72232380D02*
X116518809Y-72280000D01*
X116518809Y-72280000D02*
X116423571Y-72327619D01*
X116423571Y-72327619D02*
X116280714Y-72327619D01*
X117185476Y-72327619D02*
X117090238Y-72280000D01*
X117090238Y-72280000D02*
X117042619Y-72232380D01*
X117042619Y-72232380D02*
X116995000Y-72137142D01*
X116995000Y-72137142D02*
X116995000Y-71851428D01*
X116995000Y-71851428D02*
X117042619Y-71756190D01*
X117042619Y-71756190D02*
X117090238Y-71708571D01*
X117090238Y-71708571D02*
X117185476Y-71660952D01*
X117185476Y-71660952D02*
X117328333Y-71660952D01*
X117328333Y-71660952D02*
X117423571Y-71708571D01*
X117423571Y-71708571D02*
X117471190Y-71756190D01*
X117471190Y-71756190D02*
X117518809Y-71851428D01*
X117518809Y-71851428D02*
X117518809Y-72137142D01*
X117518809Y-72137142D02*
X117471190Y-72232380D01*
X117471190Y-72232380D02*
X117423571Y-72280000D01*
X117423571Y-72280000D02*
X117328333Y-72327619D01*
X117328333Y-72327619D02*
X117185476Y-72327619D01*
X117804524Y-71660952D02*
X118185476Y-71660952D01*
X117947381Y-71327619D02*
X117947381Y-72184761D01*
X117947381Y-72184761D02*
X117995000Y-72280000D01*
X117995000Y-72280000D02*
X118090238Y-72327619D01*
X118090238Y-72327619D02*
X118185476Y-72327619D01*
X86658095Y-71057619D02*
X86658095Y-70057619D01*
X86658095Y-70438571D02*
X86753333Y-70390952D01*
X86753333Y-70390952D02*
X86943809Y-70390952D01*
X86943809Y-70390952D02*
X87039047Y-70438571D01*
X87039047Y-70438571D02*
X87086666Y-70486190D01*
X87086666Y-70486190D02*
X87134285Y-70581428D01*
X87134285Y-70581428D02*
X87134285Y-70867142D01*
X87134285Y-70867142D02*
X87086666Y-70962380D01*
X87086666Y-70962380D02*
X87039047Y-71010000D01*
X87039047Y-71010000D02*
X86943809Y-71057619D01*
X86943809Y-71057619D02*
X86753333Y-71057619D01*
X86753333Y-71057619D02*
X86658095Y-71010000D01*
X87705714Y-71057619D02*
X87610476Y-71010000D01*
X87610476Y-71010000D02*
X87562857Y-70962380D01*
X87562857Y-70962380D02*
X87515238Y-70867142D01*
X87515238Y-70867142D02*
X87515238Y-70581428D01*
X87515238Y-70581428D02*
X87562857Y-70486190D01*
X87562857Y-70486190D02*
X87610476Y-70438571D01*
X87610476Y-70438571D02*
X87705714Y-70390952D01*
X87705714Y-70390952D02*
X87848571Y-70390952D01*
X87848571Y-70390952D02*
X87943809Y-70438571D01*
X87943809Y-70438571D02*
X87991428Y-70486190D01*
X87991428Y-70486190D02*
X88039047Y-70581428D01*
X88039047Y-70581428D02*
X88039047Y-70867142D01*
X88039047Y-70867142D02*
X87991428Y-70962380D01*
X87991428Y-70962380D02*
X87943809Y-71010000D01*
X87943809Y-71010000D02*
X87848571Y-71057619D01*
X87848571Y-71057619D02*
X87705714Y-71057619D01*
X88610476Y-71057619D02*
X88515238Y-71010000D01*
X88515238Y-71010000D02*
X88467619Y-70962380D01*
X88467619Y-70962380D02*
X88420000Y-70867142D01*
X88420000Y-70867142D02*
X88420000Y-70581428D01*
X88420000Y-70581428D02*
X88467619Y-70486190D01*
X88467619Y-70486190D02*
X88515238Y-70438571D01*
X88515238Y-70438571D02*
X88610476Y-70390952D01*
X88610476Y-70390952D02*
X88753333Y-70390952D01*
X88753333Y-70390952D02*
X88848571Y-70438571D01*
X88848571Y-70438571D02*
X88896190Y-70486190D01*
X88896190Y-70486190D02*
X88943809Y-70581428D01*
X88943809Y-70581428D02*
X88943809Y-70867142D01*
X88943809Y-70867142D02*
X88896190Y-70962380D01*
X88896190Y-70962380D02*
X88848571Y-71010000D01*
X88848571Y-71010000D02*
X88753333Y-71057619D01*
X88753333Y-71057619D02*
X88610476Y-71057619D01*
X89229524Y-70390952D02*
X89610476Y-70390952D01*
X89372381Y-70057619D02*
X89372381Y-70914761D01*
X89372381Y-70914761D02*
X89420000Y-71010000D01*
X89420000Y-71010000D02*
X89515238Y-71057619D01*
X89515238Y-71057619D02*
X89610476Y-71057619D01*
X75755476Y-95476904D02*
X76231666Y-95476904D01*
X75660238Y-95762619D02*
X75993571Y-94762619D01*
X75993571Y-94762619D02*
X76326904Y-95762619D01*
X76565000Y-94762619D02*
X77231666Y-94762619D01*
X77231666Y-94762619D02*
X76803095Y-95762619D01*
X73088476Y-95476904D02*
X73564666Y-95476904D01*
X72993238Y-95762619D02*
X73326571Y-94762619D01*
X73326571Y-94762619D02*
X73659904Y-95762619D01*
X74421809Y-94762619D02*
X74231333Y-94762619D01*
X74231333Y-94762619D02*
X74136095Y-94810238D01*
X74136095Y-94810238D02*
X74088476Y-94857857D01*
X74088476Y-94857857D02*
X73993238Y-95000714D01*
X73993238Y-95000714D02*
X73945619Y-95191190D01*
X73945619Y-95191190D02*
X73945619Y-95572142D01*
X73945619Y-95572142D02*
X73993238Y-95667380D01*
X73993238Y-95667380D02*
X74040857Y-95715000D01*
X74040857Y-95715000D02*
X74136095Y-95762619D01*
X74136095Y-95762619D02*
X74326571Y-95762619D01*
X74326571Y-95762619D02*
X74421809Y-95715000D01*
X74421809Y-95715000D02*
X74469428Y-95667380D01*
X74469428Y-95667380D02*
X74517047Y-95572142D01*
X74517047Y-95572142D02*
X74517047Y-95334047D01*
X74517047Y-95334047D02*
X74469428Y-95238809D01*
X74469428Y-95238809D02*
X74421809Y-95191190D01*
X74421809Y-95191190D02*
X74326571Y-95143571D01*
X74326571Y-95143571D02*
X74136095Y-95143571D01*
X74136095Y-95143571D02*
X74040857Y-95191190D01*
X74040857Y-95191190D02*
X73993238Y-95238809D01*
X73993238Y-95238809D02*
X73945619Y-95334047D01*
X70548476Y-95476904D02*
X71024666Y-95476904D01*
X70453238Y-95762619D02*
X70786571Y-94762619D01*
X70786571Y-94762619D02*
X71119904Y-95762619D01*
X71358000Y-94762619D02*
X71977047Y-94762619D01*
X71977047Y-94762619D02*
X71643714Y-95143571D01*
X71643714Y-95143571D02*
X71786571Y-95143571D01*
X71786571Y-95143571D02*
X71881809Y-95191190D01*
X71881809Y-95191190D02*
X71929428Y-95238809D01*
X71929428Y-95238809D02*
X71977047Y-95334047D01*
X71977047Y-95334047D02*
X71977047Y-95572142D01*
X71977047Y-95572142D02*
X71929428Y-95667380D01*
X71929428Y-95667380D02*
X71881809Y-95715000D01*
X71881809Y-95715000D02*
X71786571Y-95762619D01*
X71786571Y-95762619D02*
X71500857Y-95762619D01*
X71500857Y-95762619D02*
X71405619Y-95715000D01*
X71405619Y-95715000D02*
X71358000Y-95667380D01*
X68008476Y-95476904D02*
X68484666Y-95476904D01*
X67913238Y-95762619D02*
X68246571Y-94762619D01*
X68246571Y-94762619D02*
X68579904Y-95762619D01*
X68865619Y-94857857D02*
X68913238Y-94810238D01*
X68913238Y-94810238D02*
X69008476Y-94762619D01*
X69008476Y-94762619D02*
X69246571Y-94762619D01*
X69246571Y-94762619D02*
X69341809Y-94810238D01*
X69341809Y-94810238D02*
X69389428Y-94857857D01*
X69389428Y-94857857D02*
X69437047Y-94953095D01*
X69437047Y-94953095D02*
X69437047Y-95048333D01*
X69437047Y-95048333D02*
X69389428Y-95191190D01*
X69389428Y-95191190D02*
X68818000Y-95762619D01*
X68818000Y-95762619D02*
X69437047Y-95762619D01*
X65468476Y-95476904D02*
X65944666Y-95476904D01*
X65373238Y-95762619D02*
X65706571Y-94762619D01*
X65706571Y-94762619D02*
X66039904Y-95762619D01*
X66897047Y-95762619D02*
X66325619Y-95762619D01*
X66611333Y-95762619D02*
X66611333Y-94762619D01*
X66611333Y-94762619D02*
X66516095Y-94905476D01*
X66516095Y-94905476D02*
X66420857Y-95000714D01*
X66420857Y-95000714D02*
X66325619Y-95048333D01*
X62801476Y-95476904D02*
X63277666Y-95476904D01*
X62706238Y-95762619D02*
X63039571Y-94762619D01*
X63039571Y-94762619D02*
X63372904Y-95762619D01*
X63896714Y-94762619D02*
X63991952Y-94762619D01*
X63991952Y-94762619D02*
X64087190Y-94810238D01*
X64087190Y-94810238D02*
X64134809Y-94857857D01*
X64134809Y-94857857D02*
X64182428Y-94953095D01*
X64182428Y-94953095D02*
X64230047Y-95143571D01*
X64230047Y-95143571D02*
X64230047Y-95381666D01*
X64230047Y-95381666D02*
X64182428Y-95572142D01*
X64182428Y-95572142D02*
X64134809Y-95667380D01*
X64134809Y-95667380D02*
X64087190Y-95715000D01*
X64087190Y-95715000D02*
X63991952Y-95762619D01*
X63991952Y-95762619D02*
X63896714Y-95762619D01*
X63896714Y-95762619D02*
X63801476Y-95715000D01*
X63801476Y-95715000D02*
X63753857Y-95667380D01*
X63753857Y-95667380D02*
X63706238Y-95572142D01*
X63706238Y-95572142D02*
X63658619Y-95381666D01*
X63658619Y-95381666D02*
X63658619Y-95143571D01*
X63658619Y-95143571D02*
X63706238Y-94953095D01*
X63706238Y-94953095D02*
X63753857Y-94857857D01*
X63753857Y-94857857D02*
X63801476Y-94810238D01*
X63801476Y-94810238D02*
X63896714Y-94762619D01*
X107203809Y-93746619D02*
X107203809Y-94460904D01*
X107203809Y-94460904D02*
X107156190Y-94603761D01*
X107156190Y-94603761D02*
X107060952Y-94699000D01*
X107060952Y-94699000D02*
X106918095Y-94746619D01*
X106918095Y-94746619D02*
X106822857Y-94746619D01*
X108203809Y-94746619D02*
X107632381Y-94746619D01*
X107918095Y-94746619D02*
X107918095Y-93746619D01*
X107918095Y-93746619D02*
X107822857Y-93889476D01*
X107822857Y-93889476D02*
X107727619Y-93984714D01*
X107727619Y-93984714D02*
X107632381Y-94032333D01*
X108537143Y-93746619D02*
X109156190Y-93746619D01*
X109156190Y-93746619D02*
X108822857Y-94127571D01*
X108822857Y-94127571D02*
X108965714Y-94127571D01*
X108965714Y-94127571D02*
X109060952Y-94175190D01*
X109060952Y-94175190D02*
X109108571Y-94222809D01*
X109108571Y-94222809D02*
X109156190Y-94318047D01*
X109156190Y-94318047D02*
X109156190Y-94556142D01*
X109156190Y-94556142D02*
X109108571Y-94651380D01*
X109108571Y-94651380D02*
X109060952Y-94699000D01*
X109060952Y-94699000D02*
X108965714Y-94746619D01*
X108965714Y-94746619D02*
X108680000Y-94746619D01*
X108680000Y-94746619D02*
X108584762Y-94699000D01*
X108584762Y-94699000D02*
X108537143Y-94651380D01*
X133361190Y-79613095D02*
X133361190Y-79946428D01*
X132837380Y-80089285D02*
X132837380Y-79613095D01*
X132837380Y-79613095D02*
X133837380Y-79613095D01*
X133837380Y-79613095D02*
X133837380Y-80089285D01*
X132885000Y-80470238D02*
X132837380Y-80613095D01*
X132837380Y-80613095D02*
X132837380Y-80851190D01*
X132837380Y-80851190D02*
X132885000Y-80946428D01*
X132885000Y-80946428D02*
X132932619Y-80994047D01*
X132932619Y-80994047D02*
X133027857Y-81041666D01*
X133027857Y-81041666D02*
X133123095Y-81041666D01*
X133123095Y-81041666D02*
X133218333Y-80994047D01*
X133218333Y-80994047D02*
X133265952Y-80946428D01*
X133265952Y-80946428D02*
X133313571Y-80851190D01*
X133313571Y-80851190D02*
X133361190Y-80660714D01*
X133361190Y-80660714D02*
X133408809Y-80565476D01*
X133408809Y-80565476D02*
X133456428Y-80517857D01*
X133456428Y-80517857D02*
X133551666Y-80470238D01*
X133551666Y-80470238D02*
X133646904Y-80470238D01*
X133646904Y-80470238D02*
X133742142Y-80517857D01*
X133742142Y-80517857D02*
X133789761Y-80565476D01*
X133789761Y-80565476D02*
X133837380Y-80660714D01*
X133837380Y-80660714D02*
X133837380Y-80898809D01*
X133837380Y-80898809D02*
X133789761Y-81041666D01*
X132837380Y-81470238D02*
X133837380Y-81470238D01*
X133837380Y-81470238D02*
X133837380Y-81851190D01*
X133837380Y-81851190D02*
X133789761Y-81946428D01*
X133789761Y-81946428D02*
X133742142Y-81994047D01*
X133742142Y-81994047D02*
X133646904Y-82041666D01*
X133646904Y-82041666D02*
X133504047Y-82041666D01*
X133504047Y-82041666D02*
X133408809Y-81994047D01*
X133408809Y-81994047D02*
X133361190Y-81946428D01*
X133361190Y-81946428D02*
X133313571Y-81851190D01*
X133313571Y-81851190D02*
X133313571Y-81470238D01*
X133837380Y-82375000D02*
X133837380Y-82994047D01*
X133837380Y-82994047D02*
X133456428Y-82660714D01*
X133456428Y-82660714D02*
X133456428Y-82803571D01*
X133456428Y-82803571D02*
X133408809Y-82898809D01*
X133408809Y-82898809D02*
X133361190Y-82946428D01*
X133361190Y-82946428D02*
X133265952Y-82994047D01*
X133265952Y-82994047D02*
X133027857Y-82994047D01*
X133027857Y-82994047D02*
X132932619Y-82946428D01*
X132932619Y-82946428D02*
X132885000Y-82898809D01*
X132885000Y-82898809D02*
X132837380Y-82803571D01*
X132837380Y-82803571D02*
X132837380Y-82517857D01*
X132837380Y-82517857D02*
X132885000Y-82422619D01*
X132885000Y-82422619D02*
X132932619Y-82375000D01*
X133742142Y-83375000D02*
X133789761Y-83422619D01*
X133789761Y-83422619D02*
X133837380Y-83517857D01*
X133837380Y-83517857D02*
X133837380Y-83755952D01*
X133837380Y-83755952D02*
X133789761Y-83851190D01*
X133789761Y-83851190D02*
X133742142Y-83898809D01*
X133742142Y-83898809D02*
X133646904Y-83946428D01*
X133646904Y-83946428D02*
X133551666Y-83946428D01*
X133551666Y-83946428D02*
X133408809Y-83898809D01*
X133408809Y-83898809D02*
X132837380Y-83327381D01*
X132837380Y-83327381D02*
X132837380Y-83946428D01*
X132885000Y-84803571D02*
X132837380Y-84708333D01*
X132837380Y-84708333D02*
X132837380Y-84517857D01*
X132837380Y-84517857D02*
X132885000Y-84422619D01*
X132885000Y-84422619D02*
X132932619Y-84375000D01*
X132932619Y-84375000D02*
X133027857Y-84327381D01*
X133027857Y-84327381D02*
X133313571Y-84327381D01*
X133313571Y-84327381D02*
X133408809Y-84375000D01*
X133408809Y-84375000D02*
X133456428Y-84422619D01*
X133456428Y-84422619D02*
X133504047Y-84517857D01*
X133504047Y-84517857D02*
X133504047Y-84708333D01*
X133504047Y-84708333D02*
X133456428Y-84803571D01*
X132837380Y-85660714D02*
X133361190Y-85660714D01*
X133361190Y-85660714D02*
X133456428Y-85613095D01*
X133456428Y-85613095D02*
X133504047Y-85517857D01*
X133504047Y-85517857D02*
X133504047Y-85327381D01*
X133504047Y-85327381D02*
X133456428Y-85232143D01*
X132885000Y-85660714D02*
X132837380Y-85565476D01*
X132837380Y-85565476D02*
X132837380Y-85327381D01*
X132837380Y-85327381D02*
X132885000Y-85232143D01*
X132885000Y-85232143D02*
X132980238Y-85184524D01*
X132980238Y-85184524D02*
X133075476Y-85184524D01*
X133075476Y-85184524D02*
X133170714Y-85232143D01*
X133170714Y-85232143D02*
X133218333Y-85327381D01*
X133218333Y-85327381D02*
X133218333Y-85565476D01*
X133218333Y-85565476D02*
X133265952Y-85660714D01*
X132837380Y-86136905D02*
X133504047Y-86136905D01*
X133408809Y-86136905D02*
X133456428Y-86184524D01*
X133456428Y-86184524D02*
X133504047Y-86279762D01*
X133504047Y-86279762D02*
X133504047Y-86422619D01*
X133504047Y-86422619D02*
X133456428Y-86517857D01*
X133456428Y-86517857D02*
X133361190Y-86565476D01*
X133361190Y-86565476D02*
X132837380Y-86565476D01*
X133361190Y-86565476D02*
X133456428Y-86613095D01*
X133456428Y-86613095D02*
X133504047Y-86708333D01*
X133504047Y-86708333D02*
X133504047Y-86851190D01*
X133504047Y-86851190D02*
X133456428Y-86946429D01*
X133456428Y-86946429D02*
X133361190Y-86994048D01*
X133361190Y-86994048D02*
X132837380Y-86994048D01*
X96123095Y-93349619D02*
X96123095Y-92349619D01*
X96123095Y-92349619D02*
X96361190Y-92349619D01*
X96361190Y-92349619D02*
X96504047Y-92397238D01*
X96504047Y-92397238D02*
X96599285Y-92492476D01*
X96599285Y-92492476D02*
X96646904Y-92587714D01*
X96646904Y-92587714D02*
X96694523Y-92778190D01*
X96694523Y-92778190D02*
X96694523Y-92921047D01*
X96694523Y-92921047D02*
X96646904Y-93111523D01*
X96646904Y-93111523D02*
X96599285Y-93206761D01*
X96599285Y-93206761D02*
X96504047Y-93302000D01*
X96504047Y-93302000D02*
X96361190Y-93349619D01*
X96361190Y-93349619D02*
X96123095Y-93349619D01*
X97646904Y-93349619D02*
X97075476Y-93349619D01*
X97361190Y-93349619D02*
X97361190Y-92349619D01*
X97361190Y-92349619D02*
X97265952Y-92492476D01*
X97265952Y-92492476D02*
X97170714Y-92587714D01*
X97170714Y-92587714D02*
X97075476Y-92635333D01*
X97980238Y-92349619D02*
X98599285Y-92349619D01*
X98599285Y-92349619D02*
X98265952Y-92730571D01*
X98265952Y-92730571D02*
X98408809Y-92730571D01*
X98408809Y-92730571D02*
X98504047Y-92778190D01*
X98504047Y-92778190D02*
X98551666Y-92825809D01*
X98551666Y-92825809D02*
X98599285Y-92921047D01*
X98599285Y-92921047D02*
X98599285Y-93159142D01*
X98599285Y-93159142D02*
X98551666Y-93254380D01*
X98551666Y-93254380D02*
X98504047Y-93302000D01*
X98504047Y-93302000D02*
X98408809Y-93349619D01*
X98408809Y-93349619D02*
X98123095Y-93349619D01*
X98123095Y-93349619D02*
X98027857Y-93302000D01*
X98027857Y-93302000D02*
X97980238Y-93254380D01*
X96123095Y-89615819D02*
X96123095Y-88615819D01*
X96123095Y-88615819D02*
X96361190Y-88615819D01*
X96361190Y-88615819D02*
X96504047Y-88663438D01*
X96504047Y-88663438D02*
X96599285Y-88758676D01*
X96599285Y-88758676D02*
X96646904Y-88853914D01*
X96646904Y-88853914D02*
X96694523Y-89044390D01*
X96694523Y-89044390D02*
X96694523Y-89187247D01*
X96694523Y-89187247D02*
X96646904Y-89377723D01*
X96646904Y-89377723D02*
X96599285Y-89472961D01*
X96599285Y-89472961D02*
X96504047Y-89568200D01*
X96504047Y-89568200D02*
X96361190Y-89615819D01*
X96361190Y-89615819D02*
X96123095Y-89615819D01*
X97646904Y-89615819D02*
X97075476Y-89615819D01*
X97361190Y-89615819D02*
X97361190Y-88615819D01*
X97361190Y-88615819D02*
X97265952Y-88758676D01*
X97265952Y-88758676D02*
X97170714Y-88853914D01*
X97170714Y-88853914D02*
X97075476Y-88901533D01*
X98027857Y-88711057D02*
X98075476Y-88663438D01*
X98075476Y-88663438D02*
X98170714Y-88615819D01*
X98170714Y-88615819D02*
X98408809Y-88615819D01*
X98408809Y-88615819D02*
X98504047Y-88663438D01*
X98504047Y-88663438D02*
X98551666Y-88711057D01*
X98551666Y-88711057D02*
X98599285Y-88806295D01*
X98599285Y-88806295D02*
X98599285Y-88901533D01*
X98599285Y-88901533D02*
X98551666Y-89044390D01*
X98551666Y-89044390D02*
X97980238Y-89615819D01*
X97980238Y-89615819D02*
X98599285Y-89615819D01*
X96758095Y-85653419D02*
X96758095Y-84653419D01*
X96758095Y-84653419D02*
X96996190Y-84653419D01*
X96996190Y-84653419D02*
X97139047Y-84701038D01*
X97139047Y-84701038D02*
X97234285Y-84796276D01*
X97234285Y-84796276D02*
X97281904Y-84891514D01*
X97281904Y-84891514D02*
X97329523Y-85081990D01*
X97329523Y-85081990D02*
X97329523Y-85224847D01*
X97329523Y-85224847D02*
X97281904Y-85415323D01*
X97281904Y-85415323D02*
X97234285Y-85510561D01*
X97234285Y-85510561D02*
X97139047Y-85605800D01*
X97139047Y-85605800D02*
X96996190Y-85653419D01*
X96996190Y-85653419D02*
X96758095Y-85653419D01*
X97805714Y-85653419D02*
X97996190Y-85653419D01*
X97996190Y-85653419D02*
X98091428Y-85605800D01*
X98091428Y-85605800D02*
X98139047Y-85558180D01*
X98139047Y-85558180D02*
X98234285Y-85415323D01*
X98234285Y-85415323D02*
X98281904Y-85224847D01*
X98281904Y-85224847D02*
X98281904Y-84843895D01*
X98281904Y-84843895D02*
X98234285Y-84748657D01*
X98234285Y-84748657D02*
X98186666Y-84701038D01*
X98186666Y-84701038D02*
X98091428Y-84653419D01*
X98091428Y-84653419D02*
X97900952Y-84653419D01*
X97900952Y-84653419D02*
X97805714Y-84701038D01*
X97805714Y-84701038D02*
X97758095Y-84748657D01*
X97758095Y-84748657D02*
X97710476Y-84843895D01*
X97710476Y-84843895D02*
X97710476Y-85081990D01*
X97710476Y-85081990D02*
X97758095Y-85177228D01*
X97758095Y-85177228D02*
X97805714Y-85224847D01*
X97805714Y-85224847D02*
X97900952Y-85272466D01*
X97900952Y-85272466D02*
X98091428Y-85272466D01*
X98091428Y-85272466D02*
X98186666Y-85224847D01*
X98186666Y-85224847D02*
X98234285Y-85177228D01*
X98234285Y-85177228D02*
X98281904Y-85081990D01*
X96758095Y-81894219D02*
X96758095Y-80894219D01*
X96758095Y-80894219D02*
X96996190Y-80894219D01*
X96996190Y-80894219D02*
X97139047Y-80941838D01*
X97139047Y-80941838D02*
X97234285Y-81037076D01*
X97234285Y-81037076D02*
X97281904Y-81132314D01*
X97281904Y-81132314D02*
X97329523Y-81322790D01*
X97329523Y-81322790D02*
X97329523Y-81465647D01*
X97329523Y-81465647D02*
X97281904Y-81656123D01*
X97281904Y-81656123D02*
X97234285Y-81751361D01*
X97234285Y-81751361D02*
X97139047Y-81846600D01*
X97139047Y-81846600D02*
X96996190Y-81894219D01*
X96996190Y-81894219D02*
X96758095Y-81894219D01*
X98186666Y-80894219D02*
X97996190Y-80894219D01*
X97996190Y-80894219D02*
X97900952Y-80941838D01*
X97900952Y-80941838D02*
X97853333Y-80989457D01*
X97853333Y-80989457D02*
X97758095Y-81132314D01*
X97758095Y-81132314D02*
X97710476Y-81322790D01*
X97710476Y-81322790D02*
X97710476Y-81703742D01*
X97710476Y-81703742D02*
X97758095Y-81798980D01*
X97758095Y-81798980D02*
X97805714Y-81846600D01*
X97805714Y-81846600D02*
X97900952Y-81894219D01*
X97900952Y-81894219D02*
X98091428Y-81894219D01*
X98091428Y-81894219D02*
X98186666Y-81846600D01*
X98186666Y-81846600D02*
X98234285Y-81798980D01*
X98234285Y-81798980D02*
X98281904Y-81703742D01*
X98281904Y-81703742D02*
X98281904Y-81465647D01*
X98281904Y-81465647D02*
X98234285Y-81370409D01*
X98234285Y-81370409D02*
X98186666Y-81322790D01*
X98186666Y-81322790D02*
X98091428Y-81275171D01*
X98091428Y-81275171D02*
X97900952Y-81275171D01*
X97900952Y-81275171D02*
X97805714Y-81322790D01*
X97805714Y-81322790D02*
X97758095Y-81370409D01*
X97758095Y-81370409D02*
X97710476Y-81465647D01*
X96758095Y-78084219D02*
X96758095Y-77084219D01*
X96758095Y-77084219D02*
X96996190Y-77084219D01*
X96996190Y-77084219D02*
X97139047Y-77131838D01*
X97139047Y-77131838D02*
X97234285Y-77227076D01*
X97234285Y-77227076D02*
X97281904Y-77322314D01*
X97281904Y-77322314D02*
X97329523Y-77512790D01*
X97329523Y-77512790D02*
X97329523Y-77655647D01*
X97329523Y-77655647D02*
X97281904Y-77846123D01*
X97281904Y-77846123D02*
X97234285Y-77941361D01*
X97234285Y-77941361D02*
X97139047Y-78036600D01*
X97139047Y-78036600D02*
X96996190Y-78084219D01*
X96996190Y-78084219D02*
X96758095Y-78084219D01*
X98234285Y-77084219D02*
X97758095Y-77084219D01*
X97758095Y-77084219D02*
X97710476Y-77560409D01*
X97710476Y-77560409D02*
X97758095Y-77512790D01*
X97758095Y-77512790D02*
X97853333Y-77465171D01*
X97853333Y-77465171D02*
X98091428Y-77465171D01*
X98091428Y-77465171D02*
X98186666Y-77512790D01*
X98186666Y-77512790D02*
X98234285Y-77560409D01*
X98234285Y-77560409D02*
X98281904Y-77655647D01*
X98281904Y-77655647D02*
X98281904Y-77893742D01*
X98281904Y-77893742D02*
X98234285Y-77988980D01*
X98234285Y-77988980D02*
X98186666Y-78036600D01*
X98186666Y-78036600D02*
X98091428Y-78084219D01*
X98091428Y-78084219D02*
X97853333Y-78084219D01*
X97853333Y-78084219D02*
X97758095Y-78036600D01*
X97758095Y-78036600D02*
X97710476Y-77988980D01*
X96758095Y-74172619D02*
X96758095Y-73172619D01*
X96758095Y-73172619D02*
X96996190Y-73172619D01*
X96996190Y-73172619D02*
X97139047Y-73220238D01*
X97139047Y-73220238D02*
X97234285Y-73315476D01*
X97234285Y-73315476D02*
X97281904Y-73410714D01*
X97281904Y-73410714D02*
X97329523Y-73601190D01*
X97329523Y-73601190D02*
X97329523Y-73744047D01*
X97329523Y-73744047D02*
X97281904Y-73934523D01*
X97281904Y-73934523D02*
X97234285Y-74029761D01*
X97234285Y-74029761D02*
X97139047Y-74125000D01*
X97139047Y-74125000D02*
X96996190Y-74172619D01*
X96996190Y-74172619D02*
X96758095Y-74172619D01*
X97710476Y-73267857D02*
X97758095Y-73220238D01*
X97758095Y-73220238D02*
X97853333Y-73172619D01*
X97853333Y-73172619D02*
X98091428Y-73172619D01*
X98091428Y-73172619D02*
X98186666Y-73220238D01*
X98186666Y-73220238D02*
X98234285Y-73267857D01*
X98234285Y-73267857D02*
X98281904Y-73363095D01*
X98281904Y-73363095D02*
X98281904Y-73458333D01*
X98281904Y-73458333D02*
X98234285Y-73601190D01*
X98234285Y-73601190D02*
X97662857Y-74172619D01*
X97662857Y-74172619D02*
X98281904Y-74172619D01*
X99885476Y-72169200D02*
X100028333Y-72216819D01*
X100028333Y-72216819D02*
X100266428Y-72216819D01*
X100266428Y-72216819D02*
X100361666Y-72169200D01*
X100361666Y-72169200D02*
X100409285Y-72121580D01*
X100409285Y-72121580D02*
X100456904Y-72026342D01*
X100456904Y-72026342D02*
X100456904Y-71931104D01*
X100456904Y-71931104D02*
X100409285Y-71835866D01*
X100409285Y-71835866D02*
X100361666Y-71788247D01*
X100361666Y-71788247D02*
X100266428Y-71740628D01*
X100266428Y-71740628D02*
X100075952Y-71693009D01*
X100075952Y-71693009D02*
X99980714Y-71645390D01*
X99980714Y-71645390D02*
X99933095Y-71597771D01*
X99933095Y-71597771D02*
X99885476Y-71502533D01*
X99885476Y-71502533D02*
X99885476Y-71407295D01*
X99885476Y-71407295D02*
X99933095Y-71312057D01*
X99933095Y-71312057D02*
X99980714Y-71264438D01*
X99980714Y-71264438D02*
X100075952Y-71216819D01*
X100075952Y-71216819D02*
X100314047Y-71216819D01*
X100314047Y-71216819D02*
X100456904Y-71264438D01*
X105663904Y-71010438D02*
X105568666Y-70962819D01*
X105568666Y-70962819D02*
X105425809Y-70962819D01*
X105425809Y-70962819D02*
X105282952Y-71010438D01*
X105282952Y-71010438D02*
X105187714Y-71105676D01*
X105187714Y-71105676D02*
X105140095Y-71200914D01*
X105140095Y-71200914D02*
X105092476Y-71391390D01*
X105092476Y-71391390D02*
X105092476Y-71534247D01*
X105092476Y-71534247D02*
X105140095Y-71724723D01*
X105140095Y-71724723D02*
X105187714Y-71819961D01*
X105187714Y-71819961D02*
X105282952Y-71915200D01*
X105282952Y-71915200D02*
X105425809Y-71962819D01*
X105425809Y-71962819D02*
X105521047Y-71962819D01*
X105521047Y-71962819D02*
X105663904Y-71915200D01*
X105663904Y-71915200D02*
X105711523Y-71867580D01*
X105711523Y-71867580D02*
X105711523Y-71534247D01*
X105711523Y-71534247D02*
X105521047Y-71534247D01*
G36*
X102878568Y-72118400D02*
G01*
X102826300Y-72118400D01*
X102814760Y-72117292D01*
X102804868Y-72113969D01*
X102796625Y-72108430D01*
X102790030Y-72100677D01*
X102785084Y-72090708D01*
X102783802Y-72086892D01*
X102489733Y-71164875D01*
X102487063Y-71155411D01*
X102484607Y-71142359D01*
X102484009Y-71130681D01*
X102485271Y-71120377D01*
X102489844Y-71108776D01*
X102497723Y-71099617D01*
X102508907Y-71092900D01*
X102519463Y-71089465D01*
X102531879Y-71087405D01*
X102546154Y-71086718D01*
X102556575Y-71087175D01*
X102569268Y-71089207D01*
X102580587Y-71092865D01*
X102590532Y-71098149D01*
X102599104Y-71105058D01*
X102606301Y-71113593D01*
X102612125Y-71123754D01*
X102616575Y-71135541D01*
X102617472Y-71138741D01*
X102768659Y-71645790D01*
X102772368Y-71658494D01*
X102775531Y-71669390D01*
X102779020Y-71681458D01*
X102782835Y-71694698D01*
X102785560Y-71704175D01*
X102788430Y-71714174D01*
X102791445Y-71724694D01*
X102794605Y-71735734D01*
X102797910Y-71747296D01*
X102801360Y-71759378D01*
X102804955Y-71771981D01*
X102808695Y-71785106D01*
X102812580Y-71798751D01*
X102814576Y-71805769D01*
X102818566Y-71819755D01*
X102822476Y-71833383D01*
X102826306Y-71846653D01*
X102830055Y-71859563D01*
X102833725Y-71872115D01*
X102837314Y-71884308D01*
X102840823Y-71896142D01*
X102844252Y-71907618D01*
X102847601Y-71918735D01*
X102850869Y-71929493D01*
X102854058Y-71939892D01*
X102857166Y-71949933D01*
X102860195Y-71959615D01*
X102863143Y-71968938D01*
X102867414Y-71982250D01*
X102868798Y-71986508D01*
X102874416Y-71986508D01*
X102878359Y-71973746D01*
X102882496Y-71960190D01*
X102885361Y-71950712D01*
X102888312Y-71940880D01*
X102891349Y-71930695D01*
X102894472Y-71920157D01*
X102897680Y-71909267D01*
X102900975Y-71898023D01*
X102904355Y-71886426D01*
X102907821Y-71874476D01*
X102911373Y-71862173D01*
X102915011Y-71849518D01*
X102918735Y-71836509D01*
X102922544Y-71823147D01*
X102926440Y-71809432D01*
X102930349Y-71795741D01*
X102934141Y-71782512D01*
X102937814Y-71769745D01*
X102941369Y-71757439D01*
X102944806Y-71745595D01*
X102948124Y-71734213D01*
X102951324Y-71723293D01*
X102954406Y-71712834D01*
X102957369Y-71702837D01*
X102960214Y-71693302D01*
X102964260Y-71679866D01*
X102968039Y-71667468D01*
X102971553Y-71656109D01*
X102974800Y-71645790D01*
X103124521Y-71138741D01*
X103127697Y-71129444D01*
X103132981Y-71118470D01*
X103139463Y-71109122D01*
X103147143Y-71101400D01*
X103156022Y-71095304D01*
X103166098Y-71090833D01*
X103177374Y-71087988D01*
X103189847Y-71086769D01*
X103193153Y-71086718D01*
X103206958Y-71087394D01*
X103218973Y-71089423D01*
X103229198Y-71092804D01*
X103240045Y-71099415D01*
X103247710Y-71108431D01*
X103252193Y-71119851D01*
X103253466Y-71129994D01*
X103252948Y-71141490D01*
X103250641Y-71154338D01*
X103248108Y-71163654D01*
X102965030Y-72055141D01*
X102960991Y-72066446D01*
X102956111Y-72076639D01*
X102950390Y-72085720D01*
X102943827Y-72093689D01*
X102936422Y-72100546D01*
X102928176Y-72106291D01*
X102919089Y-72110925D01*
X102909160Y-72114446D01*
X102898389Y-72116855D01*
X102886777Y-72118152D01*
X102878568Y-72118400D01*
G37*
X37977619Y-62626904D02*
X36977619Y-62626904D01*
X36977619Y-62626904D02*
X36977619Y-62245952D01*
X36977619Y-62245952D02*
X37025238Y-62150714D01*
X37025238Y-62150714D02*
X37072857Y-62103095D01*
X37072857Y-62103095D02*
X37168095Y-62055476D01*
X37168095Y-62055476D02*
X37310952Y-62055476D01*
X37310952Y-62055476D02*
X37406190Y-62103095D01*
X37406190Y-62103095D02*
X37453809Y-62150714D01*
X37453809Y-62150714D02*
X37501428Y-62245952D01*
X37501428Y-62245952D02*
X37501428Y-62626904D01*
X37977619Y-61484047D02*
X37930000Y-61579285D01*
X37930000Y-61579285D02*
X37882380Y-61626904D01*
X37882380Y-61626904D02*
X37787142Y-61674523D01*
X37787142Y-61674523D02*
X37501428Y-61674523D01*
X37501428Y-61674523D02*
X37406190Y-61626904D01*
X37406190Y-61626904D02*
X37358571Y-61579285D01*
X37358571Y-61579285D02*
X37310952Y-61484047D01*
X37310952Y-61484047D02*
X37310952Y-61341190D01*
X37310952Y-61341190D02*
X37358571Y-61245952D01*
X37358571Y-61245952D02*
X37406190Y-61198333D01*
X37406190Y-61198333D02*
X37501428Y-61150714D01*
X37501428Y-61150714D02*
X37787142Y-61150714D01*
X37787142Y-61150714D02*
X37882380Y-61198333D01*
X37882380Y-61198333D02*
X37930000Y-61245952D01*
X37930000Y-61245952D02*
X37977619Y-61341190D01*
X37977619Y-61341190D02*
X37977619Y-61484047D01*
X37310952Y-60817380D02*
X37977619Y-60626904D01*
X37977619Y-60626904D02*
X37501428Y-60436428D01*
X37501428Y-60436428D02*
X37977619Y-60245952D01*
X37977619Y-60245952D02*
X37310952Y-60055476D01*
X37930000Y-59293571D02*
X37977619Y-59388809D01*
X37977619Y-59388809D02*
X37977619Y-59579285D01*
X37977619Y-59579285D02*
X37930000Y-59674523D01*
X37930000Y-59674523D02*
X37834761Y-59722142D01*
X37834761Y-59722142D02*
X37453809Y-59722142D01*
X37453809Y-59722142D02*
X37358571Y-59674523D01*
X37358571Y-59674523D02*
X37310952Y-59579285D01*
X37310952Y-59579285D02*
X37310952Y-59388809D01*
X37310952Y-59388809D02*
X37358571Y-59293571D01*
X37358571Y-59293571D02*
X37453809Y-59245952D01*
X37453809Y-59245952D02*
X37549047Y-59245952D01*
X37549047Y-59245952D02*
X37644285Y-59722142D01*
X37977619Y-58817380D02*
X37310952Y-58817380D01*
X37501428Y-58817380D02*
X37406190Y-58769761D01*
X37406190Y-58769761D02*
X37358571Y-58722142D01*
X37358571Y-58722142D02*
X37310952Y-58626904D01*
X37310952Y-58626904D02*
X37310952Y-58531666D01*
X38358571Y-57150713D02*
X38310952Y-57198332D01*
X38310952Y-57198332D02*
X38168095Y-57293570D01*
X38168095Y-57293570D02*
X38072857Y-57341189D01*
X38072857Y-57341189D02*
X37930000Y-57388808D01*
X37930000Y-57388808D02*
X37691904Y-57436427D01*
X37691904Y-57436427D02*
X37501428Y-57436427D01*
X37501428Y-57436427D02*
X37263333Y-57388808D01*
X37263333Y-57388808D02*
X37120476Y-57341189D01*
X37120476Y-57341189D02*
X37025238Y-57293570D01*
X37025238Y-57293570D02*
X36882380Y-57198332D01*
X36882380Y-57198332D02*
X36834761Y-57150713D01*
X37977619Y-56245951D02*
X37977619Y-56817379D01*
X37977619Y-56531665D02*
X36977619Y-56531665D01*
X36977619Y-56531665D02*
X37120476Y-56626903D01*
X37120476Y-56626903D02*
X37215714Y-56722141D01*
X37215714Y-56722141D02*
X37263333Y-56817379D01*
X37072857Y-55864998D02*
X37025238Y-55817379D01*
X37025238Y-55817379D02*
X36977619Y-55722141D01*
X36977619Y-55722141D02*
X36977619Y-55484046D01*
X36977619Y-55484046D02*
X37025238Y-55388808D01*
X37025238Y-55388808D02*
X37072857Y-55341189D01*
X37072857Y-55341189D02*
X37168095Y-55293570D01*
X37168095Y-55293570D02*
X37263333Y-55293570D01*
X37263333Y-55293570D02*
X37406190Y-55341189D01*
X37406190Y-55341189D02*
X37977619Y-55912617D01*
X37977619Y-55912617D02*
X37977619Y-55293570D01*
X36977619Y-55007855D02*
X37977619Y-54674522D01*
X37977619Y-54674522D02*
X36977619Y-54341189D01*
X38358571Y-54103093D02*
X38310952Y-54055474D01*
X38310952Y-54055474D02*
X38168095Y-53960236D01*
X38168095Y-53960236D02*
X38072857Y-53912617D01*
X38072857Y-53912617D02*
X37930000Y-53864998D01*
X37930000Y-53864998D02*
X37691904Y-53817379D01*
X37691904Y-53817379D02*
X37501428Y-53817379D01*
X37501428Y-53817379D02*
X37263333Y-53864998D01*
X37263333Y-53864998D02*
X37120476Y-53912617D01*
X37120476Y-53912617D02*
X37025238Y-53960236D01*
X37025238Y-53960236D02*
X36882380Y-54055474D01*
X36882380Y-54055474D02*
X36834761Y-54103093D01*
%TO.C,J14*%
X78202619Y-93519523D02*
X78916904Y-93519523D01*
X78916904Y-93519523D02*
X79059761Y-93567142D01*
X79059761Y-93567142D02*
X79155000Y-93662380D01*
X79155000Y-93662380D02*
X79202619Y-93805237D01*
X79202619Y-93805237D02*
X79202619Y-93900475D01*
X79202619Y-92519523D02*
X79202619Y-93090951D01*
X79202619Y-92805237D02*
X78202619Y-92805237D01*
X78202619Y-92805237D02*
X78345476Y-92900475D01*
X78345476Y-92900475D02*
X78440714Y-92995713D01*
X78440714Y-92995713D02*
X78488333Y-93090951D01*
X78535952Y-91662380D02*
X79202619Y-91662380D01*
X78155000Y-91900475D02*
X78869285Y-92138570D01*
X78869285Y-92138570D02*
X78869285Y-91519523D01*
%TO.C,J7*%
X120322619Y-75263333D02*
X121036904Y-75263333D01*
X121036904Y-75263333D02*
X121179761Y-75310952D01*
X121179761Y-75310952D02*
X121275000Y-75406190D01*
X121275000Y-75406190D02*
X121322619Y-75549047D01*
X121322619Y-75549047D02*
X121322619Y-75644285D01*
X120322619Y-74882380D02*
X120322619Y-74215714D01*
X120322619Y-74215714D02*
X121322619Y-74644285D01*
%TO.C,U7*%
X119888095Y-45392619D02*
X119888095Y-46202142D01*
X119888095Y-46202142D02*
X119935714Y-46297380D01*
X119935714Y-46297380D02*
X119983333Y-46345000D01*
X119983333Y-46345000D02*
X120078571Y-46392619D01*
X120078571Y-46392619D02*
X120269047Y-46392619D01*
X120269047Y-46392619D02*
X120364285Y-46345000D01*
X120364285Y-46345000D02*
X120411904Y-46297380D01*
X120411904Y-46297380D02*
X120459523Y-46202142D01*
X120459523Y-46202142D02*
X120459523Y-45392619D01*
X120840476Y-45392619D02*
X121507142Y-45392619D01*
X121507142Y-45392619D02*
X121078571Y-46392619D01*
%TO.C,J16*%
X93170476Y-36546619D02*
X93170476Y-37260904D01*
X93170476Y-37260904D02*
X93122857Y-37403761D01*
X93122857Y-37403761D02*
X93027619Y-37499000D01*
X93027619Y-37499000D02*
X92884762Y-37546619D01*
X92884762Y-37546619D02*
X92789524Y-37546619D01*
X94170476Y-37546619D02*
X93599048Y-37546619D01*
X93884762Y-37546619D02*
X93884762Y-36546619D01*
X93884762Y-36546619D02*
X93789524Y-36689476D01*
X93789524Y-36689476D02*
X93694286Y-36784714D01*
X93694286Y-36784714D02*
X93599048Y-36832333D01*
X95027619Y-36546619D02*
X94837143Y-36546619D01*
X94837143Y-36546619D02*
X94741905Y-36594238D01*
X94741905Y-36594238D02*
X94694286Y-36641857D01*
X94694286Y-36641857D02*
X94599048Y-36784714D01*
X94599048Y-36784714D02*
X94551429Y-36975190D01*
X94551429Y-36975190D02*
X94551429Y-37356142D01*
X94551429Y-37356142D02*
X94599048Y-37451380D01*
X94599048Y-37451380D02*
X94646667Y-37499000D01*
X94646667Y-37499000D02*
X94741905Y-37546619D01*
X94741905Y-37546619D02*
X94932381Y-37546619D01*
X94932381Y-37546619D02*
X95027619Y-37499000D01*
X95027619Y-37499000D02*
X95075238Y-37451380D01*
X95075238Y-37451380D02*
X95122857Y-37356142D01*
X95122857Y-37356142D02*
X95122857Y-37118047D01*
X95122857Y-37118047D02*
X95075238Y-37022809D01*
X95075238Y-37022809D02*
X95027619Y-36975190D01*
X95027619Y-36975190D02*
X94932381Y-36927571D01*
X94932381Y-36927571D02*
X94741905Y-36927571D01*
X94741905Y-36927571D02*
X94646667Y-36975190D01*
X94646667Y-36975190D02*
X94599048Y-37022809D01*
X94599048Y-37022809D02*
X94551429Y-37118047D01*
%TO.C,J4*%
X116633666Y-73884619D02*
X116633666Y-74598904D01*
X116633666Y-74598904D02*
X116586047Y-74741761D01*
X116586047Y-74741761D02*
X116490809Y-74837000D01*
X116490809Y-74837000D02*
X116347952Y-74884619D01*
X116347952Y-74884619D02*
X116252714Y-74884619D01*
X117538428Y-74217952D02*
X117538428Y-74884619D01*
X117300333Y-73837000D02*
X117062238Y-74551285D01*
X117062238Y-74551285D02*
X117681285Y-74551285D01*
%TO.C,R2*%
X45547619Y-79541666D02*
X45071428Y-79874999D01*
X45547619Y-80113094D02*
X44547619Y-80113094D01*
X44547619Y-80113094D02*
X44547619Y-79732142D01*
X44547619Y-79732142D02*
X44595238Y-79636904D01*
X44595238Y-79636904D02*
X44642857Y-79589285D01*
X44642857Y-79589285D02*
X44738095Y-79541666D01*
X44738095Y-79541666D02*
X44880952Y-79541666D01*
X44880952Y-79541666D02*
X44976190Y-79589285D01*
X44976190Y-79589285D02*
X45023809Y-79636904D01*
X45023809Y-79636904D02*
X45071428Y-79732142D01*
X45071428Y-79732142D02*
X45071428Y-80113094D01*
X44642857Y-79160713D02*
X44595238Y-79113094D01*
X44595238Y-79113094D02*
X44547619Y-79017856D01*
X44547619Y-79017856D02*
X44547619Y-78779761D01*
X44547619Y-78779761D02*
X44595238Y-78684523D01*
X44595238Y-78684523D02*
X44642857Y-78636904D01*
X44642857Y-78636904D02*
X44738095Y-78589285D01*
X44738095Y-78589285D02*
X44833333Y-78589285D01*
X44833333Y-78589285D02*
X44976190Y-78636904D01*
X44976190Y-78636904D02*
X45547619Y-79208332D01*
X45547619Y-79208332D02*
X45547619Y-78589285D01*
%TO.C,U3*%
X71628095Y-45817619D02*
X71628095Y-46627142D01*
X71628095Y-46627142D02*
X71675714Y-46722380D01*
X71675714Y-46722380D02*
X71723333Y-46770000D01*
X71723333Y-46770000D02*
X71818571Y-46817619D01*
X71818571Y-46817619D02*
X72009047Y-46817619D01*
X72009047Y-46817619D02*
X72104285Y-46770000D01*
X72104285Y-46770000D02*
X72151904Y-46722380D01*
X72151904Y-46722380D02*
X72199523Y-46627142D01*
X72199523Y-46627142D02*
X72199523Y-45817619D01*
X72580476Y-45817619D02*
X73199523Y-45817619D01*
X73199523Y-45817619D02*
X72866190Y-46198571D01*
X72866190Y-46198571D02*
X73009047Y-46198571D01*
X73009047Y-46198571D02*
X73104285Y-46246190D01*
X73104285Y-46246190D02*
X73151904Y-46293809D01*
X73151904Y-46293809D02*
X73199523Y-46389047D01*
X73199523Y-46389047D02*
X73199523Y-46627142D01*
X73199523Y-46627142D02*
X73151904Y-46722380D01*
X73151904Y-46722380D02*
X73104285Y-46770000D01*
X73104285Y-46770000D02*
X73009047Y-46817619D01*
X73009047Y-46817619D02*
X72723333Y-46817619D01*
X72723333Y-46817619D02*
X72628095Y-46770000D01*
X72628095Y-46770000D02*
X72580476Y-46722380D01*
%TO.C,J6*%
X87144266Y-68753819D02*
X87144266Y-69468104D01*
X87144266Y-69468104D02*
X87096647Y-69610961D01*
X87096647Y-69610961D02*
X87001409Y-69706200D01*
X87001409Y-69706200D02*
X86858552Y-69753819D01*
X86858552Y-69753819D02*
X86763314Y-69753819D01*
X88049028Y-68753819D02*
X87858552Y-68753819D01*
X87858552Y-68753819D02*
X87763314Y-68801438D01*
X87763314Y-68801438D02*
X87715695Y-68849057D01*
X87715695Y-68849057D02*
X87620457Y-68991914D01*
X87620457Y-68991914D02*
X87572838Y-69182390D01*
X87572838Y-69182390D02*
X87572838Y-69563342D01*
X87572838Y-69563342D02*
X87620457Y-69658580D01*
X87620457Y-69658580D02*
X87668076Y-69706200D01*
X87668076Y-69706200D02*
X87763314Y-69753819D01*
X87763314Y-69753819D02*
X87953790Y-69753819D01*
X87953790Y-69753819D02*
X88049028Y-69706200D01*
X88049028Y-69706200D02*
X88096647Y-69658580D01*
X88096647Y-69658580D02*
X88144266Y-69563342D01*
X88144266Y-69563342D02*
X88144266Y-69325247D01*
X88144266Y-69325247D02*
X88096647Y-69230009D01*
X88096647Y-69230009D02*
X88049028Y-69182390D01*
X88049028Y-69182390D02*
X87953790Y-69134771D01*
X87953790Y-69134771D02*
X87763314Y-69134771D01*
X87763314Y-69134771D02*
X87668076Y-69182390D01*
X87668076Y-69182390D02*
X87620457Y-69230009D01*
X87620457Y-69230009D02*
X87572838Y-69325247D01*
%TO.C,J15*%
X70310476Y-36546619D02*
X70310476Y-37260904D01*
X70310476Y-37260904D02*
X70262857Y-37403761D01*
X70262857Y-37403761D02*
X70167619Y-37499000D01*
X70167619Y-37499000D02*
X70024762Y-37546619D01*
X70024762Y-37546619D02*
X69929524Y-37546619D01*
X71310476Y-37546619D02*
X70739048Y-37546619D01*
X71024762Y-37546619D02*
X71024762Y-36546619D01*
X71024762Y-36546619D02*
X70929524Y-36689476D01*
X70929524Y-36689476D02*
X70834286Y-36784714D01*
X70834286Y-36784714D02*
X70739048Y-36832333D01*
X72215238Y-36546619D02*
X71739048Y-36546619D01*
X71739048Y-36546619D02*
X71691429Y-37022809D01*
X71691429Y-37022809D02*
X71739048Y-36975190D01*
X71739048Y-36975190D02*
X71834286Y-36927571D01*
X71834286Y-36927571D02*
X72072381Y-36927571D01*
X72072381Y-36927571D02*
X72167619Y-36975190D01*
X72167619Y-36975190D02*
X72215238Y-37022809D01*
X72215238Y-37022809D02*
X72262857Y-37118047D01*
X72262857Y-37118047D02*
X72262857Y-37356142D01*
X72262857Y-37356142D02*
X72215238Y-37451380D01*
X72215238Y-37451380D02*
X72167619Y-37499000D01*
X72167619Y-37499000D02*
X72072381Y-37546619D01*
X72072381Y-37546619D02*
X71834286Y-37546619D01*
X71834286Y-37546619D02*
X71739048Y-37499000D01*
X71739048Y-37499000D02*
X71691429Y-37451380D01*
%TO.C,C1*%
X60793333Y-44182380D02*
X60745714Y-44230000D01*
X60745714Y-44230000D02*
X60602857Y-44277619D01*
X60602857Y-44277619D02*
X60507619Y-44277619D01*
X60507619Y-44277619D02*
X60364762Y-44230000D01*
X60364762Y-44230000D02*
X60269524Y-44134761D01*
X60269524Y-44134761D02*
X60221905Y-44039523D01*
X60221905Y-44039523D02*
X60174286Y-43849047D01*
X60174286Y-43849047D02*
X60174286Y-43706190D01*
X60174286Y-43706190D02*
X60221905Y-43515714D01*
X60221905Y-43515714D02*
X60269524Y-43420476D01*
X60269524Y-43420476D02*
X60364762Y-43325238D01*
X60364762Y-43325238D02*
X60507619Y-43277619D01*
X60507619Y-43277619D02*
X60602857Y-43277619D01*
X60602857Y-43277619D02*
X60745714Y-43325238D01*
X60745714Y-43325238D02*
X60793333Y-43372857D01*
X61745714Y-44277619D02*
X61174286Y-44277619D01*
X61460000Y-44277619D02*
X61460000Y-43277619D01*
X61460000Y-43277619D02*
X61364762Y-43420476D01*
X61364762Y-43420476D02*
X61269524Y-43515714D01*
X61269524Y-43515714D02*
X61174286Y-43563333D01*
%TO.C,J18*%
X52733676Y-36699019D02*
X52733676Y-37413304D01*
X52733676Y-37413304D02*
X52686057Y-37556161D01*
X52686057Y-37556161D02*
X52590819Y-37651400D01*
X52590819Y-37651400D02*
X52447962Y-37699019D01*
X52447962Y-37699019D02*
X52352724Y-37699019D01*
X53733676Y-37699019D02*
X53162248Y-37699019D01*
X53447962Y-37699019D02*
X53447962Y-36699019D01*
X53447962Y-36699019D02*
X53352724Y-36841876D01*
X53352724Y-36841876D02*
X53257486Y-36937114D01*
X53257486Y-36937114D02*
X53162248Y-36984733D01*
X54305105Y-37127590D02*
X54209867Y-37079971D01*
X54209867Y-37079971D02*
X54162248Y-37032352D01*
X54162248Y-37032352D02*
X54114629Y-36937114D01*
X54114629Y-36937114D02*
X54114629Y-36889495D01*
X54114629Y-36889495D02*
X54162248Y-36794257D01*
X54162248Y-36794257D02*
X54209867Y-36746638D01*
X54209867Y-36746638D02*
X54305105Y-36699019D01*
X54305105Y-36699019D02*
X54495581Y-36699019D01*
X54495581Y-36699019D02*
X54590819Y-36746638D01*
X54590819Y-36746638D02*
X54638438Y-36794257D01*
X54638438Y-36794257D02*
X54686057Y-36889495D01*
X54686057Y-36889495D02*
X54686057Y-36937114D01*
X54686057Y-36937114D02*
X54638438Y-37032352D01*
X54638438Y-37032352D02*
X54590819Y-37079971D01*
X54590819Y-37079971D02*
X54495581Y-37127590D01*
X54495581Y-37127590D02*
X54305105Y-37127590D01*
X54305105Y-37127590D02*
X54209867Y-37175209D01*
X54209867Y-37175209D02*
X54162248Y-37222828D01*
X54162248Y-37222828D02*
X54114629Y-37318066D01*
X54114629Y-37318066D02*
X54114629Y-37508542D01*
X54114629Y-37508542D02*
X54162248Y-37603780D01*
X54162248Y-37603780D02*
X54209867Y-37651400D01*
X54209867Y-37651400D02*
X54305105Y-37699019D01*
X54305105Y-37699019D02*
X54495581Y-37699019D01*
X54495581Y-37699019D02*
X54590819Y-37651400D01*
X54590819Y-37651400D02*
X54638438Y-37603780D01*
X54638438Y-37603780D02*
X54686057Y-37508542D01*
X54686057Y-37508542D02*
X54686057Y-37318066D01*
X54686057Y-37318066D02*
X54638438Y-37222828D01*
X54638438Y-37222828D02*
X54590819Y-37175209D01*
X54590819Y-37175209D02*
X54495581Y-37127590D01*
%TO.C,D3*%
X127042619Y-66778094D02*
X126042619Y-66778094D01*
X126042619Y-66778094D02*
X126042619Y-66539999D01*
X126042619Y-66539999D02*
X126090238Y-66397142D01*
X126090238Y-66397142D02*
X126185476Y-66301904D01*
X126185476Y-66301904D02*
X126280714Y-66254285D01*
X126280714Y-66254285D02*
X126471190Y-66206666D01*
X126471190Y-66206666D02*
X126614047Y-66206666D01*
X126614047Y-66206666D02*
X126804523Y-66254285D01*
X126804523Y-66254285D02*
X126899761Y-66301904D01*
X126899761Y-66301904D02*
X126995000Y-66397142D01*
X126995000Y-66397142D02*
X127042619Y-66539999D01*
X127042619Y-66539999D02*
X127042619Y-66778094D01*
X126042619Y-65873332D02*
X126042619Y-65254285D01*
X126042619Y-65254285D02*
X126423571Y-65587618D01*
X126423571Y-65587618D02*
X126423571Y-65444761D01*
X126423571Y-65444761D02*
X126471190Y-65349523D01*
X126471190Y-65349523D02*
X126518809Y-65301904D01*
X126518809Y-65301904D02*
X126614047Y-65254285D01*
X126614047Y-65254285D02*
X126852142Y-65254285D01*
X126852142Y-65254285D02*
X126947380Y-65301904D01*
X126947380Y-65301904D02*
X126995000Y-65349523D01*
X126995000Y-65349523D02*
X127042619Y-65444761D01*
X127042619Y-65444761D02*
X127042619Y-65730475D01*
X127042619Y-65730475D02*
X126995000Y-65825713D01*
X126995000Y-65825713D02*
X126947380Y-65873332D01*
%TO.C,U4*%
X104241695Y-45157219D02*
X104241695Y-45966742D01*
X104241695Y-45966742D02*
X104289314Y-46061980D01*
X104289314Y-46061980D02*
X104336933Y-46109600D01*
X104336933Y-46109600D02*
X104432171Y-46157219D01*
X104432171Y-46157219D02*
X104622647Y-46157219D01*
X104622647Y-46157219D02*
X104717885Y-46109600D01*
X104717885Y-46109600D02*
X104765504Y-46061980D01*
X104765504Y-46061980D02*
X104813123Y-45966742D01*
X104813123Y-45966742D02*
X104813123Y-45157219D01*
X105717885Y-45490552D02*
X105717885Y-46157219D01*
X105479790Y-45109600D02*
X105241695Y-45823885D01*
X105241695Y-45823885D02*
X105860742Y-45823885D01*
%TO.C,C2*%
X133657380Y-49676666D02*
X133705000Y-49724285D01*
X133705000Y-49724285D02*
X133752619Y-49867142D01*
X133752619Y-49867142D02*
X133752619Y-49962380D01*
X133752619Y-49962380D02*
X133705000Y-50105237D01*
X133705000Y-50105237D02*
X133609761Y-50200475D01*
X133609761Y-50200475D02*
X133514523Y-50248094D01*
X133514523Y-50248094D02*
X133324047Y-50295713D01*
X133324047Y-50295713D02*
X133181190Y-50295713D01*
X133181190Y-50295713D02*
X132990714Y-50248094D01*
X132990714Y-50248094D02*
X132895476Y-50200475D01*
X132895476Y-50200475D02*
X132800238Y-50105237D01*
X132800238Y-50105237D02*
X132752619Y-49962380D01*
X132752619Y-49962380D02*
X132752619Y-49867142D01*
X132752619Y-49867142D02*
X132800238Y-49724285D01*
X132800238Y-49724285D02*
X132847857Y-49676666D01*
X132847857Y-49295713D02*
X132800238Y-49248094D01*
X132800238Y-49248094D02*
X132752619Y-49152856D01*
X132752619Y-49152856D02*
X132752619Y-48914761D01*
X132752619Y-48914761D02*
X132800238Y-48819523D01*
X132800238Y-48819523D02*
X132847857Y-48771904D01*
X132847857Y-48771904D02*
X132943095Y-48724285D01*
X132943095Y-48724285D02*
X133038333Y-48724285D01*
X133038333Y-48724285D02*
X133181190Y-48771904D01*
X133181190Y-48771904D02*
X133752619Y-49343332D01*
X133752619Y-49343332D02*
X133752619Y-48724285D01*
%TO.C,J3*%
X130476666Y-80361619D02*
X130476666Y-81075904D01*
X130476666Y-81075904D02*
X130429047Y-81218761D01*
X130429047Y-81218761D02*
X130333809Y-81314000D01*
X130333809Y-81314000D02*
X130190952Y-81361619D01*
X130190952Y-81361619D02*
X130095714Y-81361619D01*
X130857619Y-80361619D02*
X131476666Y-80361619D01*
X131476666Y-80361619D02*
X131143333Y-80742571D01*
X131143333Y-80742571D02*
X131286190Y-80742571D01*
X131286190Y-80742571D02*
X131381428Y-80790190D01*
X131381428Y-80790190D02*
X131429047Y-80837809D01*
X131429047Y-80837809D02*
X131476666Y-80933047D01*
X131476666Y-80933047D02*
X131476666Y-81171142D01*
X131476666Y-81171142D02*
X131429047Y-81266380D01*
X131429047Y-81266380D02*
X131381428Y-81314000D01*
X131381428Y-81314000D02*
X131286190Y-81361619D01*
X131286190Y-81361619D02*
X131000476Y-81361619D01*
X131000476Y-81361619D02*
X130905238Y-81314000D01*
X130905238Y-81314000D02*
X130857619Y-81266380D01*
%TO.C,J11*%
X107140476Y-85822619D02*
X107140476Y-86536904D01*
X107140476Y-86536904D02*
X107092857Y-86679761D01*
X107092857Y-86679761D02*
X106997619Y-86775000D01*
X106997619Y-86775000D02*
X106854762Y-86822619D01*
X106854762Y-86822619D02*
X106759524Y-86822619D01*
X108140476Y-86822619D02*
X107569048Y-86822619D01*
X107854762Y-86822619D02*
X107854762Y-85822619D01*
X107854762Y-85822619D02*
X107759524Y-85965476D01*
X107759524Y-85965476D02*
X107664286Y-86060714D01*
X107664286Y-86060714D02*
X107569048Y-86108333D01*
X109092857Y-86822619D02*
X108521429Y-86822619D01*
X108807143Y-86822619D02*
X108807143Y-85822619D01*
X108807143Y-85822619D02*
X108711905Y-85965476D01*
X108711905Y-85965476D02*
X108616667Y-86060714D01*
X108616667Y-86060714D02*
X108521429Y-86108333D01*
%TO.C,R4*%
X124293333Y-71582619D02*
X123960000Y-71106428D01*
X123721905Y-71582619D02*
X123721905Y-70582619D01*
X123721905Y-70582619D02*
X124102857Y-70582619D01*
X124102857Y-70582619D02*
X124198095Y-70630238D01*
X124198095Y-70630238D02*
X124245714Y-70677857D01*
X124245714Y-70677857D02*
X124293333Y-70773095D01*
X124293333Y-70773095D02*
X124293333Y-70915952D01*
X124293333Y-70915952D02*
X124245714Y-71011190D01*
X124245714Y-71011190D02*
X124198095Y-71058809D01*
X124198095Y-71058809D02*
X124102857Y-71106428D01*
X124102857Y-71106428D02*
X123721905Y-71106428D01*
X125150476Y-70915952D02*
X125150476Y-71582619D01*
X124912381Y-70535000D02*
X124674286Y-71249285D01*
X124674286Y-71249285D02*
X125293333Y-71249285D01*
%TO.C,U2*%
X41783095Y-66312619D02*
X41783095Y-67122142D01*
X41783095Y-67122142D02*
X41830714Y-67217380D01*
X41830714Y-67217380D02*
X41878333Y-67265000D01*
X41878333Y-67265000D02*
X41973571Y-67312619D01*
X41973571Y-67312619D02*
X42164047Y-67312619D01*
X42164047Y-67312619D02*
X42259285Y-67265000D01*
X42259285Y-67265000D02*
X42306904Y-67217380D01*
X42306904Y-67217380D02*
X42354523Y-67122142D01*
X42354523Y-67122142D02*
X42354523Y-66312619D01*
X42783095Y-66407857D02*
X42830714Y-66360238D01*
X42830714Y-66360238D02*
X42925952Y-66312619D01*
X42925952Y-66312619D02*
X43164047Y-66312619D01*
X43164047Y-66312619D02*
X43259285Y-66360238D01*
X43259285Y-66360238D02*
X43306904Y-66407857D01*
X43306904Y-66407857D02*
X43354523Y-66503095D01*
X43354523Y-66503095D02*
X43354523Y-66598333D01*
X43354523Y-66598333D02*
X43306904Y-66741190D01*
X43306904Y-66741190D02*
X42735476Y-67312619D01*
X42735476Y-67312619D02*
X43354523Y-67312619D01*
%TO.C,J2*%
X130375066Y-90394619D02*
X130375066Y-91108904D01*
X130375066Y-91108904D02*
X130327447Y-91251761D01*
X130327447Y-91251761D02*
X130232209Y-91347000D01*
X130232209Y-91347000D02*
X130089352Y-91394619D01*
X130089352Y-91394619D02*
X129994114Y-91394619D01*
X130803638Y-90489857D02*
X130851257Y-90442238D01*
X130851257Y-90442238D02*
X130946495Y-90394619D01*
X130946495Y-90394619D02*
X131184590Y-90394619D01*
X131184590Y-90394619D02*
X131279828Y-90442238D01*
X131279828Y-90442238D02*
X131327447Y-90489857D01*
X131327447Y-90489857D02*
X131375066Y-90585095D01*
X131375066Y-90585095D02*
X131375066Y-90680333D01*
X131375066Y-90680333D02*
X131327447Y-90823190D01*
X131327447Y-90823190D02*
X130756019Y-91394619D01*
X130756019Y-91394619D02*
X131375066Y-91394619D01*
%TO.C,J12*%
X107267476Y-89759619D02*
X107267476Y-90473904D01*
X107267476Y-90473904D02*
X107219857Y-90616761D01*
X107219857Y-90616761D02*
X107124619Y-90712000D01*
X107124619Y-90712000D02*
X106981762Y-90759619D01*
X106981762Y-90759619D02*
X106886524Y-90759619D01*
X108267476Y-90759619D02*
X107696048Y-90759619D01*
X107981762Y-90759619D02*
X107981762Y-89759619D01*
X107981762Y-89759619D02*
X107886524Y-89902476D01*
X107886524Y-89902476D02*
X107791286Y-89997714D01*
X107791286Y-89997714D02*
X107696048Y-90045333D01*
X108648429Y-89854857D02*
X108696048Y-89807238D01*
X108696048Y-89807238D02*
X108791286Y-89759619D01*
X108791286Y-89759619D02*
X109029381Y-89759619D01*
X109029381Y-89759619D02*
X109124619Y-89807238D01*
X109124619Y-89807238D02*
X109172238Y-89854857D01*
X109172238Y-89854857D02*
X109219857Y-89950095D01*
X109219857Y-89950095D02*
X109219857Y-90045333D01*
X109219857Y-90045333D02*
X109172238Y-90188190D01*
X109172238Y-90188190D02*
X108600810Y-90759619D01*
X108600810Y-90759619D02*
X109219857Y-90759619D01*
%TO.C,A1*%
X95426904Y-82004285D02*
X95426904Y-81528095D01*
X95712619Y-82099523D02*
X94712619Y-81766190D01*
X94712619Y-81766190D02*
X95712619Y-81432857D01*
X95712619Y-80575714D02*
X95712619Y-81147142D01*
X95712619Y-80861428D02*
X94712619Y-80861428D01*
X94712619Y-80861428D02*
X94855476Y-80956666D01*
X94855476Y-80956666D02*
X94950714Y-81051904D01*
X94950714Y-81051904D02*
X94998333Y-81147142D01*
X55147380Y-80028095D02*
X54337857Y-80028095D01*
X54337857Y-80028095D02*
X54242619Y-80075714D01*
X54242619Y-80075714D02*
X54195000Y-80123333D01*
X54195000Y-80123333D02*
X54147380Y-80218571D01*
X54147380Y-80218571D02*
X54147380Y-80409047D01*
X54147380Y-80409047D02*
X54195000Y-80504285D01*
X54195000Y-80504285D02*
X54242619Y-80551904D01*
X54242619Y-80551904D02*
X54337857Y-80599523D01*
X54337857Y-80599523D02*
X55147380Y-80599523D01*
X54195000Y-81028095D02*
X54147380Y-81170952D01*
X54147380Y-81170952D02*
X54147380Y-81409047D01*
X54147380Y-81409047D02*
X54195000Y-81504285D01*
X54195000Y-81504285D02*
X54242619Y-81551904D01*
X54242619Y-81551904D02*
X54337857Y-81599523D01*
X54337857Y-81599523D02*
X54433095Y-81599523D01*
X54433095Y-81599523D02*
X54528333Y-81551904D01*
X54528333Y-81551904D02*
X54575952Y-81504285D01*
X54575952Y-81504285D02*
X54623571Y-81409047D01*
X54623571Y-81409047D02*
X54671190Y-81218571D01*
X54671190Y-81218571D02*
X54718809Y-81123333D01*
X54718809Y-81123333D02*
X54766428Y-81075714D01*
X54766428Y-81075714D02*
X54861666Y-81028095D01*
X54861666Y-81028095D02*
X54956904Y-81028095D01*
X54956904Y-81028095D02*
X55052142Y-81075714D01*
X55052142Y-81075714D02*
X55099761Y-81123333D01*
X55099761Y-81123333D02*
X55147380Y-81218571D01*
X55147380Y-81218571D02*
X55147380Y-81456666D01*
X55147380Y-81456666D02*
X55099761Y-81599523D01*
X54671190Y-82361428D02*
X54623571Y-82504285D01*
X54623571Y-82504285D02*
X54575952Y-82551904D01*
X54575952Y-82551904D02*
X54480714Y-82599523D01*
X54480714Y-82599523D02*
X54337857Y-82599523D01*
X54337857Y-82599523D02*
X54242619Y-82551904D01*
X54242619Y-82551904D02*
X54195000Y-82504285D01*
X54195000Y-82504285D02*
X54147380Y-82409047D01*
X54147380Y-82409047D02*
X54147380Y-82028095D01*
X54147380Y-82028095D02*
X55147380Y-82028095D01*
X55147380Y-82028095D02*
X55147380Y-82361428D01*
X55147380Y-82361428D02*
X55099761Y-82456666D01*
X55099761Y-82456666D02*
X55052142Y-82504285D01*
X55052142Y-82504285D02*
X54956904Y-82551904D01*
X54956904Y-82551904D02*
X54861666Y-82551904D01*
X54861666Y-82551904D02*
X54766428Y-82504285D01*
X54766428Y-82504285D02*
X54718809Y-82456666D01*
X54718809Y-82456666D02*
X54671190Y-82361428D01*
X54671190Y-82361428D02*
X54671190Y-82028095D01*
%TO.C,R3*%
X125563333Y-41907619D02*
X125230000Y-41431428D01*
X124991905Y-41907619D02*
X124991905Y-40907619D01*
X124991905Y-40907619D02*
X125372857Y-40907619D01*
X125372857Y-40907619D02*
X125468095Y-40955238D01*
X125468095Y-40955238D02*
X125515714Y-41002857D01*
X125515714Y-41002857D02*
X125563333Y-41098095D01*
X125563333Y-41098095D02*
X125563333Y-41240952D01*
X125563333Y-41240952D02*
X125515714Y-41336190D01*
X125515714Y-41336190D02*
X125468095Y-41383809D01*
X125468095Y-41383809D02*
X125372857Y-41431428D01*
X125372857Y-41431428D02*
X124991905Y-41431428D01*
X125896667Y-40907619D02*
X126515714Y-40907619D01*
X126515714Y-40907619D02*
X126182381Y-41288571D01*
X126182381Y-41288571D02*
X126325238Y-41288571D01*
X126325238Y-41288571D02*
X126420476Y-41336190D01*
X126420476Y-41336190D02*
X126468095Y-41383809D01*
X126468095Y-41383809D02*
X126515714Y-41479047D01*
X126515714Y-41479047D02*
X126515714Y-41717142D01*
X126515714Y-41717142D02*
X126468095Y-41812380D01*
X126468095Y-41812380D02*
X126420476Y-41860000D01*
X126420476Y-41860000D02*
X126325238Y-41907619D01*
X126325238Y-41907619D02*
X126039524Y-41907619D01*
X126039524Y-41907619D02*
X125944286Y-41860000D01*
X125944286Y-41860000D02*
X125896667Y-41812380D01*
%TO.C,R1*%
X98258333Y-70312619D02*
X97925000Y-69836428D01*
X97686905Y-70312619D02*
X97686905Y-69312619D01*
X97686905Y-69312619D02*
X98067857Y-69312619D01*
X98067857Y-69312619D02*
X98163095Y-69360238D01*
X98163095Y-69360238D02*
X98210714Y-69407857D01*
X98210714Y-69407857D02*
X98258333Y-69503095D01*
X98258333Y-69503095D02*
X98258333Y-69645952D01*
X98258333Y-69645952D02*
X98210714Y-69741190D01*
X98210714Y-69741190D02*
X98163095Y-69788809D01*
X98163095Y-69788809D02*
X98067857Y-69836428D01*
X98067857Y-69836428D02*
X97686905Y-69836428D01*
X99210714Y-70312619D02*
X98639286Y-70312619D01*
X98925000Y-70312619D02*
X98925000Y-69312619D01*
X98925000Y-69312619D02*
X98829762Y-69455476D01*
X98829762Y-69455476D02*
X98734524Y-69550714D01*
X98734524Y-69550714D02*
X98639286Y-69598333D01*
%TO.C,C3*%
X99528333Y-43547380D02*
X99480714Y-43595000D01*
X99480714Y-43595000D02*
X99337857Y-43642619D01*
X99337857Y-43642619D02*
X99242619Y-43642619D01*
X99242619Y-43642619D02*
X99099762Y-43595000D01*
X99099762Y-43595000D02*
X99004524Y-43499761D01*
X99004524Y-43499761D02*
X98956905Y-43404523D01*
X98956905Y-43404523D02*
X98909286Y-43214047D01*
X98909286Y-43214047D02*
X98909286Y-43071190D01*
X98909286Y-43071190D02*
X98956905Y-42880714D01*
X98956905Y-42880714D02*
X99004524Y-42785476D01*
X99004524Y-42785476D02*
X99099762Y-42690238D01*
X99099762Y-42690238D02*
X99242619Y-42642619D01*
X99242619Y-42642619D02*
X99337857Y-42642619D01*
X99337857Y-42642619D02*
X99480714Y-42690238D01*
X99480714Y-42690238D02*
X99528333Y-42737857D01*
X99861667Y-42642619D02*
X100480714Y-42642619D01*
X100480714Y-42642619D02*
X100147381Y-43023571D01*
X100147381Y-43023571D02*
X100290238Y-43023571D01*
X100290238Y-43023571D02*
X100385476Y-43071190D01*
X100385476Y-43071190D02*
X100433095Y-43118809D01*
X100433095Y-43118809D02*
X100480714Y-43214047D01*
X100480714Y-43214047D02*
X100480714Y-43452142D01*
X100480714Y-43452142D02*
X100433095Y-43547380D01*
X100433095Y-43547380D02*
X100385476Y-43595000D01*
X100385476Y-43595000D02*
X100290238Y-43642619D01*
X100290238Y-43642619D02*
X100004524Y-43642619D01*
X100004524Y-43642619D02*
X99909286Y-43595000D01*
X99909286Y-43595000D02*
X99861667Y-43547380D01*
%TO.C,J9*%
X107235666Y-78583619D02*
X107235666Y-79297904D01*
X107235666Y-79297904D02*
X107188047Y-79440761D01*
X107188047Y-79440761D02*
X107092809Y-79536000D01*
X107092809Y-79536000D02*
X106949952Y-79583619D01*
X106949952Y-79583619D02*
X106854714Y-79583619D01*
X107759476Y-79583619D02*
X107949952Y-79583619D01*
X107949952Y-79583619D02*
X108045190Y-79536000D01*
X108045190Y-79536000D02*
X108092809Y-79488380D01*
X108092809Y-79488380D02*
X108188047Y-79345523D01*
X108188047Y-79345523D02*
X108235666Y-79155047D01*
X108235666Y-79155047D02*
X108235666Y-78774095D01*
X108235666Y-78774095D02*
X108188047Y-78678857D01*
X108188047Y-78678857D02*
X108140428Y-78631238D01*
X108140428Y-78631238D02*
X108045190Y-78583619D01*
X108045190Y-78583619D02*
X107854714Y-78583619D01*
X107854714Y-78583619D02*
X107759476Y-78631238D01*
X107759476Y-78631238D02*
X107711857Y-78678857D01*
X107711857Y-78678857D02*
X107664238Y-78774095D01*
X107664238Y-78774095D02*
X107664238Y-79012190D01*
X107664238Y-79012190D02*
X107711857Y-79107428D01*
X107711857Y-79107428D02*
X107759476Y-79155047D01*
X107759476Y-79155047D02*
X107854714Y-79202666D01*
X107854714Y-79202666D02*
X108045190Y-79202666D01*
X108045190Y-79202666D02*
X108140428Y-79155047D01*
X108140428Y-79155047D02*
X108188047Y-79107428D01*
X108188047Y-79107428D02*
X108235666Y-79012190D01*
%TO.C,J20*%
X136114619Y-61769523D02*
X136828904Y-61769523D01*
X136828904Y-61769523D02*
X136971761Y-61817142D01*
X136971761Y-61817142D02*
X137067000Y-61912380D01*
X137067000Y-61912380D02*
X137114619Y-62055237D01*
X137114619Y-62055237D02*
X137114619Y-62150475D01*
X136209857Y-61340951D02*
X136162238Y-61293332D01*
X136162238Y-61293332D02*
X136114619Y-61198094D01*
X136114619Y-61198094D02*
X136114619Y-60959999D01*
X136114619Y-60959999D02*
X136162238Y-60864761D01*
X136162238Y-60864761D02*
X136209857Y-60817142D01*
X136209857Y-60817142D02*
X136305095Y-60769523D01*
X136305095Y-60769523D02*
X136400333Y-60769523D01*
X136400333Y-60769523D02*
X136543190Y-60817142D01*
X136543190Y-60817142D02*
X137114619Y-61388570D01*
X137114619Y-61388570D02*
X137114619Y-60769523D01*
X136114619Y-60150475D02*
X136114619Y-60055237D01*
X136114619Y-60055237D02*
X136162238Y-59959999D01*
X136162238Y-59959999D02*
X136209857Y-59912380D01*
X136209857Y-59912380D02*
X136305095Y-59864761D01*
X136305095Y-59864761D02*
X136495571Y-59817142D01*
X136495571Y-59817142D02*
X136733666Y-59817142D01*
X136733666Y-59817142D02*
X136924142Y-59864761D01*
X136924142Y-59864761D02*
X137019380Y-59912380D01*
X137019380Y-59912380D02*
X137067000Y-59959999D01*
X137067000Y-59959999D02*
X137114619Y-60055237D01*
X137114619Y-60055237D02*
X137114619Y-60150475D01*
X137114619Y-60150475D02*
X137067000Y-60245713D01*
X137067000Y-60245713D02*
X137019380Y-60293332D01*
X137019380Y-60293332D02*
X136924142Y-60340951D01*
X136924142Y-60340951D02*
X136733666Y-60388570D01*
X136733666Y-60388570D02*
X136495571Y-60388570D01*
X136495571Y-60388570D02*
X136305095Y-60340951D01*
X136305095Y-60340951D02*
X136209857Y-60293332D01*
X136209857Y-60293332D02*
X136162238Y-60245713D01*
X136162238Y-60245713D02*
X136114619Y-60150475D01*
%TO.C,J10*%
X107013476Y-82393619D02*
X107013476Y-83107904D01*
X107013476Y-83107904D02*
X106965857Y-83250761D01*
X106965857Y-83250761D02*
X106870619Y-83346000D01*
X106870619Y-83346000D02*
X106727762Y-83393619D01*
X106727762Y-83393619D02*
X106632524Y-83393619D01*
X108013476Y-83393619D02*
X107442048Y-83393619D01*
X107727762Y-83393619D02*
X107727762Y-82393619D01*
X107727762Y-82393619D02*
X107632524Y-82536476D01*
X107632524Y-82536476D02*
X107537286Y-82631714D01*
X107537286Y-82631714D02*
X107442048Y-82679333D01*
X108632524Y-82393619D02*
X108727762Y-82393619D01*
X108727762Y-82393619D02*
X108823000Y-82441238D01*
X108823000Y-82441238D02*
X108870619Y-82488857D01*
X108870619Y-82488857D02*
X108918238Y-82584095D01*
X108918238Y-82584095D02*
X108965857Y-82774571D01*
X108965857Y-82774571D02*
X108965857Y-83012666D01*
X108965857Y-83012666D02*
X108918238Y-83203142D01*
X108918238Y-83203142D02*
X108870619Y-83298380D01*
X108870619Y-83298380D02*
X108823000Y-83346000D01*
X108823000Y-83346000D02*
X108727762Y-83393619D01*
X108727762Y-83393619D02*
X108632524Y-83393619D01*
X108632524Y-83393619D02*
X108537286Y-83346000D01*
X108537286Y-83346000D02*
X108489667Y-83298380D01*
X108489667Y-83298380D02*
X108442048Y-83203142D01*
X108442048Y-83203142D02*
X108394429Y-83012666D01*
X108394429Y-83012666D02*
X108394429Y-82774571D01*
X108394429Y-82774571D02*
X108442048Y-82584095D01*
X108442048Y-82584095D02*
X108489667Y-82488857D01*
X108489667Y-82488857D02*
X108537286Y-82441238D01*
X108537286Y-82441238D02*
X108632524Y-82393619D01*
%TO.C,U5*%
X53848095Y-45545019D02*
X53848095Y-46354542D01*
X53848095Y-46354542D02*
X53895714Y-46449780D01*
X53895714Y-46449780D02*
X53943333Y-46497400D01*
X53943333Y-46497400D02*
X54038571Y-46545019D01*
X54038571Y-46545019D02*
X54229047Y-46545019D01*
X54229047Y-46545019D02*
X54324285Y-46497400D01*
X54324285Y-46497400D02*
X54371904Y-46449780D01*
X54371904Y-46449780D02*
X54419523Y-46354542D01*
X54419523Y-46354542D02*
X54419523Y-45545019D01*
X55371904Y-45545019D02*
X54895714Y-45545019D01*
X54895714Y-45545019D02*
X54848095Y-46021209D01*
X54848095Y-46021209D02*
X54895714Y-45973590D01*
X54895714Y-45973590D02*
X54990952Y-45925971D01*
X54990952Y-45925971D02*
X55229047Y-45925971D01*
X55229047Y-45925971D02*
X55324285Y-45973590D01*
X55324285Y-45973590D02*
X55371904Y-46021209D01*
X55371904Y-46021209D02*
X55419523Y-46116447D01*
X55419523Y-46116447D02*
X55419523Y-46354542D01*
X55419523Y-46354542D02*
X55371904Y-46449780D01*
X55371904Y-46449780D02*
X55324285Y-46497400D01*
X55324285Y-46497400D02*
X55229047Y-46545019D01*
X55229047Y-46545019D02*
X54990952Y-46545019D01*
X54990952Y-46545019D02*
X54895714Y-46497400D01*
X54895714Y-46497400D02*
X54848095Y-46449780D01*
%TO.C,J17*%
X42134619Y-46529523D02*
X42848904Y-46529523D01*
X42848904Y-46529523D02*
X42991761Y-46577142D01*
X42991761Y-46577142D02*
X43087000Y-46672380D01*
X43087000Y-46672380D02*
X43134619Y-46815237D01*
X43134619Y-46815237D02*
X43134619Y-46910475D01*
X43134619Y-45529523D02*
X43134619Y-46100951D01*
X43134619Y-45815237D02*
X42134619Y-45815237D01*
X42134619Y-45815237D02*
X42277476Y-45910475D01*
X42277476Y-45910475D02*
X42372714Y-46005713D01*
X42372714Y-46005713D02*
X42420333Y-46100951D01*
X42134619Y-45196189D02*
X42134619Y-44529523D01*
X42134619Y-44529523D02*
X43134619Y-44958094D01*
%TO.C,U6*%
X86868095Y-45392619D02*
X86868095Y-46202142D01*
X86868095Y-46202142D02*
X86915714Y-46297380D01*
X86915714Y-46297380D02*
X86963333Y-46345000D01*
X86963333Y-46345000D02*
X87058571Y-46392619D01*
X87058571Y-46392619D02*
X87249047Y-46392619D01*
X87249047Y-46392619D02*
X87344285Y-46345000D01*
X87344285Y-46345000D02*
X87391904Y-46297380D01*
X87391904Y-46297380D02*
X87439523Y-46202142D01*
X87439523Y-46202142D02*
X87439523Y-45392619D01*
X88344285Y-45392619D02*
X88153809Y-45392619D01*
X88153809Y-45392619D02*
X88058571Y-45440238D01*
X88058571Y-45440238D02*
X88010952Y-45487857D01*
X88010952Y-45487857D02*
X87915714Y-45630714D01*
X87915714Y-45630714D02*
X87868095Y-45821190D01*
X87868095Y-45821190D02*
X87868095Y-46202142D01*
X87868095Y-46202142D02*
X87915714Y-46297380D01*
X87915714Y-46297380D02*
X87963333Y-46345000D01*
X87963333Y-46345000D02*
X88058571Y-46392619D01*
X88058571Y-46392619D02*
X88249047Y-46392619D01*
X88249047Y-46392619D02*
X88344285Y-46345000D01*
X88344285Y-46345000D02*
X88391904Y-46297380D01*
X88391904Y-46297380D02*
X88439523Y-46202142D01*
X88439523Y-46202142D02*
X88439523Y-45964047D01*
X88439523Y-45964047D02*
X88391904Y-45868809D01*
X88391904Y-45868809D02*
X88344285Y-45821190D01*
X88344285Y-45821190D02*
X88249047Y-45773571D01*
X88249047Y-45773571D02*
X88058571Y-45773571D01*
X88058571Y-45773571D02*
X87963333Y-45821190D01*
X87963333Y-45821190D02*
X87915714Y-45868809D01*
X87915714Y-45868809D02*
X87868095Y-45964047D01*
%TO.C,J5*%
X116252666Y-69947619D02*
X116252666Y-70661904D01*
X116252666Y-70661904D02*
X116205047Y-70804761D01*
X116205047Y-70804761D02*
X116109809Y-70900000D01*
X116109809Y-70900000D02*
X115966952Y-70947619D01*
X115966952Y-70947619D02*
X115871714Y-70947619D01*
X117205047Y-69947619D02*
X116728857Y-69947619D01*
X116728857Y-69947619D02*
X116681238Y-70423809D01*
X116681238Y-70423809D02*
X116728857Y-70376190D01*
X116728857Y-70376190D02*
X116824095Y-70328571D01*
X116824095Y-70328571D02*
X117062190Y-70328571D01*
X117062190Y-70328571D02*
X117157428Y-70376190D01*
X117157428Y-70376190D02*
X117205047Y-70423809D01*
X117205047Y-70423809D02*
X117252666Y-70519047D01*
X117252666Y-70519047D02*
X117252666Y-70757142D01*
X117252666Y-70757142D02*
X117205047Y-70852380D01*
X117205047Y-70852380D02*
X117157428Y-70900000D01*
X117157428Y-70900000D02*
X117062190Y-70947619D01*
X117062190Y-70947619D02*
X116824095Y-70947619D01*
X116824095Y-70947619D02*
X116728857Y-70900000D01*
X116728857Y-70900000D02*
X116681238Y-70852380D01*
%TO.C,J1*%
X47087619Y-58753333D02*
X47801904Y-58753333D01*
X47801904Y-58753333D02*
X47944761Y-58800952D01*
X47944761Y-58800952D02*
X48040000Y-58896190D01*
X48040000Y-58896190D02*
X48087619Y-59039047D01*
X48087619Y-59039047D02*
X48087619Y-59134285D01*
X48087619Y-57753333D02*
X48087619Y-58324761D01*
X48087619Y-58039047D02*
X47087619Y-58039047D01*
X47087619Y-58039047D02*
X47230476Y-58134285D01*
X47230476Y-58134285D02*
X47325714Y-58229523D01*
X47325714Y-58229523D02*
X47373333Y-58324761D01*
%TO.C,D2*%
X124287619Y-40108094D02*
X123287619Y-40108094D01*
X123287619Y-40108094D02*
X123287619Y-39869999D01*
X123287619Y-39869999D02*
X123335238Y-39727142D01*
X123335238Y-39727142D02*
X123430476Y-39631904D01*
X123430476Y-39631904D02*
X123525714Y-39584285D01*
X123525714Y-39584285D02*
X123716190Y-39536666D01*
X123716190Y-39536666D02*
X123859047Y-39536666D01*
X123859047Y-39536666D02*
X124049523Y-39584285D01*
X124049523Y-39584285D02*
X124144761Y-39631904D01*
X124144761Y-39631904D02*
X124240000Y-39727142D01*
X124240000Y-39727142D02*
X124287619Y-39869999D01*
X124287619Y-39869999D02*
X124287619Y-40108094D01*
X123382857Y-39155713D02*
X123335238Y-39108094D01*
X123335238Y-39108094D02*
X123287619Y-39012856D01*
X123287619Y-39012856D02*
X123287619Y-38774761D01*
X123287619Y-38774761D02*
X123335238Y-38679523D01*
X123335238Y-38679523D02*
X123382857Y-38631904D01*
X123382857Y-38631904D02*
X123478095Y-38584285D01*
X123478095Y-38584285D02*
X123573333Y-38584285D01*
X123573333Y-38584285D02*
X123716190Y-38631904D01*
X123716190Y-38631904D02*
X124287619Y-39203332D01*
X124287619Y-39203332D02*
X124287619Y-38584285D01*
%TO.C,J19*%
X111966476Y-37054619D02*
X111966476Y-37768904D01*
X111966476Y-37768904D02*
X111918857Y-37911761D01*
X111918857Y-37911761D02*
X111823619Y-38007000D01*
X111823619Y-38007000D02*
X111680762Y-38054619D01*
X111680762Y-38054619D02*
X111585524Y-38054619D01*
X112966476Y-38054619D02*
X112395048Y-38054619D01*
X112680762Y-38054619D02*
X112680762Y-37054619D01*
X112680762Y-37054619D02*
X112585524Y-37197476D01*
X112585524Y-37197476D02*
X112490286Y-37292714D01*
X112490286Y-37292714D02*
X112395048Y-37340333D01*
X113442667Y-38054619D02*
X113633143Y-38054619D01*
X113633143Y-38054619D02*
X113728381Y-38007000D01*
X113728381Y-38007000D02*
X113776000Y-37959380D01*
X113776000Y-37959380D02*
X113871238Y-37816523D01*
X113871238Y-37816523D02*
X113918857Y-37626047D01*
X113918857Y-37626047D02*
X113918857Y-37245095D01*
X113918857Y-37245095D02*
X113871238Y-37149857D01*
X113871238Y-37149857D02*
X113823619Y-37102238D01*
X113823619Y-37102238D02*
X113728381Y-37054619D01*
X113728381Y-37054619D02*
X113537905Y-37054619D01*
X113537905Y-37054619D02*
X113442667Y-37102238D01*
X113442667Y-37102238D02*
X113395048Y-37149857D01*
X113395048Y-37149857D02*
X113347429Y-37245095D01*
X113347429Y-37245095D02*
X113347429Y-37483190D01*
X113347429Y-37483190D02*
X113395048Y-37578428D01*
X113395048Y-37578428D02*
X113442667Y-37626047D01*
X113442667Y-37626047D02*
X113537905Y-37673666D01*
X113537905Y-37673666D02*
X113728381Y-37673666D01*
X113728381Y-37673666D02*
X113823619Y-37626047D01*
X113823619Y-37626047D02*
X113871238Y-37578428D01*
X113871238Y-37578428D02*
X113918857Y-37483190D01*
%TO.C,J8*%
X107191666Y-74519619D02*
X107191666Y-75233904D01*
X107191666Y-75233904D02*
X107144047Y-75376761D01*
X107144047Y-75376761D02*
X107048809Y-75472000D01*
X107048809Y-75472000D02*
X106905952Y-75519619D01*
X106905952Y-75519619D02*
X106810714Y-75519619D01*
X107810714Y-74948190D02*
X107715476Y-74900571D01*
X107715476Y-74900571D02*
X107667857Y-74852952D01*
X107667857Y-74852952D02*
X107620238Y-74757714D01*
X107620238Y-74757714D02*
X107620238Y-74710095D01*
X107620238Y-74710095D02*
X107667857Y-74614857D01*
X107667857Y-74614857D02*
X107715476Y-74567238D01*
X107715476Y-74567238D02*
X107810714Y-74519619D01*
X107810714Y-74519619D02*
X108001190Y-74519619D01*
X108001190Y-74519619D02*
X108096428Y-74567238D01*
X108096428Y-74567238D02*
X108144047Y-74614857D01*
X108144047Y-74614857D02*
X108191666Y-74710095D01*
X108191666Y-74710095D02*
X108191666Y-74757714D01*
X108191666Y-74757714D02*
X108144047Y-74852952D01*
X108144047Y-74852952D02*
X108096428Y-74900571D01*
X108096428Y-74900571D02*
X108001190Y-74948190D01*
X108001190Y-74948190D02*
X107810714Y-74948190D01*
X107810714Y-74948190D02*
X107715476Y-74995809D01*
X107715476Y-74995809D02*
X107667857Y-75043428D01*
X107667857Y-75043428D02*
X107620238Y-75138666D01*
X107620238Y-75138666D02*
X107620238Y-75329142D01*
X107620238Y-75329142D02*
X107667857Y-75424380D01*
X107667857Y-75424380D02*
X107715476Y-75472000D01*
X107715476Y-75472000D02*
X107810714Y-75519619D01*
X107810714Y-75519619D02*
X108001190Y-75519619D01*
X108001190Y-75519619D02*
X108096428Y-75472000D01*
X108096428Y-75472000D02*
X108144047Y-75424380D01*
X108144047Y-75424380D02*
X108191666Y-75329142D01*
X108191666Y-75329142D02*
X108191666Y-75138666D01*
X108191666Y-75138666D02*
X108144047Y-75043428D01*
X108144047Y-75043428D02*
X108096428Y-74995809D01*
X108096428Y-74995809D02*
X108001190Y-74948190D01*
D11*
%TO.C,J14*%
X62170000Y-94040000D02*
X62170000Y-92710000D01*
X63500000Y-94040000D02*
X62170000Y-94040000D01*
X64770000Y-94040000D02*
X77530000Y-94040000D01*
X64770000Y-94040000D02*
X64770000Y-91380000D01*
X77530000Y-94040000D02*
X77530000Y-91380000D01*
X64770000Y-91380000D02*
X77530000Y-91380000D01*
%TO.C,J7*%
X121860000Y-76260000D02*
X121860000Y-74930000D01*
X123190000Y-76260000D02*
X121860000Y-76260000D01*
X124460000Y-76260000D02*
X127060000Y-76260000D01*
X124460000Y-76260000D02*
X124460000Y-73600000D01*
X127060000Y-76260000D02*
X127060000Y-73600000D01*
X124460000Y-73600000D02*
X127060000Y-73600000D01*
%TO.C,U7*%
X118000000Y-46930000D02*
X118000000Y-67370000D01*
X118000000Y-67370000D02*
X123300000Y-67370000D01*
X119650000Y-46930000D02*
X118000000Y-46930000D01*
X123300000Y-46930000D02*
X121650000Y-46930000D01*
X123300000Y-67370000D02*
X123300000Y-46930000D01*
X119650000Y-46930000D02*
G75*
G03*
X121650000Y-46930000I1000000J0D01*
G01*
D12*
%TO.C,J16*%
X99020000Y-41236400D02*
X89020000Y-41236400D01*
X99020000Y-33736400D02*
X99020000Y-41236400D01*
X89020000Y-41236400D02*
X89020000Y-33736400D01*
X89020000Y-33736400D02*
X99020000Y-33736400D01*
D13*
X99720000Y-37236400D02*
G75*
G03*
X99720000Y-37236400I-100000J0D01*
G01*
D11*
%TO.C,J4*%
X110430000Y-76260000D02*
X110430000Y-74930000D01*
X111760000Y-76260000D02*
X110430000Y-76260000D01*
X113030000Y-76260000D02*
X115630000Y-76260000D01*
X113030000Y-76260000D02*
X113030000Y-73600000D01*
X115630000Y-76260000D02*
X115630000Y-73600000D01*
X113030000Y-73600000D02*
X115630000Y-73600000D01*
%TO.C,R2*%
X42545000Y-83415000D02*
X42545000Y-82645000D01*
X41175000Y-82645000D02*
X43915000Y-82645000D01*
X43915000Y-82645000D02*
X43915000Y-76105000D01*
X41175000Y-76105000D02*
X41175000Y-82645000D01*
X43915000Y-76105000D02*
X41175000Y-76105000D01*
X42545000Y-75335000D02*
X42545000Y-76105000D01*
%TO.C,U3*%
X71390000Y-46930000D02*
G75*
G03*
X73390000Y-46930000I1000000J0D01*
G01*
X75040000Y-67370000D02*
X75040000Y-46930000D01*
X75040000Y-46930000D02*
X73390000Y-46930000D01*
X71390000Y-46930000D02*
X69740000Y-46930000D01*
X69740000Y-67370000D02*
X75040000Y-67370000D01*
X69740000Y-46930000D02*
X69740000Y-67370000D01*
%TO.C,J6*%
X81220000Y-71180000D02*
X81220000Y-69850000D01*
X82550000Y-71180000D02*
X81220000Y-71180000D01*
X83820000Y-71180000D02*
X86420000Y-71180000D01*
X83820000Y-71180000D02*
X83820000Y-68520000D01*
X86420000Y-71180000D02*
X86420000Y-68520000D01*
X83820000Y-68520000D02*
X86420000Y-68520000D01*
D12*
%TO.C,J15*%
X76185400Y-41236400D02*
X66185400Y-41236400D01*
X76185400Y-33736400D02*
X76185400Y-41236400D01*
X66185400Y-41236400D02*
X66185400Y-33736400D01*
X66185400Y-33736400D02*
X76185400Y-33736400D01*
D13*
X76885400Y-37236400D02*
G75*
G03*
X76885400Y-37236400I-100000J0D01*
G01*
D11*
%TO.C,C1*%
X64975000Y-44205225D02*
X64975000Y-44705225D01*
X65225000Y-44455225D02*
X64725000Y-44455225D01*
X66080000Y-47010000D02*
X60920000Y-47010000D01*
X66080000Y-47050000D02*
X60920000Y-47050000D01*
X66079000Y-47090000D02*
X60921000Y-47090000D01*
X66078000Y-47130000D02*
X60922000Y-47130000D01*
X66076000Y-47170000D02*
X60924000Y-47170000D01*
X66073000Y-47210000D02*
X60927000Y-47210000D01*
X66069000Y-47250000D02*
X64540000Y-47250000D01*
X62460000Y-47250000D02*
X60931000Y-47250000D01*
X66065000Y-47290000D02*
X64540000Y-47290000D01*
X62460000Y-47290000D02*
X60935000Y-47290000D01*
X66061000Y-47330000D02*
X64540000Y-47330000D01*
X62460000Y-47330000D02*
X60939000Y-47330000D01*
X66056000Y-47370000D02*
X64540000Y-47370000D01*
X62460000Y-47370000D02*
X60944000Y-47370000D01*
X66050000Y-47410000D02*
X64540000Y-47410000D01*
X62460000Y-47410000D02*
X60950000Y-47410000D01*
X66043000Y-47450000D02*
X64540000Y-47450000D01*
X62460000Y-47450000D02*
X60957000Y-47450000D01*
X66036000Y-47490000D02*
X64540000Y-47490000D01*
X62460000Y-47490000D02*
X60964000Y-47490000D01*
X66028000Y-47530000D02*
X64540000Y-47530000D01*
X62460000Y-47530000D02*
X60972000Y-47530000D01*
X66020000Y-47570000D02*
X64540000Y-47570000D01*
X62460000Y-47570000D02*
X60980000Y-47570000D01*
X66011000Y-47610000D02*
X64540000Y-47610000D01*
X62460000Y-47610000D02*
X60989000Y-47610000D01*
X66001000Y-47650000D02*
X64540000Y-47650000D01*
X62460000Y-47650000D02*
X60999000Y-47650000D01*
X65991000Y-47690000D02*
X64540000Y-47690000D01*
X62460000Y-47690000D02*
X61009000Y-47690000D01*
X65980000Y-47731000D02*
X64540000Y-47731000D01*
X62460000Y-47731000D02*
X61020000Y-47731000D01*
X65968000Y-47771000D02*
X64540000Y-47771000D01*
X62460000Y-47771000D02*
X61032000Y-47771000D01*
X65955000Y-47811000D02*
X64540000Y-47811000D01*
X62460000Y-47811000D02*
X61045000Y-47811000D01*
X65942000Y-47851000D02*
X64540000Y-47851000D01*
X62460000Y-47851000D02*
X61058000Y-47851000D01*
X65928000Y-47891000D02*
X64540000Y-47891000D01*
X62460000Y-47891000D02*
X61072000Y-47891000D01*
X65914000Y-47931000D02*
X64540000Y-47931000D01*
X62460000Y-47931000D02*
X61086000Y-47931000D01*
X65898000Y-47971000D02*
X64540000Y-47971000D01*
X62460000Y-47971000D02*
X61102000Y-47971000D01*
X65882000Y-48011000D02*
X64540000Y-48011000D01*
X62460000Y-48011000D02*
X61118000Y-48011000D01*
X65865000Y-48051000D02*
X64540000Y-48051000D01*
X62460000Y-48051000D02*
X61135000Y-48051000D01*
X65848000Y-48091000D02*
X64540000Y-48091000D01*
X62460000Y-48091000D02*
X61152000Y-48091000D01*
X65829000Y-48131000D02*
X64540000Y-48131000D01*
X62460000Y-48131000D02*
X61171000Y-48131000D01*
X65810000Y-48171000D02*
X64540000Y-48171000D01*
X62460000Y-48171000D02*
X61190000Y-48171000D01*
X65790000Y-48211000D02*
X64540000Y-48211000D01*
X62460000Y-48211000D02*
X61210000Y-48211000D01*
X65768000Y-48251000D02*
X64540000Y-48251000D01*
X62460000Y-48251000D02*
X61232000Y-48251000D01*
X65747000Y-48291000D02*
X64540000Y-48291000D01*
X62460000Y-48291000D02*
X61253000Y-48291000D01*
X65724000Y-48331000D02*
X64540000Y-48331000D01*
X62460000Y-48331000D02*
X61276000Y-48331000D01*
X65700000Y-48371000D02*
X64540000Y-48371000D01*
X62460000Y-48371000D02*
X61300000Y-48371000D01*
X65675000Y-48411000D02*
X64540000Y-48411000D01*
X62460000Y-48411000D02*
X61325000Y-48411000D01*
X65649000Y-48451000D02*
X64540000Y-48451000D01*
X62460000Y-48451000D02*
X61351000Y-48451000D01*
X65622000Y-48491000D02*
X64540000Y-48491000D01*
X62460000Y-48491000D02*
X61378000Y-48491000D01*
X65595000Y-48531000D02*
X64540000Y-48531000D01*
X62460000Y-48531000D02*
X61405000Y-48531000D01*
X65565000Y-48571000D02*
X64540000Y-48571000D01*
X62460000Y-48571000D02*
X61435000Y-48571000D01*
X65535000Y-48611000D02*
X64540000Y-48611000D01*
X62460000Y-48611000D02*
X61465000Y-48611000D01*
X65504000Y-48651000D02*
X64540000Y-48651000D01*
X62460000Y-48651000D02*
X61496000Y-48651000D01*
X65471000Y-48691000D02*
X64540000Y-48691000D01*
X62460000Y-48691000D02*
X61529000Y-48691000D01*
X65437000Y-48731000D02*
X64540000Y-48731000D01*
X62460000Y-48731000D02*
X61563000Y-48731000D01*
X65401000Y-48771000D02*
X64540000Y-48771000D01*
X62460000Y-48771000D02*
X61599000Y-48771000D01*
X65364000Y-48811000D02*
X64540000Y-48811000D01*
X62460000Y-48811000D02*
X61636000Y-48811000D01*
X65326000Y-48851000D02*
X64540000Y-48851000D01*
X62460000Y-48851000D02*
X61674000Y-48851000D01*
X65285000Y-48891000D02*
X64540000Y-48891000D01*
X62460000Y-48891000D02*
X61715000Y-48891000D01*
X65243000Y-48931000D02*
X64540000Y-48931000D01*
X62460000Y-48931000D02*
X61757000Y-48931000D01*
X65199000Y-48971000D02*
X64540000Y-48971000D01*
X62460000Y-48971000D02*
X61801000Y-48971000D01*
X65153000Y-49011000D02*
X64540000Y-49011000D01*
X62460000Y-49011000D02*
X61847000Y-49011000D01*
X65105000Y-49051000D02*
X64540000Y-49051000D01*
X62460000Y-49051000D02*
X61895000Y-49051000D01*
X65054000Y-49091000D02*
X64540000Y-49091000D01*
X62460000Y-49091000D02*
X61946000Y-49091000D01*
X65000000Y-49131000D02*
X64540000Y-49131000D01*
X62460000Y-49131000D02*
X62000000Y-49131000D01*
X64943000Y-49171000D02*
X64540000Y-49171000D01*
X62460000Y-49171000D02*
X62057000Y-49171000D01*
X64883000Y-49211000D02*
X64540000Y-49211000D01*
X62460000Y-49211000D02*
X62117000Y-49211000D01*
X64819000Y-49251000D02*
X64540000Y-49251000D01*
X62460000Y-49251000D02*
X62181000Y-49251000D01*
X64751000Y-49291000D02*
X64540000Y-49291000D01*
X62460000Y-49291000D02*
X62249000Y-49291000D01*
X64678000Y-49331000D02*
X62322000Y-49331000D01*
X64598000Y-49371000D02*
X62402000Y-49371000D01*
X64511000Y-49411000D02*
X62489000Y-49411000D01*
X64415000Y-49451000D02*
X62585000Y-49451000D01*
X64305000Y-49491000D02*
X62695000Y-49491000D01*
X64177000Y-49531000D02*
X62823000Y-49531000D01*
X64018000Y-49571000D02*
X62982000Y-49571000D01*
X63784000Y-49611000D02*
X63216000Y-49611000D01*
X66120000Y-47010000D02*
G75*
G03*
X66120000Y-47010000I-2620000J0D01*
G01*
D12*
%TO.C,J18*%
X48577100Y-33283200D02*
X58577100Y-33283200D01*
X48577100Y-40783200D02*
X48577100Y-33283200D01*
X58577100Y-33283200D02*
X58577100Y-40783200D01*
X58577100Y-40783200D02*
X48577100Y-40783200D01*
D13*
X48077100Y-37283200D02*
G75*
G03*
X48077100Y-37283200I-100000J0D01*
G01*
D11*
%TO.C,D3*%
X128304000Y-67600000D02*
X128460000Y-67600000D01*
X130620000Y-67600000D02*
X130776000Y-67600000D01*
X128461392Y-64367666D02*
G75*
G03*
X128304485Y-67599999I1078608J-1672334D01*
G01*
X128460164Y-64998871D02*
G75*
G03*
X128460001Y-67080960I1079836J-1041129D01*
G01*
X130619999Y-67080960D02*
G75*
G03*
X130619836Y-64998871I-1079999J1040960D01*
G01*
X130775515Y-67599999D02*
G75*
G03*
X130618608Y-64367666I-1235515J1559999D01*
G01*
%TO.C,U4*%
X107640000Y-67370000D02*
X107640000Y-46930000D01*
X107640000Y-46930000D02*
X102340000Y-46930000D01*
X105990000Y-67370000D02*
X107640000Y-67370000D01*
X102340000Y-67370000D02*
X103990000Y-67370000D01*
X102340000Y-46930000D02*
X102340000Y-67370000D01*
X105990000Y-67370000D02*
G75*
G03*
X103990000Y-67370000I-1000000J0D01*
G01*
%TO.C,C2*%
X131015000Y-46705225D02*
X131015000Y-47205225D01*
X131265000Y-46955225D02*
X130765000Y-46955225D01*
X132120000Y-49510000D02*
X126960000Y-49510000D01*
X132120000Y-49550000D02*
X126960000Y-49550000D01*
X132119000Y-49590000D02*
X126961000Y-49590000D01*
X132118000Y-49630000D02*
X126962000Y-49630000D01*
X132116000Y-49670000D02*
X126964000Y-49670000D01*
X132113000Y-49710000D02*
X126967000Y-49710000D01*
X132109000Y-49750000D02*
X130580000Y-49750000D01*
X128500000Y-49750000D02*
X126971000Y-49750000D01*
X132105000Y-49790000D02*
X130580000Y-49790000D01*
X128500000Y-49790000D02*
X126975000Y-49790000D01*
X132101000Y-49830000D02*
X130580000Y-49830000D01*
X128500000Y-49830000D02*
X126979000Y-49830000D01*
X132096000Y-49870000D02*
X130580000Y-49870000D01*
X128500000Y-49870000D02*
X126984000Y-49870000D01*
X132090000Y-49910000D02*
X130580000Y-49910000D01*
X128500000Y-49910000D02*
X126990000Y-49910000D01*
X132083000Y-49950000D02*
X130580000Y-49950000D01*
X128500000Y-49950000D02*
X126997000Y-49950000D01*
X132076000Y-49990000D02*
X130580000Y-49990000D01*
X128500000Y-49990000D02*
X127004000Y-49990000D01*
X132068000Y-50030000D02*
X130580000Y-50030000D01*
X128500000Y-50030000D02*
X127012000Y-50030000D01*
X132060000Y-50070000D02*
X130580000Y-50070000D01*
X128500000Y-50070000D02*
X127020000Y-50070000D01*
X132051000Y-50110000D02*
X130580000Y-50110000D01*
X128500000Y-50110000D02*
X127029000Y-50110000D01*
X132041000Y-50150000D02*
X130580000Y-50150000D01*
X128500000Y-50150000D02*
X127039000Y-50150000D01*
X132031000Y-50190000D02*
X130580000Y-50190000D01*
X128500000Y-50190000D02*
X127049000Y-50190000D01*
X132020000Y-50231000D02*
X130580000Y-50231000D01*
X128500000Y-50231000D02*
X127060000Y-50231000D01*
X132008000Y-50271000D02*
X130580000Y-50271000D01*
X128500000Y-50271000D02*
X127072000Y-50271000D01*
X131995000Y-50311000D02*
X130580000Y-50311000D01*
X128500000Y-50311000D02*
X127085000Y-50311000D01*
X131982000Y-50351000D02*
X130580000Y-50351000D01*
X128500000Y-50351000D02*
X127098000Y-50351000D01*
X131968000Y-50391000D02*
X130580000Y-50391000D01*
X128500000Y-50391000D02*
X127112000Y-50391000D01*
X131954000Y-50431000D02*
X130580000Y-50431000D01*
X128500000Y-50431000D02*
X127126000Y-50431000D01*
X131938000Y-50471000D02*
X130580000Y-50471000D01*
X128500000Y-50471000D02*
X127142000Y-50471000D01*
X131922000Y-50511000D02*
X130580000Y-50511000D01*
X128500000Y-50511000D02*
X127158000Y-50511000D01*
X131905000Y-50551000D02*
X130580000Y-50551000D01*
X128500000Y-50551000D02*
X127175000Y-50551000D01*
X131888000Y-50591000D02*
X130580000Y-50591000D01*
X128500000Y-50591000D02*
X127192000Y-50591000D01*
X131869000Y-50631000D02*
X130580000Y-50631000D01*
X128500000Y-50631000D02*
X127211000Y-50631000D01*
X131850000Y-50671000D02*
X130580000Y-50671000D01*
X128500000Y-50671000D02*
X127230000Y-50671000D01*
X131830000Y-50711000D02*
X130580000Y-50711000D01*
X128500000Y-50711000D02*
X127250000Y-50711000D01*
X131808000Y-50751000D02*
X130580000Y-50751000D01*
X128500000Y-50751000D02*
X127272000Y-50751000D01*
X131787000Y-50791000D02*
X130580000Y-50791000D01*
X128500000Y-50791000D02*
X127293000Y-50791000D01*
X131764000Y-50831000D02*
X130580000Y-50831000D01*
X128500000Y-50831000D02*
X127316000Y-50831000D01*
X131740000Y-50871000D02*
X130580000Y-50871000D01*
X128500000Y-50871000D02*
X127340000Y-50871000D01*
X131715000Y-50911000D02*
X130580000Y-50911000D01*
X128500000Y-50911000D02*
X127365000Y-50911000D01*
X131689000Y-50951000D02*
X130580000Y-50951000D01*
X128500000Y-50951000D02*
X127391000Y-50951000D01*
X131662000Y-50991000D02*
X130580000Y-50991000D01*
X128500000Y-50991000D02*
X127418000Y-50991000D01*
X131635000Y-51031000D02*
X130580000Y-51031000D01*
X128500000Y-51031000D02*
X127445000Y-51031000D01*
X131605000Y-51071000D02*
X130580000Y-51071000D01*
X128500000Y-51071000D02*
X127475000Y-51071000D01*
X131575000Y-51111000D02*
X130580000Y-51111000D01*
X128500000Y-51111000D02*
X127505000Y-51111000D01*
X131544000Y-51151000D02*
X130580000Y-51151000D01*
X128500000Y-51151000D02*
X127536000Y-51151000D01*
X131511000Y-51191000D02*
X130580000Y-51191000D01*
X128500000Y-51191000D02*
X127569000Y-51191000D01*
X131477000Y-51231000D02*
X130580000Y-51231000D01*
X128500000Y-51231000D02*
X127603000Y-51231000D01*
X131441000Y-51271000D02*
X130580000Y-51271000D01*
X128500000Y-51271000D02*
X127639000Y-51271000D01*
X131404000Y-51311000D02*
X130580000Y-51311000D01*
X128500000Y-51311000D02*
X127676000Y-51311000D01*
X131366000Y-51351000D02*
X130580000Y-51351000D01*
X128500000Y-51351000D02*
X127714000Y-51351000D01*
X131325000Y-51391000D02*
X130580000Y-51391000D01*
X128500000Y-51391000D02*
X127755000Y-51391000D01*
X131283000Y-51431000D02*
X130580000Y-51431000D01*
X128500000Y-51431000D02*
X127797000Y-51431000D01*
X131239000Y-51471000D02*
X130580000Y-51471000D01*
X128500000Y-51471000D02*
X127841000Y-51471000D01*
X131193000Y-51511000D02*
X130580000Y-51511000D01*
X128500000Y-51511000D02*
X127887000Y-51511000D01*
X131145000Y-51551000D02*
X130580000Y-51551000D01*
X128500000Y-51551000D02*
X127935000Y-51551000D01*
X131094000Y-51591000D02*
X130580000Y-51591000D01*
X128500000Y-51591000D02*
X127986000Y-51591000D01*
X131040000Y-51631000D02*
X130580000Y-51631000D01*
X128500000Y-51631000D02*
X128040000Y-51631000D01*
X130983000Y-51671000D02*
X130580000Y-51671000D01*
X128500000Y-51671000D02*
X128097000Y-51671000D01*
X130923000Y-51711000D02*
X130580000Y-51711000D01*
X128500000Y-51711000D02*
X128157000Y-51711000D01*
X130859000Y-51751000D02*
X130580000Y-51751000D01*
X128500000Y-51751000D02*
X128221000Y-51751000D01*
X130791000Y-51791000D02*
X130580000Y-51791000D01*
X128500000Y-51791000D02*
X128289000Y-51791000D01*
X130718000Y-51831000D02*
X128362000Y-51831000D01*
X130638000Y-51871000D02*
X128442000Y-51871000D01*
X130551000Y-51911000D02*
X128529000Y-51911000D01*
X130455000Y-51951000D02*
X128625000Y-51951000D01*
X130345000Y-51991000D02*
X128735000Y-51991000D01*
X130217000Y-52031000D02*
X128863000Y-52031000D01*
X130058000Y-52071000D02*
X129022000Y-52071000D01*
X129824000Y-52111000D02*
X129256000Y-52111000D01*
X132160000Y-49510000D02*
G75*
G03*
X132160000Y-49510000I-2620000J0D01*
G01*
%TO.C,J3*%
X111700000Y-80070000D02*
X111700000Y-78740000D01*
X113030000Y-80070000D02*
X111700000Y-80070000D01*
X114300000Y-80070000D02*
X132140000Y-80070000D01*
X114300000Y-80070000D02*
X114300000Y-77410000D01*
X132140000Y-80070000D02*
X132140000Y-77410000D01*
X114300000Y-77410000D02*
X132140000Y-77410000D01*
%TO.C,J11*%
X99000000Y-86420000D02*
X99000000Y-85090000D01*
X100330000Y-86420000D02*
X99000000Y-86420000D01*
X101600000Y-86420000D02*
X106740000Y-86420000D01*
X101600000Y-86420000D02*
X101600000Y-83760000D01*
X106740000Y-86420000D02*
X106740000Y-83760000D01*
X101600000Y-83760000D02*
X106740000Y-83760000D01*
%TO.C,R4*%
X128500000Y-71120000D02*
X127730000Y-71120000D01*
X127730000Y-72490000D02*
X127730000Y-69750000D01*
X127730000Y-69750000D02*
X121190000Y-69750000D01*
X121190000Y-72490000D02*
X127730000Y-72490000D01*
X121190000Y-69750000D02*
X121190000Y-72490000D01*
X120420000Y-71120000D02*
X121190000Y-71120000D01*
%TO.C,U2*%
X37425000Y-67850000D02*
X37425000Y-72491000D01*
X37425000Y-67850000D02*
X47665000Y-67850000D01*
X37425000Y-69360000D02*
X47665000Y-69360000D01*
X37425000Y-72491000D02*
X47665000Y-72491000D01*
X40695000Y-67850000D02*
X40695000Y-69360000D01*
X44396000Y-67850000D02*
X44396000Y-69360000D01*
X47665000Y-67850000D02*
X47665000Y-72491000D01*
%TO.C,J2*%
X132038400Y-87519200D02*
X132038400Y-88849200D01*
X130708400Y-87519200D02*
X132038400Y-87519200D01*
X129438400Y-87519200D02*
X111598400Y-87519200D01*
X129438400Y-87519200D02*
X129438400Y-90179200D01*
X111598400Y-87519200D02*
X111598400Y-90179200D01*
X129438400Y-90179200D02*
X111598400Y-90179200D01*
%TO.C,D1*%
X43781000Y-86705000D02*
X43625000Y-86705000D01*
X41465000Y-86705000D02*
X41309000Y-86705000D01*
X43623608Y-89937334D02*
G75*
G03*
X43780515Y-86705001I-1078608J1672334D01*
G01*
X43624836Y-89306129D02*
G75*
G03*
X43624999Y-87224040I-1079836J1041129D01*
G01*
X41465001Y-87224040D02*
G75*
G03*
X41465164Y-89306129I1079999J-1040960D01*
G01*
X41309485Y-86705001D02*
G75*
G03*
X41466392Y-89937334I1235515J-1559999D01*
G01*
%TO.C,J12*%
X99000000Y-90230000D02*
X99000000Y-88900000D01*
X100330000Y-90230000D02*
X99000000Y-90230000D01*
X101600000Y-90230000D02*
X106740000Y-90230000D01*
X101600000Y-90230000D02*
X101600000Y-87570000D01*
X106740000Y-90230000D02*
X106740000Y-87570000D01*
X101600000Y-87570000D02*
X106740000Y-87570000D01*
%TO.C,A1*%
X94110000Y-72270000D02*
X91440000Y-72270000D01*
X88900000Y-72270000D02*
X50670000Y-72270000D01*
X50670000Y-72270000D02*
X50670000Y-77350000D01*
X91440000Y-74940000D02*
X91440000Y-72270000D01*
X88900000Y-74940000D02*
X88900000Y-72270000D01*
X88900000Y-74940000D02*
X91440000Y-74940000D01*
X88900000Y-74940000D02*
X53340000Y-74940000D01*
X53340000Y-74940000D02*
X53340000Y-72270000D01*
X58550000Y-77350000D02*
X58550000Y-85230000D01*
X48130000Y-77350000D02*
X58550000Y-77350000D01*
X58550000Y-85230000D02*
X48130000Y-85230000D01*
X48130000Y-85230000D02*
X48130000Y-77350000D01*
X91440000Y-87640000D02*
X53340000Y-87640000D01*
X91440000Y-87640000D02*
X91440000Y-90310000D01*
X53340000Y-87640000D02*
X53340000Y-90310000D01*
X94110000Y-90310000D02*
X94110000Y-72270000D01*
X50670000Y-90310000D02*
X50670000Y-85230000D01*
X50670000Y-90310000D02*
X94110000Y-90310000D01*
%TO.C,R3*%
X121690000Y-43815000D02*
X122460000Y-43815000D01*
X122460000Y-42445000D02*
X122460000Y-45185000D01*
X122460000Y-45185000D02*
X129000000Y-45185000D01*
X129000000Y-42445000D02*
X122460000Y-42445000D01*
X129000000Y-45185000D02*
X129000000Y-42445000D01*
X129770000Y-43815000D02*
X129000000Y-43815000D01*
%TO.C,R1*%
X100560000Y-69850000D02*
X99790000Y-69850000D01*
X99790000Y-71220000D02*
X99790000Y-68480000D01*
X99790000Y-68480000D02*
X93250000Y-68480000D01*
X93250000Y-71220000D02*
X99790000Y-71220000D01*
X93250000Y-68480000D02*
X93250000Y-71220000D01*
X92480000Y-69850000D02*
X93250000Y-69850000D01*
%TO.C,C3*%
X99140000Y-46970000D02*
G75*
G03*
X99140000Y-46970000I-2620000J0D01*
G01*
X96804000Y-49571000D02*
X96236000Y-49571000D01*
X97038000Y-49531000D02*
X96002000Y-49531000D01*
X97197000Y-49491000D02*
X95843000Y-49491000D01*
X97325000Y-49451000D02*
X95715000Y-49451000D01*
X97435000Y-49411000D02*
X95605000Y-49411000D01*
X97531000Y-49371000D02*
X95509000Y-49371000D01*
X97618000Y-49331000D02*
X95422000Y-49331000D01*
X97698000Y-49291000D02*
X95342000Y-49291000D01*
X95480000Y-49251000D02*
X95269000Y-49251000D01*
X97771000Y-49251000D02*
X97560000Y-49251000D01*
X95480000Y-49211000D02*
X95201000Y-49211000D01*
X97839000Y-49211000D02*
X97560000Y-49211000D01*
X95480000Y-49171000D02*
X95137000Y-49171000D01*
X97903000Y-49171000D02*
X97560000Y-49171000D01*
X95480000Y-49131000D02*
X95077000Y-49131000D01*
X97963000Y-49131000D02*
X97560000Y-49131000D01*
X95480000Y-49091000D02*
X95020000Y-49091000D01*
X98020000Y-49091000D02*
X97560000Y-49091000D01*
X95480000Y-49051000D02*
X94966000Y-49051000D01*
X98074000Y-49051000D02*
X97560000Y-49051000D01*
X95480000Y-49011000D02*
X94915000Y-49011000D01*
X98125000Y-49011000D02*
X97560000Y-49011000D01*
X95480000Y-48971000D02*
X94867000Y-48971000D01*
X98173000Y-48971000D02*
X97560000Y-48971000D01*
X95480000Y-48931000D02*
X94821000Y-48931000D01*
X98219000Y-48931000D02*
X97560000Y-48931000D01*
X95480000Y-48891000D02*
X94777000Y-48891000D01*
X98263000Y-48891000D02*
X97560000Y-48891000D01*
X95480000Y-48851000D02*
X94735000Y-48851000D01*
X98305000Y-48851000D02*
X97560000Y-48851000D01*
X95480000Y-48811000D02*
X94694000Y-48811000D01*
X98346000Y-48811000D02*
X97560000Y-48811000D01*
X95480000Y-48771000D02*
X94656000Y-48771000D01*
X98384000Y-48771000D02*
X97560000Y-48771000D01*
X95480000Y-48731000D02*
X94619000Y-48731000D01*
X98421000Y-48731000D02*
X97560000Y-48731000D01*
X95480000Y-48691000D02*
X94583000Y-48691000D01*
X98457000Y-48691000D02*
X97560000Y-48691000D01*
X95480000Y-48651000D02*
X94549000Y-48651000D01*
X98491000Y-48651000D02*
X97560000Y-48651000D01*
X95480000Y-48611000D02*
X94516000Y-48611000D01*
X98524000Y-48611000D02*
X97560000Y-48611000D01*
X95480000Y-48571000D02*
X94485000Y-48571000D01*
X98555000Y-48571000D02*
X97560000Y-48571000D01*
X95480000Y-48531000D02*
X94455000Y-48531000D01*
X98585000Y-48531000D02*
X97560000Y-48531000D01*
X95480000Y-48491000D02*
X94425000Y-48491000D01*
X98615000Y-48491000D02*
X97560000Y-48491000D01*
X95480000Y-48451000D02*
X94398000Y-48451000D01*
X98642000Y-48451000D02*
X97560000Y-48451000D01*
X95480000Y-48411000D02*
X94371000Y-48411000D01*
X98669000Y-48411000D02*
X97560000Y-48411000D01*
X95480000Y-48371000D02*
X94345000Y-48371000D01*
X98695000Y-48371000D02*
X97560000Y-48371000D01*
X95480000Y-48331000D02*
X94320000Y-48331000D01*
X98720000Y-48331000D02*
X97560000Y-48331000D01*
X95480000Y-48291000D02*
X94296000Y-48291000D01*
X98744000Y-48291000D02*
X97560000Y-48291000D01*
X95480000Y-48251000D02*
X94273000Y-48251000D01*
X98767000Y-48251000D02*
X97560000Y-48251000D01*
X95480000Y-48211000D02*
X94252000Y-48211000D01*
X98788000Y-48211000D02*
X97560000Y-48211000D01*
X95480000Y-48171000D02*
X94230000Y-48171000D01*
X98810000Y-48171000D02*
X97560000Y-48171000D01*
X95480000Y-48131000D02*
X94210000Y-48131000D01*
X98830000Y-48131000D02*
X97560000Y-48131000D01*
X95480000Y-48091000D02*
X94191000Y-48091000D01*
X98849000Y-48091000D02*
X97560000Y-48091000D01*
X95480000Y-48051000D02*
X94172000Y-48051000D01*
X98868000Y-48051000D02*
X97560000Y-48051000D01*
X95480000Y-48011000D02*
X94155000Y-48011000D01*
X98885000Y-48011000D02*
X97560000Y-48011000D01*
X95480000Y-47971000D02*
X94138000Y-47971000D01*
X98902000Y-47971000D02*
X97560000Y-47971000D01*
X95480000Y-47931000D02*
X94122000Y-47931000D01*
X98918000Y-47931000D02*
X97560000Y-47931000D01*
X95480000Y-47891000D02*
X94106000Y-47891000D01*
X98934000Y-47891000D02*
X97560000Y-47891000D01*
X95480000Y-47851000D02*
X94092000Y-47851000D01*
X98948000Y-47851000D02*
X97560000Y-47851000D01*
X95480000Y-47811000D02*
X94078000Y-47811000D01*
X98962000Y-47811000D02*
X97560000Y-47811000D01*
X95480000Y-47771000D02*
X94065000Y-47771000D01*
X98975000Y-47771000D02*
X97560000Y-47771000D01*
X95480000Y-47731000D02*
X94052000Y-47731000D01*
X98988000Y-47731000D02*
X97560000Y-47731000D01*
X95480000Y-47691000D02*
X94040000Y-47691000D01*
X99000000Y-47691000D02*
X97560000Y-47691000D01*
X95480000Y-47650000D02*
X94029000Y-47650000D01*
X99011000Y-47650000D02*
X97560000Y-47650000D01*
X95480000Y-47610000D02*
X94019000Y-47610000D01*
X99021000Y-47610000D02*
X97560000Y-47610000D01*
X95480000Y-47570000D02*
X94009000Y-47570000D01*
X99031000Y-47570000D02*
X97560000Y-47570000D01*
X95480000Y-47530000D02*
X94000000Y-47530000D01*
X99040000Y-47530000D02*
X97560000Y-47530000D01*
X95480000Y-47490000D02*
X93992000Y-47490000D01*
X99048000Y-47490000D02*
X97560000Y-47490000D01*
X95480000Y-47450000D02*
X93984000Y-47450000D01*
X99056000Y-47450000D02*
X97560000Y-47450000D01*
X95480000Y-47410000D02*
X93977000Y-47410000D01*
X99063000Y-47410000D02*
X97560000Y-47410000D01*
X95480000Y-47370000D02*
X93970000Y-47370000D01*
X99070000Y-47370000D02*
X97560000Y-47370000D01*
X95480000Y-47330000D02*
X93964000Y-47330000D01*
X99076000Y-47330000D02*
X97560000Y-47330000D01*
X95480000Y-47290000D02*
X93959000Y-47290000D01*
X99081000Y-47290000D02*
X97560000Y-47290000D01*
X95480000Y-47250000D02*
X93955000Y-47250000D01*
X99085000Y-47250000D02*
X97560000Y-47250000D01*
X95480000Y-47210000D02*
X93951000Y-47210000D01*
X99089000Y-47210000D02*
X97560000Y-47210000D01*
X99093000Y-47170000D02*
X93947000Y-47170000D01*
X99096000Y-47130000D02*
X93944000Y-47130000D01*
X99098000Y-47090000D02*
X93942000Y-47090000D01*
X99099000Y-47050000D02*
X93941000Y-47050000D01*
X99100000Y-47010000D02*
X93940000Y-47010000D01*
X99100000Y-46970000D02*
X93940000Y-46970000D01*
X98245000Y-44415225D02*
X97745000Y-44415225D01*
X97995000Y-44165225D02*
X97995000Y-44665225D01*
%TO.C,J9*%
X99000000Y-78800000D02*
X99000000Y-77470000D01*
X100330000Y-78800000D02*
X99000000Y-78800000D01*
X101600000Y-78800000D02*
X106740000Y-78800000D01*
X101600000Y-78800000D02*
X101600000Y-76140000D01*
X106740000Y-78800000D02*
X106740000Y-76140000D01*
X101600000Y-76140000D02*
X106740000Y-76140000D01*
D12*
%TO.C,J20*%
X132677400Y-65960000D02*
X132677400Y-55960000D01*
X140177400Y-65960000D02*
X132677400Y-65960000D01*
X132677400Y-55960000D02*
X140177400Y-55960000D01*
X140177400Y-55960000D02*
X140177400Y-65960000D01*
D13*
X136777400Y-66560000D02*
G75*
G03*
X136777400Y-66560000I-100000J0D01*
G01*
D11*
%TO.C,J10*%
X99000000Y-82610000D02*
X99000000Y-81280000D01*
X100330000Y-82610000D02*
X99000000Y-82610000D01*
X101600000Y-82610000D02*
X106740000Y-82610000D01*
X101600000Y-82610000D02*
X101600000Y-79950000D01*
X106740000Y-82610000D02*
X106740000Y-79950000D01*
X101600000Y-79950000D02*
X106740000Y-79950000D01*
%TO.C,U5*%
X51960000Y-47082400D02*
X51960000Y-67522400D01*
X51960000Y-67522400D02*
X57260000Y-67522400D01*
X53610000Y-47082400D02*
X51960000Y-47082400D01*
X57260000Y-47082400D02*
X55610000Y-47082400D01*
X57260000Y-67522400D02*
X57260000Y-47082400D01*
X53610000Y-47082400D02*
G75*
G03*
X55610000Y-47082400I1000000J0D01*
G01*
%TO.C,J13*%
X99000000Y-94040000D02*
X99000000Y-92710000D01*
X100330000Y-94040000D02*
X99000000Y-94040000D01*
X101600000Y-94040000D02*
X106740000Y-94040000D01*
X101600000Y-94040000D02*
X101600000Y-91380000D01*
X106740000Y-94040000D02*
X106740000Y-91380000D01*
X101600000Y-91380000D02*
X106740000Y-91380000D01*
D12*
%TO.C,J17*%
X46545000Y-40720000D02*
X46545000Y-50720000D01*
X39045000Y-40720000D02*
X46545000Y-40720000D01*
X46545000Y-50720000D02*
X39045000Y-50720000D01*
X39045000Y-50720000D02*
X39045000Y-40720000D01*
D13*
X42645000Y-40120000D02*
G75*
G03*
X42645000Y-40120000I-100000J0D01*
G01*
D11*
%TO.C,U6*%
X84980000Y-46930000D02*
X84980000Y-67370000D01*
X84980000Y-67370000D02*
X90280000Y-67370000D01*
X86630000Y-46930000D02*
X84980000Y-46930000D01*
X90280000Y-46930000D02*
X88630000Y-46930000D01*
X90280000Y-67370000D02*
X90280000Y-46930000D01*
X86630000Y-46930000D02*
G75*
G03*
X88630000Y-46930000I1000000J0D01*
G01*
%TO.C,J5*%
X109795000Y-72450000D02*
X109795000Y-71120000D01*
X111125000Y-72450000D02*
X109795000Y-72450000D01*
X112395000Y-72450000D02*
X114995000Y-72450000D01*
X112395000Y-72450000D02*
X112395000Y-69790000D01*
X114995000Y-72450000D02*
X114995000Y-69790000D01*
X112395000Y-69790000D02*
X114995000Y-69790000D01*
D12*
%TO.C,J1*%
X46545000Y-53380000D02*
X46545000Y-63380000D01*
X39045000Y-53380000D02*
X46545000Y-53380000D01*
X46545000Y-63380000D02*
X39045000Y-63380000D01*
X39045000Y-63380000D02*
X39045000Y-53380000D01*
D13*
X42645000Y-52780000D02*
G75*
G03*
X42645000Y-52780000I-100000J0D01*
G01*
D11*
%TO.C,D2*%
X122215000Y-40606000D02*
X122215000Y-40450000D01*
X122215000Y-38290000D02*
X122215000Y-38134000D01*
X118982666Y-40448608D02*
G75*
G03*
X122214999Y-40605515I1672334J1078608D01*
G01*
X119613871Y-40449836D02*
G75*
G03*
X121695960Y-40449999I1041129J1079836D01*
G01*
X121695960Y-38290001D02*
G75*
G03*
X119613871Y-38290164I-1040960J-1079999D01*
G01*
X122214999Y-38134485D02*
G75*
G03*
X118982666Y-38291392I-1559999J-1235515D01*
G01*
D12*
%TO.C,J19*%
X117837600Y-41617400D02*
X107837600Y-41617400D01*
X117837600Y-34117400D02*
X117837600Y-41617400D01*
X107837600Y-41617400D02*
X107837600Y-34117400D01*
X107837600Y-34117400D02*
X117837600Y-34117400D01*
D13*
X118537600Y-37617400D02*
G75*
G03*
X118537600Y-37617400I-100000J0D01*
G01*
D11*
%TO.C,J8*%
X99000000Y-74990000D02*
X99000000Y-73660000D01*
X100330000Y-74990000D02*
X99000000Y-74990000D01*
X101600000Y-74990000D02*
X106740000Y-74990000D01*
X101600000Y-74990000D02*
X101600000Y-72330000D01*
X106740000Y-74990000D02*
X106740000Y-72330000D01*
X101600000Y-72330000D02*
X106740000Y-72330000D01*
%TD*%
M02*
