%TF.GenerationSoftware,KiCad,Pcbnew,7.0.2*%
%TF.CreationDate,2023-05-15T21:07:48+08:00*%
%TF.ProjectId,____,5ffb7408-2e6b-4696-9361-645f70636258,rev?*%
%TF.SameCoordinates,Original*%
%TF.FileFunction,Soldermask,Bot*%
%TF.FilePolarity,Negative*%
%FSLAX46Y46*%
G04 Gerber Fmt 4.6, Leading zero omitted, Abs format (unit mm)*
G04 Created by KiCad (PCBNEW 7.0.2) date 2023-05-15 21:07:48*
%MOMM*%
%LPD*%
G01*
G04 APERTURE LIST*
%ADD10R,1.700000X1.700000*%
%ADD11O,1.700000X1.700000*%
%ADD12R,1.600000X1.600000*%
%ADD13O,1.600000X1.600000*%
%ADD14R,2.100000X2.100000*%
%ADD15C,2.100000*%
%ADD16C,1.600000*%
%ADD17R,1.800000X1.800000*%
%ADD18C,1.800000*%
%ADD19R,1.905000X2.000000*%
%ADD20O,1.905000X2.000000*%
G04 APERTURE END LIST*
D10*
%TO.C,J14*%
X63500000Y-92710000D03*
D11*
X66040000Y-92710000D03*
X68580000Y-92710000D03*
X71120000Y-92710000D03*
X73660000Y-92710000D03*
X76200000Y-92710000D03*
%TD*%
D10*
%TO.C,J7*%
X123190000Y-74930000D03*
D11*
X125730000Y-74930000D03*
%TD*%
D12*
%TO.C,U7*%
X116840000Y-48260000D03*
D13*
X116840000Y-50800000D03*
X116840000Y-53340000D03*
X116840000Y-55880000D03*
X116840000Y-58420000D03*
X116840000Y-60960000D03*
X116840000Y-63500000D03*
X116840000Y-66040000D03*
X124460000Y-66040000D03*
X124460000Y-63500000D03*
X124460000Y-60960000D03*
X124460000Y-58420000D03*
X124460000Y-55880000D03*
X124460000Y-53340000D03*
X124460000Y-50800000D03*
X124460000Y-48260000D03*
%TD*%
D14*
%TO.C,J16*%
X96520000Y-37236400D03*
D15*
X91520000Y-37236400D03*
%TD*%
D10*
%TO.C,J4*%
X111760000Y-74930000D03*
D11*
X114300000Y-74930000D03*
%TD*%
D16*
%TO.C,R2*%
X42545000Y-84455000D03*
D13*
X42545000Y-74295000D03*
%TD*%
D12*
%TO.C,U3*%
X68580000Y-48260000D03*
D13*
X68580000Y-50800000D03*
X68580000Y-53340000D03*
X68580000Y-55880000D03*
X68580000Y-58420000D03*
X68580000Y-60960000D03*
X68580000Y-63500000D03*
X68580000Y-66040000D03*
X76200000Y-66040000D03*
X76200000Y-63500000D03*
X76200000Y-60960000D03*
X76200000Y-58420000D03*
X76200000Y-55880000D03*
X76200000Y-53340000D03*
X76200000Y-50800000D03*
X76200000Y-48260000D03*
%TD*%
D10*
%TO.C,J6*%
X82550000Y-69850000D03*
D11*
X85090000Y-69850000D03*
%TD*%
D14*
%TO.C,J15*%
X73685400Y-37236400D03*
D15*
X68685400Y-37236400D03*
%TD*%
D12*
%TO.C,C1*%
X63500000Y-45760000D03*
D16*
X63500000Y-48260000D03*
%TD*%
D14*
%TO.C,J18*%
X51077100Y-37283200D03*
D15*
X56077100Y-37283200D03*
%TD*%
D17*
%TO.C,D3*%
X129540000Y-67310000D03*
D18*
X129540000Y-64770000D03*
%TD*%
D12*
%TO.C,U4*%
X108800000Y-66040000D03*
D13*
X108800000Y-63500000D03*
X108800000Y-60960000D03*
X108800000Y-58420000D03*
X108800000Y-55880000D03*
X108800000Y-53340000D03*
X108800000Y-50800000D03*
X108800000Y-48260000D03*
X101180000Y-48260000D03*
X101180000Y-50800000D03*
X101180000Y-53340000D03*
X101180000Y-55880000D03*
X101180000Y-58420000D03*
X101180000Y-60960000D03*
X101180000Y-63500000D03*
X101180000Y-66040000D03*
%TD*%
D12*
%TO.C,C2*%
X129540000Y-48260000D03*
D16*
X129540000Y-50760000D03*
%TD*%
D10*
%TO.C,J3*%
X113030000Y-78740000D03*
D11*
X115570000Y-78740000D03*
X118110000Y-78740000D03*
X120650000Y-78740000D03*
X123190000Y-78740000D03*
X125730000Y-78740000D03*
X128270000Y-78740000D03*
X130810000Y-78740000D03*
%TD*%
D10*
%TO.C,J11*%
X100330000Y-85090000D03*
D11*
X102870000Y-85090000D03*
X105410000Y-85090000D03*
%TD*%
D16*
%TO.C,R4*%
X129540000Y-71120000D03*
D13*
X119380000Y-71120000D03*
%TD*%
D19*
%TO.C,U2*%
X40005000Y-71120000D03*
D20*
X42545000Y-71120000D03*
X45085000Y-71120000D03*
%TD*%
D10*
%TO.C,J2*%
X130708400Y-88849200D03*
D11*
X128168400Y-88849200D03*
X125628400Y-88849200D03*
X123088400Y-88849200D03*
X120548400Y-88849200D03*
X118008400Y-88849200D03*
X115468400Y-88849200D03*
X112928400Y-88849200D03*
%TD*%
D17*
%TO.C,D1*%
X42545000Y-86995000D03*
D18*
X42545000Y-89535000D03*
%TD*%
D10*
%TO.C,J12*%
X100330000Y-88900000D03*
D11*
X102870000Y-88900000D03*
X105410000Y-88900000D03*
%TD*%
D12*
%TO.C,A1*%
X90170000Y-73670000D03*
D13*
X87630000Y-73670000D03*
X85090000Y-73670000D03*
X82550000Y-73670000D03*
X80010000Y-73670000D03*
X77470000Y-73670000D03*
X74930000Y-73670000D03*
X72390000Y-73670000D03*
X69850000Y-73670000D03*
X67310000Y-73670000D03*
X64770000Y-73670000D03*
X62230000Y-73670000D03*
X59690000Y-73670000D03*
X57150000Y-73670000D03*
X54610000Y-73670000D03*
X54610000Y-88910000D03*
X57150000Y-88910000D03*
X59690000Y-88910000D03*
X62230000Y-88910000D03*
X64770000Y-88910000D03*
X67310000Y-88910000D03*
X69850000Y-88910000D03*
X72390000Y-88910000D03*
X74930000Y-88910000D03*
X77470000Y-88910000D03*
X80010000Y-88910000D03*
X82550000Y-88910000D03*
X85090000Y-88910000D03*
X87630000Y-88910000D03*
X90170000Y-88910000D03*
%TD*%
D16*
%TO.C,R3*%
X120650000Y-43815000D03*
D13*
X130810000Y-43815000D03*
%TD*%
D16*
%TO.C,R1*%
X101600000Y-69850000D03*
D13*
X91440000Y-69850000D03*
%TD*%
D12*
%TO.C,C3*%
X96520000Y-45720000D03*
D16*
X96520000Y-48220000D03*
%TD*%
D10*
%TO.C,J9*%
X100330000Y-77470000D03*
D11*
X102870000Y-77470000D03*
X105410000Y-77470000D03*
%TD*%
D14*
%TO.C,J20*%
X131445000Y-60325000D03*
D15*
X131445000Y-55325000D03*
%TD*%
D10*
%TO.C,J10*%
X100330000Y-81280000D03*
D11*
X102870000Y-81280000D03*
X105410000Y-81280000D03*
%TD*%
D12*
%TO.C,U5*%
X50800000Y-48412400D03*
D13*
X50800000Y-50952400D03*
X50800000Y-53492400D03*
X50800000Y-56032400D03*
X50800000Y-58572400D03*
X50800000Y-61112400D03*
X50800000Y-63652400D03*
X50800000Y-66192400D03*
X58420000Y-66192400D03*
X58420000Y-63652400D03*
X58420000Y-61112400D03*
X58420000Y-58572400D03*
X58420000Y-56032400D03*
X58420000Y-53492400D03*
X58420000Y-50952400D03*
X58420000Y-48412400D03*
%TD*%
D10*
%TO.C,J13*%
X100330000Y-92710000D03*
D11*
X102870000Y-92710000D03*
X105410000Y-92710000D03*
%TD*%
D14*
%TO.C,J17*%
X42545000Y-43220000D03*
D15*
X42545000Y-48220000D03*
%TD*%
D12*
%TO.C,U6*%
X83820000Y-48260000D03*
D13*
X83820000Y-50800000D03*
X83820000Y-53340000D03*
X83820000Y-55880000D03*
X83820000Y-58420000D03*
X83820000Y-60960000D03*
X83820000Y-63500000D03*
X83820000Y-66040000D03*
X91440000Y-66040000D03*
X91440000Y-63500000D03*
X91440000Y-60960000D03*
X91440000Y-58420000D03*
X91440000Y-55880000D03*
X91440000Y-53340000D03*
X91440000Y-50800000D03*
X91440000Y-48260000D03*
%TD*%
D10*
%TO.C,J5*%
X111125000Y-71120000D03*
D11*
X113665000Y-71120000D03*
%TD*%
D14*
%TO.C,J1*%
X42545000Y-55880000D03*
D15*
X42545000Y-60880000D03*
%TD*%
D17*
%TO.C,D2*%
X121925000Y-39370000D03*
D18*
X119385000Y-39370000D03*
%TD*%
D14*
%TO.C,J19*%
X115337600Y-37617400D03*
D15*
X110337600Y-37617400D03*
%TD*%
D10*
%TO.C,J8*%
X100330000Y-73660000D03*
D11*
X102870000Y-73660000D03*
X105410000Y-73660000D03*
%TD*%
M02*
