M48
; DRILL file {KiCad 7.0.2-0} date 2023 May 15, Monday 00:05:46
; FORMAT={-:-/ absolute / inch / decimal}
; #@! TF.CreationDate,2023-05-15T00:05:46+08:00
; #@! TF.GenerationSoftware,Kicad,Pcbnew,7.0.2-0
; #@! TF.FileFunction,Plated,1,2,PTH
FMAT,2
INCH
; #@! TA.AperFunction,Plated,PTH,ComponentDrill
T1C0.0315
; #@! TA.AperFunction,Plated,PTH,ComponentDrill
T2C0.0354
; #@! TA.AperFunction,Plated,PTH,ComponentDrill
T3C0.0394
; #@! TA.AperFunction,Plated,PTH,ComponentDrill
T4C0.0433
; #@! TA.AperFunction,Plated,PTH,ComponentDrill
T5C0.0551
; #@! TA.AperFunction,Plated,PTH,ViaDrill
T6C0.1181
%
G90
G05
T1
X1.675Y-2.925
X1.675Y-3.325
X2.0Y-1.906
X2.0Y-2.006
X2.0Y-2.106
X2.0Y-2.206
X2.0Y-2.306
X2.0Y-2.406
X2.0Y-2.506
X2.0Y-2.606
X2.3Y-1.906
X2.3Y-2.006
X2.3Y-2.106
X2.3Y-2.206
X2.3Y-2.306
X2.3Y-2.406
X2.3Y-2.506
X2.3Y-2.606
X2.5Y-1.8016
X2.5Y-1.9
X2.7Y-1.9
X2.7Y-2.0
X2.7Y-2.1
X2.7Y-2.2
X2.7Y-2.3
X2.7Y-2.4
X2.7Y-2.5
X2.7Y-2.6
X3.0Y-1.9
X3.0Y-2.0
X3.0Y-2.1
X3.0Y-2.2
X3.0Y-2.3
X3.0Y-2.4
X3.0Y-2.5
X3.0Y-2.6
X3.3Y-1.9
X3.3Y-2.0
X3.3Y-2.1
X3.3Y-2.2
X3.3Y-2.3
X3.3Y-2.4
X3.3Y-2.5
X3.3Y-2.6
X3.6Y-1.9
X3.6Y-2.0
X3.6Y-2.1
X3.6Y-2.2
X3.6Y-2.3
X3.6Y-2.4
X3.6Y-2.5
X3.6Y-2.6
X3.6Y-2.75
X3.8Y-1.8
X3.8Y-1.8984
X3.9835Y-1.9
X3.9835Y-2.0
X3.9835Y-2.1
X3.9835Y-2.2
X3.9835Y-2.3
X3.9835Y-2.4
X3.9835Y-2.5
X3.9835Y-2.6
X4.0Y-2.75
X4.2835Y-1.9
X4.2835Y-2.0
X4.2835Y-2.1
X4.2835Y-2.2
X4.2835Y-2.3
X4.2835Y-2.4
X4.2835Y-2.5
X4.2835Y-2.6
X4.6Y-1.9
X4.6Y-2.0
X4.6Y-2.1
X4.6Y-2.2
X4.6Y-2.3
X4.6Y-2.4
X4.6Y-2.5
X4.6Y-2.6
X4.7Y-2.8
X4.75Y-1.725
X4.9Y-1.9
X4.9Y-2.0
X4.9Y-2.1
X4.9Y-2.2
X4.9Y-2.3
X4.9Y-2.4
X4.9Y-2.5
X4.9Y-2.6
X5.1Y-1.9
X5.1Y-1.9984
X5.1Y-2.8
X5.15Y-1.725
T2
X1.675Y-3.425
X1.675Y-3.525
X4.7002Y-1.55
X4.8002Y-1.55
X5.1Y-2.55
X5.1Y-2.65
T3
X2.15Y-2.9004
X2.15Y-3.5004
X2.25Y-2.9004
X2.25Y-3.5004
X2.35Y-2.9004
X2.35Y-3.5004
X2.45Y-2.9004
X2.45Y-3.5004
X2.5Y-3.65
X2.55Y-2.9004
X2.55Y-3.5004
X2.6Y-3.65
X2.65Y-2.9004
X2.65Y-3.5004
X2.7Y-3.65
X2.75Y-2.9004
X2.75Y-3.5004
X2.8Y-3.65
X2.85Y-2.9004
X2.85Y-3.5004
X2.9Y-3.65
X2.95Y-2.9004
X2.95Y-3.5004
X3.0Y-3.65
X3.05Y-2.9004
X3.05Y-3.5004
X3.15Y-2.9004
X3.15Y-3.5004
X3.25Y-2.75
X3.25Y-2.9004
X3.25Y-3.5004
X3.35Y-2.75
X3.35Y-2.9004
X3.35Y-3.5004
X3.45Y-2.9004
X3.45Y-3.5004
X3.55Y-2.9004
X3.55Y-3.5004
X3.95Y-2.9
X3.95Y-3.05
X3.95Y-3.2
X3.95Y-3.35
X3.95Y-3.5
X3.95Y-3.65
X4.05Y-2.9
X4.05Y-3.05
X4.05Y-3.2
X4.05Y-3.35
X4.05Y-3.5
X4.05Y-3.65
X4.15Y-2.9
X4.15Y-3.05
X4.15Y-3.2
X4.15Y-3.35
X4.15Y-3.5
X4.15Y-3.65
X4.375Y-2.8
X4.4Y-2.95
X4.446Y-3.498
X4.45Y-3.1
X4.475Y-2.8
X4.5Y-2.95
X4.546Y-3.498
X4.55Y-3.1
X4.646Y-3.498
X4.65Y-3.1
X4.746Y-3.498
X4.75Y-3.1
X4.846Y-3.498
X4.85Y-2.95
X4.85Y-3.1
X4.946Y-3.498
X4.95Y-2.95
X4.95Y-3.1
X5.046Y-3.498
X5.05Y-3.1
X5.146Y-3.498
X5.15Y-3.1
T4
X1.575Y-2.8
X1.675Y-2.8
X1.775Y-2.8
T5
X1.675Y-1.7016
X1.675Y-1.8984
X1.675Y-2.2
X1.675Y-2.3969
X2.0109Y-1.4678
X2.2078Y-1.4678
X2.7041Y-1.466
X2.901Y-1.466
X3.6031Y-1.466
X3.8Y-1.466
X4.344Y-1.481
X4.5409Y-1.481
X5.381Y-2.3016
X5.381Y-2.4984
T6
X1.55Y-3.7
X1.575Y-1.45
X5.375Y-1.475
X5.375Y-3.7
T0
M30
