%TF.GenerationSoftware,KiCad,Pcbnew,7.0.2-0*%
%TF.CreationDate,2023-05-15T00:05:49+08:00*%
%TF.ProjectId,____,5ffb7408-2e6b-4696-9361-645f70636258,rev?*%
%TF.SameCoordinates,Original*%
%TF.FileFunction,Copper,L1,Top*%
%TF.FilePolarity,Positive*%
%FSLAX46Y46*%
G04 Gerber Fmt 4.6, Leading zero omitted, Abs format (unit mm)*
G04 Created by KiCad (PCBNEW 7.0.2-0) date 2023-05-15 00:05:49*
%MOMM*%
%LPD*%
G01*
G04 APERTURE LIST*
%TA.AperFunction,ComponentPad*%
%ADD10R,1.700000X1.700000*%
%TD*%
%TA.AperFunction,ComponentPad*%
%ADD11O,1.700000X1.700000*%
%TD*%
%TA.AperFunction,ComponentPad*%
%ADD12R,1.600000X1.600000*%
%TD*%
%TA.AperFunction,ComponentPad*%
%ADD13O,1.600000X1.600000*%
%TD*%
%TA.AperFunction,ComponentPad*%
%ADD14R,2.100000X2.100000*%
%TD*%
%TA.AperFunction,ComponentPad*%
%ADD15C,2.100000*%
%TD*%
%TA.AperFunction,ComponentPad*%
%ADD16C,1.600000*%
%TD*%
%TA.AperFunction,ComponentPad*%
%ADD17R,1.800000X1.800000*%
%TD*%
%TA.AperFunction,ComponentPad*%
%ADD18C,1.800000*%
%TD*%
%TA.AperFunction,ComponentPad*%
%ADD19R,1.905000X2.000000*%
%TD*%
%TA.AperFunction,ComponentPad*%
%ADD20O,1.905000X2.000000*%
%TD*%
%TA.AperFunction,ViaPad*%
%ADD21C,5.000000*%
%TD*%
%TA.AperFunction,Conductor*%
%ADD22C,0.762000*%
%TD*%
%TA.AperFunction,Conductor*%
%ADD23C,0.304800*%
%TD*%
G04 APERTURE END LIST*
D10*
%TO.P,J14,1,Pin_1*%
%TO.N,/nano_A0*%
X63500000Y-92710000D03*
D11*
%TO.P,J14,2,Pin_2*%
%TO.N,/nano_A1*%
X66040000Y-92710000D03*
%TO.P,J14,3,Pin_3*%
%TO.N,/nano_A2*%
X68580000Y-92710000D03*
%TO.P,J14,4,Pin_4*%
%TO.N,/nano_A3*%
X71120000Y-92710000D03*
%TO.P,J14,5,Pin_5*%
%TO.N,/nano_A6*%
X73660000Y-92710000D03*
%TO.P,J14,6,Pin_6*%
%TO.N,/nano_A7*%
X76200000Y-92710000D03*
%TD*%
D10*
%TO.P,J7,1,Pin_1*%
%TO.N,GND*%
X123190000Y-74930000D03*
D11*
%TO.P,J7,2,Pin_2*%
%TO.N,/esp32_GPI0*%
X125730000Y-74930000D03*
%TD*%
D12*
%TO.P,U7,1,EN1\u002C2*%
%TO.N,/motor5_speed*%
X116840000Y-48260000D03*
D13*
%TO.P,U7,2,1A*%
%TO.N,/motor5_A*%
X116840000Y-50800000D03*
%TO.P,U7,3,1Y*%
%TO.N,/shoot+*%
X116840000Y-53340000D03*
%TO.P,U7,4,GND*%
%TO.N,GND*%
X116840000Y-55880000D03*
%TO.P,U7,5,GND*%
X116840000Y-58420000D03*
%TO.P,U7,6,2Y*%
%TO.N,/shoot-*%
X116840000Y-60960000D03*
%TO.P,U7,7,2A*%
%TO.N,/motor5_B*%
X116840000Y-63500000D03*
%TO.P,U7,8,VCC2*%
%TO.N,+5V*%
X116840000Y-66040000D03*
%TO.P,U7,9,EN3\u002C4*%
%TO.N,/motor6_speed*%
X124460000Y-66040000D03*
%TO.P,U7,10,3A*%
%TO.N,/motor6_A*%
X124460000Y-63500000D03*
%TO.P,U7,11,3Y*%
%TO.N,/tilt+*%
X124460000Y-60960000D03*
%TO.P,U7,12,GND*%
%TO.N,GND*%
X124460000Y-58420000D03*
%TO.P,U7,13,GND*%
X124460000Y-55880000D03*
%TO.P,U7,14,4Y*%
%TO.N,/tilt-*%
X124460000Y-53340000D03*
%TO.P,U7,15,4A*%
%TO.N,/motor6_B*%
X124460000Y-50800000D03*
%TO.P,U7,16,VCC1*%
%TO.N,+12V*%
X124460000Y-48260000D03*
%TD*%
D14*
%TO.P,J16,1,Pin_1*%
%TO.N,/motorRF+*%
X96520000Y-37236400D03*
D15*
%TO.P,J16,2,Pin_2*%
%TO.N,/motorRF-*%
X91520000Y-37236400D03*
%TD*%
D10*
%TO.P,J4,1,Pin_1*%
%TO.N,/nano_RX*%
X111760000Y-74930000D03*
D11*
%TO.P,J4,2,Pin_2*%
%TO.N,/esp32_TX*%
X114300000Y-74930000D03*
%TD*%
D16*
%TO.P,R2,1*%
%TO.N,Net-(D1-K)*%
X42545000Y-84455000D03*
D13*
%TO.P,R2,2*%
%TO.N,GND*%
X42545000Y-74295000D03*
%TD*%
%TO.P,U3,16,VCC*%
%TO.N,+5V*%
X76200000Y-48260000D03*
%TO.P,U3,15,QA*%
%TO.N,/motor1_A*%
X76200000Y-50800000D03*
%TO.P,U3,14,SER*%
%TO.N,/signal_595*%
X76200000Y-53340000D03*
%TO.P,U3,13,~{OE}*%
%TO.N,GND*%
X76200000Y-55880000D03*
%TO.P,U3,12,RCLK*%
%TO.N,/595RCLK*%
X76200000Y-58420000D03*
%TO.P,U3,11,SRCLK*%
%TO.N,/595SCLK*%
X76200000Y-60960000D03*
%TO.P,U3,10,~{SRCLR}*%
%TO.N,+5V*%
X76200000Y-63500000D03*
%TO.P,U3,9,QH'*%
%TO.N,Net-(U3-QH')*%
X76200000Y-66040000D03*
%TO.P,U3,8,GND*%
%TO.N,GND*%
X68580000Y-66040000D03*
%TO.P,U3,7,QH*%
%TO.N,/motor4_B*%
X68580000Y-63500000D03*
%TO.P,U3,6,QG*%
%TO.N,/motor4_A*%
X68580000Y-60960000D03*
%TO.P,U3,5,QF*%
%TO.N,/motor3_B*%
X68580000Y-58420000D03*
%TO.P,U3,4,QE*%
%TO.N,/motor3_A*%
X68580000Y-55880000D03*
%TO.P,U3,3,QD*%
%TO.N,/motor2_B*%
X68580000Y-53340000D03*
%TO.P,U3,2,QC*%
%TO.N,/motor2_A*%
X68580000Y-50800000D03*
D12*
%TO.P,U3,1,QB*%
%TO.N,/motor1_B*%
X68580000Y-48260000D03*
%TD*%
D10*
%TO.P,J6,1,Pin_1*%
%TO.N,GND*%
X82550000Y-69850000D03*
D11*
%TO.P,J6,2,Pin_2*%
%TO.N,/nano_reset*%
X85090000Y-69850000D03*
%TD*%
D14*
%TO.P,J15,1,Pin_1*%
%TO.N,/motorLF+*%
X73685400Y-37236400D03*
D15*
%TO.P,J15,2,Pin_2*%
%TO.N,/motorLF-*%
X68685400Y-37236400D03*
%TD*%
D12*
%TO.P,C1,1*%
%TO.N,+12V*%
X63500000Y-45760000D03*
D16*
%TO.P,C1,2*%
%TO.N,GND*%
X63500000Y-48260000D03*
%TD*%
D14*
%TO.P,J18,1,Pin_1*%
%TO.N,/motorRB+*%
X51077100Y-37283200D03*
D15*
%TO.P,J18,2,Pin_2*%
%TO.N,/motorRB-*%
X56077100Y-37283200D03*
%TD*%
D17*
%TO.P,D3,1,K*%
%TO.N,Net-(D3-K)*%
X129540000Y-67310000D03*
D18*
%TO.P,D3,2,A*%
%TO.N,/motor6_speed*%
X129540000Y-64770000D03*
%TD*%
D12*
%TO.P,U4,1,QB*%
%TO.N,/motor5_B*%
X108800000Y-66040000D03*
D13*
%TO.P,U4,2,QC*%
%TO.N,/motor6_A*%
X108800000Y-63500000D03*
%TO.P,U4,3,QD*%
%TO.N,/motor6_B*%
X108800000Y-60960000D03*
%TO.P,U4,4,QE*%
%TO.N,unconnected-(U4-QE-Pad4)*%
X108800000Y-58420000D03*
%TO.P,U4,5,QF*%
%TO.N,unconnected-(U4-QF-Pad5)*%
X108800000Y-55880000D03*
%TO.P,U4,6,QG*%
%TO.N,unconnected-(U4-QG-Pad6)*%
X108800000Y-53340000D03*
%TO.P,U4,7,QH*%
%TO.N,unconnected-(U4-QH-Pad7)*%
X108800000Y-50800000D03*
%TO.P,U4,8,GND*%
%TO.N,GND*%
X108800000Y-48260000D03*
%TO.P,U4,9,QH'*%
%TO.N,unconnected-(U4-QH'-Pad9)*%
X101180000Y-48260000D03*
%TO.P,U4,10,~{SRCLR}*%
%TO.N,+5V*%
X101180000Y-50800000D03*
%TO.P,U4,11,SRCLK*%
%TO.N,/595SCLK*%
X101180000Y-53340000D03*
%TO.P,U4,12,RCLK*%
%TO.N,/595RCLK*%
X101180000Y-55880000D03*
%TO.P,U4,13,~{OE}*%
%TO.N,GND*%
X101180000Y-58420000D03*
%TO.P,U4,14,SER*%
%TO.N,Net-(U3-QH')*%
X101180000Y-60960000D03*
%TO.P,U4,15,QA*%
%TO.N,/motor5_A*%
X101180000Y-63500000D03*
%TO.P,U4,16,VCC*%
%TO.N,+5V*%
X101180000Y-66040000D03*
%TD*%
D12*
%TO.P,C2,1*%
%TO.N,+12V*%
X129540000Y-48260000D03*
D16*
%TO.P,C2,2*%
%TO.N,GND*%
X129540000Y-50760000D03*
%TD*%
D10*
%TO.P,J3,1,Pin_1*%
%TO.N,GND*%
X113030000Y-78740000D03*
D11*
%TO.P,J3,2,Pin_2*%
%TO.N,/esp32_TX*%
X115570000Y-78740000D03*
%TO.P,J3,3,Pin_3*%
%TO.N,/esp32_RX*%
X118110000Y-78740000D03*
%TO.P,J3,4,Pin_4*%
%TO.N,unconnected-(J3-Pin_4-Pad4)*%
X120650000Y-78740000D03*
%TO.P,J3,5,Pin_5*%
%TO.N,GND*%
X123190000Y-78740000D03*
%TO.P,J3,6,Pin_6*%
%TO.N,/esp32_GPI0*%
X125730000Y-78740000D03*
%TO.P,J3,7,Pin_7*%
%TO.N,unconnected-(J3-Pin_7-Pad7)*%
X128270000Y-78740000D03*
%TO.P,J3,8,Pin_8*%
%TO.N,unconnected-(J3-Pin_8-Pad8)*%
X130810000Y-78740000D03*
%TD*%
D10*
%TO.P,J11,1,Pin_1*%
%TO.N,/nano_D9*%
X100330000Y-85090000D03*
D11*
%TO.P,J11,2,Pin_2*%
%TO.N,+5V*%
X102870000Y-85090000D03*
%TO.P,J11,3,Pin_3*%
%TO.N,GND*%
X105410000Y-85090000D03*
%TD*%
D16*
%TO.P,R4,1*%
%TO.N,Net-(D3-K)*%
X129540000Y-71120000D03*
D13*
%TO.P,R4,2*%
%TO.N,GND*%
X119380000Y-71120000D03*
%TD*%
D19*
%TO.P,U2,1,VI*%
%TO.N,+12V*%
X40005000Y-71120000D03*
D20*
%TO.P,U2,2,GND*%
%TO.N,GND*%
X42545000Y-71120000D03*
%TO.P,U2,3,VO*%
%TO.N,+5V*%
X45085000Y-71120000D03*
%TD*%
D10*
%TO.P,J2,1,Pin_1*%
%TO.N,+5V*%
X130708400Y-88849200D03*
D11*
%TO.P,J2,2,Pin_2*%
%TO.N,GND*%
X128168400Y-88849200D03*
%TO.P,J2,3,Pin_3*%
%TO.N,unconnected-(J2-Pin_3-Pad3)*%
X125628400Y-88849200D03*
%TO.P,J2,4,Pin_4*%
%TO.N,/SCL*%
X123088400Y-88849200D03*
%TO.P,J2,5,Pin_5*%
%TO.N,/SDA*%
X120548400Y-88849200D03*
%TO.P,J2,6,Pin_6*%
%TO.N,unconnected-(J2-Pin_6-Pad6)*%
X118008400Y-88849200D03*
%TO.P,J2,7,Pin_7*%
%TO.N,unconnected-(J2-Pin_7-Pad7)*%
X115468400Y-88849200D03*
%TO.P,J2,8,Pin_8*%
%TO.N,unconnected-(J2-Pin_8-Pad8)*%
X112928400Y-88849200D03*
%TD*%
D17*
%TO.P,D1,1,K*%
%TO.N,Net-(D1-K)*%
X42545000Y-86995000D03*
D18*
%TO.P,D1,2,A*%
%TO.N,/wheel_speed*%
X42545000Y-89535000D03*
%TD*%
D10*
%TO.P,J12,1,Pin_1*%
%TO.N,/nano_D12*%
X100330000Y-88900000D03*
D11*
%TO.P,J12,2,Pin_2*%
%TO.N,+5V*%
X102870000Y-88900000D03*
%TO.P,J12,3,Pin_3*%
%TO.N,GND*%
X105410000Y-88900000D03*
%TD*%
D12*
%TO.P,A1,1,D1/TX*%
%TO.N,Net-(A1-D1{slash}TX)*%
X90170000Y-73670000D03*
D13*
%TO.P,A1,2,D0/RX*%
%TO.N,/nano_RX*%
X87630000Y-73670000D03*
%TO.P,A1,3,~{RESET}*%
%TO.N,/nano_reset*%
X85090000Y-73670000D03*
%TO.P,A1,4,GND*%
%TO.N,GND*%
X82550000Y-73670000D03*
%TO.P,A1,5,D2*%
%TO.N,/nano_D2*%
X80010000Y-73670000D03*
%TO.P,A1,6,D3*%
%TO.N,/wheel_speed*%
X77470000Y-73670000D03*
%TO.P,A1,7,D4*%
%TO.N,/signal_595*%
X74930000Y-73670000D03*
%TO.P,A1,8,D5*%
%TO.N,/nano_D5*%
X72390000Y-73670000D03*
%TO.P,A1,9,D6*%
%TO.N,/nano_D6*%
X69850000Y-73670000D03*
%TO.P,A1,10,D7*%
%TO.N,/595SCLK*%
X67310000Y-73670000D03*
%TO.P,A1,11,D8*%
%TO.N,/595RCLK*%
X64770000Y-73670000D03*
%TO.P,A1,12,D9*%
%TO.N,/nano_D9*%
X62230000Y-73670000D03*
%TO.P,A1,13,D10*%
%TO.N,/motor5_speed*%
X59690000Y-73670000D03*
%TO.P,A1,14,D11*%
%TO.N,/motor6_speed*%
X57150000Y-73670000D03*
%TO.P,A1,15,D12*%
%TO.N,/nano_D12*%
X54610000Y-73670000D03*
%TO.P,A1,16,D13*%
%TO.N,/nano_D13*%
X54610000Y-88910000D03*
%TO.P,A1,17,3V3*%
%TO.N,unconnected-(A1-3V3-Pad17)*%
X57150000Y-88910000D03*
%TO.P,A1,18,AREF*%
%TO.N,unconnected-(A1-AREF-Pad18)*%
X59690000Y-88910000D03*
%TO.P,A1,19,A0*%
%TO.N,/nano_A0*%
X62230000Y-88910000D03*
%TO.P,A1,20,A1*%
%TO.N,/nano_A1*%
X64770000Y-88910000D03*
%TO.P,A1,21,A2*%
%TO.N,/nano_A2*%
X67310000Y-88910000D03*
%TO.P,A1,22,A3*%
%TO.N,/nano_A3*%
X69850000Y-88910000D03*
%TO.P,A1,23,A4*%
%TO.N,/SDA*%
X72390000Y-88910000D03*
%TO.P,A1,24,A5*%
%TO.N,/SCL*%
X74930000Y-88910000D03*
%TO.P,A1,25,A6*%
%TO.N,/nano_A6*%
X77470000Y-88910000D03*
%TO.P,A1,26,A7*%
%TO.N,/nano_A7*%
X80010000Y-88910000D03*
%TO.P,A1,27,+5V*%
%TO.N,+5V*%
X82550000Y-88910000D03*
%TO.P,A1,28,~{RESET}*%
%TO.N,unconnected-(A1-~{RESET}-Pad28)*%
X85090000Y-88910000D03*
%TO.P,A1,29,GND*%
%TO.N,GND*%
X87630000Y-88910000D03*
%TO.P,A1,30,VIN*%
%TO.N,unconnected-(A1-VIN-Pad30)*%
X90170000Y-88910000D03*
%TD*%
D16*
%TO.P,R3,1*%
%TO.N,Net-(D2-K)*%
X120650000Y-43815000D03*
D13*
%TO.P,R3,2*%
%TO.N,GND*%
X130810000Y-43815000D03*
%TD*%
D16*
%TO.P,R1,1*%
%TO.N,/nano_TX*%
X101600000Y-69850000D03*
D13*
%TO.P,R1,2*%
%TO.N,Net-(A1-D1{slash}TX)*%
X91440000Y-69850000D03*
%TD*%
D16*
%TO.P,C3,2*%
%TO.N,GND*%
X96520000Y-48220000D03*
D12*
%TO.P,C3,1*%
%TO.N,+12V*%
X96520000Y-45720000D03*
%TD*%
D10*
%TO.P,J9,1,Pin_1*%
%TO.N,/nano_D5*%
X100330000Y-77470000D03*
D11*
%TO.P,J9,2,Pin_2*%
%TO.N,+5V*%
X102870000Y-77470000D03*
%TO.P,J9,3,Pin_3*%
%TO.N,GND*%
X105410000Y-77470000D03*
%TD*%
D14*
%TO.P,J20,1,Pin_1*%
%TO.N,/tilt+*%
X136677400Y-63460000D03*
D15*
%TO.P,J20,2,Pin_2*%
%TO.N,/tilt-*%
X136677400Y-58460000D03*
%TD*%
D10*
%TO.P,J10,1,Pin_1*%
%TO.N,/nano_D6*%
X100330000Y-81280000D03*
D11*
%TO.P,J10,2,Pin_2*%
%TO.N,+5V*%
X102870000Y-81280000D03*
%TO.P,J10,3,Pin_3*%
%TO.N,GND*%
X105410000Y-81280000D03*
%TD*%
D12*
%TO.P,U5,1,EN1\u002C2*%
%TO.N,/wheel_speed*%
X50800000Y-48412400D03*
D13*
%TO.P,U5,2,1A*%
%TO.N,/motor3_A*%
X50800000Y-50952400D03*
%TO.P,U5,3,1Y*%
%TO.N,/motorLB+*%
X50800000Y-53492400D03*
%TO.P,U5,4,GND*%
%TO.N,GND*%
X50800000Y-56032400D03*
%TO.P,U5,5,GND*%
X50800000Y-58572400D03*
%TO.P,U5,6,2Y*%
%TO.N,/motorLB-*%
X50800000Y-61112400D03*
%TO.P,U5,7,2A*%
%TO.N,/motor3_B*%
X50800000Y-63652400D03*
%TO.P,U5,8,VCC2*%
%TO.N,+5V*%
X50800000Y-66192400D03*
%TO.P,U5,9,EN3\u002C4*%
%TO.N,/wheel_speed*%
X58420000Y-66192400D03*
%TO.P,U5,10,3A*%
%TO.N,/motor4_A*%
X58420000Y-63652400D03*
%TO.P,U5,11,3Y*%
%TO.N,/motorRB+*%
X58420000Y-61112400D03*
%TO.P,U5,12,GND*%
%TO.N,GND*%
X58420000Y-58572400D03*
%TO.P,U5,13,GND*%
X58420000Y-56032400D03*
%TO.P,U5,14,4Y*%
%TO.N,/motorRB-*%
X58420000Y-53492400D03*
%TO.P,U5,15,4A*%
%TO.N,/motor4_B*%
X58420000Y-50952400D03*
%TO.P,U5,16,VCC1*%
%TO.N,+12V*%
X58420000Y-48412400D03*
%TD*%
D10*
%TO.P,J13,1,Pin_1*%
%TO.N,/nano_D13*%
X100330000Y-92710000D03*
D11*
%TO.P,J13,2,Pin_2*%
%TO.N,+5V*%
X102870000Y-92710000D03*
%TO.P,J13,3,Pin_3*%
%TO.N,GND*%
X105410000Y-92710000D03*
%TD*%
D14*
%TO.P,J17,1,Pin_1*%
%TO.N,/motorLB+*%
X42545000Y-43220000D03*
D15*
%TO.P,J17,2,Pin_2*%
%TO.N,/motorLB-*%
X42545000Y-48220000D03*
%TD*%
D12*
%TO.P,U6,1,EN1\u002C2*%
%TO.N,/wheel_speed*%
X83820000Y-48260000D03*
D13*
%TO.P,U6,2,1A*%
%TO.N,/motor1_A*%
X83820000Y-50800000D03*
%TO.P,U6,3,1Y*%
%TO.N,/motorLF+*%
X83820000Y-53340000D03*
%TO.P,U6,4,GND*%
%TO.N,GND*%
X83820000Y-55880000D03*
%TO.P,U6,5,GND*%
X83820000Y-58420000D03*
%TO.P,U6,6,2Y*%
%TO.N,/motorLF-*%
X83820000Y-60960000D03*
%TO.P,U6,7,2A*%
%TO.N,/motor1_B*%
X83820000Y-63500000D03*
%TO.P,U6,8,VCC2*%
%TO.N,+5V*%
X83820000Y-66040000D03*
%TO.P,U6,9,EN3\u002C4*%
%TO.N,/wheel_speed*%
X91440000Y-66040000D03*
%TO.P,U6,10,3A*%
%TO.N,/motor2_A*%
X91440000Y-63500000D03*
%TO.P,U6,11,3Y*%
%TO.N,/motorRF+*%
X91440000Y-60960000D03*
%TO.P,U6,12,GND*%
%TO.N,GND*%
X91440000Y-58420000D03*
%TO.P,U6,13,GND*%
X91440000Y-55880000D03*
%TO.P,U6,14,4Y*%
%TO.N,/motorRF-*%
X91440000Y-53340000D03*
%TO.P,U6,15,4A*%
%TO.N,/motor2_B*%
X91440000Y-50800000D03*
%TO.P,U6,16,VCC1*%
%TO.N,+12V*%
X91440000Y-48260000D03*
%TD*%
D10*
%TO.P,J5,1,Pin_1*%
%TO.N,/nano_TX*%
X111125000Y-71120000D03*
D11*
%TO.P,J5,2,Pin_2*%
%TO.N,/esp32_RX*%
X113665000Y-71120000D03*
%TD*%
D14*
%TO.P,J1,1,Pin_1*%
%TO.N,+12V*%
X42545000Y-55880000D03*
D15*
%TO.P,J1,2,Pin_2*%
%TO.N,GND*%
X42545000Y-60880000D03*
%TD*%
D17*
%TO.P,D2,1,K*%
%TO.N,Net-(D2-K)*%
X121925000Y-39370000D03*
D18*
%TO.P,D2,2,A*%
%TO.N,/motor5_speed*%
X119385000Y-39370000D03*
%TD*%
D14*
%TO.P,J19,1,Pin_1*%
%TO.N,/shoot+*%
X115337600Y-37617400D03*
D15*
%TO.P,J19,2,Pin_2*%
%TO.N,/shoot-*%
X110337600Y-37617400D03*
%TD*%
D10*
%TO.P,J8,1,Pin_1*%
%TO.N,/nano_D2*%
X100330000Y-73660000D03*
D11*
%TO.P,J8,2,Pin_2*%
%TO.N,+5V*%
X102870000Y-73660000D03*
%TO.P,J8,3,Pin_3*%
%TO.N,GND*%
X105410000Y-73660000D03*
%TD*%
D21*
%TO.N,*%
X39370000Y-93980000D03*
X40005000Y-36830000D03*
X136525000Y-93980000D03*
X136525000Y-37465000D03*
%TD*%
D22*
%TO.N,+5V*%
X101180000Y-66040000D02*
X99568000Y-67652000D01*
X99568000Y-67652000D02*
X99568000Y-70040500D01*
X99568000Y-70040500D02*
X102870000Y-73342500D01*
X102870000Y-73342500D02*
X102870000Y-73660000D01*
D23*
%TO.N,/motor6_speed*%
X129540000Y-64770000D02*
X135255000Y-70485000D01*
X135255000Y-70485000D02*
X135255000Y-86707400D01*
X95963896Y-83820000D02*
X61595000Y-83820000D01*
X130522400Y-91440000D02*
X109855000Y-91440000D01*
X135255000Y-86707400D02*
X130522400Y-91440000D01*
X109855000Y-91440000D02*
X109220000Y-90805000D01*
X109220000Y-90805000D02*
X109220000Y-87630000D01*
X61595000Y-83820000D02*
X57150000Y-79375000D01*
X109220000Y-87630000D02*
X108585000Y-86995000D01*
X108585000Y-86995000D02*
X99138896Y-86995000D01*
X99138896Y-86995000D02*
X95963896Y-83820000D01*
X57150000Y-79375000D02*
X57150000Y-73670000D01*
D22*
%TO.N,/nano_reset*%
X85090000Y-73670000D02*
X85090000Y-69850000D01*
%TO.N,GND*%
X83820000Y-55880000D02*
X83820000Y-58420000D01*
X116840000Y-58420000D02*
X119380000Y-60960000D01*
X63500000Y-66040000D02*
X62230000Y-64770000D01*
X91440000Y-55880000D02*
X91440000Y-58420000D01*
X115570000Y-81280000D02*
X113030000Y-78740000D01*
X105410000Y-92710000D02*
X105410000Y-93980000D01*
X70386600Y-66040000D02*
X68580000Y-66040000D01*
X42545000Y-74295000D02*
X42545000Y-70545500D01*
X103979000Y-91279000D02*
X89999000Y-91279000D01*
X89999000Y-91279000D02*
X87630000Y-88910000D01*
X105410000Y-62650000D02*
X105410000Y-73660000D01*
X58420000Y-95885000D02*
X42545000Y-80010000D01*
X68580000Y-66040000D02*
X63500000Y-66040000D01*
X42545000Y-80010000D02*
X42545000Y-74295000D01*
X101180000Y-58420000D02*
X105410000Y-62650000D01*
X62230000Y-62382400D02*
X58420000Y-58572400D01*
X120650000Y-81280000D02*
X115570000Y-81280000D01*
X76200000Y-55880000D02*
X71021600Y-61058400D01*
X119380000Y-60960000D02*
X119380000Y-71120000D01*
X82550000Y-69850000D02*
X82550000Y-73670000D01*
X105410000Y-92710000D02*
X103979000Y-91279000D01*
X105410000Y-93980000D02*
X103505000Y-95885000D01*
X123190000Y-78740000D02*
X120650000Y-81280000D01*
X62230000Y-64770000D02*
X62230000Y-62382400D01*
X103505000Y-95885000D02*
X58420000Y-95885000D01*
X71021600Y-65405000D02*
X70386600Y-66040000D01*
X71021600Y-61058400D02*
X71021600Y-65405000D01*
D23*
%TO.N,/nano_D2*%
X95885000Y-75565000D02*
X81905000Y-75565000D01*
X100330000Y-73660000D02*
X97790000Y-73660000D01*
X97790000Y-73660000D02*
X95885000Y-75565000D01*
X81905000Y-75565000D02*
X80010000Y-73670000D01*
%TO.N,/wheel_speed*%
X86360000Y-50800000D02*
X86360000Y-63500000D01*
X83820000Y-48260000D02*
X86360000Y-50800000D01*
X86360000Y-63500000D02*
X88900000Y-66040000D01*
X58420000Y-66192400D02*
X52705000Y-60477400D01*
X88900000Y-66040000D02*
X91440000Y-66040000D01*
X38735000Y-68580000D02*
X38100000Y-69215000D01*
X38100000Y-69215000D02*
X38100000Y-85090000D01*
X38100000Y-85090000D02*
X42545000Y-89535000D01*
X52705000Y-50317400D02*
X50800000Y-48412400D01*
X56032400Y-68580000D02*
X38735000Y-68580000D01*
X58420000Y-66192400D02*
X56032400Y-68580000D01*
X52705000Y-60477400D02*
X52705000Y-50317400D01*
%TO.N,/signal_595*%
X78105000Y-55245000D02*
X76200000Y-53340000D01*
X74930000Y-73670000D02*
X78105000Y-70495000D01*
X78105000Y-70495000D02*
X78105000Y-55245000D01*
%TO.N,/nano_D5*%
X72390000Y-75565000D02*
X74295000Y-77470000D01*
X74295000Y-77470000D02*
X100330000Y-77470000D01*
X72390000Y-73670000D02*
X72390000Y-75565000D01*
%TO.N,/nano_D6*%
X69850000Y-73670000D02*
X69850000Y-75565000D01*
X75565000Y-81280000D02*
X100330000Y-81280000D01*
X69850000Y-75565000D02*
X75565000Y-81280000D01*
%TO.N,/595SCLK*%
X74295000Y-66685000D02*
X67310000Y-73670000D01*
X74295000Y-62865000D02*
X74295000Y-66685000D01*
X76200000Y-60960000D02*
X74295000Y-62865000D01*
%TO.N,/595RCLK*%
X73025000Y-61595000D02*
X76200000Y-58420000D01*
X73025000Y-66040000D02*
X73025000Y-61595000D01*
X65395000Y-73670000D02*
X73025000Y-66040000D01*
X64770000Y-73670000D02*
X65395000Y-73670000D01*
%TO.N,/nano_D9*%
X97790000Y-82550000D02*
X65717500Y-82550000D01*
X65717500Y-82550000D02*
X62230000Y-79062500D01*
X100330000Y-85090000D02*
X97790000Y-82550000D01*
X62230000Y-79062500D02*
X62230000Y-73670000D01*
%TO.N,/motor5_speed*%
X119385000Y-39370000D02*
X119385000Y-40635000D01*
X119385000Y-40635000D02*
X116840000Y-43180000D01*
X116840000Y-43180000D02*
X116840000Y-48260000D01*
%TO.N,/nano_D12*%
X60325000Y-85090000D02*
X92075000Y-85090000D01*
X95885000Y-88900000D02*
X100330000Y-88900000D01*
X92075000Y-85090000D02*
X95885000Y-88900000D01*
X54610000Y-79375000D02*
X60325000Y-85090000D01*
X54610000Y-73670000D02*
X54610000Y-79375000D01*
%TO.N,/nano_D13*%
X59612400Y-93912400D02*
X99127600Y-93912400D01*
X99127600Y-93912400D02*
X100330000Y-92710000D01*
X54610000Y-88910000D02*
X59612400Y-93912400D01*
D22*
%TO.N,+5V*%
X97790000Y-62650000D02*
X97790000Y-53447500D01*
X99275000Y-67945000D02*
X85725000Y-67945000D01*
X82550000Y-88910000D02*
X80098400Y-86458400D01*
X85725000Y-67945000D02*
X83820000Y-66040000D01*
X101180000Y-66040000D02*
X97790000Y-62650000D01*
X80098400Y-86458400D02*
X55978400Y-86458400D01*
X101180000Y-66040000D02*
X99275000Y-67945000D01*
X55978400Y-86458400D02*
X45085000Y-75565000D01*
X45085000Y-75565000D02*
X45085000Y-71120000D01*
X100437500Y-50800000D02*
X101180000Y-50800000D01*
X97790000Y-53447500D02*
X100437500Y-50800000D01*
%TO.N,/motorLF+*%
X81915000Y-48260000D02*
X81915000Y-51435000D01*
X73685400Y-37236400D02*
X73685400Y-40030400D01*
X81915000Y-51435000D02*
X83820000Y-53340000D01*
X73685400Y-40030400D02*
X81915000Y-48260000D01*
%TO.N,/motorLF-*%
X80645000Y-49196000D02*
X80645000Y-57785000D01*
X80645000Y-57785000D02*
X83820000Y-60960000D01*
X68685400Y-37236400D02*
X80645000Y-49196000D01*
D23*
%TO.N,/motor1_B*%
X71120000Y-48260000D02*
X68580000Y-48260000D01*
X74930000Y-52070000D02*
X71120000Y-48260000D01*
X79375000Y-53975000D02*
X77470000Y-52070000D01*
X79375000Y-59055000D02*
X79375000Y-53975000D01*
X83820000Y-63500000D02*
X79375000Y-59055000D01*
X77470000Y-52070000D02*
X74930000Y-52070000D01*
%TO.N,/motor2_A*%
X66675000Y-48895000D02*
X68580000Y-50800000D01*
X88900000Y-63500000D02*
X88265000Y-62865000D01*
X75087800Y-35834000D02*
X68104506Y-35834000D01*
X88265000Y-62865000D02*
X88265000Y-49011200D01*
X88265000Y-49011200D02*
X75087800Y-35834000D01*
X66675000Y-37263506D02*
X66675000Y-48895000D01*
X91440000Y-63500000D02*
X88900000Y-63500000D01*
X68104506Y-35834000D02*
X66675000Y-37263506D01*
D22*
%TO.N,/motorRF+*%
X94615000Y-57785000D02*
X91440000Y-60960000D01*
X94615000Y-39141400D02*
X94615000Y-57785000D01*
X96520000Y-37236400D02*
X94615000Y-39141400D01*
%TO.N,/motorRF-*%
X91440000Y-53340000D02*
X90059000Y-51959000D01*
X90059000Y-51959000D02*
X90059000Y-38697400D01*
X90059000Y-38697400D02*
X91520000Y-37236400D01*
D23*
%TO.N,/motor4_B*%
X59572400Y-54492400D02*
X68580000Y-63500000D01*
X59572400Y-52104800D02*
X59572400Y-54492400D01*
X58420000Y-50952400D02*
X59572400Y-52104800D01*
D22*
%TO.N,/motorLB+*%
X50800000Y-53492400D02*
X42545000Y-45237400D01*
X42545000Y-45237400D02*
X42545000Y-43220000D01*
D23*
%TO.N,Net-(D1-K)*%
X42545000Y-84455000D02*
X42545000Y-86995000D01*
D22*
%TO.N,/motorRB+*%
X53975000Y-56667400D02*
X58420000Y-61112400D01*
X51077100Y-37283200D02*
X53975000Y-40181100D01*
X53975000Y-40181100D02*
X53975000Y-56667400D01*
%TO.N,/motorRB-*%
X56077100Y-51149500D02*
X58420000Y-53492400D01*
X56077100Y-37283200D02*
X56077100Y-51149500D01*
%TO.N,/shoot+*%
X115337600Y-37617400D02*
X114300000Y-38655000D01*
X114300000Y-50800000D02*
X116840000Y-53340000D01*
X114300000Y-38655000D02*
X114300000Y-50800000D01*
%TO.N,/shoot-*%
X110337600Y-37617400D02*
X111760000Y-39039800D01*
X111760000Y-39039800D02*
X111760000Y-55880000D01*
X111760000Y-55880000D02*
X116840000Y-60960000D01*
%TO.N,/tilt-*%
X131557400Y-53340000D02*
X136677400Y-58460000D01*
X124460000Y-53340000D02*
X131557400Y-53340000D01*
%TO.N,/motorLB-*%
X42545000Y-52857400D02*
X50800000Y-61112400D01*
X42545000Y-48220000D02*
X42545000Y-52857400D01*
%TD*%
M02*
